<svg width="1379" height="111" viewBox="0 0 1379 111" fill="none" xmlns="http://www.w3.org/2000/svg">
<g clip-path="url(#clip0_131_717)">
<path d="M1203.6 11.4615C1210.51 8.92575 1217.85 7.26908 1223.28 2.19766C1225.34 0.247974 1226.1 -4.12472 1222.14 -4.80091C1213.62 -6.27726 1204.82 -0.867737 1197.41 2.13004C1184 7.52829 1170.23 12.0362 1156.89 17.6486C1142.25 23.8019 1128.25 31.3189 1113.87 37.9907C1098.79 45.0005 1083.3 48.2124 1066.79 50.8608C1037.15 55.6167 1007.96 59.0202 977.539 57.8143C961.423 57.1945 945.362 55.797 929.257 53.9826C921.446 53.0923 913.748 52.3034 905.925 52.0329C902.554 51.8751 899.193 51.8638 895.844 52.0104C892.641 52.078 890.888 51.0524 889.989 49.5084C895.327 42.8931 900.992 36.6383 906.802 30.3159C924.267 11.36 946.003 -14.3239 972.538 -20.0152C997.679 -25.4022 1025.51 -21.2436 1051.2 -16.5441C1052.23 -16.3525 1053.27 -16.1384 1054.31 -15.913C1037.85 -25.7065 1019.98 -33.3249 1001.17 -39.0049C993.217 -38.6668 985.215 -38.4301 977.247 -38.7908C973.212 -38.9711 968.818 -38.0131 964.862 -37.5961C950.566 -36.0747 961.187 -43.1635 967.469 -47.0515C959.49 -48.4828 951.42 -49.6323 943.272 -50.5001C927.245 -39.3881 911.916 -27.4984 896.215 -15.7552C879.953 -3.54996 866.635 12.0926 850.552 24.5458C831.963 38.9373 810.16 45.4288 786.738 49.1365C778.433 50.4438 770.071 51.3905 761.687 52.1005C753.348 53.25 744.963 54.1065 736.568 54.8053C729.679 55.38 722.834 56.6873 715.934 57.2846C709.235 57.8707 702.526 58.2989 695.816 58.5356C681.903 59.0315 667.978 58.9639 654.053 58.7272C648.861 58.637 643.657 58.5243 638.453 58.4116C619.662 59.2907 600.815 59.7978 582.113 59.3696C580.045 59.3245 577.989 59.3019 575.932 59.2907C574.055 59.4485 572.178 59.6175 570.313 59.8091C517.277 65.2637 464.061 65.5567 410.845 63.19C380.95 61.8602 41.8982 39.1965 12.1491 35.7818C11.9468 35.9508 11.7782 36.0973 11.6771 36.1762C5.23725 41.845 -0.146128 51.7399 -2.39296e-05 60.5078C0.14608 69.0729 5.22602 75.0797 10.4296 81.1091C35.346 81.8191 369.385 103.288 394.302 103.66C428.895 104.178 463.432 102.015 497.98 100.572C532.932 99.107 567.728 99.5916 602.68 100.662C637.925 101.744 673.193 102.916 708.46 102.127C743.255 101.35 777.893 98.0364 812.565 95.1062C871.939 90.0912 931.494 89.0543 990.733 82.2023C1017.8 79.0692 1044.53 73.5358 1071.68 71.1015C1105.11 68.1037 1139.04 70.5718 1172.78 72.0143C1185.41 72.5891 1198.77 71.8115 1211.17 70.2675C1217.13 69.535 1218.69 63.0999 1219.03 58.0848C1219.15 56.4507 1217.86 54.3883 1216.24 53.8473C1211.38 52.1907 1206.41 51.6948 1201.39 51.9653C1190.06 52.5739 1178.99 50.5678 1167.64 50.1283C1159.46 49.824 1151.25 49.1704 1143.1 49.5197C1141.28 49.6099 1133.01 50.9848 1127.5 50.9059C1140.54 40.5489 1157.08 33.2235 1171.35 26.0446C1181.89 20.7478 1192.49 15.5975 1203.6 11.4615Z" fill="#AA6926"/>
<g style="mix-blend-mode:screen">
<path d="M850.541 24.5458C831.952 38.9374 810.149 45.4288 786.727 49.1366C778.422 50.4439 770.06 51.3905 761.676 52.1005C753.336 53.2501 744.952 54.1066 736.557 54.8053C729.668 55.38 722.823 56.6874 715.923 57.2847C709.224 57.8707 702.515 58.299 695.805 58.5356C681.891 59.0315 667.967 58.9639 654.042 58.7272C648.849 58.637 643.646 58.5243 638.442 58.4116C619.651 59.2907 600.804 59.7978 582.102 59.3696C580.034 59.3245 577.978 59.302 575.921 59.2907C574.044 59.4485 572.167 59.6175 570.302 59.8091C517.266 65.2637 464.05 65.5567 410.834 63.19C380.939 61.8602 41.8871 39.1966 12.138 35.7818C11.9357 35.9508 11.7671 36.0973 11.666 36.1762C8.95744 38.5767 6.45119 41.721 4.45068 45.2259C7.6987 45.5527 10.9355 45.8683 14.1947 46.1275C54.261 49.362 403.608 70.0647 443.73 72.1721C454.991 71.7213 466.253 71.6424 477.525 71.6988C497.744 71.8002 517.985 72.2735 538.203 71.6988C558.534 71.124 578.865 70.5831 599.185 70.0421C639.937 68.9602 680.711 67.6867 721.373 64.5312C742.008 62.9308 762.305 59.9105 782.726 56.5634C799.55 53.8023 818.117 53.8248 833.211 44.9104C849.642 35.207 862.038 20.1618 873.513 5.20671C874.772 3.56132 876.087 1.98354 877.435 0.439575C868.658 8.6891 860.094 17.1753 850.575 24.557L850.541 24.5458Z" fill="#995336"/>
</g>
<g style="mix-blend-mode:screen">
<path d="M977.517 57.8143C961.4 57.1945 945.34 55.797 929.235 53.9826C921.424 53.0923 913.725 52.3034 905.903 52.0329C902.531 51.8751 899.171 51.8638 895.822 52.0103C892.821 52.078 891.101 51.1651 890.157 49.7902C885.977 50.5791 881.773 50.951 877.514 50.9285C867.725 50.8721 857.733 49.0802 847.956 50.0945C838.133 51.1088 829.344 55.0757 819.949 57.7016C812.576 59.764 804.855 60.6656 797.617 63.19C807.462 63.8211 817.229 60.3275 826.86 58.7723C837.447 57.0705 848.518 56.7211 859.228 56.4619C870.298 56.2027 881.335 56.755 892.282 58.4454C903.071 60.1134 913.691 62.6603 924.458 64.5086C933.798 66.1089 943.294 67.2472 952.78 66.7513C961.681 66.2892 970.56 64.8242 979.427 63.9226C996.892 62.1419 1014.4 60.7445 1031.81 58.344C1045.94 56.4056 1059.93 53.6896 1073.48 49.7451C1071.26 50.1396 1069.02 50.5115 1066.78 50.8721C1037.14 55.628 1007.95 59.0315 977.528 57.8256L977.517 57.8143Z" fill="#995336"/>
</g>
<g style="mix-blend-mode:multiply" opacity="0.4">
<path d="M1041.95 -22.7425C1036.08 -23.6328 1030.23 -24.433 1024.33 -25.0866C1008.24 -26.8673 990.542 -30.7666 974.606 -28.8733C941.204 -24.9514 918.895 0.304306 901.531 20.6802C894.754 28.6254 888.786 38.4076 878.582 43.851C875.109 45.6879 870.939 46.5107 866.612 46.8713C874.502 48.4941 882.481 49.2154 890.405 49.0126C895.62 42.5775 901.138 36.4918 906.791 30.3272C924.256 11.3713 945.992 -14.3127 972.527 -20.004C997.668 -25.3909 1025.5 -21.2324 1051.19 -16.5328C1052.22 -16.3413 1053.25 -16.1271 1054.3 -15.9017C1050.27 -18.3022 1046.15 -20.59 1041.95 -22.7313V-22.7425Z" fill="#551B14"/>
</g>
<g style="mix-blend-mode:multiply" opacity="0.4">
<path d="M1162.5 22.7313C1142.23 31.3753 1124.64 43.1522 1104.71 52.1681C1114.3 52.2357 1123.14 49.9592 1131.99 47.57C1144.2 38.9373 1158.67 32.4234 1171.36 26.0334C1181.91 20.7365 1192.5 15.5862 1203.61 11.4502C1210.52 8.91446 1217.86 7.2578 1223.29 2.18637C1224.62 0.935414 1225.38 -1.31855 1224.73 -2.94141C1216.58 0.123991 1209.11 4.40653 1201.2 7.6297C1188.41 12.8364 1175.18 17.3105 1162.52 22.7087L1162.5 22.7313Z" fill="#5F4323"/>
</g>
<g style="mix-blend-mode:screen" opacity="0.4">
<path d="M1037.49 57.9721C1024.07 58.0172 1012.47 62.4913 998.713 61.3305C984.912 60.1697 972.201 59.5499 958.422 59.5273C945.778 59.5048 933.269 59.054 920.626 58.7835C908.904 58.5356 897.665 64.0127 886.145 64.8467C885.516 64.9031 883.2 66.5823 884.403 66.7626C892.349 68.0361 900.868 67.4839 908.634 66.5823C919.884 65.2975 933.629 67.7769 945.306 68.0135C977.157 68.6108 1005.59 61.4658 1036.5 59.2456C1037.07 59.2005 1038.44 57.9609 1037.49 57.9721Z" fill="#5F4323"/>
</g>
<g style="mix-blend-mode:multiply" opacity="0.4">
<g style="mix-blend-mode:multiply" opacity="0.4">
<path d="M834.514 46.5895C851.687 46.7473 868.871 49.8465 885.932 50.703C869.31 47.153 852.811 43.6819 835.56 43.3664C824.871 43.186 814.15 45.6654 804.012 47.5362C795.662 49.0689 785.704 53.4641 776.376 54.7602C796.404 55.1095 814.172 46.4205 834.514 46.6008V46.5895Z" fill="#551B14"/>
</g>
</g>
<g style="mix-blend-mode:multiply" opacity="0.5">
<path d="M842.426 46.4543C847.978 46.5783 853.553 46.2064 859.093 46.522C862.701 46.7248 866.23 47.6827 869.826 48.0997C874.468 48.6294 879.132 48.8773 883.796 48.8773C886.055 48.8773 888.303 48.8435 890.562 48.7985C895.732 42.4423 901.194 36.4129 906.78 30.3159C924.245 11.36 945.98 -14.3239 972.515 -20.0152C997.656 -25.4022 1025.48 -21.2436 1051.18 -16.5441C1052.21 -16.3525 1053.24 -16.1384 1054.29 -15.913C1037.82 -25.7065 1019.95 -33.3249 1001.15 -39.0049C993.195 -38.6668 985.193 -38.4301 977.224 -38.7908C973.19 -38.9711 968.795 -38.0131 964.839 -37.5961C950.543 -36.0747 961.164 -43.1635 967.447 -47.0515C959.467 -48.4828 951.398 -49.6323 943.249 -50.5001C929.055 -40.6616 915.411 -30.2144 901.576 -19.8011C901.778 -19.88 901.969 -19.9701 902.172 -20.0377C909.072 -22.5847 917.996 -26.1798 925.155 -22.6411C925.391 -22.5284 925.526 -22.1903 925.436 -21.9423C924.132 -18.0542 922.132 -14.4479 919.715 -11.1571C910.803 1.00306 898.699 10.4697 888.876 21.8748C883.999 27.5435 878.907 33.5504 872.423 37.4385C865.915 41.3266 858.138 42.7916 850.72 43.8848C844.944 44.7301 839.111 45.3837 833.267 45.9134C836.481 46.5332 840.19 46.4093 842.415 46.4543H842.426Z" fill="#AA6926"/>
</g>
<g style="mix-blend-mode:multiply" opacity="0.5">
<path d="M1203.6 11.4614C1210.51 8.92571 1217.85 7.26904 1223.28 2.19762C1225.34 0.247933 1226.1 -4.12476 1222.14 -4.80095C1213.62 -6.2773 1204.82 -0.867778 1197.41 2.13C1184 7.52825 1170.23 12.0362 1156.89 17.6486C1146.92 21.8409 1137.24 26.6532 1127.54 31.4203C1127.86 31.6119 1128.02 32.0401 1127.64 32.3219C1111.85 44.8652 1092.44 52.1117 1073.09 57.0029C1051.55 62.4462 1029.45 65.4327 1007.36 67.5289C983.934 69.749 960.512 71.1465 937.147 73.9414C907.296 77.514 877.491 81.6725 847.506 84.0392C809.721 87.0257 771.655 86.6087 733.769 86.9694C695.423 87.3413 657.087 87.5216 618.74 87.7019C543.238 88.0513 467.601 87.6005 392.121 90.0911C365.969 90.9589 30.1311 71.8678 3.46143 71.9579C5.38326 75.2036 7.88951 78.1451 10.4407 81.109C35.3571 81.819 369.397 103.288 394.313 103.66C428.906 104.178 463.443 102.015 497.991 100.572C532.943 99.107 567.739 99.5916 602.691 100.662C637.936 101.744 673.204 102.916 708.471 102.127C743.266 101.35 777.904 98.0363 812.576 95.1062C871.95 90.0911 931.505 89.0543 990.744 82.2022C1017.81 79.0692 1044.54 73.5357 1071.69 71.1014C1105.12 68.1036 1139.05 70.5717 1172.79 72.0143C1185.42 72.589 1198.79 71.8114 1211.18 70.2674C1217.14 69.5349 1218.7 63.0998 1219.04 58.0848C1219.16 56.4506 1217.87 54.3883 1216.25 53.8473C1211.4 52.1906 1206.42 51.6948 1201.4 51.9652C1190.08 52.5738 1179.01 50.5678 1167.65 50.1283C1159.47 49.824 1151.26 49.1703 1143.11 49.5197C1141.29 49.6098 1133.02 50.9848 1127.51 50.9059C1140.55 40.5489 1157.09 33.2235 1171.36 26.0446C1181.91 20.7478 1192.5 15.5975 1203.61 11.4614H1203.6Z" fill="#AA6926"/>
</g>
<g style="mix-blend-mode:multiply" opacity="0.4">
<path d="M1153.95 62.7617C1140.65 62.0179 1127.34 60.5979 1114.01 60.6542C1102.22 60.6993 1090.59 62.5926 1078.76 62.5363C1078.49 62.5363 1077.99 63.2576 1078.29 63.2801C1089.77 64.3507 1100.77 63.4604 1112.27 63.5168C1118.98 63.5393 1126.15 62.1193 1132.77 63.1449C1139.28 64.1591 1146.68 64.0014 1153.27 63.8999C1153.68 63.8999 1154.41 62.7955 1153.97 62.7617H1153.95Z" fill="#551B14"/>
</g>
<path d="M1035.61 -5.22921C1035.27 -5.49969 1034.94 -5.77016 1034.58 -6.06318C1033.8 -6.62667 1032.99 -7.14508 1032.08 -7.58461C1027.32 -9.88365 1022.11 -10.8529 1017.29 -12.8927C1017.29 -12.8364 1017.27 -12.78 1017.3 -12.7124C1018.75 -10.1654 1018.56 -6.82952 1019.58 -4.0346C1020.74 -0.879049 1025.82 2.82873 1028.48 4.73333C1032.93 7.90016 1038.85 10.6725 1044.38 11.4051C1042.42 5.31936 1040.31 -1.14953 1035.61 -5.22921Z" fill="#1D3D0C"/>
<path d="M1019.74 -9.22999C1024.17 -5.9392 1028.45 -2.9865 1033.45 -0.664917C1039.09 0.484612 1044.96 1.17207 1050.76 1.08192C1052.91 -5.06015 1046.4 -12.9152 1041.71 -16.6568C1045.81 -16.8709 1050.12 -17.9529 1054.1 -16.9273C1054.49 -16.8259 1056.28 -16.9048 1055.91 -17.6936C1051.18 -27.9605 1041.66 -33.7983 1030.92 -33.956C1033.71 -35.083 1036.32 -36.5932 1038.86 -38.1935C1043.74 -41.2702 1049.13 -46.7811 1052.21 -51.7173C1052.27 -51.8413 1052.27 -51.9427 1052.19 -52.0554C1041.8 -62.3335 1020.82 -53.1824 1011.03 -42.7127C1013.95 -52.1681 1018.38 -61.6798 1011.85 -71C1006.92 -65.3313 1002.69 -58.761 1000.49 -51.7849C999.713 -45.5189 1002.29 -40.4475 1007.21 -36.5368C1007.55 -36.2663 1008.3 -36.1424 1008.99 -36.21C1012.09 -27.397 1012.08 -14.8987 1019.73 -9.21873L1019.74 -9.22999Z" fill="#70E000"/>
<path d="M1028.54 0.574707C1027.68 -5.74767 1023.65 -12.3631 1018.3 -15.9356C1023.04 -15.1016 1027.87 -15.0115 1032.63 -14.4593C1035.68 -14.8762 1038.75 -15.0566 1041.79 -15.3834C1039.59 -18.4488 1033.46 -23.6893 1032.36 -24.681C1028.17 -28.524 1023.36 -32.3107 1017.91 -34.1477C1021.97 -36.3115 1024.05 -40.3799 1025.11 -44.7751C1025.88 -53.498 1026.27 -62.2208 1024.47 -70.7408C1023.07 -68.5883 1018.62 -63.2464 1017.79 -62.2885C1013.65 -57.4424 1008.67 -51.6159 1008.47 -44.8878C1004.39 -49.9142 998.398 -53.2162 992.925 -56.4394C991.329 -57.3748 989.576 -58.4567 988.171 -58.9639C987.216 -50.3988 989.003 -42.1831 993.273 -34.8464C996.825 -31.9951 1001.23 -30.5526 1006.04 -30.8456C1004.87 -26.5293 1006.38 -20.9845 1010.35 -18.584C1006.06 -18.6404 1006.87 -18.46 1005.8 -14.4142C1004.89 -10.9543 1005.21 -5.9618 1006.15 -2.47942C1006.49 -1.26228 1006.98 -0.157829 1007.56 0.901535C1008.85 2.32153 1010.21 3.64011 1011.62 4.92487C1011.76 4.95868 1011.91 5.01503 1012.05 5.12772C1017.67 9.22995 1023.02 13.4223 1029.17 16.3525C1029.06 11.2022 1029.99 5.74757 1028.54 0.585983V0.574707Z" fill="#008000"/>
<path d="M1224.94 110.284C1225.5 104.526 1230.5 100.277 1231.88 94.7657C1234.02 97.866 1239.31 109.742 1241.87 103.115C1244.26 96.9638 1248.61 89.6969 1246.89 82.8483C1251.3 84.825 1256.14 83.6931 1260.75 84.4313C1265.91 85.2679 1264.7 83.8489 1263.1 80.2647C1260.13 73.6868 1267.11 74.8105 1262.16 69.1512C1270.4 66.8054 1275.57 60.7524 1280.96 54.5928C1281.39 54.1089 1288.74 48.0887 1285.38 48.2199C1281.16 48.3758 1277.05 47.2767 1272.95 46.5714C1275.32 44.3158 1277.05 41.8307 1278.25 38.7467C1278.88 37.1802 1283.29 29.0439 1282.64 27.9367C1281.97 26.8048 1273.58 25.1152 1271.85 24.172C1268.09 22.1543 1264.12 19.4641 1259.75 19.1196C1262.49 14.9777 1264.35 10.3272 1266.14 5.70954C1267.6 1.96948 1271.19 -2.50055 1265.44 -2.49235C1256.97 -2.46774 1248.82 -8.93903 1240.28 -6.98698C1242.79 -11.5472 1244.67 -16.4602 1247.58 -20.799C1251.59 -26.7699 1246.63 -23.399 1243.56 -22.1359C1233.63 -18.0595 1222.78 -22.9479 1214.04 -14.9838C1215.82 -18.6665 1217.26 -22.5214 1219.44 -25.999C1220.78 -28.0904 1222.37 -30.0179 1224.34 -31.5352C1225.66 -32.5769 1223.97 -34.7258 1222.62 -33.8564C1214.04 -28.3201 1202.48 -28.64 1194.92 -21.3075C1193.54 -28.8942 1187.46 -33.4299 1185.34 -40.1144C1184.04 -44.1497 1183.52 -35.1277 1183.64 -36.4728C1183.29 -32.4374 1181.61 -28.6974 1180.58 -24.8261C1176.71 -34.2583 1163.93 -36.8419 1155.38 -39.7945C1154.05 -40.2456 1150.53 -42.4109 1149.16 -41.4923C1147.83 -40.6147 1149.6 -33.2658 1149.61 -31.6665C1149.67 -24.1699 1148.92 -16.7554 1152.79 -9.97247C1150.26 -11.1289 1139.91 -14.3031 1137.46 -12.8759C1135.94 -11.9819 1143.4 2.62563 1144.86 4.47926C1133.09 1.08368 1120.73 9.39219 1109.96 12.878C1109.36 13.0748 1103.2 14.1247 1105.52 16.1095C1108.1 18.3076 1110.08 21.0963 1112.09 23.7947C1116.59 29.9051 1122.41 34.8016 1129.91 36.7127C1125.07 40.0016 1123.63 46.3909 1119.94 50.7297C1119.49 51.2464 1114.17 55.2161 1117.7 55.6016C1122.19 56.1101 1126.55 57.4553 1131.05 57.9638C1128.12 60.4818 1126.07 63.8445 1123.65 66.8136C1120.94 70.1436 1118.87 71.1278 1124.17 72.03C1131.91 73.3587 1137.33 79.1493 1145.78 77.1316C1144.97 79.1329 1135.54 85.112 1137.78 84.3C1143.7 82.184 1156.29 90.5827 1161.15 86.3341C1161.77 94.1259 1163.41 88.2041 1168.08 93.4534C1171.49 97.2836 1171.64 94.3392 1174.82 91.4767C1177.86 88.7537 1181.47 86.7114 1184.21 83.6357C1185.06 91.6325 1192.11 94.7164 1194.82 101.565C1196.09 104.772 1194.61 108.291 1198.98 104.362C1202.2 101.499 1205.4 98.5467 1207.78 94.9297C1209.69 99.0962 1213.24 102.352 1216.58 105.371C1217.4 106.109 1224.62 113.819 1224.95 110.284C1224.86 111.325 1225.44 105.215 1224.95 110.284H1224.94Z" fill="#008000"/>
<path d="M1142.31 12.066C1141.07 12.0004 1144.44 11.172 1143.9 11.5739C1145.49 10.3436 1139.71 6.2427 1138.88 5.88182C1134.73 4.07741 1130.33 4.99601 1126.6 3.55248C1123.37 2.28119 1128.42 8.94112 1128.51 9.05595C1132.85 14.1001 1136.66 11.7872 1142.3 12.066C1138.81 11.8856 1142.65 12.0824 1142.3 12.066H1142.31Z" fill="#007200"/>
<path d="M1240.3 14.4199C1244.08 15.9209 1248.95 16.8559 1252.69 14.7644C1253.85 14.1165 1261.39 7.86663 1261.05 6.8496C1260.58 5.5619 1246.49 6.4559 1244.62 7.44013C1242.68 8.47357 1239.75 10.4666 1238.62 12.4105C1237.84 13.7474 1238.97 14.9777 1240.3 14.4199C1243.62 15.7322 1240.12 14.4938 1240.3 14.4199Z" fill="#007200"/>
<path d="M1245.22 5.48815C1246.97 7.68626 1251.97 0.583423 1252.82 -0.86011C1253.18 -1.45885 1258.01 -9.95601 1255.48 -8.05317C1251.68 -5.21532 1247.04 -4.19828 1244.29 0.0749044C1243.38 1.51023 1242.5 8.88373 1245.22 5.48815C1245.74 6.11969 1245.11 5.61938 1245.22 5.48815Z" fill="#007200"/>
<path d="M1225.03 67.6666C1220.69 61.4496 1223.44 52.3537 1218.51 46.4647C1220.47 46.1038 1234.4 42.618 1234.93 41.5026C1236.53 38.148 1218.89 28.5436 1215.96 28.3221C1218.98 25.8534 1221.18 22.6136 1221.99 18.7505C1222.34 17.0035 1223.82 8.10449 1222.05 7.01364C1219.64 5.5537 1207.31 10.9423 1206.16 13.5916C1205.02 11.008 1190.29 -3.18131 1188.82 0.173262C1188.82 1.34613 1189.14 2.44519 1189.79 3.47863C1190.2 5.99661 1189.16 8.46538 1188.9 10.9505C1188.37 16.2162 1191.43 20.883 1195.63 23.7701C1191.46 23.8439 1187.85 25.4925 1184.59 27.9941C1183.52 28.8143 1174.4 34.3423 1174.45 34.5392C1174.49 34.6704 1183.86 38.2628 1185.02 39.001C1188.6 41.2155 1193.23 43.0035 1197.36 41.3631C1196.23 44.2338 1195.76 47.3177 1194.87 50.2704C1194.56 51.2792 1191.76 55.2571 1191.93 55.9953C1192.35 57.7751 1204.25 53.018 1205.71 52.3291C1206.1 57.8653 1209.53 63.2376 1214.63 65.4521C1215.76 65.9524 1226.68 70.0287 1225.02 67.6584C1221.08 62.0319 1225.66 68.5524 1225.02 67.6584L1225.03 67.6666Z" fill="#38B000"/>
<path d="M1184.2 21.2685C1187.62 18.324 1175.39 10.7783 1172.89 10.36C1170.68 9.98272 1153.7 15.6174 1154.19 17.1102C1154.44 17.8237 1165.08 22.4496 1166.56 23.2452C1172.31 26.3865 1179.21 25.5499 1184.2 21.2685C1185.18 20.4155 1180.74 24.2376 1184.2 21.2685Z" fill="#38B000"/>
<path d="M1168.92 3.49509C1172.34 4.23326 1169.77 0.542408 1169.09 -0.236772C1166.48 -3.23866 1162.58 -6.69985 1158.63 -7.70869C1155.58 -8.47146 1152.37 -7.70869 1149.47 -6.76547C1148.7 -6.51942 1140.98 -4.93645 1140.95 -4.78882C1141.04 -5.31374 1153.67 3.40487 1154.63 3.91339C1158.08 5.74241 1166.4 7.85849 1168.92 3.48689C1166.9 6.9973 1169.04 3.5279 1168.92 3.48689L1168.92 3.49509Z" fill="#38B000"/>
<path d="M1262.87 30.8401C1265.42 29.3638 1252.99 25.5581 1251.34 25.0578C1244.35 22.9417 1241.03 28.5026 1236.98 32.2016C1233.33 35.5234 1245.36 38.1726 1247.18 37.9265C1252.93 37.1309 1257.96 33.6451 1262.87 30.8319C1255.31 35.1871 1263.21 30.635 1262.87 30.8319V30.8401Z" fill="#38B000"/>
<path d="M1239.87 19.743C1243.88 18.7506 1236.04 17.3317 1236.39 17.4301C1230.89 16.044 1228.46 17.7008 1225.02 21.7525C1222.38 24.8774 1220.92 28.4945 1226.95 27.6989C1232.08 27.0099 1235.88 22.6055 1239.87 19.7513C1235.22 23.073 1239.92 19.7184 1239.87 19.7513V19.743Z" fill="#38B000"/>
<path d="M1215.57 0.73103C1216.27 -0.720705 1221.02 -11.4898 1219.98 -12.3428C1218.6 -13.4664 1210.07 -7.52007 1208.9 -6.42922C1205.81 -3.55855 1203.55 2.49444 1206.13 6.40674C1208.84 10.5405 1214.61 2.73229 1215.57 0.73103C1217.44 -3.16487 1214.22 3.55248 1215.57 0.73103Z" fill="#38B000"/>
<path d="M1199.38 0.927868C1202.07 -1.41787 1203.94 -5.37118 1204.02 -8.9308C1204.05 -10.0381 1205.38 -19.1422 1205.41 -19.0847C1204.84 -19.8721 1200.68 -18.1251 1200.26 -17.8545C1196.93 -15.722 1194.53 -12.4822 1193.32 -8.71756C1192.5 -6.19958 1192.71 -3.05005 1193.98 -0.687904C1194.55 0.37834 1199 4.15121 1199.38 0.927868C1201.71 -1.098 1199.29 1.72345 1199.38 0.927868Z" fill="#38B000"/>
<path d="M1185.39 -5.13336C1189.15 -7.84818 1186.13 -13.6141 1183.77 -16.1813C1182.49 -17.5674 1172.19 -25.6217 1171.1 -25.228C1169.18 -24.5554 1173.67 3.24898 1185.39 -5.13336C1185.44 -5.15796 1181.48 -2.32831 1185.39 -5.13336Z" fill="#38B000"/>
<path d="M1166.4 57.5455C1171.17 53.9039 1178.08 56.1676 1183.44 52.3045C1187.18 49.5979 1193.6 44.6768 1185.41 43.2004C1179.66 42.167 1173.31 43.9468 1169.67 48.6711C1168.31 50.4509 1166.83 52.7966 1166.21 54.9537C1165.22 55.8067 1164.38 59.0547 1166.4 57.5455C1170.18 54.6584 1165.61 58.1196 1166.4 57.5455Z" fill="#007200"/>
<path d="M1256.64 58.0376C1250.91 54.6256 1247.34 47.736 1241.13 44.2666C1236.08 40.4527 1228.62 38.6565 1222.34 39.936C1226.42 37.0489 1229.99 33.5221 1233.9 30.4382C1234.87 29.6918 1241.19 24.8609 1241.1 24.541C1240.57 22.6956 1227.94 23.7537 1226.05 23.8685C1220.41 24.1474 1214.36 24.8855 1209.26 27.4609C1211.37 20.4647 1206.52 13.5997 1202.07 8.695C1200.32 6.78396 1190.25 -4.53465 1187.78 -3.73907C1188.33 -3.91951 1189.26 6.25904 1189.4 7.80919C1189.9 14.1411 1190.51 21.7278 1195.09 26.5915C1188.7 25.9518 1182.18 27.8792 1176.07 29.4786C1171.64 30.6597 1165.82 31.8899 1172.4 35.4332C1177.45 38.1562 1180.36 43.3808 1186.39 44.2912C1192.84 45.2508 1198.93 43.0855 1203.27 38.148C1205.49 42.0111 1210.43 44.8161 1214.91 43.7007C1211.87 46.6861 1212.56 46.235 1214.65 49.8357C1216.45 52.9114 1220.18 56.1921 1223.29 57.9555C1228.59 60.941 1234.68 60.3095 1240.46 59.4975C1244.45 58.9398 1248.49 58.341 1252.54 58.8249C1253.31 59.1612 1259.34 59.6287 1256.64 58.0376C1257.42 58.4887 1256.03 57.6603 1256.64 58.0376Z" fill="#70E000"/>
<path d="M1200.59 68.7656C1201.9 63.5 1208.46 61.876 1210.15 56.7252C1210.89 54.4697 1210.47 44.57 1206.26 44.8899C1200.31 45.3738 1195.81 49.6306 1195.81 55.7492C1195.81 59.0546 1196.92 62.2451 1198.09 65.2798C1197.97 64.9599 1199.95 71.3082 1200.59 68.7574C1200.41 69.471 1201.67 64.4186 1200.59 68.7574L1200.59 68.7656Z" fill="#70E000"/>
<path d="M1180.45 28.3221C1176.14 33.4893 1167.06 30.2742 1163.59 36.7619C1162.21 34.613 1147.3 24.3114 1145.38 26.1978C1144.96 26.5833 1146.05 31.1846 1146.19 31.931C1147.08 36.6471 1148.52 41.3549 1152.3 44.5865C1149.23 45.989 1146.82 48.4414 1144.43 50.7461C1141.97 53.1082 1138.13 54.5928 1142.7 56.2988C1147.84 58.218 1155.12 62.6963 1160.52 59.2597C1159.94 62.0237 1163.44 77.3776 1164.78 75.6306C1169.13 69.9877 1175.65 63.6805 1173.14 55.8149C1176.65 57.2748 1180.91 57.7423 1183.35 61.0313C1185.16 63.4836 1183.1 51.5499 1182.83 50.336C1182.3 47.9903 1181.43 45.784 1179.22 44.5455C1180.13 41.9209 1180.24 39.0666 1180.47 36.3272C1180.52 35.6792 1182.26 26.1486 1180.43 28.3221C1177.76 31.5373 1181.09 27.5348 1180.43 28.3221H1180.45Z" fill="#38B000"/>
<path d="M1162.54 7.33356C1162.09 5.20927 1159.68 14.3462 1159.51 14.7317C1157.3 19.6446 1156.21 24.6806 1160.91 28.6585C1165.35 32.4231 1167.48 24.1064 1167.75 20.7765C1168.21 15.0351 1163.57 12.4761 1162.53 7.33356C1162.32 6.34113 1163.37 11.5001 1162.53 7.33356H1162.54Z" fill="#38B000"/>
<path d="M1141.67 41.6749C1138.48 37.172 1132.34 39.5506 1129.31 42.6591C1128.7 43.3152 1120.95 51.1891 1120.97 51.2137C1121.43 52.813 1133.57 51.4761 1135.08 50.7216C1136.72 49.9014 1143.13 43.7664 1141.68 41.6749C1139.91 39.1733 1142.05 42.1916 1141.68 41.6749H1141.67Z" fill="#38B000"/>
<path d="M1169.28 30.7827C1168.02 26.4767 1164.08 23.6717 1160.6 21.2357C1160.32 21.0471 1152.04 14.8546 1153.36 18.8325C1155.16 24.2868 1154.34 30.5448 1155.2 36.1877C1156.07 41.7814 1158.5 47.5556 1165.06 47.3505C1167.58 47.2603 1170.58 44.324 1171.05 41.724C1171.72 38.066 1170.3 34.2357 1169.29 30.7827C1167.48 24.5575 1170.32 34.3259 1169.29 30.7827H1169.28Z" fill="#70E000"/>
<path d="M1163.84 49.36C1157.95 49.8931 1154.05 51.312 1150.42 56.4546C1149.47 57.8407 1141.71 69.7171 1142.73 70.6603C1144.66 72.4811 1157.19 66.2395 1159.08 64.9764C1161.25 63.5246 1170.15 48.7612 1163.84 49.3518C1163.09 49.4174 1164.85 49.2534 1163.84 49.3518V49.36Z" fill="#70E000"/>
<path d="M1188.01 55.4868C1184.29 52.5423 1182.38 47.572 1177.46 46.2843C1175.92 45.866 1169.17 47.1865 1169.61 48.7859C1170.89 53.2723 1175.75 55.9133 1180.06 56.553C1181.23 56.7417 1188.84 56.1184 1188.01 55.4786C1185.19 53.2395 1188.65 55.9871 1188.01 55.4786V55.4868Z" fill="#70E000"/>
<path d="M1144.84 28.9782C1142.87 26.2634 1139.83 24.6312 1137.3 22.5151C1138.21 23.2861 1132.6 18.6028 1134.22 21.8836C1135.44 24.5 1135.21 28.8962 1136.4 31.9063C1137.92 35.6874 1140.74 40.0508 1145.41 39.493C1146.08 40.4034 1147.72 41.0186 1148.57 39.8867C1150.3 37.6148 1146.16 30.7744 1144.84 28.97C1142.46 25.6729 1146.87 31.7422 1144.84 28.97V28.9782Z" fill="#70E000"/>
<g style="mix-blend-mode:multiply" opacity="0.4">
<path d="M360.113 84.2421C343.188 81.9205 17.1841 58.8512 0.269698 56.7324C0.168549 57.4086 0.089877 58.0848 0.0449219 58.7497C16.8469 60.8346 342.749 83.6561 359.641 85.0084C359.922 85.031 360.428 84.2872 360.113 84.2308V84.2421Z" fill="#5F4323"/>
</g>
<g style="mix-blend-mode:multiply" opacity="0.4">
<path d="M514.86 97.8335C506.577 96.098 498.182 96.3459 489.775 95.9853C480.672 95.6021 471.456 94.7681 462.33 94.1821C453.193 93.5961 443.741 94.7118 434.593 95.0048C425.647 95.2866 416.802 95.5457 407.867 95.1851C398.797 94.8132 389.885 95.095 380.826 95.5908C371.577 96.0867 362.417 95.0048 353.201 94.385C339.985 93.4946 17.4088 73.7499 4.12451 73.0511C4.42796 73.5245 4.74265 73.9866 5.06857 74.4486C16.7682 75.3502 337.771 95.6134 349.425 96.6051C358.562 97.3827 367.598 98.7802 376.78 98.6337C385.794 98.4872 394.718 97.8561 403.754 98.1942C421.938 98.8816 439.954 97.5518 458.116 97.1348C467.253 96.932 476.929 97.2024 486.01 98.2618C495.406 99.355 504.869 97.4278 514.321 98.7464C514.647 98.7915 515.242 97.935 514.86 97.8561V97.8335Z" fill="#5F4323"/>
</g>
<g style="mix-blend-mode:multiply" opacity="0.4">
<path d="M701.211 90.8574C684.038 88.3442 666.618 87.0257 649.366 85.076C631.44 83.0587 613.189 84.366 595.229 83.9152C585.744 83.6785 576.247 84.3097 566.75 83.9603C556.41 83.5771 546.037 82.3149 535.72 81.4584C515.962 79.8242 496.204 77.8746 476.435 76.5109C457.453 75.1923 438.336 73.9414 419.342 73.2652C410.25 72.9384 401.079 72.4087 391.975 72.4087C382.254 72.4087 372.735 71.5522 363.036 71.1916C346.155 70.5717 20.0838 49.0125 3.16946 47.6376C2.67495 48.6744 2.21416 49.7338 1.8208 50.8044C20.6795 52.0892 348.706 73.5695 367.531 74.9219C386.322 76.2742 405.237 76.0376 424.096 76.8941C443.191 77.7506 462.387 78.8438 481.47 80.2187C501.363 81.6612 521.244 83.4419 541.126 84.9971C550.679 85.7409 560.243 86.7439 569.818 86.9242C579.922 87.1046 590.026 86.2255 600.118 86.8792C607.637 87.3638 615.099 86.5073 622.641 86.4622C631.901 86.4058 641.117 86.5749 650.333 87.5892C667.045 89.4374 683.791 90.3954 700.503 92.052C700.952 92.0971 701.717 90.9363 701.222 90.8687L701.211 90.8574Z" fill="#551B14"/>
</g>
<g style="mix-blend-mode:multiply" opacity="0.4">
<path d="M864.994 87.454C850.271 87.8484 835.627 90.17 820.904 89.9897C805.912 89.7981 790.964 91.9506 776.05 93.1791C767.666 93.8665 759.664 96.6051 751.212 96.8756C743.57 97.1122 735.995 97.6645 728.341 97.6983C714.147 97.7659 698.109 99.3775 684.285 95.5683C684.117 95.5232 683.813 95.9627 684.004 96.0303C697.255 100.504 713.057 99.7156 726.892 100.087C741.659 100.482 755.64 99.3662 770.15 96.6276C777.208 95.2978 785.075 95.264 792.268 94.5427C801.349 93.6186 810.362 92.4465 819.499 92.3113C834.627 92.0859 849.664 89.3811 864.713 88.0175C864.893 88.0062 865.207 87.4653 865.005 87.4653L864.994 87.454Z" fill="#551B14"/>
</g>
<g style="mix-blend-mode:multiply" opacity="0.4">
<path d="M896.541 69.0954C890.742 67.2359 884.482 66.616 878.458 65.7482C870.164 64.5649 861.97 63.3365 853.575 63.0886C846.394 62.8857 839.257 62.9195 832.075 62.5701C825.602 62.2433 818.341 63.9789 811.935 64.8805C797.089 66.9654 782.321 64.7452 767.553 68.3065C760.147 70.0871 752.078 70.1209 744.536 71.4508C741.985 71.9016 739.389 72.4876 736.973 73.4681C734.14 74.6176 730.915 74.7303 728.308 76.1841C727.824 76.4546 726.802 77.4238 727.139 78.0887C728.105 80.0722 731.027 80.23 732.859 80.9851C737.771 83.0024 742.929 84.3209 748.121 85.3916C759.473 87.7357 771.554 88.0851 783.13 87.5441C774.342 89.0993 765.508 90.2714 756.303 89.922C739.501 89.2797 721.913 87.6455 705.605 83.4193C702.357 82.5741 699.12 81.6838 695.917 80.6808C689.219 78.5846 701.031 75.1698 703.223 74.8317C711.202 73.5808 719.114 70.8309 727.184 70.5717C734.466 70.3238 742.142 68.9489 749.414 68.0698C757.652 67.0781 765.789 66.199 773.892 64.3846C782.49 62.4687 790.762 60.6543 799.595 60.2824C806.912 59.9781 814.273 60.0344 821.545 58.9976C829.502 57.8706 837.2 56.5859 845.303 57.2508C849.271 57.5776 853.182 57.8368 857.138 58.3665C860.217 58.7722 862.296 59.3357 865.297 58.2763C865.511 58.2087 865.882 57.5325 865.578 57.634C862.094 58.806 859.015 57.7579 855.542 57.217C851.653 56.6084 847.787 56.3717 843.899 55.9547C836.683 55.1997 829.333 56.1801 822.241 57.4198C813.767 58.8962 804.832 57.8255 796.28 58.3552C787.637 58.8849 779.275 60.9247 770.813 62.6378C753.392 66.1765 734.568 64.4409 717.53 69.5687C709.853 71.879 693.467 70.4928 690.736 80.7033C690.669 80.9513 690.702 81.1767 690.961 81.2668C708.572 87.206 727.521 89.3811 745.885 91.5787C765.452 93.9228 783.737 91.2406 802.866 86.8792C821.533 82.6192 841.033 81.4809 860.037 79.4749C867.567 78.686 876.57 80.0271 883.706 77.2209C887.134 75.8685 894.541 73.9752 896.552 70.4928C896.766 70.1209 897.148 69.3095 896.541 69.1179V69.0954ZM876.199 75.7897C868.86 75.8122 861.712 76.5673 854.429 77.2886C838.212 78.8889 822.208 80.8498 806.102 83.3517C804.889 83.5433 803.675 83.7462 802.472 83.949C806.147 82.8333 809.744 81.5486 813.194 80.2638C816.386 79.0692 824.208 78.7874 824.388 73.9752C824.388 73.84 824.354 73.716 824.253 73.6146C819.488 71.3043 813.925 71.71 808.777 71.0789C802.315 70.29 795.83 70.6506 789.345 70.0308C777.264 68.8813 765.216 70.4928 754.269 75.7108C753.887 75.8911 752.651 77.2435 753.482 77.5365C760.686 80.0384 767.452 81.2668 775.072 81.3795C781.119 81.4697 785.996 82.3149 791.526 79.644C792.02 79.4073 793.582 77.8295 792.796 77.2322C790.11 75.1698 786.547 75.3163 783.31 75.3276C782.332 75.3276 780.815 77.852 781.759 77.8633C784.052 77.8971 786.39 77.9084 788.547 78.6071C783.917 79.8017 778.95 79.227 774.128 79.272C768.048 79.3284 762.282 78.1901 756.562 76.3081C761.833 74.2232 767.014 73.1976 772.779 72.4425C779.826 71.5297 786.614 72.7355 793.65 72.7468C800.449 72.7468 806.934 73.5357 813.689 73.9752C814.857 73.84 815.993 73.9752 817.094 74.3471C817.218 74.3809 821.646 75.722 821.084 75.9136C819.331 76.5109 817.285 76.7025 815.588 77.39C800.595 83.363 786.007 85.6508 769.925 85.3127C762.305 85.1549 754.775 84.2871 747.312 82.7657C743.918 82.067 740.524 81.109 737.242 79.9933C736.444 79.7228 732.455 78.5733 730.308 77.4012C731.836 77.097 733.399 76.9955 734.871 76.1728C738.04 74.4147 742.199 73.9189 745.716 73.2878C752.628 72.0593 759.877 71.9128 766.677 70.3576C774.162 68.6446 781.658 67.6416 789.357 67.6416C795.853 67.6416 802.54 68.16 808.968 67.1908C815.925 66.1427 823.792 64.4071 830.828 64.6325C837.919 64.8579 845.022 65.2524 852.125 65.489C859.7 65.737 867.185 66.74 874.659 67.912C880.818 68.87 887.292 69.3997 893.304 71.1578C892.068 71.5635 890.506 71.9354 889.865 72.296C885.55 74.6852 881.099 75.8122 876.188 75.8347L876.199 75.7897Z" fill="#551B14"/>
</g>
<g style="mix-blend-mode:multiply" opacity="0.4">
<path d="M697.356 65.5004C691.388 66.9204 684.656 66.74 678.52 67.5965C670.54 68.701 662.471 68.8813 654.48 70.0534C637.172 72.6003 619.494 76.8378 601.916 74.4712C593.712 73.3667 585.103 73.8513 576.831 73.5132C567.806 73.1413 558.77 73.085 549.746 73.0399C531.674 72.9385 513.602 72.9384 495.597 71.2705C495.35 71.248 494.934 71.8903 495.193 71.9242C512.86 73.9865 530.628 74.6177 548.397 75.26C557.264 75.5756 566.132 75.9588 574.988 76.5448C583.945 77.1421 593.094 76.9956 601.972 78.348C618.358 80.8386 634.778 75.7784 650.805 73.4343C659.043 72.2284 667.258 71.1803 675.541 70.3577C680.093 69.9069 684.521 68.3291 689.118 68.1938C691.939 68.115 694.423 67.5515 697.008 66.4921C697.255 66.3907 697.873 65.3764 697.345 65.5004H697.356Z" fill="#551B14"/>
</g>
<g style="mix-blend-mode:multiply" opacity="0.4">
<path d="M403.417 68.7573C397.528 67.7656 391.638 66.6386 385.716 65.8722C379.68 65.0946 373.454 62.9646 367.363 63.0998C355.641 63.3703 34.7617 41.7322 23.0172 41.7435C17.7462 41.7435 12.4977 41.4392 7.27164 40.9095C6.74342 41.6083 6.23767 42.3295 5.74316 43.0621C11.0029 43.6368 16.2852 44.0651 21.5561 44.144C32.6488 44.313 352.977 65.8835 364.047 65.5454C377.062 65.151 389.986 68.6672 402.978 69.4786C403.237 69.4899 403.731 68.8024 403.428 68.7573H403.417Z" fill="#5F4323"/>
</g>
<g style="mix-blend-mode:multiply" opacity="0.4">
<path d="M1088.17 68.0248C1065.68 67.3036 1043.54 68.3066 1021.27 71.6875C1016.18 72.4651 1011.08 73.0512 1005.98 73.8062C1000.28 74.6515 994.824 76.7139 989.092 77.4915C977.708 79.0467 966.345 82.7658 954.87 83.4082C954.735 83.4082 954.522 83.7688 954.646 83.7688C963.951 83.6223 973.145 81.0077 982.36 80.0385C993.667 78.8551 1004.64 76.1053 1015.94 74.7755C1027.46 73.4231 1039.07 71.9805 1050.58 70.4366C1062.92 68.7686 1075.42 68.7912 1087.84 68.5545C1088.04 68.5545 1088.36 68.0248 1088.16 68.0248H1088.17Z" fill="#551B14"/>
</g>
</g>
<defs>
<clipPath id="clip0_131_717">
<rect width="1379" height="111" fill="white"/>
</clipPath>
</defs>
</svg>
