<svg width="375" height="103" viewBox="0 0 375 103" fill="none" xmlns="http://www.w3.org/2000/svg">
<g clip-path="url(#clip0_633_8652)">
<path d="M65.5716 59.6473C63.0088 58.8867 60.3164 58.4549 58.2354 56.7522C57.4423 56.0907 57.0736 54.5307 58.4857 54.2014C61.5357 53.4685 64.8425 55.2244 67.5956 56.1434C72.5784 57.7838 77.6609 59.0973 82.6188 60.8195C88.0577 62.7017 93.2984 65.0975 98.6601 67.185C104.279 69.3766 109.96 70.1815 115.998 70.7536C126.835 71.7953 137.481 72.3581 148.463 71.2365C154.277 70.6403 160.064 69.7753 165.861 68.7494C168.665 68.2524 171.441 67.7872 174.26 67.5097C175.473 67.3732 176.691 67.2966 177.912 67.2799C179.071 67.2271 179.687 66.8176 179.972 66.2486C177.885 63.9851 175.697 61.8483 173.448 59.7052C166.69 53.2568 158.242 44.4798 148.512 43.0278C139.287 41.6542 129.302 43.7853 120.117 46.0763C119.742 46.1701 119.378 46.2731 119.004 46.3768C124.74 42.469 131.034 39.3077 137.722 36.8329C140.614 36.7713 143.513 36.679 146.39 36.3679C147.842 36.2064 149.461 36.4552 150.898 36.5152C156.102 36.7389 152.099 34.4256 149.745 33.1609C152.597 32.4605 155.494 31.8574 158.429 31.3622C164.49 35.0089 170.299 38.952 176.255 42.8358C182.42 46.8767 187.596 52.2223 193.697 56.3474C200.75 61.1141 208.793 62.9728 217.36 63.7766C220.394 64.0567 223.44 64.2158 226.499 64.2738C229.55 64.5028 232.603 64.6114 235.653 64.68C238.161 64.7326 240.666 65.046 243.175 65.1087C245.613 65.1657 248.048 65.1728 250.489 65.0995C255.54 64.9621 260.579 64.6251 265.613 64.2183C267.488 64.0703 269.371 63.9117 271.254 63.7432C278.081 63.6344 284.909 63.3853 291.675 62.7993C292.423 62.7323 293.171 62.6752 293.909 62.6288C294.592 62.646 295.274 62.6632 295.957 62.6903C315.283 63.4486 334.552 62.3468 353.77 60.2763C364.558 59.1167 415.271 55.1753 425.962 53.2604C426.035 53.3159 426.098 53.362 426.14 53.3895C428.574 55.2904 430.745 58.7409 430.894 61.9078C431.039 65.0048 429.339 67.2861 427.589 69.5804C418.583 70.4074 369.67 73.8048 360.656 74.502C348.143 75.4795 335.588 75.4776 323.05 75.7453C310.362 76.0123 297.778 76.9842 285.147 78.1595C272.417 79.351 259.669 80.5837 246.886 81.0972C234.273 81.61 221.653 81.2015 209.041 80.9327C187.429 80.4685 165.848 81.4552 144.245 80.3292C134.374 79.8179 124.577 78.4302 114.691 78.1603C102.516 77.8339 90.287 79.5049 78.1137 80.7917C73.556 81.2888 68.6979 81.3138 64.1716 81.0374C61.9996 80.9135 61.2844 78.6239 61.0504 76.815C60.9735 76.2287 61.3855 75.4513 61.9624 75.2246C63.6812 74.5153 65.4764 74.2221 67.2991 74.2076C71.4148 74.1692 75.371 73.1889 79.4729 72.7705C82.4301 72.4743 85.3891 72.0477 88.3415 71.9923C89.0021 71.9808 92.0275 72.2914 94.0217 72.1359C89.0656 68.6903 82.9117 66.4321 77.5787 64.1625C73.6457 62.4861 69.6865 60.8714 65.5809 59.6367L65.5716 59.6473Z" fill="#AA6926"/>
<g style="mix-blend-mode:screen">
<path d="M193.686 56.3283C200.739 61.0949 208.782 62.9537 217.349 63.7574C220.383 64.0375 223.429 64.1966 226.488 64.2546C229.539 64.4836 232.591 64.5922 235.642 64.6608C238.15 64.7135 240.655 65.0268 243.164 65.0895C245.602 65.1465 248.037 65.1536 250.477 65.0803C255.529 64.9429 260.568 64.6059 265.602 64.1991C267.476 64.0511 269.36 63.8926 271.243 63.724C278.07 63.6152 284.898 63.3661 291.664 62.7802C292.411 62.7131 293.159 62.6561 293.898 62.6096C294.58 62.6268 295.263 62.644 295.946 62.6712C315.272 63.4294 334.54 62.3276 353.758 60.2571C364.547 59.0975 415.259 55.1561 425.95 53.2412C426.024 53.2967 426.087 53.3428 426.129 53.3703C427.161 54.177 428.141 55.2577 428.949 56.4694C427.779 56.6632 426.618 56.8464 425.437 57.0209C411.009 59.1008 356.529 62.5677 342.046 64.2502C337.964 64.3467 333.88 64.5735 329.799 64.8502C322.486 65.3503 315.172 65.9808 307.833 66.232C300.464 66.485 293.087 66.7587 285.719 67.0218C270.943 67.5604 256.144 68.0304 241.361 67.808C233.849 67.6993 226.435 67.0735 218.974 66.3305C212.823 65.7154 206.097 66.1485 200.435 63.2683C194.266 60.1393 189.434 54.9926 184.942 49.8544C184.446 49.2944 183.941 48.7451 183.417 48.2269C186.778 51.0014 190.075 53.8801 193.695 56.3176L193.686 56.3283Z" fill="#995336"/>
</g>
<g style="mix-blend-mode:screen">
<path d="M148.463 71.2363C154.277 70.6402 160.064 69.7752 165.861 68.7492C168.665 68.2522 171.441 67.787 174.26 67.5095C175.473 67.373 176.691 67.2965 177.912 67.2797C179.001 67.2313 179.6 66.873 179.918 66.352C181.453 66.546 182.978 66.5803 184.525 66.473C188.066 66.2302 191.649 65.3536 195.205 65.5007C198.781 65.6465 202.054 66.8734 205.517 67.6074C208.229 68.1883 211.054 68.3313 213.726 69.075C210.177 69.5287 206.564 68.4834 203.036 68.1442C199.165 67.7665 195.145 67.8991 191.267 68.0529C187.25 68.2154 183.27 68.6661 179.346 69.5242C175.481 70.3684 171.687 71.5389 167.837 72.4425C164.49 73.2341 161.082 73.8593 157.628 73.8962C154.393 73.9293 151.146 73.6025 147.913 73.4853C141.545 73.2446 135.176 73.1342 128.823 72.662C123.67 72.2848 118.538 71.6257 113.538 70.5074C114.355 70.5962 115.172 70.6851 115.999 70.7634C126.836 71.8051 137.482 72.3679 148.463 71.2463L148.463 71.2363Z" fill="#995336"/>
</g>
<g style="mix-blend-mode:multiply" opacity="0.4">
<path d="M149.734 33.1513C151.53 32.7077 153.339 32.3134 155.16 31.9583C157.301 33.3467 159.095 34.9472 159.954 36.9673C157.728 36.7767 155.554 36.4725 153.406 36.0866C153.783 35.3916 151.372 34.0202 149.744 33.1507L149.734 33.1513Z" fill="#5F4323"/>
</g>
<g style="mix-blend-mode:multiply" opacity="0.4">
<path d="M123.309 43.6213C125.415 43.1682 127.513 42.7457 129.633 42.3718C135.412 41.3671 141.741 39.5562 147.542 39.8726C159.727 40.5289 168.374 49.1331 175.125 56.093C177.76 58.8029 180.138 62.2004 183.964 63.9336C185.264 64.5231 186.789 64.7178 188.364 64.749C185.547 65.5173 182.669 65.9589 179.799 66.0592C177.767 63.8525 175.633 61.7824 173.447 59.6854C166.689 53.237 158.241 44.46 148.511 43.008C139.286 41.6344 129.3 43.7654 120.116 46.0565C119.741 46.1503 119.377 46.2533 119.003 46.357C120.405 45.3971 121.841 44.4852 123.319 43.6106L123.309 43.6213Z" fill="#551B14"/>
</g>
<g style="mix-blend-mode:multiply" opacity="0.4">
<path d="M80.7077 62.7733C88.2397 65.4357 94.8746 69.2868 102.295 72.0865C98.8237 72.3349 95.5679 71.708 92.3103 71.0513C87.6931 68.2155 82.3053 66.1898 77.5694 64.1731C73.6364 62.4967 69.6772 60.882 65.5716 59.6473C63.0088 58.8867 60.3164 58.4549 58.2354 56.7522C57.7281 56.3332 57.3972 55.5324 57.5997 54.9285C60.6235 55.8505 63.4155 57.2279 66.3533 58.2155C71.1021 59.8005 75.9944 61.1159 80.6984 62.7839L80.7077 62.7733Z" fill="#5F4323"/>
</g>
<g style="mix-blend-mode:screen" opacity="0.4">
<path d="M126.759 72.6519C131.62 72.3662 135.914 73.7193 140.877 72.9763C145.851 72.2426 150.438 71.7336 155.427 71.4097C160.008 71.1216 164.519 70.6675 169.093 70.2796C173.329 69.923 177.525 71.6429 181.716 71.6799C181.947 71.6855 182.823 72.2415 182.388 72.329C179.543 72.9689 176.446 72.9633 173.612 72.8209C169.51 72.608 164.587 73.8195 160.371 74.1749C148.857 75.1195 138.395 73.1825 127.157 73.0878C126.946 73.081 126.429 72.6627 126.769 72.6513L126.759 72.6519Z" fill="#5F4323"/>
</g>
<g style="mix-blend-mode:multiply" opacity="0.4">
<g style="mix-blend-mode:multiply" opacity="0.4">
<path d="M199.985 63.9274C193.771 64.3784 187.624 65.8873 181.466 66.5853C187.403 64.9193 193.293 63.2963 199.533 62.7936C203.401 62.4801 207.34 63.1341 211.046 63.5824C214.104 63.9411 217.807 65.3013 221.22 65.5576C213.972 66.1338 207.347 63.4042 199.986 63.9374L199.985 63.9274Z" fill="#551B14"/>
</g>
</g>
<g style="mix-blend-mode:multiply" opacity="0.5">
<path d="M197.118 64.058C195.114 64.2241 193.08 64.2218 191.081 64.4578C189.778 64.6099 188.523 65.0395 187.235 65.2709C185.57 65.566 183.889 65.7619 182.192 65.8686C181.374 65.9201 180.555 65.9616 179.745 65.9925C177.734 63.8144 175.611 61.7636 173.457 59.6848C166.699 53.2363 158.251 44.4593 148.521 43.0073C139.296 41.6337 129.31 43.7648 120.126 46.0559C119.751 46.1496 119.387 46.2527 119.013 46.3564C124.749 42.4486 131.043 39.2872 137.73 36.8125C140.622 36.7508 143.522 36.6586 146.398 36.3474C147.851 36.1859 149.47 36.4348 150.906 36.4947C156.111 36.7184 152.108 34.4052 149.754 33.1405C152.605 32.44 155.503 31.8369 158.438 31.3417C163.801 34.5714 168.979 38.0332 174.225 41.4806C174.154 41.4551 174.082 41.4295 174 41.4046C171.447 40.6434 168.132 39.5493 165.618 40.99C165.53 41.0356 165.498 41.1579 165.534 41.2458C166.091 42.6235 166.901 43.8751 167.854 45.0075C171.354 49.1961 175.95 52.3338 179.772 56.2315C181.668 58.1663 183.641 60.2265 186.084 61.4756C188.528 62.7347 191.376 63.0866 194.085 63.307C196.2 63.4845 198.32 63.5816 200.449 63.6481C199.295 63.9411 197.955 63.9853 197.147 64.0462L197.118 64.058Z" fill="#AA6926"/>
</g>
<g style="mix-blend-mode:multiply" opacity="0.5">
<path d="M65.5716 59.6471C63.0088 58.8865 60.3164 58.4547 58.2354 56.752C57.4423 56.0904 57.0736 54.5305 58.4857 54.2012C61.5357 53.4683 64.8425 55.2242 67.5956 56.1431C72.5784 57.7836 77.6609 59.0971 82.6188 60.8192C86.3271 62.109 89.9294 63.6258 93.5505 65.1215C93.4451 65.1982 93.3946 65.3517 93.5312 65.4533C99.535 69.6247 106.726 71.7975 113.843 73.1234C121.771 74.5985 129.833 75.1736 137.885 75.4286C146.408 75.694 154.924 75.6694 163.45 76.1451C174.34 76.7527 185.223 77.5811 196.135 77.7464C209.886 77.9636 223.649 76.9475 237.381 76.2141C251.271 75.4706 265.158 74.6672 279.045 73.8638C306.389 72.2741 333.764 70.3818 361.138 69.5718C370.628 69.2855 420.254 66.705 429.907 66.1279C429.282 67.3395 428.441 68.4645 427.59 69.5902C418.584 70.4172 369.671 73.8145 360.657 74.5118C348.143 75.4892 335.589 75.4874 323.051 75.755C310.362 76.0221 297.779 76.994 285.147 78.1693C272.417 79.3608 259.669 80.5935 246.886 81.107C234.274 81.6198 221.653 81.2113 209.041 80.9425C187.43 80.4783 165.849 81.465 144.246 80.339C134.374 79.8277 124.578 78.4399 114.691 78.17C102.517 77.8437 90.2876 79.5147 78.1144 80.8014C73.5566 81.2985 68.6986 81.3236 64.1723 81.0472C62.0002 80.9233 61.2851 78.6337 61.0511 76.8248C60.9741 76.2385 61.3861 75.4611 61.963 75.2344C63.6819 74.5251 65.477 74.2318 67.2997 74.2174C71.4154 74.1789 75.3717 73.1986 79.4735 72.7803C82.4307 72.4841 85.3898 72.0575 88.3421 72.002C89.0027 71.9905 92.0282 72.3012 94.0223 72.1457C89.0662 68.7 82.9124 66.4419 77.5794 64.1722C73.6463 62.4958 69.6872 60.8812 65.5816 59.6465L65.5716 59.6471Z" fill="#AA6926"/>
</g>
<path d="M131.66 47.9851C130.128 49.2738 128.648 50.439 126.894 51.391C124.874 51.9289 122.774 52.3115 120.666 52.414C119.748 50.2474 121.925 47.2648 123.537 45.8008C122.045 45.8145 120.463 45.5232 119.049 45.9828C118.912 46.0315 118.261 46.0324 118.373 45.7448C119.857 41.9341 123.167 39.6017 127.046 39.3076C126.012 38.9619 125.03 38.4826 124.076 37.9615C122.239 36.9648 120.158 35.0918 118.938 33.3849C118.916 33.3463 118.913 33.3064 118.931 33.2652C122.46 29.3159 130.263 32.1416 134.043 35.7013C132.771 32.3545 130.958 29.0218 133.102 25.5103C135.017 27.4439 136.693 29.7231 137.65 32.1879C138.072 34.4359 137.259 36.3206 135.561 37.8502C135.448 37.9575 135.171 38.015 134.92 38.0108C134.003 41.2648 134.286 45.7759 131.641 47.9964L131.66 47.9851Z" fill="#70E000"/>
<path d="M128.699 51.7286C128.865 49.4236 130.182 46.9461 132.027 45.5375C130.329 45.9448 128.585 46.0946 126.87 46.3928C125.763 46.3122 124.642 46.3226 123.536 46.2719C124.265 45.1139 126.362 43.0883 126.739 42.7039C128.168 41.2212 129.829 39.744 131.754 38.9616C130.237 38.2755 129.386 36.8461 128.908 35.2931C128.43 32.1669 128.092 29.0219 128.548 25.9071C129.106 26.6536 130.844 28.4781 131.155 28.8092C132.762 30.4616 134.691 32.4544 134.923 34.8746C136.286 32.9653 138.377 31.6414 140.29 30.3488C140.847 29.973 141.461 29.5436 141.949 29.3326C142.493 32.4045 142.031 35.4095 140.65 38.1515C139.427 39.2605 137.873 39.8793 136.12 39.8893C136.638 41.4199 136.225 43.4598 134.842 44.4185C136.388 44.3012 136.102 44.3793 136.584 45.8219C136.992 47.0488 136.995 48.8621 136.725 50.1416C136.633 50.5883 136.479 50.9988 136.293 51.3912C135.856 51.9297 135.397 52.4395 134.917 52.9306C134.867 52.9437 134.809 52.9675 134.761 53.0105C132.818 54.6157 130.978 56.2545 128.819 57.4524C128.742 55.5935 128.278 53.6388 128.69 51.7492L128.699 51.7286Z" fill="#008000"/>
<path d="M35.0713 100.743C34.6123 97.9062 31.9948 95.9567 31.1341 93.2654C30.1629 94.8696 27.8985 100.924 26.4245 97.7199C25.0447 94.7406 22.6524 91.274 23.2972 87.8267C21.1631 88.9429 18.7227 88.5353 16.4505 89.0489C13.9119 89.6294 14.4761 88.8825 15.1528 87.0565C16.4246 83.7 12.9866 84.4774 15.2754 81.5178C11.1007 80.6181 8.33616 77.7661 5.46935 74.8803C5.23471 74.6546 1.39422 71.9003 3.07467 71.8547C5.17555 71.8027 7.18699 71.1251 9.21098 70.6471C7.96299 69.6034 7.01685 68.4204 6.33197 66.9305C5.97361 66.1715 3.52433 62.2776 3.80917 61.7086C4.10336 61.129 8.23237 60.0276 9.06117 59.5045C10.8647 58.3891 12.7567 56.9274 14.9217 56.6209C13.4351 54.6504 12.3619 52.4033 11.3293 50.1637C10.4839 48.3532 8.5581 46.25 11.4224 46.0698C15.6347 45.8149 19.4852 42.3563 23.7977 43.057C22.4077 40.8699 21.3164 38.4937 19.7442 36.4384C17.5617 33.5998 20.1323 35.1214 21.6988 35.6541C26.7665 37.3694 32.0133 34.6045 36.6027 38.2737C35.5996 36.5031 34.7704 34.6315 33.574 32.9733C32.84 31.9775 31.9913 31.0689 30.9661 30.3819C30.2748 29.9044 31.046 28.7838 31.7523 29.1802C36.1965 31.6561 41.9351 31.1348 45.9268 34.541C46.3787 30.7351 49.2609 28.2893 50.1004 24.91C50.6235 22.8731 51.1643 27.3279 51.0623 26.663C51.3582 28.6584 52.3126 30.452 52.9428 32.3462C54.5746 27.5443 60.8516 25.8669 65.011 24.1324C65.6558 23.8714 67.3446 22.683 68.0521 23.0994C68.7484 23.4965 68.0893 27.1952 68.1389 27.9836C68.3431 31.7081 68.9534 35.357 67.2288 38.8422C68.4505 38.1942 73.5012 36.2934 74.7633 36.9254C75.5395 37.3174 72.2925 44.796 71.6217 45.76C77.3741 43.7049 83.7812 47.44 89.2492 48.8295C89.5549 48.9104 92.6515 49.2367 91.5559 50.2976C90.3369 51.4664 89.4461 52.9152 88.5222 54.3159C86.4774 57.4906 83.7357 60.0978 80.0627 61.2807C82.5703 62.7562 83.4885 65.8848 85.4605 67.925C85.6964 68.1707 88.4648 69.9704 86.7302 70.2699C84.5103 70.66 82.3866 71.4649 80.1568 71.8557C81.6924 73.0116 82.8152 74.6142 84.1157 76.0154C85.5673 77.5873 86.6254 78.0017 84.0188 78.6166C80.2079 79.5176 77.704 82.5608 73.4289 81.8177C73.9002 82.78 78.7681 85.4597 77.6345 85.1202C74.6244 84.2575 68.6186 88.8135 66.0709 86.8596C66.0144 90.7408 65.0015 87.8587 62.8499 90.6092C61.2726 92.6121 61.111 91.1594 59.435 89.842C57.8433 88.5895 55.9728 87.6851 54.5194 86.2435C54.3501 90.242 50.9331 91.99 49.7992 95.468C49.2703 97.0944 50.1087 98.7952 47.8106 96.9859C46.1246 95.6691 44.4355 94.3025 43.1348 92.5807C42.3166 94.7063 40.6518 96.4342 39.0793 98.0361C38.6933 98.4311 35.3508 102.479 35.0707 100.733C35.1432 101.25 34.663 98.2337 35.0707 100.733L35.0713 100.743Z" fill="#008000"/>
<path d="M29.5811 53.668C27.7519 54.5346 25.3556 55.1462 23.434 54.225C22.835 53.9421 18.8872 51.0743 19.0255 50.5646C19.2148 49.9114 26.2493 49.9198 27.2076 50.3405C28.2077 50.7886 29.7269 51.685 30.3467 52.6179C30.778 53.2621 30.2468 53.8967 29.5712 53.6687C29.6635 53.7029 27.9652 54.421 29.5712 53.6687L29.5811 53.668Z" fill="#007200"/>
<path d="M23.3654 62.5179C22.0521 61.8691 28.1113 59.5942 28.9239 59.2926C32.3311 58.0262 34.1611 60.6766 36.2927 62.3861C38.2127 63.9186 32.3074 65.6127 31.3916 65.5501C28.5128 65.3404 25.8985 63.7614 23.3654 62.5179C23.1895 62.4288 27.2642 64.447 23.3654 62.5179Z" fill="#38B000"/>
<path d="M65.5633 73.8717C65.9452 75.2859 60.2318 72.2454 59.4681 71.8353C56.2649 70.117 57.0427 66.9916 56.9154 64.2621C56.7952 61.8085 61.9712 65.1177 62.5298 65.8461C64.2764 68.1442 64.8209 71.1494 65.5633 73.8717C65.6128 74.0626 64.432 69.6715 65.5633 73.8717Z" fill="#007200"/>
<path d="M70.6895 47.9169C71.9567 47.182 70.4985 53.4877 70.3 54.3315C69.4693 57.8703 66.2491 57.9279 63.6456 58.7573C61.3066 59.5084 63.1635 53.6523 63.7224 52.9242C65.4901 50.6424 68.252 49.3386 70.6895 47.9169C70.8611 47.8197 66.9252 50.0968 70.6895 47.9169Z" fill="#007200"/>
<path d="M34.4663 56.289C32.4395 55.9255 36.2972 54.9715 36.1207 55.0327C38.8219 54.1714 40.081 54.9138 41.9145 56.8225C43.3292 58.2865 44.1607 60.0378 41.1415 59.8269C38.5652 59.6483 36.5415 57.5813 34.4663 56.289C34.4457 56.2803 36.8853 57.7901 34.4663 56.289Z" fill="#38B000"/>
<path d="M27.318 75.8163C30.0557 73.9408 31.6275 70.4152 34.6034 68.5046C36.9991 66.4501 40.6559 65.3283 43.8099 65.7712C41.6942 64.4715 39.8072 62.8267 37.765 61.4221C37.2627 61.083 33.9683 58.8855 33.9981 58.7233C34.1999 57.7888 40.5207 57.9222 41.462 57.9131C44.2752 57.8764 47.3019 58.0468 49.9279 59.1741C48.6615 55.7669 50.8527 52.2123 52.9151 49.6378C53.7237 48.635 58.381 42.711 59.6331 43.023C59.358 42.9501 59.2065 48.0297 59.185 48.8025C59.1333 51.962 59.0606 55.744 56.937 58.3024C60.0906 57.7834 63.3944 58.5375 66.4887 59.1444C68.7313 59.5945 71.6639 60.0213 68.5009 61.9837C66.0806 63.4886 64.7967 66.1745 61.8109 66.8132C58.6373 67.4938 55.5355 66.6068 53.226 64.2972C52.2387 66.2831 49.8714 67.8348 47.6107 67.4159C49.2206 68.7975 48.8575 68.5999 47.9319 70.4517C47.1297 72.0352 45.3857 73.7781 43.884 74.7543C41.3428 76.4071 38.2987 76.2779 35.3893 76.0601C33.3856 75.9056 31.3613 75.7424 29.3598 76.0987C28.9912 76.2922 26.0016 76.7108 27.2993 75.8376C27.5868 75.6291 26.9239 76.0816 27.2993 75.8376L27.318 75.8163Z" fill="#70E000"/>
<path d="M55.5276 79.3821C54.7144 76.8081 51.4006 76.215 50.4009 73.7028C49.9614 72.6082 49.8621 67.6847 51.958 67.7132C54.9372 67.7663 57.3059 69.7415 57.4967 72.7755C57.5997 74.4122 57.1506 76.0336 56.6565 77.5777C56.7064 77.4142 55.9167 80.6302 55.5176 79.3828C55.63 79.7364 54.8431 77.2609 55.5176 79.3828L55.5276 79.3821Z" fill="#70E000"/>
<g style="mix-blend-mode:multiply" opacity="0.4">
<path d="M372.581 66.718C378.656 65.4943 424.629 61.7007 430.709 60.5568C430.765 60.8038 430.81 61.0414 430.835 61.2803C424.804 62.4112 378.855 66.113 372.768 66.9868C372.668 66.9931 372.463 66.7455 372.581 66.718Z" fill="#5F4323"/>
</g>
<g style="mix-blend-mode:multiply" opacity="0.4">
<path d="M316.87 75.1421C319.825 74.325 322.874 74.2234 325.91 73.9021C329.195 73.5553 332.519 73.0455 335.81 72.6282C339.11 72.2102 342.548 72.3947 345.869 72.296C349.108 72.1924 352.318 72.0907 355.553 71.747C358.828 71.4007 362.058 71.3077 365.353 71.2808C368.718 71.2495 372.007 70.6519 375.326 70.2127C380.086 69.5926 424.897 67.0746 429.691 66.5225C429.592 66.699 429.493 66.8756 429.383 67.0428C425.173 67.6383 380.942 70.3002 376.743 70.9251C373.457 71.4123 370.216 72.1272 366.889 72.2764C363.622 72.4318 360.374 72.4056 357.118 72.7307C350.557 73.3939 343.999 73.3254 337.413 73.5894C334.105 73.7273 330.598 74.0481 327.339 74.6339C323.961 75.2472 320.493 74.7639 317.1 75.4483C316.981 75.4758 316.752 75.1796 316.88 75.1415L316.87 75.1421Z" fill="#5F4323"/>
</g>
<g style="mix-blend-mode:multiply" opacity="0.4">
<path d="M249.255 76.8698C255.416 75.5705 261.693 74.6946 267.897 73.603C274.338 72.4664 280.975 72.5199 287.472 71.9509C290.899 71.6451 294.347 71.6587 297.782 71.3124C301.516 70.9373 305.239 70.2421 308.963 69.7073C316.082 68.6684 323.183 67.5103 330.318 66.5705C337.165 65.6589 344.053 64.7748 350.914 64.1027C354.2 63.7758 357.502 63.3777 360.805 63.1699C364.328 62.9483 367.752 62.4223 371.257 62.0716C377.351 61.4679 423.387 58.2114 429.484 57.3369C429.688 57.7049 429.871 58.0741 430.045 58.4439C423.247 59.3324 376.51 62.6029 369.725 63.5207C362.949 64.4378 356.097 64.7787 349.29 65.5175C342.393 66.2619 335.472 67.098 328.596 68.0215C321.423 68.9937 314.268 70.0951 307.107 71.1066C303.671 71.5933 300.231 72.1704 296.762 72.4587C293.104 72.759 289.431 72.6694 285.793 73.1387C283.08 73.4897 280.356 73.3504 277.63 73.5018C274.275 73.6928 270.945 73.9624 267.635 74.5413C261.629 75.5904 255.583 76.3114 249.573 77.3007C249.414 77.3307 249.109 76.9291 249.286 76.8878L249.255 76.8698Z" fill="#551B14"/>
</g>
<g style="mix-blend-mode:multiply" opacity="0.4">
<path d="M189.875 79.3729C195.213 79.1774 200.566 79.6824 205.901 79.2866C211.326 78.8753 216.784 79.3135 222.211 79.413C225.261 79.4716 228.218 80.2776 231.288 80.1847C234.058 80.1006 236.814 80.1176 239.59 79.9631C244.732 79.6697 250.577 79.8832 255.49 78.1914C255.549 78.1677 255.669 78.3205 255.601 78.3548C250.902 80.2736 245.165 80.3438 240.164 80.7987C234.823 81.2749 229.738 81.194 224.426 80.5362C221.841 80.2178 218.986 80.3874 216.375 80.2911C213.061 80.1689 209.78 79.9444 206.464 80.1029C200.979 80.3677 195.479 79.7318 189.999 79.5856C189.939 79.5893 189.806 79.3972 189.886 79.3922L189.875 79.3729Z" fill="#551B14"/>
</g>
<g style="mix-blend-mode:multiply" opacity="0.4">
<path d="M178.041 73.4639C180.095 72.6634 182.356 72.2908 184.512 71.8445C187.489 71.2264 190.425 70.6008 193.454 70.3202C196.044 70.0771 198.64 69.9338 201.227 69.6409C203.564 69.3736 206.229 69.8372 208.564 70.011C213.981 70.4217 219.28 69.2868 224.71 70.2378C227.435 70.7077 230.361 70.5437 233.115 70.8514C234.044 70.9533 235.006 71.1132 235.896 71.4079C236.95 71.7624 238.12 71.7289 239.091 72.1889C239.277 72.2774 239.658 72.6041 239.564 72.8505C239.26 73.5911 238.205 73.7175 237.564 74.0284C235.833 74.8687 233.997 75.4651 232.134 75.963C228.076 77.07 223.712 77.4647 219.508 77.5388C222.727 77.8974 225.948 78.1257 229.273 77.7862C235.337 77.1744 241.677 76.1844 247.479 74.2864C248.638 73.9129 249.785 73.5101 250.92 73.078C253.298 72.1669 248.949 71.2081 248.142 71.1285C245.23 70.8609 242.293 70.0436 239.373 70.1371C236.732 70.213 233.917 69.8892 231.272 69.7449C228.266 69.5733 225.302 69.4491 222.326 68.975C219.169 68.4822 216.134 68.0118 212.922 68.0836C210.27 68.1402 207.607 68.3277 204.949 68.1242C202.039 67.8964 199.225 67.6125 196.306 68.0366C194.877 68.2468 193.465 68.4257 192.05 68.7051C190.941 68.9251 190.205 69.1718 189.094 68.861C189.012 68.8361 188.867 68.6047 188.979 68.6377C190.263 68.9778 191.358 68.5382 192.603 68.2595C193.996 67.9514 195.388 67.7737 196.796 67.5349C199.393 67.1009 202.08 67.2826 204.663 67.571C207.761 67.9172 210.97 67.3246 214.086 67.319C217.232 67.3115 220.302 67.8598 223.405 68.2859C229.793 69.1666 236.57 68.1091 242.855 69.5774C245.692 70.2406 251.589 69.3687 252.808 72.9893C252.834 73.0779 252.829 73.1583 252.741 73.1939C246.499 75.7408 239.692 76.9605 233.095 78.1671C226.062 79.4611 219.384 78.9093 212.359 77.7681C205.505 76.6561 198.414 76.6914 191.491 76.3953C188.749 76.2773 185.516 76.9716 182.877 76.1156C181.609 75.7044 178.881 75.1946 178.073 73.9729C177.985 73.8482 177.826 73.5576 178.041 73.4739L178.041 73.4639ZM185.558 75.4159C188.213 75.2489 190.815 75.3657 193.476 75.4589C199.381 75.6686 205.224 76.0125 211.109 76.5441C211.553 76.5863 211.996 76.6285 212.441 76.6808C211.087 76.3551 209.751 75.9782 208.475 75.5976C207.29 75.2413 204.459 75.3191 204.28 73.577C204.277 73.5271 204.284 73.4865 204.321 73.4441C205.995 72.4971 208.021 72.52 209.863 72.1737C212.19 71.7368 214.543 71.719 216.875 71.3519C221.22 70.6577 225.618 70.9722 229.698 72.5993C229.843 72.6604 230.322 73.1212 230.029 73.2398C227.481 74.3019 225.054 74.9054 222.302 75.1186C220.118 75.286 218.371 75.7065 216.304 74.8646C216.119 74.7861 215.514 74.253 215.791 74.0252C216.712 73.2158 218.013 73.1941 219.18 73.1206C219.54 73.098 220.136 73.9723 219.797 74.0037C218.969 74.0657 218.121 74.1191 217.359 74.4276C219.063 74.7513 220.846 74.4287 222.594 74.3388C224.791 74.2206 226.861 73.6796 228.884 72.871C226.931 72.2424 225.03 71.9811 222.928 71.8429C220.352 71.6742 217.924 72.2678 215.379 72.4279C212.914 72.5829 210.587 73.0199 208.151 73.3234C207.729 73.2999 207.313 73.3761 206.932 73.5304C206.893 73.5429 205.317 74.133 205.521 74.1903C206.173 74.3697 206.916 74.3931 207.54 74.5943C213.105 76.4085 218.437 76.9048 224.247 76.419C226.998 76.1859 229.713 75.7045 232.374 74.9861C233.585 74.6594 234.791 74.2328 235.954 73.7589C236.237 73.6409 237.658 73.1407 238.4 72.6632C237.844 72.5879 237.272 72.5838 236.715 72.3283C235.528 71.7717 234.009 71.6769 232.728 71.537C230.195 71.2555 227.566 71.3607 225.076 70.9562C222.323 70.5082 219.595 70.3191 216.801 70.4948C214.455 70.6424 212.042 70.9845 209.685 70.7821C207.146 70.5611 204.252 70.1119 201.712 70.3518C199.152 70.593 196.587 70.9046 194.017 71.1464C191.278 71.4089 188.596 71.9383 185.918 72.5376C183.715 73.0269 181.381 73.3641 179.245 74.1297C179.704 74.2511 180.271 74.3457 180.518 74.4604C182.129 75.2208 183.772 75.5283 185.549 75.4265L185.558 75.4159Z" fill="#551B14"/>
</g>
<g style="mix-blend-mode:multiply" opacity="0.4">
<path d="M250.067 67.6307C252.254 68.0041 254.696 67.7904 256.931 67.9605C259.84 68.1783 262.768 68.0542 265.69 68.3013C272.015 68.8252 278.508 69.9498 284.822 68.701C287.761 68.1153 290.897 68.0985 293.883 67.7804C297.138 67.4454 300.41 67.2195 303.682 66.9936C310.227 66.5419 316.764 66.1307 323.244 65.1219C323.333 65.1163 323.497 65.3264 323.408 65.3521C317.058 66.503 310.635 67.1374 304.222 67.7713C301.016 68.0932 297.821 68.4244 294.621 68.8461C291.391 69.2697 288.074 69.4183 284.891 70.1095C279.019 71.3806 272.956 69.9283 267.104 69.4447C264.092 69.1933 261.094 69.0011 258.082 68.9001C256.425 68.844 254.782 68.3662 253.123 68.4304C252.103 68.4645 251.192 68.3214 250.23 68.0012C250.138 67.9669 249.896 67.6215 250.088 67.6494L250.067 67.6307Z" fill="#551B14"/>
</g>
<g style="mix-blend-mode:multiply" opacity="0.4">
<path d="M356.56 62.1145C358.674 61.6209 360.774 61.078 362.903 60.6735C365.071 60.2566 367.278 59.3462 369.487 59.2574C373.734 59.0904 417.883 55.9326 422.145 55.6646C424.051 55.5447 425.95 55.315 427.825 55.0067C428.03 55.2443 428.236 55.4918 428.423 55.7506C426.53 56.0801 424.633 56.3497 422.728 56.4996C418.72 56.8118 374.76 59.9377 370.749 60.0597C366.03 60.2163 361.429 61.7782 356.746 62.3633C356.657 62.369 356.462 62.1407 356.57 62.1139L356.56 62.1145Z" fill="#5F4323"/>
</g>
<g style="mix-blend-mode:multiply" opacity="0.4">
<path d="M108.633 77.4392C116.761 76.6674 124.798 76.5226 132.938 77.233C134.792 77.3969 136.663 77.4997 138.516 77.6537C140.601 77.8331 142.624 78.4474 144.717 78.5962C148.874 78.8958 153.071 79.9845 157.237 79.9529C157.287 79.9498 157.375 80.0745 157.325 80.0777C153.949 80.2399 150.566 79.5009 147.21 79.3612C143.091 79.1895 139.057 78.4513 134.934 78.2196C130.732 77.993 126.497 77.7383 122.291 77.4418C117.782 77.1243 113.261 77.4086 108.765 77.6113C108.695 77.6157 108.563 77.4336 108.633 77.4292L108.633 77.4392Z" fill="#551B14"/>
</g>
<g style="mix-blend-mode:multiply" opacity="0.4">
<path d="M84.7013 77.0406C89.5048 76.4679 94.2932 75.6557 99.115 75.3725C103.388 75.1238 107.642 75.5375 111.922 75.2482C112.022 75.2419 112.218 75.4901 112.109 75.507C107.982 76.1574 103.97 76.0891 99.8184 76.3603C97.3932 76.5128 94.7563 76.1677 92.3942 76.687C90.0621 77.2044 87.3736 77.3134 84.9958 77.4229C84.8461 77.4323 84.5515 77.05 84.7206 77.0294L84.7013 77.0406Z" fill="#551B14"/>
</g>
</g>
<defs>
<clipPath id="clip0_633_8652">
<rect width="428" height="76" fill="white" transform="matrix(-0.998028 0.0627774 0.0627774 0.998028 427 0)"/>
</clipPath>
</defs>
</svg>
