<svg width="22" height="33" viewBox="0 0 22 33" fill="none" xmlns="http://www.w3.org/2000/svg">
<g clip-path="url(#clip0_2983_112805)">
<path d="M12.7503 22.4756C11.5698 22.172 10.3481 22.1619 9.16752 22.4554C6.76528 23.0423 3.84974 22.6072 2.16612 21.069C0.0307962 19.1159 -0.615961 15.7562 0.636489 13.1555C0.811011 12.7911 1.0266 12.4167 1.00606 12.0119C0.995798 11.6982 0.841809 11.4149 0.708351 11.1214C-0.297715 8.82427 0.564627 5.87946 2.65889 4.46272C3.17219 4.11865 3.73682 3.85555 4.19879 3.45076C4.67102 3.01562 4.99953 2.44892 5.39991 1.95306C6.25198 0.900624 7.62762 0.48572 9.21885 0.192252C10.5329 -0.0506182 11.8777 -0.0910966 13.1815 0.192252C14.6085 0.505959 15.9841 1.05242 16.7438 2.01378C17.1442 2.51976 17.4522 3.08646 17.9244 3.53172C18.3761 3.94662 18.9407 4.21985 19.4438 4.56392C21.5278 6.0009 22.3593 8.95582 21.3224 11.2428C21.189 11.5262 21.035 11.8095 21.0145 12.1233C20.9939 12.528 21.1993 12.9025 21.3738 13.2668C22.6057 15.8776 21.9179 19.2272 19.7517 21.1601C18.0476 22.678 15.1321 23.0828 12.7401 22.4655L12.7503 22.4756Z" fill="#33CC00"/>
<path d="M14.2697 9.40119C14.1055 9.15832 13.5922 8.59163 13.0789 8.43983C12.5656 8.28804 12.3397 8.6827 12.1652 8.98629C12.0523 9.17856 11.8367 9.56311 11.7238 9.7655C11.6109 9.96789 11.4158 10.0691 11.2002 10.0691H10.5535C10.3173 10.0691 10.1018 9.92741 10.0094 9.72502C9.82457 9.32024 9.48579 8.74342 9.16755 8.6827C8.24361 8.49043 6.95009 9.60358 7.371 10.2411C7.61738 10.6155 8.52079 11.5769 8.89037 11.9412C9.07515 12.1234 9.18808 12.3561 9.19835 12.6091C9.27021 13.6615 9.43446 16.4444 9.16755 16.5051C9.00329 16.5456 8.55159 15.6753 8.25387 15.564C7.24781 15.1694 6.45733 16.1206 6.74478 16.7683C6.90903 17.1326 9.00329 19.8649 9.17781 20.0369C9.54739 24.0139 9.301 28.2135 8.80824 32.5042C8.80824 32.7876 9.03409 33.0203 9.32154 33.0203H12.4527C12.7401 33.0203 12.966 32.7876 12.966 32.5143C12.9044 28.7397 12.1857 29.4886 12.504 12.7204C12.504 12.2752 12.6477 11.8299 12.966 11.5263C13.2842 11.2227 14.0644 10.6661 14.3519 10.3018C14.6598 9.90717 14.4135 9.60358 14.2903 9.42143L14.2697 9.40119Z" fill="#336600"/>
</g>
<defs>
<clipPath id="clip0_2983_112805">
<rect width="22" height="33" fill="white"/>
</clipPath>
</defs>
</svg>
