<?xml version="1.0" encoding="UTF-8"?>
<svg xmlns="http://www.w3.org/2000/svg" viewBox="0 0 1710.03 259.54">
  <defs>
    <style>
      .cls-1, .cls-2, .cls-3, .cls-4 {
        mix-blend-mode: multiply;
      }

      .cls-1, .cls-3, .cls-5, .cls-4 {
        opacity: .4;
      }

      .cls-6, .cls-7, .cls-8, .cls-2, .cls-3, .cls-9, .cls-5, .cls-10, .cls-11, .cls-12, .cls-4 {
        stroke-width: 0px;
      }

      .cls-6, .cls-2 {
        fill: #aa6926;
      }

      .cls-7 {
        fill: #995336;
      }

      .cls-7, .cls-5 {
        mix-blend-mode: screen;
      }

      .cls-13 {
        isolation: isolate;
      }

      .cls-8 {
        fill: #38b000;
      }

      .cls-2 {
        opacity: .5;
      }

      .cls-3 {
        fill: #551b14;
      }

      .cls-9 {
        fill: #70e000;
      }

      .cls-5, .cls-4 {
        fill: #5f4323;
      }

      .cls-10 {
        fill: #1d3d0c;
      }

      .cls-11 {
        fill: green;
      }

      .cls-12 {
        fill: #007200;
      }
    </style>
  </defs>
  <g class="cls-13">
    <g id="Calque_2" data-name="Calque 2">
      <g id="Calque_14" data-name="Calque 14">
        <g>
          <g>
            <g>
              <path class="cls-6" d="m1505.79,120.12c8.46-2.17,17.32-3.25,24.33-8.58,2.68-2.06,4.07-7.11-.52-8.38-9.89-2.75-20.92,2.59-30.02,5.23-16.48,4.77-33.27,8.44-49.69,13.48-18.01,5.51-35.43,12.7-53.21,18.87-18.63,6.48-37.31,8.43-57.12,9.58-35.56,2.09-70.44,2.65-106.22-2.37-18.96-2.64-37.77-6.19-56.57-10.23-9.12-1.97-18.12-3.82-27.32-5.06-3.97-.58-7.93-.99-11.9-1.22-3.79-.3-5.73-1.71-6.62-3.63,7.08-7.16,14.52-13.86,22.12-20.62,22.87-20.26,51.56-47.94,83.57-51.5,30.33-3.36,62.71,4.82,92.48,13.4,1.2.35,2.4.73,3.61,1.11-18.29-13.48-38.49-24.57-60.03-33.49-9.44-.54-18.91-1.21-28.28-2.57-4.74-.69-10.04-.08-14.77-.05-17.06.1-3.69-6.99,4.19-10.82-9.25-2.63-18.65-4.95-28.16-6.93-20.24,11.19-39.75,23.38-59.67,35.35-20.65,12.45-38.22,29.3-58.68,42.05-23.64,14.74-50.16,19.82-78.26,21.41-9.96.56-19.95.68-29.94.52-9.99.36-19.99.38-29.99.21-8.2-.14-16.44.6-24.66.48-7.98-.11-15.95-.4-23.91-.91-16.49-1.06-32.93-2.79-49.35-4.71-6.12-.72-93.32,13.7-99.45,12.95-22.3-1.18-44.61-2.82-66.65-5.55-2.43-.3-4.86-.57-7.29-.83-2.23-.03-4.47-.06-6.7-.05-63.28.15-125.02,4.3-187.59-4.79-37.78-5.49-431.91,5.38-466.2-2.06-.26.18-.47.32-.6.41C8.48,116.75.95,127.77.09,138.1c-.84,10.1,4.45,21.78,9.88,29.5,14.89,1.92,118.15-12.32,222.14-14.61,105.13-2.31,211.01,7.34,227.12,9.2,40.8,4.71,81.84,6.24,122.81,8.63,41.46,2.42,81.34-3,122.5,2.4,41.49,5.44,164.07-4.16,205.81-.92,41.19,3.2,82.49-.6,123.77.05,70.71,1.12,141.17,6.95,211.94,5.89,32.33-.48,64.56-3.84,96.9-3.5,39.84.42,79.62,7.34,119.29,13.04,14.86,2.17,30.72,2.84,45.54,2.49,7.12-.15,9.72-7.55,10.72-13.41.34-1.91-.94-4.49-2.79-5.32-5.54-2.52-11.36-3.7-17.31-3.98-13.45-.63-26.29-4.3-39.64-6.16-9.62-1.33-19.26-3.07-28.91-3.62-2.17-.11-12.09.53-18.59-.22,16.61-10.65,37.02-17.32,54.72-24.09,13.08-4.99,26.2-9.8,39.79-13.35Z"/>
              <path class="cls-7" d="m1087.3,93.75c-23.64,14.74-50.16,19.82-78.26,21.41-9.96.56-19.95.68-29.94.52-9.99.36-19.99.38-29.99.21-8.2-.14-16.44.6-24.66.48-7.98-.11-15.95-.4-23.91-.91-16.49-1.06-32.93-2.79-49.35-4.71-6.12-.72-90.54,12.4-96.68,11.65-22.3-1.18-47.39-1.52-69.43-4.25-1.58-.19-3.16-.38-4.75-.55-1.69-.19-3.4-.29-5.1-.31-1.38-.01-2.76-.02-4.15-.02-63.28.15-125.02,4.3-187.59-4.79-18.67-2.71-139.23-10-253.38-8.92-100.76.95-196.54,10.39-212.82,6.86-.26.18-.47.32-.6.41-3.48,2.5-6.82,5.92-9.59,9.8,3.79.77,7.59,1.52,11.4,2.22,20.74,3.78,112.17-5.39,211.8-6.14,125.79-.94,264.68,6.2,290.98,10.24,13.35.8,26.67,2.05,39.97,3.44,23.87,2.51,46.57-4.63,70.51-2.91,24.08,1.74,48.15,3.5,72.21,5.27,48.26,3.55,177.63-8.29,226.02-7.2,24.56.55,48.89-.6,73.4-2.13,20.2-1.26,42.12.96,60.99-7.75,20.56-9.49,36.96-25.74,52.28-42,1.68-1.79,3.42-3.49,5.19-5.15-11.34,8.67-22.45,17.66-34.57,25.22Z"/>
              <path class="cls-7" d="m1233.33,147.95c-18.96-2.64-37.77-6.19-56.57-10.23-9.12-1.97-18.12-3.82-27.32-5.06-3.97-.58-7.93-.99-11.9-1.22-3.55-.28-5.47-1.55-6.43-3.29-5.03.43-10.03.38-15.06-.16-11.56-1.23-23.14-4.51-34.8-4.48-11.72.03-22.56,3.66-33.98,5.64-8.95,1.55-18.18,1.71-27.03,3.81,11.56,1.91,23.49-1.05,35.05-1.74,12.71-.76,25.82.14,38.5,1.11,13.11,1.01,26.07,2.96,38.81,6.25,12.55,3.24,24.79,7.5,37.28,10.95,10.84,2.98,21.93,5.45,33.19,5.99,10.57.5,21.22-.17,31.81-.18,20.84-.03,41.68.39,62.52-.37,16.91-.61,33.75-2.16,50.23-5.19-2.67.2-5.36.37-8.06.53-35.56,2.09-70.44,2.65-106.22-2.37Z"/>
              <path class="cls-4" d="m1233.81,23.27c-5.81-1.65-11.68-3.17-17.6-4.56-7.18,4.27-13.22,9.29-16.27,15.8,7.3-.34,14.44-1.09,21.52-2.07-1.16-2.33,6.9-6.52,12.34-9.16Z"/>
              <path class="cls-3" d="m1318.93,60.71c-6.82-1.74-13.65-3.38-20.53-4.85-18.78-4-39.23-10.69-58.27-10.34-39.91.67-69.24,27.77-92.15,49.71-8.94,8.55-17.14,19.37-29.84,24.57-4.31,1.75-9.34,2.23-14.5,2.14,9.12,2.84,18.47,4.63,27.84,5.34,6.92-6.96,14.16-13.48,21.56-20.06,22.87-20.26,51.56-47.94,83.57-51.5,30.33-3.36,62.71,4.82,92.48,13.4,1.2.35,2.4.73,3.61,1.11-4.49-3.31-9.06-6.48-13.77-9.5Z"/>
              <path class="cls-4" d="m1455.93,128.52c-24.95,7.79-47.11,19.57-71.73,27.83,11.33,1.22,22.03-.42,32.77-2.18,15.43-8.72,33.3-14.68,49.03-20.7,13.08-4.99,26.2-9.8,39.79-13.35,8.46-2.17,17.32-3.25,24.33-8.58,1.72-1.31,2.89-3.89,2.3-5.87-9.98,2.65-19.3,6.81-29.03,9.67-15.72,4.62-31.86,8.32-47.46,13.18Z"/>
              <path class="cls-5" d="m1304.14,155.24c-15.86-1.54-30.08,2.37-46.19-.64-16.16-3-31.11-5.23-47.37-6.89-14.93-1.52-29.65-3.54-44.55-5.35-13.82-1.68-27.73,3.44-41.43,3.05-.75,0-3.68,1.69-2.28,2.05,9.23,2.44,19.36,2.8,28.64,2.66,13.44-.18,29.38,4.37,43.14,6.03,37.54,4.48,71.97-.58,108.72.47.68.01,2.45-1.29,1.32-1.38Z"/>
              <g class="cls-1">
                <path class="cls-3" d="m1065.77,117.8c20.26,2.22,40.18,7.9,60.24,10.92-19.21-6.15-38.29-12.19-58.62-14.6-12.6-1.48-25.56.17-37.75,1.17-10.04.82-22.33,4.81-33.49,5.23,23.61,2.78,45.62-5.35,69.62-2.72Z"/>
              </g>
              <path class="cls-2" d="m1075.13,118.59c6.54.8,13.17,1.03,19.68,2.05,4.24.67,8.29,2.21,12.49,3.12,5.42,1.18,10.89,2.02,16.41,2.57,2.66.27,5.33.5,8,.71,6.85-6.87,14.01-13.33,21.34-19.85,22.87-20.26,51.56-47.94,83.57-51.5,30.33-3.36,62.71,4.82,92.48,13.4,1.2.35,2.4.73,3.61,1.11-18.29-13.48-38.49-24.57-60.03-33.49-9.44-.54-18.91-1.21-28.28-2.57-4.74-.69-10.04-.08-14.77-.05-17.06.1-3.69-6.99,4.19-10.82-9.25-2.63-18.65-4.95-28.16-6.93-17.93,9.9-35.27,20.6-52.83,31.22.24-.07.48-.15.73-.21,8.46-2.19,19.41-5.37,27.46-.34.27.16.38.57.25.86-1.99,4.43-4.78,8.43-8.03,12.03-11.96,13.27-27.38,22.98-40.32,35.25-6.43,6.1-13.15,12.58-21.27,16.38-8.14,3.81-17.5,4.62-26.39,5.02-6.93.31-13.89.39-20.86.33,3.73,1.11,8.11,1.4,10.74,1.72Z"/>
              <path class="cls-2" d="m1505.79,120.12c8.46-2.17,17.32-3.25,24.33-8.58,2.68-2.06,4.07-7.11-.52-8.38-9.89-2.75-20.92,2.59-30.02,5.23-16.48,4.77-33.27,8.44-49.69,13.48-12.26,3.75-24.26,8.28-36.28,12.74.35.27.49.78.02,1.08-20.12,12.91-43.9,19.14-67.34,22.61-26.09,3.86-52.53,4.77-78.88,4.61-27.92-.16-55.75-1.28-83.67-.75-35.68.67-71.37,2.05-107.06,1.29-44.97-.96-89.88-1.95-134.66-6.01-45.33-4.11-171.69,6.74-217,2.42-89.21-8.53-178.03-1.29-266.77-13.9-34.46-4.89-424.32,10.73-455.44,10.04,1.89,4.05,4.5,7.82,7.16,11.6,14.99,1.93,124.35-13.41,231.61-15.71,102.6-2.2,203.29,8.64,217.65,10.3,40.8,4.71,81.84,6.24,122.81,8.63,41.46,2.42,81.34-3,122.5,2.4,41.49,5.44,164.07-4.16,205.81-.92,41.19,3.2,82.49-.6,123.77.05,70.71,1.12,141.17,6.95,211.94,5.89,32.33-.48,64.56-3.84,96.9-3.5,39.84.42,79.62,7.34,119.29,13.04,14.86,2.17,30.72,2.84,45.54,2.49,7.12-.15,9.72-7.55,10.72-13.41.34-1.91-.94-4.49-2.79-5.32-5.54-2.52-11.36-3.7-17.31-3.98-13.45-.63-26.29-4.3-39.64-6.16-9.62-1.33-19.26-3.07-28.91-3.62-2.17-.11-12.09.53-18.59-.22,16.61-10.65,37.02-17.32,54.72-24.09,13.08-4.99,26.2-9.8,39.79-13.35Z"/>
            </g>
            <path class="cls-10" d="m1309.37,80.58c-.36-.36-.74-.72-1.13-1.1-.85-.75-1.74-1.47-2.76-2.08-5.35-3.27-11.38-5.02-16.84-8.01,0,.07-.04.13,0,.21,1.41,3.17.79,7.07,1.67,10.49,1,3.86,6.56,8.83,9.48,11.38,4.88,4.26,11.54,8.22,17.97,9.74-1.59-7.4-3.32-15.26-8.39-20.62Z"/>
            <g>
              <path class="cls-9" d="m1291.11,73.99c4.85,4.4,9.55,8.39,15.19,11.7,6.53,2.02,13.38,3.52,20.23,4.11,3.26-6.98-3.5-17-8.59-21.96,4.86.23,10.09-.53,14.66,1.14.46.16,2.57.29,2.23-.69-4.38-12.65-14.93-20.65-27.58-22.11,3.42-1,6.69-2.46,9.87-4.05,6.12-3.04,13.15-8.89,17.36-14.35.08-.13.09-.26.01-.41-11.05-13.34-36.92-5.04-49.71,6.13,4.57-10.79,10.91-21.47,4.3-33.21-6.49,6.09-12.26,13.32-15.68,21.28-1.66,7.28.78,13.56,6.14,18.76.37.36,1.24.6,2.06.6,2.62,10.75,1.14,25.46,9.5,33.06Z"/>
              <path class="cls-11" d="m1300.34,86.58c-.28-7.55-4.25-15.82-10.15-20.66,5.5,1.54,11.18,2.23,16.75,3.43,3.64-.13,7.29.02,10.93,0-2.24-3.87-8.85-10.77-10.04-12.07-4.49-5.02-9.73-10.06-15.95-12.85,5.04-2.06,7.98-6.62,9.76-11.66,1.93-10.18,3.43-20.41,2.31-30.66-1.91,2.37-7.81,8.13-8.89,9.17-5.46,5.21-12.02,11.49-13.06,19.38-4.22-6.4-10.91-11-16.99-15.45-1.78-1.3-3.72-2.78-5.31-3.54-2.14,9.97-1,19.85,3.18,29.01,3.85,3.78,8.89,6,14.6,6.23-1.89,4.95-.77,11.65,3.64,14.95-5.05-.57-4.11-.27-5.86,4.37-1.48,3.97-1.71,9.89-.99,14.1.25,1.47.7,2.84,1.25,4.15,1.36,1.83,2.81,3.54,4.32,5.21.17.06.34.14.5.29,6.16,5.5,11.98,11.06,18.89,15.24.47-6.08,2.22-12.39,1.12-18.64Z"/>
            </g>
            <g>
              <path class="cls-11" d="m1600.54,258.17c1.86-9.23,10.64-15.29,13.78-23.99,2.97,5.37,9.64,25.44,14.87,15.13,4.86-9.57,13.11-20.61,11.42-31.98,6.83,3.92,14.87,2.86,22.24,4.82,8.23,2.19,6.49-.3,4.48-6.36-3.75-11.12,7.39-8.18.28-18.14,13.76-2.45,23.13-11.41,32.86-20.51.78-.72,13.69-9.26,8.21-9.59-6.87-.44-13.36-2.88-19.91-4.69,4.22-3.27,7.43-7.01,9.87-11.8,1.28-2.44,9.74-14.88,8.88-16.78-.9-1.95-14.25-6.05-16.9-7.84-5.77-3.87-11.77-8.87-18.82-10.15,5.1-6.26,8.89-13.48,12.54-20.67,2.97-5.82,9.52-12.46.18-13.39-13.75-1.34-25.92-13.13-40.09-11.36,4.81-6.98,8.66-14.62,14.07-21.16,7.49-9.01-1.12-4.36-6.3-2.81-16.77,4.99-33.6-4.7-49.06,6.77,3.49-5.67,6.45-11.68,10.55-16.95,2.51-3.17,5.41-6.03,8.85-8.17,2.32-1.47-.08-5.22-2.41-4.03-14.82,7.56-33.54,5.17-46.98,15.8-1.01-12.5-10.14-20.83-12.49-32-1.45-6.74-3.76,7.78-3.36,5.61-1.21,6.48-4.56,12.25-6.85,18.35-4.75-15.89-25.08-22.16-38.47-28.32-2.08-.95-7.45-5.02-9.81-3.75-2.31,1.21-.62,13.39-.87,15.97-1.12,12.14-3.54,24.02,1.65,35.62-3.92-2.28-20.2-9.11-24.41-7.19-2.6,1.2,7.14,26.05,9.19,29.28-18.55-7.41-39.95,4.02-58,7.92-1,.22-11.16.91-7.73,4.51,3.84,3.98,6.59,8.81,9.42,13.51,6.31,10.62,14.95,19.49,26.81,23.8-8.39,4.53-11.77,14.64-18.45,21.06-.81.76-10.08,6.33-4.43,7.52,7.2,1.55,14.06,4.44,21.29,5.99-5.17,3.6-9.03,8.71-13.45,13.11-4.94,4.95-8.46,6.2,0,8.53,12.34,3.41,20.18,13.65,34.24,11.76-1.65,3.1-17.91,11.25-14.15,10.29,9.95-2.45,29.02,13.18,37.61,7.1-.27,12.71,3.36,3.39,10.08,12.64,4.91,6.75,5.63,2.01,11.26-2.11,5.37-3.91,11.57-6.63,16.51-11.16.09,13.08,11.02,19.22,14.31,30.74,1.54,5.4-1.42,10.85,6.3,5.21,5.68-4.12,11.36-8.37,15.81-13.84,2.42,7.05,7.65,12.91,12.58,18.33,1.21,1.32,11.66,14.97,12.78,9.32,1.62-8.12-.31,1.67,0,0Z"/>
              <path class="cls-12" d="m1482.39,85.8c-1.99-.31,3.6-1.1,2.66-.54,2.79-1.73-5.93-9.3-7.21-10.03-6.43-3.6-13.72-2.83-19.54-5.76-5.03-2.58,2.07,9.01,2.2,9.22,6.22,8.87,12.78,5.74,21.89,7.12.57.09-5.64-.86,0,0Z"/>
              <path class="cls-12" d="m1537.39,48.54c-.5-.26.29-19.31-2.81-23.09-2.97-3.64-7.23-5.99-11.13-8.5-.54-.35-6.67-4.63-5.73-4.98-4.51,1.58-2.87,26.03-.63,29.6,2.62,4.16,6.83,6.71,11.22,8.59,2.26.91,4.49,1.8,6.75,2.63,2.43.92,4.95-2.85,2.33-4.26-.07-.05,2.49,1.34,0,0Z"/>
              <path class="cls-12" d="m1512.55,38.13c4.92,9.22,7.78,17.68,17.98,22.26,7.76,3.49,15.51,11.47,17.24.81,4.14-25.3-21.99-33.35-42.25-32.77,2.76-.1,6.12,8.01,7.04,9.71,3.54,6.57-2.8-5.25,0,0Z"/>
              <path class="cls-12" d="m1641.02,105.55c5.88,3.04,13.63,5.35,20.04,2.57,1.99-.86,15.25-9.75,14.85-11.45-.54-2.16-23.56-3-26.74-1.71-3.33,1.36-8.4,4.11-10.55,7.06-1.48,2.04.16,4.21,2.4,3.53,5.16,2.67-.32.08,0,0Z"/>
              <path class="cls-12" d="m1650.45,91.89c2.49,3.85,11.75-6.84,13.36-9.03.68-.91,9.9-13.88,5.48-11.2-6.62,3.97-14.33,4.87-19.47,11.33-1.71,2.17-4.34,13.96.63,8.91.75,1.11-.2.2,0,0Z"/>
              <path class="cls-8" d="m1607.59,189.23c-6.03-10.76-.09-25.04-7.14-35.37,3.25-.27,26.42-3.65,27.45-5.36,3.15-5.17-23.92-23.58-28.65-24.41,5.32-3.51,9.41-8.38,11.35-14.51.86-2.77,4.69-16.93,2-18.98-3.66-2.76-24.56,3.96-26.86,8.05-1.42-4.37-23.03-29.73-25.96-24.53-.19,1.9.16,3.73,1.04,5.51.26,4.14-1.83,7.96-2.66,11.95-1.71,8.43,2.5,16.49,8.84,21.84-6.78-.56-12.9,1.52-18.6,5.03-1.87,1.16-17.56,8.62-17.51,8.95.04.22,14.66,7.56,16.42,8.94,5.44,4.16,12.68,7.82,19.65,5.83-2.29,4.46-3.57,9.38-5.49,14.01-.67,1.58-5.85,7.56-5.69,8.78.39,2.95,20.47-2.82,22.95-3.69-.26,9.03,4.44,18.28,12.35,22.68,1.75.99,18.81,9.37,16.5,5.27-5.47-9.74.89,1.56,0,0Z"/>
              <path class="cls-8" d="m1548.87,107.5c6.03-4.21-12.6-18.41-16.58-19.49-3.53-.96-31.99,5.38-31.44,7.88.28,1.19,16.8,10.41,19.08,11.94,8.82,6.02,20.17,5.78,28.95-.33,1.73-1.23-6.09,4.25,0,0Z"/>
              <path class="cls-8" d="m1526.95,76.25c5.45,1.76,1.86-4.64.89-6.01-3.74-5.28-9.5-11.52-15.77-13.8-4.83-1.74-10.15-1.02-15.01.04-1.3.27-14.09,1.57-14.16,1.82.23-.84,19.31,15.33,20.79,16.31,5.3,3.53,18.44,8.29,23.25,1.63.18.08-3.86,5.35,0,0Z"/>
              <path class="cls-8" d="m1674.98,135.79c4.38-1.97-15.18-10.15-17.78-11.23-10.99-4.56-17.29,3.9-24.46,9.23-6.45,4.78,12.64,11.03,15.63,10.93,9.44-.35,18.18-5.17,26.61-8.93.58-.26-12.99,5.82,0,0Z"/>
              <path class="cls-8" d="m1639.45,114.08c6.67-.96-5.82-4.52-5.26-4.31-8.71-3.14-12.92-.85-19.17,5.14-4.79,4.63-7.74,10.24,2.17,9.93,8.44-.28,15.32-6.79,22.26-10.76.08-.04-8.09,4.62,0,0Z"/>
              <path class="cls-8" d="m1603.1,79.38c1.36-2.24,10.82-18.9,9.27-20.44-2.05-2.04-16.85,6.19-18.94,7.77-5.46,4.15-10.11,13.58-6.57,20.32,3.72,7.14,14.36-4.57,16.24-7.65,3.67-5.99-2.65,4.34,0,0Z"/>
              <path class="cls-8" d="m1576.8,77.05c4.74-3.36,8.42-9.45,9.12-15.2.21-1.78,3.85-16.3,3.9-16.21-.81-1.37-7.83.78-8.56,1.16-5.75,2.91-10.17,7.77-12.73,13.66-1.73,3.95-1.91,9.08-.24,13.1.76,1.82,7.36,8.64,8.51,3.5,4.11-2.9-.28,1.27,0,0Z"/>
              <path class="cls-8" d="m1555.08,64.97c6.54-3.78,2.58-13.6-.84-18.15-1.84-2.46-17.27-17.16-19.09-16.7-3.22.78-.45,46.5,19.93,34.85.08-.03-6.8,3.9,0,0Z"/>
              <path class="cls-12" d="m1514.1,163.31c8.34-5.11,19.18-.33,28.51-5.71,6.5-3.77,17.72-10.69,4.66-14.41-9.15-2.6-19.75-.76-26.42,6.3-2.5,2.65-5.27,6.21-6.64,9.6-1.74,1.22-3.62,6.35-.12,4.22,6.6-4.06-1.37.81,0,0Z"/>
              <path class="cls-9" d="m1660.45,178.78c-8.74-6.46-13.42-18.18-22.94-24.8-7.58-7-19.4-11.11-29.78-10.07,7.07-4.01,13.46-9.14,20.3-13.49,1.69-1.05,12.73-7.84,12.64-8.38-.56-3.07-21.22-3.41-24.31-3.54-9.19-.47-19.13-.26-27.83,3.08,4.56-10.97-2.19-22.88-8.62-31.53-2.53-3.38-17.03-23.33-21.18-22.44.92-.2.78,16.42.75,18.96-.21,10.33-.45,22.71,6.19,31.32-10.26-2.07-21.15-.02-31.33,1.58-7.39,1.19-17.04,2.23-6.93,9.03,7.74,5.22,11.62,14.16,21.28,16.61,10.3,2.61,20.54.09,28.38-7.19,2.98,6.61,10.54,11.96,17.99,10.88-5.42,4.34-4.22,3.73-1.41,9.88,2.43,5.27,7.94,11.19,12.71,14.55,8.11,5.7,18.09,5.66,27.61,5.29,6.57-.26,13.22-.56,19.71.87,1.19.67,10.9,2.4,6.78-.61-.92-.71,1.2.86,0,0Z"/>
              <path class="cls-9" d="m1567.77,187.03c2.98-8.31,13.88-9.87,17.46-17.93,1.58-3.53,2.5-19.62-4.38-19.78-9.74-.18-17.73,5.97-18.73,15.88-.53,5.35.75,10.69,2.16,15.79-.14-.54,2.04,10.06,3.49,6.04,2.45-6.85-.41,1.13,0,0Z"/>
              <path class="cls-8" d="m1541.64,118.31c-7.83,7.66-22.04.98-28.72,10.92-1.89-3.7-24.42-22.8-27.83-20.05-.75.56.27,8.18.38,9.41.7,7.78,2.27,15.64,7.88,21.47-5.22,1.76-9.52,5.35-13.78,8.69-4.37,3.42-10.85,5.19-3.71,8.71,8.02,3.94,19.11,12.37,28.43,7.69-1.38,4.38,1.8,29.8,4.27,27.18,7.97-8.42,19.59-17.56,16.78-30.71,5.47,2.94,12.31,4.38,15.73,10.1,2.53,4.27,1.13-15.38.88-17.39-.48-3.88-1.53-7.6-4.91-9.96,1.9-4.09,2.53-8.7,3.36-13.1.19-1.03,4.55-16.18,1.24-12.97-4.86,4.76,1.19-1.17,0,0Z"/>
              <path class="cls-8" d="m1515.97,81.43c-.37-3.51-5.76,10.88-6.11,11.48-4.38,7.59-6.98,15.56.01,22.77,6.6,6.82,11.41-6.3,12.38-11.64,1.69-9.21-5.44-14.11-6.28-22.6-.18-1.64.69,6.88,0,0Z"/>
              <path class="cls-8" d="m1476.55,133.6c-4.45-7.8-14.8-4.96-20.22-.41-1.11.96-14.95,12.45-14.93,12.49.49,2.67,20.41,2.48,22.97,1.49,2.8-1.06,14.2-9.94,12.18-13.57-2.46-4.33.51.89,0,0Z"/>
              <path class="cls-9" d="m1523.11,120.47c-1.35-7.18-7.29-12.36-12.55-16.86-.41-.36-12.85-11.72-11.35-5.07,2.04,9.13-.3,19.12.17,28.39.5,9.2,3.51,18.93,14.19,19.67,4.11.27,9.45-4,10.63-8.14,1.69-5.81,0-12.24-1.08-17.99-1.94-10.37,1.1,5.9,0,0Z"/>
              <path class="cls-9" d="m1511.27,149.65c-9.65-.09-16.21,1.56-22.92,9.31-1.78,2.09-16.29,20.05-14.8,21.74,2.86,3.26,24.2-4.8,27.46-6.54,3.76-1.99,20.6-24.44,10.26-24.51-1.22-.02,1.66,0,0,0Z"/>
              <path class="cls-9" d="m1549.49,163.5c-5.55-5.37-7.84-13.72-15.62-16.6-2.45-.93-13.61.12-13.14,2.78,1.36,7.47,8.81,12.53,15.69,14.27,1.88.5,14.32.73,13.08-.45-4.21-4.08.97.93,0,0Z"/>
              <path class="cls-9" d="m1483.76,113.59c-2.76-4.72-7.44-7.85-11.19-11.68,1.34,1.39-7-7.1-4.91-1.52,1.55,4.43.47,11.51,1.92,16.57,1.84,6.36,5.72,13.88,13.39,13.74.94,1.58,3.5,2.84,5.07,1.16,3.17-3.39-2.44-15.14-4.28-18.27-3.35-5.72,2.84,4.81,0,0Z"/>
            </g>
          </g>
          <path class="cls-4" d="m421.16,131.28c-9.2-2.21-97.12-9.85-190.26-8.23-106.36,1.85-219.52,13.05-230.05,10.65-.2.79-.37,1.57-.5,2.35,10.46,2.37,123.75-8.93,230.16-11.04,93.01-1.85,180.77,5.45,190,7.12.33.06,1.01-.76.65-.85Z"/>
          <path class="cls-4" d="m602.29,169.6c-9.58-3.02-19.52-3.73-29.41-5.14-10.71-1.52-21.5-3.6-32.2-5.37-10.73-1.78-22.02-1.57-32.86-2.32-10.6-.73-21.07-1.46-31.59-2.95-10.66-1.51-21.22-2.23-31.98-2.73-10.98-.51-21.67-2.88-32.48-4.69-7.06-1.19-89.17-11.52-177.97-8.49-106.15,3.62-221.85,20.76-230.34,19.46.3.59.62,1.18.94,1.75,7.54,1.35,124.55-11.75,230.55-15.29,86.65-2.89,165.96,3.59,172.1,4.74,10.7,1.99,21.2,4.71,32.07,5.62,10.67.9,21.28,1.2,31.9,2.67,21.39,2.96,42.83,3.53,64.33,5.18,10.81.84,22.22,2.31,32.81,4.63,10.97,2.4,22.37,1.24,33.37,3.92.38.09,1.18-.85.75-.99Z"/>
          <path class="cls-3" d="m903.12,158.17c-19.99-4.99-121.46,6.56-141.61,2.22-20.93-4.5-42.64-5.12-63.8-7.78-11.18-1.41-22.46-1.78-33.63-3.32-12.17-1.67-23.59,7.88-35.49,4.85-22.32-5.68-45.96-14.26-69.15-18.21-22.26-3.8-44.68-7.54-67.05-10.58-10.71-1.45-21.46-3.17-32.21-4.25-11.48-1.15-22.63-3.29-34.04-4.86-9.48-1.3-101.15-7.93-196.59-5.48-104.65,2.68-213.84,14.45-224.21,12.56-.71,1.17-1.37,2.35-1.96,3.57,11.5,1.95,120.57-9.71,225.8-12.17,97.26-2.28,191.23,4.61,201.83,6.45,22.04,3.82,44.4,5.78,66.56,9.01,22.45,3.27,45,10.83,67.37,14.71,23.32,4.05,45.45-1.59,68.75,2.59,11.19,2.01,22.37,4.32,33.66,5.66,11.91,1.41,23.94,1.57,35.79,3.54,8.82,1.46,17.74,1.34,26.64,2.18,10.94,1.03,21.81,2.31,32.57,4.61,19.51,4.15,120.25-7.9,139.78-3.97.52.1,1.56-1.17,1-1.31Z"/>
          <path class="cls-3" d="m1096.95,169.54c-17.43-1.28-35-.27-52.37-2.24-17.68-2-35.6-1.23-53.35-1.55-9.98-.18-19.76,2.1-29.77,1.42-9.05-.62-18.07,3.12-27.11,2.27-16.78-1.59-35.9-1.6-51.78-7.72-.19-.07-.61.41-.38.51,15.12,6.84,33.88,7.78,50.17,9.85,17.39,2.22,34.04-1.45,51.49-2.95,8.49-.73,17.79.16,26.37.16,10.84-.01,21.61-.33,32.42.59,17.89,1.52,35.96.12,53.91.29.21,0,.64-.6.4-.61Z"/>
          <path class="cls-3" d="m1136.37,151.65c-6.62-2.87-13.95-4.35-20.96-6.08-9.66-2.38-19.19-4.79-29.07-6.07-8.45-1.09-16.89-1.89-25.33-3.16-7.61-1.15-16.38.03-24.05.34-17.77.7-34.96-3.66-52.82-1.22-8.96,1.22-18.5.3-27.55.98-3.06.23-6.21.62-9.17,1.48-3.49,1.02-7.3,4.77-10.55,6.17-.6.26-1.92,1.28-1.61,2.11.9,2.45,4.34,2.99,6.41,4.09,5.56,2.96,11.5,1.12,17.51,2.99,13.13,4.1,27.36,5.95,41.1,6.68-10.56.79-21.13,1.12-31.96-.38-19.77-2.74-40.35-2.75-59.11-9.65-3.74-1.38-7.45-2.81-11.12-4.37-7.66-3.26,6.68-9.88,9.32-10.02,9.57-.53,19.25-2.82,28.81-2.19,8.63.58,17.86-.14,26.54-.31,9.85-.19,19.56-.26,29.35-1.44,10.38-1.24,20.36-2.4,30.84-1.78,8.68.51,17.36,1.44,26.07,1.09,9.53-.39,18.77-.99,28.26.75,4.64.85,9.23,1.62,13.84,2.71,3.58.84,5.98,1.76,9.64.85.26-.06.77-.81.41-.73-4.25.97-7.77-.63-11.8-1.68-4.52-1.18-9.05-1.92-13.61-2.86-8.43-1.75-17.23-1.46-25.74-.84-10.18.74-20.6-1.58-30.77-1.97-10.27-.4-20.38,1.01-30.58,2.03-20.99,2.1-43.01-2.16-63.74,1.86-9.34,1.81-28.53,2.25-32.96,13.94-.1.28-.09.56.2.69,20.1,9.08,42.22,13.88,63.64,18.65,22.83,5.08,44.74.08,67.84-2.8,22.55-2.81,45.71-1.84,68.39-1.95,8.98-.04,19.46,2.61,28.21.14,4.21-1.19,13.17-2.54,15.97-6.41.29-.41.85-1.32.14-1.62Zm-24.81,5.47c-8.66-.84-17.2-.8-25.89-.82-19.35-.04-38.47.38-57.78,1.42-1.46.08-2.91.17-4.36.28,4.47-.88,8.88-1.97,13.1-3.08,3.91-1.03,13.18-.44,13.96-6.08.02-.16-.01-.31-.12-.44-5.36-3.29-11.97-3.47-17.98-4.82-7.54-1.7-15.24-2.04-22.82-3.54-14.13-2.78-28.55-2.31-42.09,2.54-.47.17-2.09,1.62-1.15,2.05,8.21,3.8,16.06,6.05,25.04,7.08,7.12.82,12.79,2.4,19.63-.1.61-.22,2.64-1.89,1.79-2.7-2.93-2.74-7.15-3-10.98-3.36-1.16-.11-3.24,2.67-2.12,2.8,2.71.31,5.47.6,7.93,1.68-5.61.86-11.41-.41-17.11-.92-7.19-.65-13.86-2.67-20.39-5.58,6.47-1.83,12.71-2.43,19.61-2.63,8.43-.25,16.31,1.98,24.61,2.83,8.03.82,15.59,2.5,23.53,3.82,1.4-.01,2.73.27,3.98.84.14.05,5.21,2.15,4.52,2.31-2.14.5-4.58.49-6.67,1.08-18.41,5.26-35.9,6.23-54.86,3.92-8.98-1.09-17.78,1-26.41-1.68-3.92-1.22-7.82-2.76-11.56-4.45-.91-.41-5.48-2.23-7.88-3.87,1.84-.18,3.7-.12,5.54-.9,3.96-1.69,8.92-5.79,13.14-6.11,8.3-.63,16.89.05,25.1-.97,9.05-1.13,18.01-1.42,27.1-.51,7.67.77,15.5,2.17,23.22,1.79,8.34-.41,17.83-1.53,26.12-.43,8.35,1.11,16.69,2.41,25.05,3.53,8.91,1.19,17.63,3.26,26.33,5.52,7.16,1.85,14.74,3.25,21.63,6.03-1.51.34-3.4.59-4.19.93-5.38,2.3-10.77,3.1-16.57,2.54Z"/>
          <path class="cls-3" d="m901.56,123.85c-7.21.96-15.14-.04-22.49.24-9.55.36-19.11-.39-28.68.05-21.07.97-122.14,19.26-143.66,14.15-9.55-2.27-19.79-2.72-29.51-4.09-10.61-1.5-21.28-2.64-31.93-3.77-21.33-2.26-41.53,5.71-62.6,1.61-.29-.06-.85.65-.55.72,20.63,4.52,40.39-2.73,61.3.12,10.44,1.42,20.86,2.92,31.25,4.66,10.51,1.77,21.33,6.68,31.66,9.32,19.05,4.88,39.04.86,58.25-.01,9.87-.45,100.76-19.88,110.65-19.86,5.43.01,10.84-1.33,16.29-.95,3.34.24,6.34-.13,9.52-1.07.3-.09,1.16-1.21.51-1.12Z"/>
          <path class="cls-4" d="m474.12,118.16c-6.84-1.86-13.66-3.89-20.56-5.49-7.04-1.63-14.14-4.87-21.34-5.43-7.02-.54-106.59-6.23-205-3.02s-190.88,15.19-197.73,14.51c-6.23-.62-12.39-1.61-18.5-2.84-.71.76-1.39,1.54-2.06,2.36,6.14,1.3,12.33,2.42,18.54,3.15,6.53.76,103.06-11.38,199.76-14.59,97.02-3.23,194.21,2.46,200.77,2.92,15.42,1.07,30.27,6.75,45.51,9.23.31.05.97-.7.61-.8Z"/>
          <path class="cls-3" d="m1362.81,173.08c-26.47-3.52-52.73-4.95-79.45-3.61-6.1.31-12.2.41-18.3.69-6.84.32-13.52,2.11-20.39,2.35-13.63.48-27.48,3.52-41.11,2.92-.16,0-.46.39-.3.4,11.01.93,22.17-1.06,33.17-1.11,13.49-.06,26.77-2,40.28-2.23,13.77-.24,27.65-.55,41.42-1.02,14.77-.5,29.52,1,44.22,2.19.24.02.69-.56.45-.58Z"/>
          <path class="cls-3" d="m1441.11,174.66c-15.62-2.45-31.18-5.7-46.92-7.21-13.93-1.34-27.89-.49-41.86-1.95-.32-.03-.99.76-.63.83,13.43,2.62,26.53,2.87,40.09,4.29,7.92.83,16.56,0,24.25,1.98,7.57,1.97,16.34,2.65,24.12,3.31.49.04,1.49-1.17.95-1.25Z"/>
        </g>
      </g>
    </g>
  </g>
</svg>