<svg width="24" height="12" viewBox="0 0 24 12" fill="none" xmlns="http://www.w3.org/2000/svg">
<g clip-path="url(#clip0_676_10271)">
<path fill-rule="evenodd" clip-rule="evenodd" d="M-2.47955e-05 5.55837C-0.0017643 5.61484 0.0313072 5.71014 0.0957108 5.84073C0.123562 5.89367 0.156635 5.9572 0.194929 6.02425C0.200151 6.03131 0.205372 6.0419 0.210594 6.05249C0.236704 6.09837 0.266294 6.14778 0.299366 6.20073C0.299366 6.20425 0.304588 6.20778 0.308071 6.21484C0.342884 6.27131 0.381176 6.33131 0.421211 6.39484C0.461246 6.45837 0.504763 6.5219 0.55002 6.59249C0.572649 6.62426 0.595276 6.65955 0.619644 6.69484C0.691011 6.80073 0.769341 6.91367 0.851151 7.03014C0.948626 7.16778 1.05481 7.31602 1.16447 7.46425C1.19058 7.49955 1.21669 7.53484 1.2428 7.57367C1.25846 7.59484 1.27413 7.61602 1.28979 7.63367H1.29153C1.30894 7.65837 1.32461 7.68308 1.34201 7.70425C1.35072 7.71837 1.36116 7.73249 1.3716 7.74308C1.92165 8.48425 2.56569 9.29602 3.17491 10.016H3.17839C3.26194 10.1113 3.34376 10.2101 3.42557 10.3019H3.42905C3.44819 10.3231 3.46212 10.3443 3.47952 10.3654C4.04001 11.0043 4.54654 11.5301 4.88422 11.7948C4.90859 11.8125 4.93122 11.8301 4.95211 11.8443C5.00955 11.8866 5.06177 11.9184 5.10703 11.9431C5.12791 11.9501 5.14706 11.9607 5.16447 11.9643C5.18536 11.9748 5.2045 11.9784 5.22191 11.9784C5.93209 12.0031 15.9216 12.0313 17.0287 11.8901C18.1357 11.7454 23.0061 12.1443 23.2759 11.9431C23.3559 11.8831 23.429 11.6254 23.4934 11.2901C23.5526 10.9866 23.6031 10.6195 23.6449 10.2843C23.6466 10.2595 23.6501 10.2348 23.6518 10.2137C23.6832 9.94543 23.7075 9.69837 23.725 9.5219C23.725 9.51131 23.7267 9.50072 23.7267 9.49014C23.7424 9.33484 23.7493 9.24308 23.7493 9.24308C23.7493 9.24308 23.7493 9.11955 23.7563 8.91131V8.88661C23.7563 8.8619 23.7563 8.83367 23.7563 8.80896V8.79484C23.765 8.33602 23.7807 7.5772 23.7981 6.7619C23.7981 6.74426 23.7981 6.72661 23.7981 6.70896C23.7998 6.62778 23.8015 6.54308 23.8033 6.45837C23.8033 6.41249 23.8033 6.36661 23.8068 6.3172C23.8172 5.86543 23.8277 5.40661 23.8381 4.98661C23.8381 4.97249 23.8381 4.95837 23.8381 4.94426C23.8538 4.28426 23.8694 3.71249 23.8816 3.39131V3.3772C23.8851 3.30661 23.8868 3.25014 23.8903 3.20426C23.8921 3.18308 23.8921 3.1619 23.8938 3.14778C23.8938 3.14073 23.8938 3.1372 23.8955 3.13014C23.8955 3.09837 23.9008 3.05602 23.9042 3.01014C23.9129 2.90426 23.9234 2.76661 23.9338 2.61484C23.9634 2.24073 23.993 1.76073 24 1.33014C24 1.3019 24 1.27014 24 1.2419C24.0035 0.924255 23.993 0.641903 23.9582 0.458373L23.953 0.430138L23.9478 0.405432C23.9286 0.327785 23.9025 0.274844 23.8712 0.253667C23.8364 0.232491 23.4499 0.218373 22.8163 0.214844H22.6353C22.4212 0.214844 22.181 0.214844 21.9216 0.218373C21.7737 0.218373 21.6188 0.218373 21.4569 0.218373H21.4534C21.0165 0.221903 20.5344 0.228961 20.0191 0.23955H20.0156C19.8242 0.23955 19.6257 0.243079 19.4256 0.246608H19.4203C19.0339 0.253667 18.6318 0.260726 18.2193 0.271314H18.2141C17.2567 0.288961 16.2384 0.313667 15.2149 0.338373C15.2149 0.338373 15.2115 0.338373 15.208 0.338373C14.8146 0.348961 14.423 0.35955 14.0296 0.370138H14.0278C13.8903 0.370138 13.7545 0.377197 13.617 0.380726C13.1053 0.398373 12.5988 0.412491 12.1044 0.426608C11.8886 0.433667 11.6762 0.440726 11.4656 0.447785C10.6214 0.47602 9.82417 0.504256 9.10703 0.532491C8.85463 0.543079 8.61094 0.553667 8.37944 0.564256C7.03566 0.624256 6.09049 0.684255 5.85202 0.733667C5.82417 0.740726 5.80677 0.744256 5.79806 0.751314C5.67274 0.843079 4.81982 1.4572 3.80503 2.22308C3.7911 2.23367 3.77717 2.24426 3.76325 2.25484C3.65185 2.33955 3.53697 2.42426 3.42208 2.51249C3.13488 2.73131 2.84245 2.96073 2.5535 3.18308C2.52565 3.20426 2.49954 3.22896 2.47169 3.25014H2.46995C2.36203 3.33484 2.25585 3.41955 2.14967 3.50426C2.13053 3.5219 2.10964 3.53602 2.09049 3.55014H2.08875C1.93557 3.6772 1.78588 3.7972 1.63966 3.9172C1.63966 3.9172 1.6385 3.9172 1.63618 3.9172C1.63618 3.9172 1.63618 3.92073 1.6327 3.9172C1.6327 3.9172 1.6327 3.92073 1.62922 3.9172C1.59789 3.94543 1.57352 3.97367 1.54219 3.99837C1.42382 4.0972 1.30894 4.19249 1.19928 4.28778H1.19754C0.628349 4.77484 0.194929 5.18778 0.0556774 5.42426C0.0243454 5.4772 0.00868034 5.51955 0.00693893 5.55484L-2.47955e-05 5.55837Z" fill="#F7B168"/>
<path fill-rule="evenodd" clip-rule="evenodd" d="M0.0487041 5.42801C0.086998 5.49154 0.428165 5.23742 0.931211 4.82095C0.959061 4.79978 0.988653 4.77507 1.0165 4.75037C1.12268 4.66213 1.23408 4.57037 1.35071 4.47154C1.38378 4.44331 1.41685 4.41507 1.45166 4.38684C1.48648 4.35507 1.52303 4.32684 1.55784 4.29507H1.56132C1.67273 4.19625 1.78761 4.10095 1.90423 3.9986C1.90945 3.99507 1.91468 3.99154 1.9199 3.98801C1.92512 3.98448 1.93034 3.98095 1.93556 3.97389C1.94253 3.96684 1.94775 3.96331 1.95471 3.95625C1.95993 3.95625 1.96515 3.94566 1.97212 3.9386H1.9756C2.12529 3.81154 2.27847 3.68095 2.43513 3.55037H2.43861C2.43861 3.55037 2.44557 3.53978 2.44905 3.53978C2.45602 3.53272 2.46298 3.52566 2.4682 3.52213C2.54131 3.4586 2.61442 3.39507 2.68578 3.33507L2.785 3.25037H2.78674C2.78674 3.25037 2.79718 3.24331 2.8024 3.23625C2.81981 3.22213 2.83722 3.20801 2.85462 3.19389C2.90336 3.15154 2.95384 3.10919 3.00258 3.07037C3.13487 2.96095 3.26716 2.85154 3.39771 2.74213C3.46907 2.68566 3.5387 2.62566 3.61006 2.56919C3.61877 2.56213 3.62573 2.55507 3.63443 2.55154C3.64836 2.54095 3.6588 2.52684 3.67273 2.51625H3.67795C3.70406 2.49507 3.72843 2.47389 3.75105 2.45625C3.81894 2.39978 3.88334 2.35037 3.94949 2.29742C3.95993 2.28684 3.97212 2.27978 3.98256 2.27272C3.99475 2.26213 4.00693 2.25154 4.01912 2.24095H4.0226C4.44209 1.90919 4.83548 1.61978 5.1662 1.40801C5.21494 1.37625 5.26194 1.34448 5.30893 1.31978C5.4273 1.24919 5.53522 1.18919 5.63269 1.14684C5.65532 1.13625 5.67795 1.12566 5.69884 1.1186C5.71972 1.10801 5.74061 1.10095 5.75976 1.09037C5.79805 1.07978 5.83461 1.06919 5.86768 1.06213C6.22625 0.988012 8.087 0.903307 10.4891 0.818601H10.4926C10.5204 0.818601 10.5483 0.818601 10.5761 0.818601C10.698 0.818601 10.8216 0.811542 10.9469 0.808012C11.0095 0.808012 11.0722 0.808012 11.1349 0.800954C11.1975 0.797424 11.2619 0.797424 11.3246 0.793895C11.3577 0.793895 11.3925 0.790365 11.4273 0.790365H11.4308C12.0974 0.769189 12.7937 0.748012 13.5021 0.726836H13.5091C13.5735 0.723307 13.6397 0.723307 13.7058 0.719777C13.8033 0.719777 13.9008 0.712718 14 0.712718C14.1514 0.70566 14.3046 0.70213 14.4578 0.698601H14.4717C15.154 0.677424 15.8398 0.659777 16.5117 0.64213C16.9591 0.631542 17.3994 0.617424 17.8311 0.606836C18.5726 0.589189 19.2846 0.571542 19.9443 0.553895C20.08 0.553895 20.2141 0.546836 20.3464 0.546836C20.4404 0.543307 20.5309 0.539777 20.6214 0.539777C20.691 0.539777 20.7589 0.539777 20.8268 0.532718C20.933 0.532718 21.0374 0.532718 21.1401 0.52566C21.1906 0.52566 21.241 0.52566 21.2915 0.52566C21.3403 0.52566 21.389 0.52213 21.436 0.52213H21.4412C22.1549 0.504483 22.7537 0.493895 23.1871 0.483307L23.5996 0.472718C23.8294 0.472718 23.9547 0.465659 23.9547 0.465659L23.9495 0.437424L23.9443 0.412718L23.8729 0.00683594L13.9826 0.126836H13.859L12.5813 0.144483H12.4334L10.409 0.172718H9.97734L7.03913 0.211542L6.54827 0.218601L5.95297 0.225659H5.89205C5.78761 0.292718 5.59266 0.440954 5.33852 0.64213C5.32808 0.649189 5.31938 0.656248 5.30893 0.666836C4.83374 1.04448 4.15488 1.61272 3.44122 2.21978C3.42207 2.23742 3.40293 2.25507 3.38378 2.27272C3.03391 2.57272 2.67534 2.88331 2.33069 3.18684C2.30284 3.21154 2.27499 3.23625 2.24714 3.26095C2.15314 3.34566 2.05915 3.42684 1.9669 3.50801C1.94601 3.52919 1.92686 3.54684 1.90597 3.56448C1.76672 3.68801 1.63095 3.81154 1.5004 3.92801C1.46907 3.95978 1.43774 3.98801 1.40815 4.01272C1.30023 4.11154 1.19753 4.20684 1.10005 4.2986C0.44383 4.90919 0.00518799 5.36095 0.0469646 5.43507L0.0487041 5.42801Z" fill="#F7AE79"/>
<path fill-rule="evenodd" clip-rule="evenodd" d="M7.04097 0.205113C7.70937 0.335701 8.40041 0.445113 9.10363 0.536877C9.86777 0.64276 10.6493 0.723936 11.4291 0.787466C11.3943 0.787466 11.3595 0.790995 11.3264 0.790995C11.2638 0.790995 11.1994 0.790995 11.1367 0.798054C11.074 0.798054 11.0114 0.798054 10.9487 0.805113C10.8234 0.808642 10.6998 0.812172 10.578 0.815701C10.5501 0.815701 10.5223 0.815701 10.4944 0.815701H10.4909C9.65367 0.738054 8.95567 0.649819 8.37604 0.565113C7.54923 0.441583 6.9609 0.318054 6.5501 0.208642L7.04097 0.201583V0.205113ZM22.8042 0.215701H22.8147C22.9574 0.236877 23.168 0.268642 23.4657 0.310995C23.678 0.33923 23.8364 0.370995 23.9461 0.406289L23.9513 0.430995L23.9565 0.45923C23.9565 0.45923 23.8312 0.45923 23.6015 0.466289L23.1889 0.476877C23.1384 0.367466 22.7973 0.265113 22.6389 0.215701H22.6337C22.5153 0.180407 22.5048 0.173348 22.8042 0.215701Z" fill="#D27E40"/>
<path fill-rule="evenodd" clip-rule="evenodd" d="M10.4109 0.165952C11.0027 0.271835 11.5649 0.356541 12.101 0.430658C12.954 0.554188 13.7372 0.635364 14.4596 0.695364C14.3064 0.695364 14.1533 0.702423 14.0018 0.709482C13.9026 0.709482 13.8051 0.709482 13.7077 0.716541C13.6415 0.72007 13.5754 0.72007 13.511 0.7236H13.504C12.7468 0.645953 12.0645 0.550658 11.4622 0.451835C10.8983 0.36007 10.4039 0.264776 9.9792 0.169482H10.4109V0.165952ZM21.4518 0.222423H21.4553C21.7825 0.134188 21.9218 0.102423 21.9218 0.197717C21.9218 0.204776 21.9218 0.211835 21.9218 0.218894C21.9026 0.317717 21.739 0.42007 21.4448 0.515364H21.4396C21.3926 0.515364 21.3439 0.518894 21.2951 0.518894C21.2446 0.518894 21.1942 0.518894 21.1437 0.518894C21.041 0.522423 20.9365 0.525953 20.8304 0.525953C20.7625 0.529482 20.6946 0.533011 20.625 0.533011C20.5345 0.533011 20.4439 0.533011 20.35 0.54007C20.2177 0.54007 20.0836 0.5436 19.9479 0.547129C20.6511 0.434188 21.1385 0.30007 21.4535 0.218894L21.4518 0.222423Z" fill="#D27E40"/>
<path fill-rule="evenodd" clip-rule="evenodd" d="M12.5831 0.138088H12.4352C13.1906 0.328676 14.6789 0.628676 16.5135 0.639264C16.9609 0.628676 17.4012 0.614558 17.8329 0.60397C19.6536 0.494558 20.2837 0.162794 20.242 0.0816171C20.195 -0.0101475 17.4395 1.10162 12.5831 0.134558V0.138088Z" fill="#D27E40"/>
<path fill-rule="evenodd" clip-rule="evenodd" d="M13.9827 0.120117H13.8608C14.4979 0.254235 15.4344 0.409529 16.3256 0.409529C17.8834 0.409529 18.9766 0.130705 18.9766 0.130705C18.9766 0.130705 16.4526 0.515411 13.9827 0.120117Z" fill="#D27E40"/>
<path fill-rule="evenodd" clip-rule="evenodd" d="M0.0487375 5.42854C0.0870318 5.49207 0.428199 5.23795 0.931245 4.82148C0.959095 4.8003 0.988688 4.7756 1.01654 4.75089C1.12272 4.66266 1.23412 4.57089 1.35074 4.47207C1.38381 4.44383 1.41689 4.4156 1.4517 4.38736C1.48651 4.3556 1.52307 4.32736 1.55788 4.2956H1.55962H1.56136C1.67276 4.2003 1.78764 4.10501 1.90426 4.00266C1.90949 3.99913 1.91471 3.9956 1.91993 3.99207C1.92341 3.98854 1.92515 3.98501 1.92863 3.97795H1.9356C1.9356 3.97795 1.94778 3.96736 1.95474 3.9603C1.95997 3.9603 1.96519 3.94972 1.97041 3.94266H1.97563C2.12533 3.8156 2.2785 3.68501 2.43516 3.55442C2.44038 3.54736 2.44387 3.54383 2.44909 3.54383C2.45605 3.53677 2.46301 3.52972 2.46823 3.52619C2.54134 3.46266 2.61445 3.39913 2.68581 3.33913L2.78503 3.25442H2.78677C2.78677 3.25442 2.79722 3.24736 2.80244 3.2403C2.8181 3.22972 2.83377 3.2156 2.85118 3.19795H2.85466C2.90339 3.1556 2.95387 3.11324 3.00261 3.07442C3.1349 2.96501 3.26719 2.8556 3.39774 2.74619C3.4691 2.68972 3.53873 2.62971 3.6101 2.57324C3.6188 2.56619 3.62576 2.55913 3.63447 2.5556C3.64839 2.54148 3.65883 2.53089 3.67102 2.5203H3.67798C3.70409 2.49913 3.72846 2.47795 3.75109 2.4603C3.81897 2.40383 3.88338 2.35442 3.94952 2.30148C3.95997 2.29089 3.97215 2.28383 3.98259 2.27677C3.99478 2.26619 4.00696 2.2556 4.01915 2.24501H4.02263C4.44212 1.91324 4.83551 1.62383 5.16623 1.41207C5.21497 1.3803 5.26197 1.34854 5.30897 1.32383C5.42733 1.25324 5.53525 1.19324 5.63273 1.15089C5.65535 1.1403 5.67798 1.12972 5.69887 1.12266C5.71976 1.11207 5.74064 1.10501 5.75979 1.09795C5.79286 0.97795 5.82245 0.85795 5.84682 0.74148C5.89034 0.55795 5.92515 0.37795 5.953 0.222656H5.89208C5.78764 0.289715 5.59269 0.43795 5.33856 0.639127C5.32811 0.646186 5.31941 0.653244 5.30897 0.663833C4.83377 1.04148 4.15492 1.60972 3.44125 2.21677C3.42211 2.23442 3.40296 2.25207 3.38381 2.26972C3.03394 2.56972 2.67537 2.8803 2.33072 3.18383C2.30287 3.20854 2.27502 3.23324 2.24717 3.25795C2.15318 3.34266 2.05918 3.42383 1.96693 3.50501C1.94604 3.52619 1.92689 3.54383 1.90601 3.56148C1.76675 3.68501 1.63098 3.80854 1.50044 3.92501C1.46911 3.95677 1.43777 3.98501 1.40818 4.00972C1.30026 4.10854 1.19756 4.20383 1.10009 4.2956C0.443865 4.90619 0.00522232 5.35795 0.046998 5.43207L0.0487375 5.42854Z" fill="#FFC59C"/>
<path fill-rule="evenodd" clip-rule="evenodd" d="M5.91278e-05 5.55859C-0.00168228 5.61506 0.0313911 5.71036 0.0957947 5.84095C0.123644 5.89389 0.156717 5.95742 0.195013 6.02448C0.200233 6.03153 0.205456 6.04212 0.210678 6.05271C0.236788 6.09859 0.266376 6.14801 0.29945 6.20095C0.29945 6.20448 0.304672 6.20801 0.308153 6.21506C0.342966 6.27154 0.38126 6.33154 0.421293 6.39506C0.461329 6.45859 0.504847 6.52212 0.550102 6.59271C0.572731 6.62448 0.595358 6.65977 0.619726 6.69506C0.691093 6.80095 0.769423 6.91389 0.851233 7.03036C0.948709 7.16801 1.05489 7.31624 1.16455 7.46448C1.19066 7.49977 1.21677 7.53506 1.24288 7.57389C1.25854 7.59506 1.27421 7.61624 1.28988 7.63389H1.29162C1.30902 7.65859 1.32469 7.6833 1.3421 7.70448C1.3508 7.71859 1.36124 7.73271 1.37169 7.7433C1.92173 8.48448 2.56577 9.29624 3.17499 10.0162H3.17847C3.26203 10.1115 3.34384 10.2104 3.42565 10.3021H3.42913C3.44827 10.3233 3.4622 10.3445 3.47961 10.3657C4.04009 11.0045 4.54662 11.5304 4.88431 11.7951C4.90868 11.8127 4.9313 11.8304 4.95219 11.8445C5.00963 11.8868 5.06185 11.9186 5.10711 11.9433C5.128 11.9504 5.14714 11.9609 5.16455 11.9645C5.18544 11.9751 5.20459 11.9786 5.22199 11.9786C5.93217 12.0033 15.9217 12.0315 17.0288 11.8904C18.1358 11.7457 23.0062 12.1445 23.2759 11.9433C23.356 11.8833 23.4291 11.6257 23.4935 11.2904C19.4309 10.948 16.0836 11.3645 12.0418 11.3574C10.5919 11.3574 8.94871 11.3398 7.64497 11.3115C6.34122 11.2798 5.37691 11.2374 5.28117 11.1774C5.21155 11.1351 4.91216 10.8315 4.48918 10.3904H4.48744C4.39344 10.2915 4.29423 10.1857 4.18979 10.0762C3.57534 9.42683 2.78683 8.57977 2.06098 7.79624H2.0575C2.03313 7.77153 2.01224 7.7433 1.98787 7.71859C1.79292 7.50683 1.60145 7.29859 1.42042 7.10448C1.41694 7.09742 1.4152 7.09389 1.41172 7.09036C1.40128 7.07977 1.39083 7.06918 1.38039 7.05859C1.27769 6.94565 1.17673 6.83624 1.08274 6.73389C0.447405 6.04565 0.00180054 5.55859 0.00180054 5.55859H5.91278e-05Z" fill="#AB6926"/>
<path d="M23.0583 9.49023C23.2793 9.50435 23.5021 9.51494 23.7249 9.522C23.7249 9.51141 23.7267 9.50082 23.7267 9.49023H23.0583Z" fill="#AB6926"/>
<path d="M19.9878 4.94141C21.2724 5.01199 22.557 5.01905 23.8416 4.98729C23.8416 4.97317 23.8416 4.95905 23.8416 4.94494C22.9486 4.94141 22.0504 4.94141 21.1383 4.94141H19.986H19.9878Z" fill="#AB6926"/>
<path d="M20.7555 6.45856H23.8068C23.8068 6.41268 23.8068 6.36679 23.8103 6.31738C22.7903 6.3915 21.7737 6.45856 20.7555 6.45856Z" fill="#AB6926"/>
<path d="M21.906 8.88379C22.5222 8.94379 23.1384 8.94379 23.7563 8.91202V8.88732C23.1576 8.88379 22.5466 8.88379 21.906 8.88379Z" fill="#AB6926"/>
<path d="M15.7685 2.51691C17.1262 2.7322 18.5344 2.86985 19.96 2.94397C20.6353 2.95456 21.3142 2.98279 21.993 3.01456C22.6319 3.02515 23.2707 3.02162 23.9095 3.01103C23.9182 2.90515 23.9286 2.7675 23.9391 2.61573C21.1628 2.4675 18.4021 2.34397 15.7685 2.51691Z" fill="#AB6926"/>
<path d="M11.5492 6.7629H23.7998C23.7998 6.74525 23.7998 6.72761 23.7998 6.70996C19.7859 6.7629 15.6675 6.7629 11.5474 6.7629H11.5492Z" fill="#AB6926"/>
<path d="M22.8964 10.3056C23.1123 10.2986 23.3664 10.2915 23.6449 10.2845C23.6466 10.2597 23.6501 10.235 23.6519 10.2139C23.5126 10.2209 23.3786 10.2245 23.248 10.2315C21.8485 10.3162 22.0696 10.3268 22.8964 10.3056Z" fill="#AB6926"/>
<path d="M20.9469 8.90506C16.919 9.18741 12.6997 9.18741 8.86331 9.18741C13.7441 9.18741 18.6248 8.75329 23.5056 8.80623C22.6597 8.838 21.8085 8.87329 20.9469 8.90506Z" fill="#AB6926"/>
<path d="M23.5057 8.80611C23.5892 8.80611 23.6745 8.80611 23.7581 8.80611V8.79199C23.6745 8.79552 23.5892 8.79905 23.5057 8.80258V8.80611Z" fill="#AB6926"/>
<path d="M22.2247 1.33433C22.7417 1.33433 23.3787 1.33433 23.9984 1.33433C23.9984 1.30609 23.9984 1.27433 23.9984 1.24609C23.3492 1.24609 22.7643 1.25668 22.4179 1.26374C20.4545 1.30962 20.9993 1.3308 22.2247 1.33786V1.33433Z" fill="#AB6926"/>
<path d="M23.8868 3.39205V3.37793C23.8137 3.38499 23.8224 3.38852 23.8868 3.39205Z" fill="#AB6926"/>
<path d="M21.121 8.14551C20.3969 8.22668 19.6362 8.17374 21.121 8.14551V8.14551Z" fill="#AB6926"/>
<path d="M17.7842 4.83569C18.6841 4.82157 19.5823 4.80745 20.4804 4.78981C20.7555 4.64157 20.7555 4.9451 21.1401 4.9451H11.5492C13.4674 4.9451 15.7685 4.9451 17.7842 4.83569Z" fill="#AB6926"/>
<path d="M18.3968 7.07682C17.3803 7.10506 15.9912 7.12623 15.1923 7.12976C14.3933 7.12976 14.1845 7.11564 15.5248 7.06623C17.5596 7.01682 21.0478 6.94623 18.3968 7.08035V7.07682Z" fill="#AB6926"/>
<path d="M19.4169 3.80507C18.0261 3.82625 16.1166 3.80507 18.1358 3.74507C19.5231 3.7239 21.443 3.73449 19.4169 3.80507Z" fill="#AB6926"/>
<path d="M17.6866 10.0975H13.1296C14.221 10.0692 15.3229 10.0339 16.4299 9.99512C16.919 10.0975 17.302 10.0975 17.6866 10.0975Z" fill="#AB6926"/>
<path d="M9.39593 10.0977H13.1313C12.6683 10.1082 12.2053 10.1224 11.7475 10.1329C11.2027 10.1012 10.1583 10.0977 9.39767 10.0977H9.39593Z" fill="#AB6926"/>
<path d="M3.17835 10.0166C3.2619 10.1119 3.34371 10.2107 3.42552 10.3025H3.429C3.78061 10.3413 4.13396 10.3695 4.48731 10.3907H4.48905C6.46468 10.5001 8.4438 10.366 10.2105 10.3095C11.7284 10.2884 13.2723 10.2531 14.8441 10.2072C15.2967 10.1154 15.6396 10.1013 15.9634 10.0978C12.1427 10.1048 8.10437 10.2778 4.18966 10.0766C3.85024 10.0625 3.51429 10.0413 3.17835 10.0166Z" fill="#AB6926"/>
<path d="M16.3568 9.9668C15.6205 10.0515 14.8042 10.0021 16.3568 9.9668V9.9668Z" fill="#AB6926"/>
<path d="M15.7684 5.24474C15.5131 5.24474 15.2254 5.27533 14.9051 5.3365C13.7754 5.34709 12.6544 5.35062 11.5474 5.35062C9.24624 5.24121 7.32805 5.24121 5.02692 5.24121H15.7684V5.24474Z" fill="#AB6926"/>
<path d="M14.1584 4.00241C13.812 3.98123 14.8285 3.88241 15.4813 3.9177C15.8311 3.93888 14.8076 4.04123 14.1584 4.00241Z" fill="#AB6926"/>
<path d="M14.8146 2.13153C13.9965 2.13153 13.1836 2.128 12.3724 2.12447C11.9947 2.02565 11.6187 1.95506 11.2445 1.90918H15.7684C15.3855 1.90918 15.3855 2.21271 14.8146 2.13153Z" fill="#AB6926"/>
<path d="M11.2463 1.90913H6.56226C8.11318 1.90913 9.66583 1.71149 11.2463 1.90913Z" fill="#AB6926"/>
<path d="M0.619672 6.69531C0.691039 6.80119 0.769368 6.91414 0.851178 7.03061C1.02698 7.0412 1.20279 7.04825 1.37859 7.05884C1.52307 7.0659 1.6658 7.07296 1.81027 7.08002C2.7363 7.05178 4.28199 7.02002 2.2994 7.09061C2.24718 7.09061 2.1967 7.09414 2.14796 7.09414C3.47433 7.15414 4.8007 7.20355 6.13403 7.21061C4.44213 7.07649 2.76415 6.87884 1.08094 6.73414C0.927768 6.72002 0.772849 6.7059 0.619672 6.69531Z" fill="#AB6926"/>
<path d="M12.7815 7.1893C10.5221 7.45753 8.31848 7.38695 6.13397 7.21401C6.93815 7.21753 7.74407 7.21048 8.55173 7.17871C9.55782 7.21048 10.7136 7.23165 12.7798 7.1893H12.7815Z" fill="#AB6926"/>
<path d="M10.6771 8.55899C11.067 8.58016 9.93734 8.68252 9.22194 8.64016C8.839 8.61546 9.94431 8.52016 10.6771 8.55899Z" fill="#AB6926"/>
<path d="M10.7972 8.24137C11.1836 8.26254 10.0574 8.3649 9.34899 8.32254C8.96953 8.30137 10.0714 8.20254 10.7972 8.24137Z" fill="#AB6926"/>
<path d="M10.2036 6.55375C8.34638 6.54316 5.33159 6.45845 7.63272 6.44434C9.45517 6.46198 12.7415 6.48316 10.2036 6.55375Z" fill="#AB6926"/>
<path d="M10.3916 3.91406C11.7266 3.91759 13.5874 3.96347 11.61 4.0023C10.268 3.99524 8.47338 3.93877 10.3916 3.91406Z" fill="#AB6926"/>
<path d="M3.10875 2.5166H13.0826C12.8273 2.5166 12.5361 2.54131 12.2088 2.59072C11.194 2.58366 10.1862 2.5766 9.18534 2.56601C7.32807 2.5166 5.0252 2.5166 3.10875 2.5166Z" fill="#AB6926"/>
<path d="M7.1697 11.4816C5.65882 11.4569 3.64664 11.3405 5.7476 11.3757C7.26718 11.4005 9.44472 11.4428 7.1697 11.4816Z" fill="#AB6926"/>
<path d="M6.62311 8.28676C4.81806 8.24088 1.91815 8.09617 4.12006 8.13147C5.88334 8.18441 9.1279 8.25852 6.62311 8.28676Z" fill="#AB6926"/>
<path d="M10.1044 3.1416C9.39245 3.21925 8.6753 3.15925 10.1044 3.1416V3.1416Z" fill="#AB6926"/>
<path d="M6.82152 7.88841C7.17139 7.92017 6.13223 7.99782 5.49689 7.93429C5.15747 7.90252 6.17052 7.83194 6.82152 7.88841Z" fill="#AB6926"/>
<path d="M1.34196 7.70508C1.34196 7.70508 1.36111 7.73331 1.37156 7.7439C1.53866 7.76155 1.78235 7.7792 2.05737 7.79684H2.06085C2.37417 7.81449 2.72578 7.83214 3.04779 7.84625C4.90158 7.87449 3.22882 7.76861 1.98774 7.7192C1.96686 7.71567 1.94597 7.71567 1.92508 7.71567C1.65702 7.70861 1.46729 7.70508 1.34196 7.70508Z" fill="#AB6926"/>
<path d="M5.31073 0.660071C5.42388 0.653012 5.55094 0.645954 5.67627 0.631836C5.54572 0.631836 5.43432 0.635365 5.34033 0.635365C5.32988 0.642424 5.32118 0.649483 5.31073 0.660071Z" fill="#AB6926"/>
<path d="M1.24277 7.57422C1.25844 7.5954 1.27411 7.61657 1.28977 7.63422H1.29151C2.22798 7.64481 1.9721 7.61304 1.24277 7.57422Z" fill="#AB6926"/>
<path d="M2.24893 3.25381H2.46651C2.58313 3.25381 2.68931 3.25381 2.78679 3.25028H2.78853C3.96346 3.24322 3.67626 3.21851 2.85641 3.19381H2.85293C2.7572 3.19028 2.65624 3.19028 2.54832 3.18675H2.54484C2.47695 3.18675 2.40559 3.18675 2.33248 3.17969C2.30463 3.20439 2.27678 3.2291 2.24893 3.25381Z" fill="#AB6926"/>
<path d="M3.38554 2.26583C3.53872 2.26583 3.6623 2.26583 3.75804 2.25877C3.91295 2.25877 3.99651 2.25171 4.02087 2.24113C3.99825 2.23407 3.92166 2.23054 3.80155 2.22701C3.70756 2.21995 3.58571 2.21642 3.44472 2.21289C3.42557 2.23054 3.40643 2.24818 3.38728 2.26583H3.38554Z" fill="#AB6926"/>
<path d="M1.40992 4.0056C1.45344 4.0056 1.49522 4.0056 1.53525 4.00208C1.69887 4.00208 1.8416 3.98796 1.92864 3.97384H1.9356C2.02785 3.96325 2.0557 3.94913 1.97563 3.93855H1.96171C1.86075 3.93149 1.74761 3.92443 1.63273 3.9209C1.63273 3.9209 1.63157 3.9209 1.62925 3.9209C1.62925 3.9209 1.62925 3.92443 1.62577 3.9209C1.62577 3.9209 1.62576 3.92443 1.62228 3.9209H1.50218C1.47085 3.95266 1.43952 3.9809 1.40992 4.0056Z" fill="#AB6926"/>
<path d="M1.90775 3.55782C1.97041 3.55782 2.02785 3.55782 2.08181 3.55429H2.08355C2.23673 3.55429 2.35161 3.55429 2.43516 3.55429H2.43864C2.6597 3.54724 2.64404 3.53665 2.46997 3.52606C2.39165 3.52606 2.28024 3.51547 2.14621 3.51194C2.09225 3.51194 2.03481 3.51194 1.97215 3.50488C1.95126 3.52606 1.93212 3.54371 1.91123 3.56135L1.90775 3.55782Z" fill="#AB6926"/>
<path d="M11.9321 3.42729C15.0008 3.73082 17.6867 3.12376 20.8616 3.17318C21.725 3.19435 22.5988 3.21553 23.8955 3.20494C23.8973 3.18376 23.8973 3.16259 23.899 3.14847C23.899 3.14141 23.899 3.13788 23.9008 3.13082C23.2619 3.08141 22.6266 3.04259 21.993 3.01435C21.3142 2.98259 20.6353 2.95435 19.9599 2.94376C17.2672 2.90141 14.6005 3.04259 11.9321 3.42729Z" fill="#AB6926"/>
<path d="M1.55959 4.29199H1.56133C5.23931 4.30258 8.96951 4.63787 12.6997 4.63787C8.97299 4.88493 5.24801 4.33787 1.55959 4.29552H1.55785C1.50389 4.29552 1.45166 4.29199 1.3977 4.29199H1.1018H1.55959Z" fill="#AB6926"/>
<path d="M2.29941 7.09064C2.24719 7.09064 2.19671 7.09064 2.14797 7.09064C0.832045 7.11182 1.17321 7.09064 1.81029 7.07652C2.73457 7.04829 4.282 7.01652 2.29767 7.09064H2.29941Z" fill="#AB6926"/>
</g>
<defs>
<clipPath id="clip0_676_10271">
<rect width="24" height="12" fill="white" transform="matrix(-1 0 0 1 24 0)"/>
</clipPath>
</defs>
</svg>
