<svg width="24" height="12" viewBox="0 0 24 12" fill="none" xmlns="http://www.w3.org/2000/svg">
<g clip-path="url(#clip0_676_10335)">
<path fill-rule="evenodd" clip-rule="evenodd" d="M24 5.55837C24.0018 5.61484 23.9687 5.71014 23.9043 5.84073C23.8764 5.89367 23.8434 5.9572 23.8051 6.02425C23.7998 6.03131 23.7946 6.0419 23.7894 6.05249C23.7633 6.09837 23.7337 6.14778 23.7006 6.20073C23.7006 6.20425 23.6954 6.20778 23.6919 6.21484C23.6571 6.27131 23.6188 6.33131 23.5788 6.39484C23.5388 6.45837 23.4952 6.5219 23.45 6.59249C23.4274 6.62426 23.4047 6.65955 23.3804 6.69484C23.309 6.80073 23.2307 6.91367 23.1488 7.03014C23.0514 7.16778 22.9452 7.31602 22.8355 7.46425C22.8094 7.49955 22.7833 7.53484 22.7572 7.57367C22.7415 7.59484 22.7259 7.61602 22.7102 7.63367H22.7085C22.6911 7.65837 22.6754 7.68308 22.658 7.70425C22.6493 7.71837 22.6388 7.73249 22.6284 7.74308C22.0784 8.48425 21.4343 9.29602 20.8251 10.016H20.8216C20.7381 10.1113 20.6562 10.2101 20.5744 10.3019H20.571C20.5518 10.3231 20.5379 10.3443 20.5205 10.3654C19.96 11.0043 19.4535 11.5301 19.1158 11.7948C19.0914 11.8125 19.0688 11.8301 19.0479 11.8443C18.9904 11.8866 18.9382 11.9184 18.893 11.9431C18.8721 11.9501 18.8529 11.9607 18.8355 11.9643C18.8146 11.9748 18.7955 11.9784 18.7781 11.9784C18.0679 12.0031 8.07835 12.0313 6.9713 11.8901C5.86425 11.7454 0.993931 12.1443 0.724131 11.9431C0.644062 11.8831 0.570955 11.6254 0.506551 11.2901C0.447369 10.9866 0.39689 10.6195 0.355115 10.2843C0.353374 10.2595 0.349893 10.2348 0.348152 10.2137C0.316821 9.94543 0.292452 9.69837 0.275045 9.5219C0.275045 9.51131 0.273304 9.50072 0.273304 9.49014C0.257639 9.33484 0.250676 9.24308 0.250676 9.24308C0.250676 9.24308 0.250676 9.11955 0.243713 8.91131V8.88661C0.243713 8.8619 0.243713 8.83367 0.243713 8.80896V8.79484C0.23501 8.33602 0.219344 7.5772 0.201938 6.7619C0.201938 6.74426 0.201938 6.72661 0.201938 6.70896C0.200197 6.62778 0.198457 6.54308 0.196716 6.45837C0.196716 6.41249 0.196716 6.36661 0.193235 6.3172C0.182791 5.86543 0.172347 5.40661 0.161903 4.98661C0.161903 4.97249 0.161903 4.95837 0.161903 4.94426C0.146237 4.28426 0.130572 3.71249 0.118387 3.39131V3.3772C0.114906 3.30661 0.113165 3.25014 0.109684 3.20426C0.107943 3.18308 0.107943 3.1619 0.106203 3.14778C0.106203 3.14073 0.106203 3.1372 0.104462 3.13014C0.104462 3.09837 0.09924 3.05602 0.0957587 3.01014C0.0870555 2.90426 0.0766116 2.76661 0.0661678 2.61484C0.0365768 2.24073 0.00698588 1.76073 2.33047e-05 1.33014C2.33047e-05 1.3019 2.33047e-05 1.27014 2.33047e-05 1.2419C-0.00345798 0.924255 0.00698588 0.641903 0.0417988 0.458373L0.0470207 0.430138L0.0522426 0.405432C0.0713897 0.327785 0.0974994 0.274844 0.128831 0.253667C0.163644 0.232491 0.550067 0.218373 1.18366 0.214844H1.36469C1.57879 0.214844 1.819 0.214844 2.07835 0.218373C2.22631 0.218373 2.38122 0.218373 2.5431 0.218373H2.54659C2.98349 0.221903 3.46565 0.228961 3.98088 0.23955H3.98436C4.17583 0.23955 4.37426 0.243079 4.57444 0.246608H4.57966C4.96608 0.253667 5.36817 0.260726 5.7807 0.271314H5.78592C6.74328 0.288961 7.76155 0.313667 8.78505 0.338373C8.78505 0.338373 8.78853 0.338373 8.79202 0.338373C9.1854 0.348961 9.57705 0.35955 9.97043 0.370138H9.97217C10.1097 0.370138 10.2455 0.377197 10.383 0.380726C10.8947 0.398373 11.4012 0.412491 11.8956 0.426608C12.1114 0.433667 12.3238 0.440726 12.5344 0.447785C13.3786 0.47602 14.1758 0.504256 14.893 0.532491C15.1454 0.543079 15.3891 0.553667 15.6206 0.564256C16.9643 0.624256 17.9095 0.684255 18.148 0.733667C18.1758 0.740726 18.1932 0.744256 18.2019 0.751314C18.3273 0.843079 19.1802 1.4572 20.195 2.22308C20.2089 2.23367 20.2228 2.24426 20.2367 2.25484C20.3482 2.33955 20.463 2.42426 20.5779 2.51249C20.8651 2.73131 21.1576 2.96073 21.4465 3.18308C21.4743 3.20426 21.5005 3.22896 21.5283 3.25014H21.53C21.638 3.33484 21.7441 3.41955 21.8503 3.50426C21.8695 3.5219 21.8904 3.53602 21.9095 3.55014H21.9112C22.0644 3.6772 22.2141 3.7972 22.3603 3.9172C22.3603 3.9172 22.3615 3.9172 22.3638 3.9172C22.3638 3.9172 22.3638 3.92073 22.3673 3.9172C22.3673 3.9172 22.3673 3.92073 22.3708 3.9172C22.4021 3.94543 22.4265 3.97367 22.4578 3.99837C22.5762 4.0972 22.6911 4.19249 22.8007 4.28778H22.8025C23.3717 4.77484 23.8051 5.18778 23.9443 5.42426C23.9757 5.4772 23.9913 5.51955 23.9931 5.55484L24 5.55837Z" fill="#F7B168"/>
<path fill-rule="evenodd" clip-rule="evenodd" d="M23.9513 5.42801C23.913 5.49154 23.5718 5.23742 23.0688 4.82095C23.0409 4.79978 23.0113 4.77507 22.9835 4.75037C22.8773 4.66213 22.7659 4.57037 22.6493 4.47154C22.6162 4.44331 22.5832 4.41507 22.5483 4.38684C22.5135 4.35507 22.477 4.32684 22.4422 4.29507H22.4387C22.3273 4.19625 22.2124 4.10095 22.0958 3.9986C22.0905 3.99507 22.0853 3.99154 22.0801 3.98801C22.0749 3.98448 22.0697 3.98095 22.0644 3.97389C22.0575 3.96684 22.0523 3.96331 22.0453 3.95625C22.0401 3.95625 22.0348 3.94566 22.0279 3.9386H22.0244C21.8747 3.81154 21.7215 3.68095 21.5649 3.55037H21.5614C21.5614 3.55037 21.5544 3.53978 21.5509 3.53978C21.544 3.53272 21.537 3.52566 21.5318 3.52213C21.4587 3.4586 21.3856 3.39507 21.3142 3.33507L21.215 3.25037H21.2133C21.2133 3.25037 21.2028 3.24331 21.1976 3.23625C21.1802 3.22213 21.1628 3.20801 21.1454 3.19389C21.0966 3.15154 21.0462 3.10919 20.9974 3.07037C20.8651 2.96095 20.7328 2.85154 20.6023 2.74213C20.5309 2.68566 20.4613 2.62566 20.3899 2.56919C20.3812 2.56213 20.3743 2.55507 20.3656 2.55154C20.3516 2.54095 20.3412 2.52684 20.3273 2.51625H20.3221C20.2959 2.49507 20.2716 2.47389 20.2489 2.45625C20.1811 2.39978 20.1167 2.35037 20.0505 2.29742C20.0401 2.28684 20.0279 2.27978 20.0174 2.27272C20.0053 2.26213 19.9931 2.25154 19.9809 2.24095H19.9774C19.5579 1.90919 19.1645 1.61978 18.8338 1.40801C18.7851 1.37625 18.7381 1.34448 18.6911 1.31978C18.5727 1.24919 18.4648 1.18919 18.3673 1.14684C18.3447 1.13625 18.3221 1.12566 18.3012 1.1186C18.2803 1.10801 18.2594 1.10095 18.2402 1.09037C18.2019 1.07978 18.1654 1.06919 18.1323 1.06213C17.7738 0.988012 15.913 0.903307 13.5109 0.818601H13.5074C13.4796 0.818601 13.4517 0.818601 13.4239 0.818601C13.302 0.818601 13.1784 0.811542 13.0531 0.808012C12.9905 0.808012 12.9278 0.808012 12.8651 0.800954C12.8025 0.797424 12.7381 0.797424 12.6754 0.793895C12.6423 0.793895 12.6075 0.790365 12.5727 0.790365H12.5692C11.9026 0.769189 11.2063 0.748012 10.4979 0.726836H10.4909C10.4265 0.723307 10.3603 0.723307 10.2942 0.719777C10.1967 0.719777 10.0992 0.712718 10 0.712718C9.8486 0.70566 9.69542 0.70213 9.54224 0.698601H9.52832C8.84599 0.677424 8.16017 0.659777 7.48828 0.64213C7.04094 0.631542 6.60055 0.617424 6.16887 0.606836C5.42736 0.589189 4.71544 0.571542 4.05573 0.553895C3.91996 0.553895 3.78593 0.546836 3.65364 0.546836C3.55965 0.543307 3.46914 0.539777 3.37862 0.539777C3.309 0.539777 3.24111 0.539777 3.17323 0.532718C3.06705 0.532718 2.96261 0.532718 2.85991 0.52566C2.80943 0.52566 2.75895 0.52566 2.70847 0.52566C2.65974 0.52566 2.611 0.52213 2.564 0.52213H2.55878C1.84511 0.504483 1.24633 0.493895 0.812912 0.483307L0.40038 0.472718C0.170614 0.472718 0.0452881 0.465659 0.0452881 0.465659L0.05051 0.437424L0.055732 0.412718L0.127098 0.00683594L10.0174 0.126836H10.141L11.4187 0.144483H11.5666L13.591 0.172718H14.0227L16.9609 0.211542L17.4517 0.218601L18.047 0.225659H18.108C18.2124 0.292718 18.4073 0.440954 18.6615 0.64213C18.6719 0.649189 18.6806 0.656248 18.6911 0.666836C19.1663 1.04448 19.8451 1.61272 20.5588 2.21978C20.5779 2.23742 20.5971 2.25507 20.6162 2.27272C20.9661 2.57272 21.3247 2.88331 21.6693 3.18684C21.6972 3.21154 21.725 3.23625 21.7529 3.26095C21.8469 3.34566 21.9409 3.42684 22.0331 3.50801C22.054 3.52919 22.0731 3.54684 22.094 3.56448C22.2333 3.68801 22.3691 3.81154 22.4996 3.92801C22.5309 3.95978 22.5623 3.98801 22.5919 4.01272C22.6998 4.11154 22.8025 4.20684 22.8999 4.2986C23.5562 4.90919 23.9948 5.36095 23.953 5.43507L23.9513 5.42801Z" fill="#F7AE79"/>
<path fill-rule="evenodd" clip-rule="evenodd" d="M16.959 0.205113C16.2906 0.335701 15.5996 0.445113 14.8964 0.536877C14.1322 0.64276 13.3507 0.723936 12.5709 0.787466C12.6057 0.787466 12.6405 0.790995 12.6736 0.790995C12.7362 0.790995 12.8006 0.790995 12.8633 0.798054C12.926 0.798054 12.9886 0.798054 13.0513 0.805113C13.1766 0.808642 13.3002 0.812172 13.422 0.815701C13.4499 0.815701 13.4777 0.815701 13.5056 0.815701H13.5091C14.3463 0.738054 15.0443 0.649819 15.624 0.565113C16.4508 0.441583 17.0391 0.318054 17.4499 0.208642L16.959 0.201583V0.205113ZM1.19576 0.215701H1.18532C1.04259 0.236877 0.831969 0.268642 0.534319 0.310995C0.32196 0.33923 0.163561 0.370995 0.0539009 0.406289L0.048679 0.430995L0.043457 0.45923C0.043457 0.45923 0.168783 0.45923 0.398548 0.466289L0.811081 0.476877C0.86156 0.367466 1.20273 0.265113 1.36112 0.215701H1.36635C1.48471 0.180407 1.49515 0.173348 1.19576 0.215701Z" fill="#D27E40"/>
<path fill-rule="evenodd" clip-rule="evenodd" d="M13.5891 0.165952C12.9973 0.271835 12.4351 0.356541 11.899 0.430658C11.046 0.554188 10.2628 0.635364 9.54039 0.695364C9.69356 0.695364 9.84674 0.702423 9.99818 0.709482C10.0974 0.709482 10.1949 0.709482 10.2923 0.716541C10.3585 0.72007 10.4246 0.72007 10.489 0.7236H10.496C11.2532 0.645953 11.9355 0.550658 12.5378 0.451835C13.1017 0.36007 13.5961 0.264776 14.0208 0.169482H13.5891V0.165952ZM2.54822 0.222423H2.54474C2.2175 0.134188 2.07825 0.102423 2.07825 0.197717C2.07825 0.204776 2.07825 0.211835 2.07825 0.218894C2.09739 0.317717 2.26101 0.42007 2.55518 0.515364H2.56041C2.6074 0.515364 2.65614 0.518894 2.70488 0.518894C2.75536 0.518894 2.80584 0.518894 2.85631 0.518894C2.95901 0.522423 3.06345 0.525953 3.16963 0.525953C3.23752 0.529482 3.3054 0.533011 3.37503 0.533011C3.46554 0.533011 3.55605 0.533011 3.65005 0.54007C3.78234 0.54007 3.91637 0.5436 4.05214 0.547129C3.34892 0.434188 2.86154 0.30007 2.54648 0.218894L2.54822 0.222423Z" fill="#D27E40"/>
<path fill-rule="evenodd" clip-rule="evenodd" d="M11.4169 0.138088H11.5648C10.8094 0.328676 9.32113 0.628676 7.4865 0.639264C7.03915 0.628676 6.59877 0.614558 6.16709 0.60397C4.34637 0.494558 3.71626 0.162794 3.75804 0.0816171C3.80503 -0.0101475 6.56047 1.10162 11.4169 0.134558V0.138088Z" fill="#D27E40"/>
<path fill-rule="evenodd" clip-rule="evenodd" d="M10.0173 0.120117H10.1392C9.50211 0.254235 8.56565 0.409529 7.67444 0.409529C6.11656 0.409529 5.02344 0.130705 5.02344 0.130705C5.02344 0.130705 7.54737 0.515411 10.0173 0.120117Z" fill="#D27E40"/>
<path fill-rule="evenodd" clip-rule="evenodd" d="M23.9513 5.42854C23.913 5.49207 23.5718 5.23795 23.0688 4.82148C23.0409 4.8003 23.0113 4.7756 22.9835 4.75089C22.8773 4.66266 22.7659 4.57089 22.6493 4.47207C22.6162 4.44383 22.5831 4.4156 22.5483 4.38736C22.5135 4.3556 22.4769 4.32736 22.4421 4.2956H22.4404H22.4386C22.3272 4.2003 22.2124 4.10501 22.0957 4.00266C22.0905 3.99913 22.0853 3.9956 22.0801 3.99207C22.0766 3.98854 22.0748 3.98501 22.0714 3.97795H22.0644C22.0644 3.97795 22.0522 3.96736 22.0453 3.9603C22.04 3.9603 22.0348 3.94972 22.0296 3.94266H22.0244C21.8747 3.8156 21.7215 3.68501 21.5648 3.55442C21.5596 3.54736 21.5561 3.54383 21.5509 3.54383C21.544 3.53677 21.537 3.52972 21.5318 3.52619C21.4587 3.46266 21.3856 3.39913 21.3142 3.33913L21.215 3.25442H21.2132C21.2132 3.25442 21.2028 3.24736 21.1976 3.2403C21.1819 3.22972 21.1662 3.2156 21.1488 3.19795H21.1453C21.0966 3.1556 21.0461 3.11324 20.9974 3.07442C20.8651 2.96501 20.7328 2.8556 20.6023 2.74619C20.5309 2.68972 20.4613 2.62971 20.3899 2.57324C20.3812 2.56619 20.3742 2.55913 20.3655 2.5556C20.3516 2.54148 20.3412 2.53089 20.329 2.5203H20.322C20.2959 2.49913 20.2715 2.47795 20.2489 2.4603C20.181 2.40383 20.1166 2.35442 20.0505 2.30148C20.04 2.29089 20.0278 2.28383 20.0174 2.27677C20.0052 2.26619 19.993 2.2556 19.9809 2.24501H19.9774C19.5579 1.91324 19.1645 1.62383 18.8338 1.41207C18.785 1.3803 18.738 1.34854 18.691 1.32383C18.5727 1.25324 18.4648 1.19324 18.3673 1.15089C18.3446 1.1403 18.322 1.12972 18.3011 1.12266C18.2802 1.11207 18.2594 1.10501 18.2402 1.09795C18.2071 0.97795 18.1775 0.85795 18.1532 0.74148C18.1097 0.55795 18.0748 0.37795 18.047 0.222656H18.1079C18.2124 0.289715 18.4073 0.43795 18.6614 0.639127C18.6719 0.646186 18.6806 0.653244 18.691 0.663833C19.1662 1.04148 19.8451 1.60972 20.5587 2.21677C20.5779 2.23442 20.597 2.25207 20.6162 2.26972C20.9661 2.56972 21.3246 2.8803 21.6693 3.18383C21.6971 3.20854 21.725 3.23324 21.7528 3.25795C21.8468 3.34266 21.9408 3.42383 22.0331 3.50501C22.054 3.52619 22.0731 3.54383 22.094 3.56148C22.2332 3.68501 22.369 3.80854 22.4996 3.92501C22.5309 3.95677 22.5622 3.98501 22.5918 4.00972C22.6997 4.10854 22.8024 4.20383 22.8999 4.2956C23.5561 4.90619 23.9948 5.35795 23.953 5.43207L23.9513 5.42854Z" fill="#FFC59C"/>
<path fill-rule="evenodd" clip-rule="evenodd" d="M23.9999 5.55859C24.0017 5.61506 23.9686 5.71036 23.9042 5.84095C23.8764 5.89389 23.8433 5.95742 23.805 6.02448C23.7998 6.03153 23.7945 6.04212 23.7893 6.05271C23.7632 6.09859 23.7336 6.14801 23.7006 6.20095C23.7006 6.20448 23.6953 6.20801 23.6918 6.21506C23.657 6.27154 23.6187 6.33154 23.5787 6.39506C23.5387 6.45859 23.4952 6.52212 23.4499 6.59271C23.4273 6.62448 23.4046 6.65977 23.3803 6.69506C23.3089 6.80095 23.2306 6.91389 23.1488 7.03036C23.0513 7.16801 22.9451 7.31624 22.8355 7.46448C22.8093 7.49977 22.7832 7.53506 22.7571 7.57389C22.7415 7.59506 22.7258 7.61624 22.7101 7.63389H22.7084C22.691 7.65859 22.6753 7.6833 22.6579 7.70448C22.6492 7.71859 22.6388 7.73271 22.6283 7.7433C22.0783 8.48448 21.4342 9.29624 20.825 10.0162H20.8215C20.738 10.1115 20.6562 10.2104 20.5744 10.3021H20.5709C20.5517 10.3233 20.5378 10.3445 20.5204 10.3657C19.9599 11.0045 19.4534 11.5304 19.1157 11.7951C19.0913 11.8127 19.0687 11.8304 19.0478 11.8445C18.9904 11.8868 18.9381 11.9186 18.8929 11.9433C18.872 11.9504 18.8529 11.9609 18.8354 11.9645C18.8146 11.9751 18.7954 11.9786 18.778 11.9786C18.0678 12.0033 8.07827 12.0315 6.97122 11.8904C5.86417 11.7457 0.99385 12.1445 0.72405 11.9433C0.643981 11.8833 0.570874 11.6257 0.50647 11.2904C4.56913 10.948 7.91639 11.3645 11.9582 11.3574C13.4081 11.3574 15.0513 11.3398 16.355 11.3115C17.6588 11.2798 18.6231 11.2374 18.7188 11.1774C18.7885 11.1351 19.0878 10.8315 19.5108 10.3904H19.5126C19.6066 10.2915 19.7058 10.1857 19.8102 10.0762C20.4247 9.42683 21.2132 8.57977 21.939 7.79624H21.9425C21.9669 7.77153 21.9878 7.7433 22.0121 7.71859C22.2071 7.50683 22.3985 7.29859 22.5796 7.10448C22.5831 7.09742 22.5848 7.09389 22.5883 7.09036C22.5987 7.07977 22.6092 7.06918 22.6196 7.05859C22.7223 6.94565 22.8233 6.83624 22.9173 6.73389C23.5526 6.04565 23.9982 5.55859 23.9982 5.55859H23.9999Z" fill="#AB6926"/>
<path d="M0.941723 9.49023C0.720661 9.50435 0.497859 9.51494 0.275056 9.522C0.275056 9.51141 0.273315 9.50082 0.273315 9.49023H0.941723Z" fill="#AB6926"/>
<path d="M4.01223 4.94141C2.72764 5.01199 1.44304 5.01905 0.158447 4.98729C0.158447 4.97317 0.158447 4.95905 0.158447 4.94494C1.0514 4.94141 1.94957 4.94141 2.86167 4.94141H4.01397H4.01223Z" fill="#AB6926"/>
<path d="M3.24453 6.45856H0.193179C0.193179 6.41268 0.193179 6.36679 0.189697 6.31738C1.20971 6.3915 2.22625 6.45856 3.24453 6.45856Z" fill="#AB6926"/>
<path d="M2.09396 8.88379C1.47777 8.94379 0.861581 8.94379 0.243652 8.91202V8.88732C0.842434 8.88379 1.4534 8.88379 2.09396 8.88379Z" fill="#AB6926"/>
<path d="M8.2315 2.51691C6.87379 2.7322 5.46561 2.86985 4.04003 2.94397C3.36466 2.95456 2.6858 2.98279 2.00695 3.01456C1.36814 3.02515 0.72932 3.02162 0.090504 3.01103C0.0818008 2.90515 0.071357 2.7675 0.0609131 2.61573C2.83724 2.4675 5.5979 2.34397 8.2315 2.51691Z" fill="#AB6926"/>
<path d="M12.4508 6.7629H0.200195C0.200195 6.74525 0.200195 6.72761 0.200195 6.70996C4.21412 6.7629 8.33248 6.7629 12.4526 6.7629H12.4508Z" fill="#AB6926"/>
<path d="M1.10358 10.3056C0.887744 10.2986 0.63361 10.2915 0.355107 10.2845C0.353366 10.2597 0.349885 10.235 0.348145 10.2139C0.487396 10.2209 0.621426 10.2245 0.751974 10.2315C2.15145 10.3162 1.93039 10.3268 1.10358 10.3056Z" fill="#AB6926"/>
<path d="M3.05313 8.90506C7.08098 9.18741 11.3003 9.18741 15.1367 9.18741C10.2559 9.18741 5.37515 8.75329 0.494385 8.80623C1.34034 8.838 2.19151 8.87329 3.05313 8.90506Z" fill="#AB6926"/>
<path d="M0.494337 8.80611C0.410786 8.80611 0.325494 8.80611 0.241943 8.80611V8.79199C0.325494 8.79552 0.410786 8.79905 0.494337 8.80258V8.80611Z" fill="#AB6926"/>
<path d="M1.77555 1.33433C1.25858 1.33433 0.6215 1.33433 0.00183105 1.33433C0.00183105 1.30609 0.00183105 1.27433 0.00183105 1.24609C0.651091 1.24609 1.23595 1.25668 1.58234 1.26374C3.54578 1.30962 3.00096 1.3308 1.77555 1.33786V1.33433Z" fill="#AB6926"/>
<path d="M0.113159 3.39205V3.37793C0.186266 3.38499 0.177563 3.38852 0.113159 3.39205Z" fill="#AB6926"/>
<path d="M2.87903 8.14551C3.60314 8.22668 4.3638 8.17374 2.87903 8.14551V8.14551Z" fill="#AB6926"/>
<path d="M6.21582 4.83569C5.31591 4.82157 4.41774 4.80745 3.51957 4.78981C3.24455 4.64157 3.24455 4.9451 2.85986 4.9451H12.4508C10.5326 4.9451 8.23149 4.9451 6.21582 4.83569Z" fill="#AB6926"/>
<path d="M5.60318 7.07682C6.61972 7.10506 8.00875 7.12623 8.80771 7.12976C9.60666 7.12976 9.81554 7.11564 8.47524 7.06623C6.44043 7.01682 2.95218 6.94623 5.60318 7.08035V7.07682Z" fill="#AB6926"/>
<path d="M4.5831 3.80507C5.97387 3.82625 7.88336 3.80507 5.86421 3.74507C4.47692 3.7239 2.55699 3.73449 4.5831 3.80507Z" fill="#AB6926"/>
<path d="M6.31335 10.0975H10.8704C9.77898 10.0692 8.67715 10.0339 7.5701 9.99512C7.08098 10.0975 6.69804 10.0975 6.31335 10.0975Z" fill="#AB6926"/>
<path d="M14.604 10.0977H10.8685C11.3315 10.1082 11.7946 10.1224 12.2523 10.1329C12.7972 10.1012 13.8415 10.0977 14.6022 10.0977H14.604Z" fill="#AB6926"/>
<path d="M20.8215 10.0166C20.738 10.1119 20.6562 10.2107 20.5744 10.3025H20.5709C20.2193 10.3413 19.8659 10.3695 19.5126 10.3907H19.5108C17.5352 10.5001 15.5561 10.366 13.7893 10.3095C12.2715 10.2884 10.7275 10.2531 9.15573 10.2072C8.70317 10.1154 8.36026 10.1013 8.0365 10.0978C11.8572 10.1048 15.8955 10.2778 19.8102 10.0766C20.1496 10.0625 20.4856 10.0413 20.8215 10.0166Z" fill="#AB6926"/>
<path d="M7.64319 9.9668C8.37948 10.0515 9.19584 10.0021 7.64319 9.9668V9.9668Z" fill="#AB6926"/>
<path d="M8.23157 5.24474C8.48686 5.24474 8.77465 5.27533 9.09493 5.3365C10.2246 5.34709 11.3456 5.35062 12.4526 5.35062C14.7538 5.24121 16.6719 5.24121 18.9731 5.24121H8.23157V5.24474Z" fill="#AB6926"/>
<path d="M9.84163 4.00241C10.188 3.98123 9.17148 3.88241 8.51874 3.9177C8.16887 3.93888 9.19237 4.04123 9.84163 4.00241Z" fill="#AB6926"/>
<path d="M9.18544 2.13153C10.0035 2.13153 10.8164 2.128 11.6276 2.12447C12.0053 2.02565 12.3813 1.95506 12.7555 1.90918H8.23157C8.61451 1.90918 8.61451 2.21271 9.18544 2.13153Z" fill="#AB6926"/>
<path d="M12.7537 1.90913H17.4377C15.8868 1.90913 14.3342 1.71149 12.7537 1.90913Z" fill="#AB6926"/>
<path d="M23.3803 6.69531C23.309 6.80119 23.2306 6.91414 23.1488 7.03061C22.973 7.0412 22.7972 7.04825 22.6214 7.05884C22.4769 7.0659 22.3342 7.07296 22.1897 7.08002C21.2637 7.05178 19.718 7.02002 21.7006 7.09061C21.7528 7.09061 21.8033 7.09414 21.852 7.09414C20.5257 7.15414 19.1993 7.20355 17.866 7.21061C19.5579 7.07649 21.2359 6.87884 22.9191 6.73414C23.0722 6.72002 23.2272 6.7059 23.3803 6.69531Z" fill="#AB6926"/>
<path d="M11.2185 7.1893C13.4779 7.45753 15.6815 7.38695 17.866 7.21401C17.0618 7.21753 16.2559 7.21048 15.4483 7.17871C14.4422 7.21048 13.2864 7.23165 11.2202 7.1893H11.2185Z" fill="#AB6926"/>
<path d="M13.3229 8.55899C12.933 8.58016 14.0627 8.68252 14.7781 8.64016C15.161 8.61546 14.0557 8.52016 13.3229 8.55899Z" fill="#AB6926"/>
<path d="M13.2028 8.24137C12.8164 8.26254 13.9426 8.3649 14.651 8.32254C15.0305 8.30137 13.9286 8.20254 13.2028 8.24137Z" fill="#AB6926"/>
<path d="M13.7964 6.55375C15.6536 6.54316 18.6684 6.45845 16.3673 6.44434C14.5448 6.46198 11.2585 6.48316 13.7964 6.55375Z" fill="#AB6926"/>
<path d="M13.6083 3.91406C12.2732 3.91759 10.4125 3.96347 12.3899 4.0023C13.7319 3.99524 15.5265 3.93877 13.6083 3.91406Z" fill="#AB6926"/>
<path d="M20.8912 2.5166H10.9174C11.1727 2.5166 11.4639 2.54131 11.7912 2.59072C12.806 2.58366 13.8138 2.5766 14.8147 2.56601C16.6719 2.5166 18.9748 2.5166 20.8912 2.5166Z" fill="#AB6926"/>
<path d="M16.8303 11.4816C18.3412 11.4569 20.3534 11.3405 18.2524 11.3757C16.7328 11.4005 14.5553 11.4428 16.8303 11.4816Z" fill="#AB6926"/>
<path d="M17.3769 8.28676C19.1819 8.24088 22.0819 8.09617 19.8799 8.13147C18.1167 8.18441 14.8721 8.25852 17.3769 8.28676Z" fill="#AB6926"/>
<path d="M13.8955 3.1416C14.6074 3.21925 15.3246 3.15925 13.8955 3.1416V3.1416Z" fill="#AB6926"/>
<path d="M17.1785 7.88841C16.8286 7.92017 17.8678 7.99782 18.5031 7.93429C18.8425 7.90252 17.8295 7.83194 17.1785 7.88841Z" fill="#AB6926"/>
<path d="M22.6579 7.70508C22.6579 7.70508 22.6388 7.73331 22.6283 7.7439C22.4612 7.76155 22.2175 7.7792 21.9425 7.79684H21.939C21.6257 7.81449 21.2741 7.83214 20.9521 7.84625C19.0983 7.87449 20.7711 7.76861 22.0121 7.7192C22.033 7.71567 22.0539 7.71567 22.0748 7.71567C22.3429 7.70861 22.5326 7.70508 22.6579 7.70508Z" fill="#AB6926"/>
<path d="M18.6893 0.660071C18.5761 0.653012 18.4491 0.645954 18.3237 0.631836C18.4543 0.631836 18.5657 0.635365 18.6597 0.635365C18.6701 0.642424 18.6788 0.649483 18.6893 0.660071Z" fill="#AB6926"/>
<path d="M22.7572 7.57422C22.7416 7.5954 22.7259 7.61657 22.7102 7.63422H22.7085C21.772 7.64481 22.0279 7.61304 22.7572 7.57422Z" fill="#AB6926"/>
<path d="M21.7511 3.25381H21.5335C21.4169 3.25381 21.3107 3.25381 21.2132 3.25028H21.2115C20.0365 3.24322 20.3237 3.21851 21.1436 3.19381H21.1471C21.2428 3.19028 21.3438 3.19028 21.4517 3.18675H21.4552C21.523 3.18675 21.5944 3.18675 21.6675 3.17969C21.6954 3.20439 21.7232 3.2291 21.7511 3.25381Z" fill="#AB6926"/>
<path d="M20.6145 2.26583C20.4613 2.26583 20.3377 2.26583 20.242 2.25877C20.087 2.25877 20.0035 2.25171 19.9791 2.24113C20.0018 2.23407 20.0783 2.23054 20.1984 2.22701C20.2924 2.21995 20.4143 2.21642 20.5553 2.21289C20.5744 2.23054 20.5936 2.24818 20.6127 2.26583H20.6145Z" fill="#AB6926"/>
<path d="M22.5901 4.0056C22.5466 4.0056 22.5048 4.0056 22.4647 4.00208C22.3011 4.00208 22.1584 3.98796 22.0714 3.97384H22.0644C21.9721 3.96325 21.9443 3.94913 22.0244 3.93855H22.0383C22.1392 3.93149 22.2524 3.92443 22.3673 3.9209C22.3673 3.9209 22.3684 3.9209 22.3708 3.9209C22.3708 3.9209 22.3708 3.92443 22.3742 3.9209C22.3742 3.9209 22.3742 3.92443 22.3777 3.9209H22.4978C22.5292 3.95266 22.5605 3.9809 22.5901 4.0056Z" fill="#AB6926"/>
<path d="M22.0923 3.55782C22.0296 3.55782 21.9721 3.55782 21.9182 3.55429H21.9164C21.7633 3.55429 21.6484 3.55429 21.5648 3.55429H21.5614C21.3403 3.54724 21.356 3.53665 21.53 3.52606C21.6084 3.52606 21.7198 3.51547 21.8538 3.51194C21.9077 3.51194 21.9652 3.51194 22.0279 3.50488C22.0487 3.52606 22.0679 3.54371 22.0888 3.56135L22.0923 3.55782Z" fill="#AB6926"/>
<path d="M12.0679 3.42729C8.99916 3.73082 6.31334 3.12376 3.13841 3.17318C2.27505 3.19435 1.40124 3.21553 0.104465 3.20494C0.102724 3.18376 0.102724 3.16259 0.100984 3.14847C0.100984 3.14141 0.100984 3.13788 0.0992432 3.13082C0.73806 3.08141 1.37339 3.04259 2.00699 3.01435C2.68584 2.98259 3.36469 2.95435 4.04006 2.94376C6.73284 2.90141 9.3995 3.04259 12.0679 3.42729Z" fill="#AB6926"/>
<path d="M22.4404 4.29199H22.4387C18.7607 4.30258 15.0305 4.63787 11.3003 4.63787C15.027 4.88493 18.752 4.33787 22.4404 4.29552H22.4422C22.4961 4.29552 22.5483 4.29199 22.6023 4.29199H22.8982H22.4404Z" fill="#AB6926"/>
<path d="M21.7006 7.09064C21.7528 7.09064 21.8033 7.09064 21.852 7.09064C23.168 7.11182 22.8268 7.09064 22.1897 7.07652C21.2654 7.04829 19.718 7.01652 21.7023 7.09064H21.7006Z" fill="#AB6926"/>
</g>
<defs>
<clipPath id="clip0_676_10335">
<rect width="24" height="12" fill="white"/>
</clipPath>
</defs>
</svg>
