<svg width="40" height="40" viewBox="0 0 40 40" fill="none" xmlns="http://www.w3.org/2000/svg">
<g clip-path="url(#clip0_625_1292)">
<path fill-rule="evenodd" clip-rule="evenodd" d="M30.071 4.26258H34.4078C37.4915 4.26258 40.0022 6.76865 40 9.84651V34.4158C40 37.4959 37.4915 39.9997 34.4056 39.9997H5.5944C2.51077 39.9997 0 37.4959 0 34.4158V9.84651C0 6.76865 2.51077 4.26258 5.5944 4.26258H9.93119V1.11771C9.93119 0.492313 10.4436 0.0277304 11.0501 0.000927527C11.6543 -0.0258753 12.1689 0.532517 12.1689 1.11771V1.9486V4.26258H27.8333V1.11771C27.8333 0.492313 28.3457 0.0277304 28.9522 0.000927527C29.5564 -0.0258753 30.071 0.532517 30.071 1.11771V1.9486V4.26258ZM5.5944 37.7661H34.4078C36.2585 37.7661 37.7645 36.2629 37.7622 34.4158V15.6181H2.23776V34.4158C2.23776 36.2629 3.74378 37.7661 5.5944 37.7661Z" fill="#231F1F"/>
</g>
<defs>
<clipPath id="clip0_625_1292">
<rect width="40" height="39.9997" fill="white"/>
</clipPath>
</defs>
</svg>
