<svg width="224" height="108" viewBox="0 0 224 108" fill="none" xmlns="http://www.w3.org/2000/svg">
<g clip-path="url(#clip0_421_785)">
<path d="M180.027 42.4711C179.375 42.1407 178.723 41.8203 178.32 41.3097C177.945 40.8291 178.029 40.0882 177.987 39.5576C177.904 38.4863 177.099 37.1547 177.695 36.1134C177.959 35.6629 178.376 35.2424 178.861 34.902C179.472 34.4815 180.513 34.3413 180.721 35.0822C180.846 35.5528 180.055 35.4026 179.889 35.1022C179.819 34.9721 179.666 34.7918 179.5 34.7218C179.083 34.5516 178.376 34.6016 178.056 34.3713C178.042 34.4915 178.029 34.6116 178.015 34.7318C178.431 34.4915 179.028 34.5515 179.528 34.5716C179.972 34.5816 180.041 34.081 179.583 34.071C178.875 34.0509 178.153 34.0209 177.571 34.3513C177.432 34.4314 177.39 34.6116 177.529 34.7117C177.779 34.892 178.001 35.0021 178.362 35.0321C178.792 35.0722 179.181 35.1923 179.347 35.4927C179.417 35.6128 179.542 35.8031 179.694 35.8631C180.263 36.0834 180.874 36.0934 181.263 35.6729C181.61 35.2824 181.388 34.7518 181.054 34.4114C180.61 33.9408 179.722 34.0109 179.097 34.2011C178.209 34.4614 177.584 35.1723 177.168 35.763C176.668 36.4639 176.765 37.2848 176.932 38.0357C177.043 38.5063 177.21 38.9468 177.265 39.4274C177.321 39.9781 177.335 40.5287 177.459 41.0794C177.654 41.9204 178.709 42.4511 179.611 42.9016C179.986 43.0918 180.374 42.6713 180.013 42.4811L180.027 42.4711Z" fill="#CCCCCC"/>
<path d="M177.168 0.810954C177.334 1.97235 177.126 3.08369 176.974 4.22506C176.71 6.30757 177.279 8.47017 177.515 10.5427C177.751 12.6852 178.306 14.7978 178.598 16.9404C178.875 19.0529 178.278 21.1454 178.528 23.248C178.778 25.3104 179.819 27.2227 179.583 29.3153C179.444 30.5267 179.056 31.7282 178.986 32.9496C178.958 33.4002 179.111 33.8707 179.194 34.3113C179.305 34.912 179.222 35.5327 179.278 36.1435C179.375 37.2448 179.75 38.3161 179.986 39.3974C180.11 39.9681 180.138 40.5388 180.249 41.1095C180.388 41.7302 180.055 42.0806 179.569 42.5612C179.305 42.8315 179.888 43.1219 180.152 42.8516C180.582 42.401 181.054 41.9705 180.999 41.3898C180.902 40.3686 180.693 39.3373 180.444 38.3261C180.194 37.3549 179.958 36.3838 179.93 35.3926C179.902 34.4314 179.611 33.4402 179.736 32.4891C179.861 31.4378 180.138 30.3966 180.277 29.3453C180.416 28.3541 180.277 27.3929 180.055 26.4118C179.819 25.4706 179.5 24.5495 179.305 23.6084C179.056 22.447 179.208 21.3056 179.347 20.1442C179.583 18.1218 179.236 16.0893 178.764 14.0969C178.264 11.9343 178.153 9.73169 177.848 7.54906C177.695 6.45775 177.57 5.35642 177.681 4.2551C177.779 3.23387 178.098 1.82217 177.931 0.800942C177.848 0.220243 177.071 0.220243 177.168 0.800942V0.810954Z" fill="#CCCCCC"/>
<path d="M180.291 41.52C180.069 41.52 179.847 41.53 179.652 41.55V41.6501C180.749 41.7602 181.554 42.1808 181.554 42.6814C181.554 43.182 180.735 43.6025 179.652 43.7126V43.8127C179.861 43.8327 180.069 43.8428 180.291 43.8428C181.804 43.8428 183.025 43.3221 183.025 42.6814C183.025 42.0406 181.804 41.52 180.291 41.52Z" fill="#613917"/>
<path d="M52.2452 42.4711C52.8976 42.1407 53.5499 41.8204 53.9525 41.3097C54.3272 40.8292 54.244 40.0883 54.2856 39.5576C54.3689 38.4863 55.1739 37.1547 54.5771 36.1135C54.3134 35.6629 53.897 35.2424 53.4111 34.902C52.8004 34.4815 51.7594 34.3414 51.5512 35.0823C51.4263 35.5528 52.2174 35.4026 52.384 35.1023C52.4534 34.9721 52.6061 34.7919 52.7727 34.7218C53.1891 34.5516 53.897 34.6017 54.2162 34.3714C54.2301 34.4915 54.244 34.6117 54.2578 34.7318C53.8414 34.4915 53.2446 34.5516 52.7449 34.5716C52.3007 34.5816 52.2313 34.081 52.6894 34.071C53.3973 34.051 54.119 34.021 54.702 34.3514C54.8408 34.4315 54.8825 34.6117 54.7437 34.7118C54.4938 34.892 54.2717 35.0022 53.9108 35.0322C53.4805 35.0722 53.0919 35.1924 52.9253 35.4927C52.8559 35.6129 52.731 35.8031 52.5783 35.8632C52.0092 36.0835 51.3985 36.0935 51.0099 35.673C50.6628 35.2825 50.8849 34.7519 51.2181 34.4114C51.6622 33.9409 52.5506 34.011 53.1752 34.2012C54.0635 34.4615 54.6881 35.1724 55.1045 35.7631C55.6042 36.4639 55.5071 37.2849 55.3405 38.0358C55.2295 38.5064 55.0629 38.9469 55.0074 39.4275C54.9519 39.9781 54.938 40.5288 54.8131 41.0795C54.6187 41.9205 53.5638 42.4511 52.6616 42.9017C52.2868 43.0919 51.8982 42.6714 52.2591 42.4812L52.2452 42.4711Z" fill="#CCCCCC"/>
<path d="M55.1045 0.810994C54.813 1.95237 55.1461 3.08373 55.2988 4.2251C55.5625 6.30761 54.9934 8.47021 54.7575 10.5427C54.5215 12.6853 53.9663 14.7978 53.6748 16.9404C53.3972 19.053 53.9941 21.1455 53.7442 23.248C53.4944 25.3105 52.4533 27.2228 52.6893 29.3153C52.8281 30.5268 53.2168 31.7282 53.2862 32.9497C53.3139 33.4002 53.1612 33.8708 53.078 34.3113C52.9669 34.912 53.0502 35.5328 52.9947 36.1435C52.8975 37.2448 52.5227 38.3161 52.2868 39.3974C52.1619 39.9681 52.1341 40.5388 52.023 41.1095C51.8842 41.7302 52.2174 42.0807 52.7032 42.5612C52.9669 42.8316 52.3839 43.1219 52.1202 42.8516C51.6899 42.4011 51.218 41.9705 51.2735 41.3898C51.3707 40.3686 51.5789 39.3374 51.8287 38.3261C52.0786 37.355 52.3145 36.3838 52.3423 35.3926C52.3701 34.4315 52.6615 33.4403 52.5366 32.4891C52.4117 31.4379 52.1341 30.3966 51.9953 29.3453C51.8565 28.3541 51.9953 27.393 52.2174 26.4118C52.4533 25.4707 52.7726 24.5496 52.9669 23.6084C53.2168 22.447 53.0641 21.3057 52.9253 20.1443C52.6893 18.1218 53.0363 16.0894 53.5082 14.097C54.0079 11.9344 54.119 9.73173 54.4243 7.5491C54.577 6.45779 54.7019 5.35647 54.5909 4.25514C54.4937 3.23391 54.1745 1.82221 54.3411 0.800982C54.4243 0.260331 55.2433 0.290368 55.1045 0.800982V0.810994Z" fill="#CCCCCC"/>
<path d="M53.0922 42.6814C53.0922 42.1307 52.2177 41.6701 51.0518 41.55C51.26 41.53 51.4682 41.52 51.6764 41.52C53.1477 41.52 54.3414 42.0406 54.3414 42.6914C54.3414 43.3421 53.1477 43.8628 51.6764 43.8628C51.4543 43.8628 51.2461 43.8528 51.0518 43.8327C52.2177 43.7126 53.0922 43.252 53.0922 42.7014V42.6814Z" fill="#613917"/>
<path d="M3.99774 45.2044H4.05326L4.01162 45.1744C3.16492 44.844 2.3321 44.5236 1.48541 44.2032L1.30496 44.1331H1.2772H1.24944H1.22168L3.98386 45.2144H4.01162L3.99774 45.2044Z" fill="#755234"/>
<path d="M1.38809 43.9429C1.84614 43.9429 2.08211 43.9229 2.74836 43.9629C4.46952 44.053 4.77488 44.063 4.91369 44.063L7.05125 44.1431H8.85569L8.84181 44.1531C8.73076 44.1531 7.09289 44.053 5.38562 43.9529C3.66446 43.8528 1.86002 43.7527 1.38809 43.7527L1.06885 43.5925L1.20765 43.8928L1.40197 43.9429H1.38809Z" fill="#AA6926"/>
<path d="M15.7263 43.4323L15.7679 43.4022L13.0612 42.361C9.3552 41.6902 5.64917 41.0194 1.94313 40.3586L1.66553 40.4086L4.60815 41.4299C8.32806 42.1007 12.0202 42.7615 15.7263 43.4323Z" fill="#AA6926"/>
<path d="M13.006 56.0975C12.5619 55.9273 11.382 55.8472 9.67476 55.8372C8.91134 55.8372 8.05077 55.8572 7.10691 55.8973C4.02548 55.677 1.33271 55.627 1.12451 55.5669H1.11063V55.5569H1.08286L1.02734 55.5869L3.734 56.6282H3.77564C3.98384 56.6983 6.66274 56.7383 9.81356 56.9686C10.7713 56.9285 11.6319 56.9085 12.3814 56.9185C14.0748 56.9185 15.2546 57.0086 15.6433 57.1688H15.671V57.1588L15.6988 57.1488C14.7966 56.7984 13.8944 56.458 12.9921 56.1075L13.006 56.0975Z" fill="#AA6926"/>
<path d="M13.1032 50.8512C12.437 50.8512 10.0218 50.7411 7.23185 50.5108C4.70564 50.3006 2.59584 50.1404 1.65198 50.1404C1.6381 50.1404 1.62422 50.1404 1.61034 50.1404C1.52706 50.1404 1.55482 50.0002 1.48542 49.9802L1.41602 50.0603C1.83242 50.7311 3.15105 50.8312 4.05327 51.1816C4.12267 51.2116 4.21983 51.2217 4.31699 51.2217C4.33087 51.2217 4.34476 51.2217 4.35864 51.2217C5.27473 51.2217 7.38454 51.3718 9.91075 51.5921C12.7007 51.8324 15.102 51.9325 15.796 51.9325H15.907L13.1032 50.8512Z" fill="#AA6926"/>
<path d="M3.83088 66.0095C4.05297 65.9694 4.46937 65.9494 4.95518 65.9494C6.34321 65.9494 8.38361 66.0996 8.8139 66.2698H8.84166L8.86942 66.2398C8.00885 65.9094 7.14827 65.579 6.30157 65.2486C6.25993 65.2285 6.20441 65.2085 6.16277 65.1985C5.66308 65.0083 3.63656 64.8681 2.23465 64.8681C1.73496 64.8681 1.30467 64.8881 1.0687 64.9282H1.01318L3.78924 66.0095H3.817H3.83088Z" fill="#AA6926"/>
<path d="M3.49759 78.1241C3.49759 78.1241 3.56699 78.1141 3.58087 78.104V78.094C3.58087 78.094 3.59475 78.084 3.60864 78.074C3.60864 78.074 3.60864 78.074 3.62252 78.064C3.62252 78.064 3.62252 78.054 3.6364 78.044C3.80296 78.0039 4.02504 77.9839 4.30265 77.9839C4.95502 77.9839 5.84336 78.094 6.62066 78.2142C6.88438 78.2542 7.13423 78.2943 7.37019 78.3243L7.41183 78.2943L4.70518 77.253C4.46921 77.213 4.21937 77.1729 3.94176 77.1329C3.16447 77.0227 2.27613 76.9026 1.59599 76.9026C1.36003 76.9026 1.13795 76.9126 0.971382 76.9527L0.87422 76.9727C0.804818 76.9927 0.749297 77.0127 0.693776 77.0428H0.666016L3.40043 78.114C3.42819 78.114 3.44207 78.1241 3.46983 78.1241H3.49759Z" fill="#AA6926"/>
<path d="M5.316 69.1933C4.84407 69.1933 4.48318 69.0731 4.10841 69.1532C3.85857 69.1733 3.66425 69.1532 3.44216 69.1532C2.84531 69.1532 2.30398 69.1933 1.92921 69.1332C1.55444 69.0731 1.24908 69.0831 1.05475 69.0831L0.985352 69.1632L3.74753 70.1644H3.76141C3.91409 70.1644 4.1917 70.2245 4.56646 70.2946C4.94123 70.3547 5.44092 70.4248 6.05165 70.4248C6.28762 70.4248 6.53746 70.4248 6.80119 70.3947C7.16208 70.3146 7.57849 70.2846 8.03653 70.2846C9.4662 70.2846 11.4094 70.605 13.7969 70.8453C15.5874 71.0255 18.7382 71.2057 21.2506 71.2658C21.8335 71.2658 22.597 71.3158 23.1799 71.3759C23.6241 71.416 23.985 71.466 24.0266 71.476H24.0544V71.466H24.0821C23.1799 71.1056 22.2777 70.7552 21.3755 70.4147C21.3061 70.3947 20.973 70.3547 20.4871 70.3046C19.9042 70.2445 19.1408 70.1945 18.5439 70.1945C16.0455 70.1344 12.8946 69.9542 11.118 69.784C8.73055 69.5437 6.80119 69.2233 5.34376 69.2233L5.316 69.1933Z" fill="#AA6926"/>
<path d="M0.610971 84.8121C1.34663 85.0924 2.09616 85.3828 2.83182 85.6631L3.30375 85.8433H3.33151C3.38703 85.8433 3.38703 85.8333 3.40091 85.8233C3.88672 85.8233 6.35741 86.0836 8.6893 86.6843L8.71706 86.6643V86.6843C10.9934 87.0147 12.8534 87.3952 13.6584 87.5153L13.7001 87.4853L10.9934 86.4441C10.1745 86.3339 8.31453 85.9435 6.02428 85.6131C3.69239 85.0123 1.26334 84.752 0.708133 84.742H0.680372L0.638731 84.722V84.742H0.597091H0.610971C0.610971 84.742 0.56933 84.762 0.56933 84.772C0.56933 84.772 0.56933 84.772 0.56933 84.7821L0.472168 84.8021H0.610971V84.8121Z" fill="#AA6926"/>
<path d="M0.499512 95.505C1.40173 95.8554 2.30395 96.1958 3.20617 96.5462C3.20617 96.5462 3.23393 96.5462 3.26169 96.5462C3.58093 96.5462 4.67748 96.6463 5.8573 96.7465C6.96772 96.8466 8.16143 96.9367 8.8832 96.9467H9.00812L6.19043 95.8654H6.17655C5.46865 95.8554 4.27495 95.7553 3.16453 95.6652C1.9847 95.565 0.90204 95.4549 0.541153 95.4549H0.555033L0.499512 95.4849V95.505Z" fill="#AA6926"/>
<path d="M16.5589 90.9795H16.6839L13.8662 89.8982H13.8523C12.4365 89.8682 10.2712 89.7981 8.00868 89.698C4.84397 89.5578 1.0963 89.698 0.624369 89.5178L0.568848 89.5478C0.888094 89.6679 1.20734 89.7881 1.51271 89.9082C2.0124 90.0985 2.51209 90.2887 2.9979 90.4789C3.08118 90.509 3.19222 90.549 3.2755 90.579C3.80295 90.7693 7.53675 90.6291 10.7153 90.7693C12.9778 90.8694 15.1431 90.9295 16.5589 90.9595V90.9795Z" fill="#AA6926"/>
<path d="M0.402761 97.8278C1.30498 98.1782 2.2072 98.5186 3.10942 98.869C3.10942 98.869 3.1233 98.869 3.13718 98.879C3.22046 98.879 3.59523 98.9691 4.1782 99.0693C4.77505 99.1694 5.60787 99.2595 6.70441 99.2595C7.14858 99.2595 7.62051 99.2395 8.14796 99.2094C9.39718 99.2094 10.7436 99.3596 11.7291 99.4597L11.7707 99.4297L9.06406 98.3884C8.0508 98.2783 6.70441 98.1381 5.42742 98.1281C4.89997 98.1682 4.42804 98.1782 3.98387 98.1782C2.90121 98.1782 2.06839 98.0781 1.48542 97.988C0.916331 97.8979 0.597084 97.8077 0.430521 97.7977L0.375 97.8278H0.402761Z" fill="#AA6926"/>
<path d="M224 43.0919C224 43.0919 224 43.0618 224 43.0418C224 43.0218 224 43.0018 224 42.9817C224 42.9617 224 42.9317 224 42.9116C224 42.8916 224 42.8716 224 42.8616C224 42.8215 223.986 42.7915 223.972 42.7615C223.972 42.7615 223.972 42.7515 223.972 42.7414C223.972 42.7114 223.959 42.6914 223.945 42.6714C223.945 42.6613 223.945 42.6513 223.931 42.6413C223.931 42.6213 223.903 42.6013 223.903 42.5913C223.903 42.5913 223.903 42.5712 223.889 42.5612C223.889 42.5512 223.875 42.5412 223.861 42.5312C223.861 42.5212 223.834 42.5012 223.82 42.4911C223.82 42.4811 223.792 42.4711 223.778 42.4611C223.764 42.4511 223.75 42.4411 223.723 42.4311C223.695 42.4211 223.681 42.401 223.653 42.391C223.584 42.361 223.514 42.341 223.445 42.3109C223.445 42.3009 223.431 42.2809 223.417 42.2609C223.417 42.2609 223.417 42.2508 223.417 42.2408C223.417 42.2208 223.389 42.2108 223.389 42.1908C223.389 42.1908 223.389 42.1708 223.376 42.1607C223.376 42.1407 223.348 42.1307 223.334 42.1107C223.334 42.1007 223.32 42.0907 223.306 42.0806C223.278 42.0506 223.251 42.0106 223.223 41.9805C223.223 41.9805 223.223 41.9705 223.209 41.9605C223.181 41.9305 223.153 41.9004 223.126 41.8704C223.126 41.8604 223.098 41.8504 223.084 41.8303C223.056 41.8103 223.029 41.7803 223.001 41.7502C222.987 41.7402 222.973 41.7202 222.959 41.7102C222.931 41.6902 222.904 41.6601 222.876 41.6401C222.862 41.6301 222.848 41.6101 222.82 41.6001C222.779 41.57 222.751 41.55 222.709 41.52C222.695 41.51 222.682 41.4999 222.668 41.4899C222.612 41.4499 222.557 41.4098 222.501 41.3798C222.487 41.3798 222.473 41.3598 222.459 41.3498C222.418 41.3197 222.362 41.2897 222.321 41.2597C222.293 41.2496 222.279 41.2296 222.251 41.2196C222.21 41.1996 222.168 41.1695 222.112 41.1495C222.085 41.1395 222.057 41.1195 222.029 41.1095C221.974 41.0794 221.918 41.0594 221.863 41.0294C221.835 41.0194 221.821 41.0094 221.793 40.9993C221.71 40.9593 221.627 40.9293 221.543 40.8992L218.837 39.858L218.781 39.888C218.864 39.918 218.948 39.9581 219.017 39.9881C219.045 39.9881 219.059 40.0082 219.087 40.0182C219.142 40.0482 219.198 40.0682 219.253 40.0983C219.253 40.0983 219.281 40.1083 219.295 40.1183C219.295 40.1183 219.309 40.1283 219.323 40.1383C219.378 40.1683 219.42 40.1884 219.461 40.2184C219.475 40.2284 219.503 40.2384 219.517 40.2484C219.572 40.2785 219.628 40.3185 219.683 40.3486C219.683 40.3486 219.697 40.3486 219.711 40.3586C219.767 40.3986 219.822 40.4387 219.878 40.4787C219.878 40.4787 219.892 40.4887 219.905 40.4987C219.947 40.5288 219.989 40.5588 220.03 40.5889C220.044 40.5989 220.058 40.6089 220.072 40.6289C220.1 40.6589 220.141 40.679 220.169 40.709C220.183 40.719 220.197 40.729 220.211 40.749C220.239 40.7791 220.266 40.7991 220.294 40.8291C220.294 40.8391 220.322 40.8492 220.336 40.8592C220.364 40.8892 220.391 40.9192 220.419 40.9493C220.419 40.9493 220.419 40.9593 220.433 40.9693C220.461 40.9993 220.488 41.0394 220.516 41.0694C220.516 41.0694 220.53 41.0895 220.544 41.0995C220.544 41.1195 220.572 41.1295 220.586 41.1495C220.586 41.1495 220.586 41.1695 220.599 41.1695C220.599 41.1896 220.627 41.1996 220.627 41.2196C220.627 41.2196 220.627 41.2296 220.627 41.2396C220.627 41.2597 220.641 41.2697 220.655 41.2897C220.655 41.3097 220.669 41.3297 220.683 41.3498L221.058 41.4999C221.058 41.4999 221.058 41.51 221.071 41.52C221.071 41.52 221.085 41.53 221.085 41.54C221.085 41.54 221.085 41.54 221.085 41.55C221.085 41.55 221.085 41.57 221.099 41.58C221.099 41.6001 221.127 41.6101 221.127 41.6301C221.127 41.6401 221.127 41.6501 221.141 41.6601C221.141 41.6802 221.155 41.7102 221.169 41.7302C221.169 41.7302 221.169 41.7402 221.169 41.7502C221.169 41.7803 221.182 41.8103 221.196 41.8404C221.196 41.8604 221.196 41.8704 221.196 41.8904C221.196 41.9104 221.196 41.9405 221.196 41.9605C221.196 41.9805 221.196 42.0006 221.196 42.0206C221.196 42.0406 221.196 42.0506 221.196 42.0706C221.196 42.0706 221.196 42.0806 221.196 42.0907C221.196 42.1107 221.196 42.1307 221.196 42.1507C221.196 42.1808 221.196 42.2008 221.196 42.2308C221.196 42.2509 221.196 42.2709 221.196 42.3009C221.196 42.3109 221.196 42.3309 221.196 42.341C221.196 42.351 221.196 42.371 221.196 42.381C221.196 42.411 221.196 42.4411 221.182 42.4711C221.182 42.5011 221.169 42.5212 221.155 42.5512C221.155 42.5812 221.141 42.6213 221.127 42.6513C221.127 42.6814 221.113 42.7114 221.099 42.7414C221.099 42.7715 221.071 42.8115 221.058 42.8516C221.058 42.8816 221.03 42.9116 221.016 42.9417C221.002 42.9817 220.988 43.0118 220.96 43.0518C220.96 43.0718 220.947 43.0919 220.933 43.1119C220.933 43.1219 220.933 43.1319 220.919 43.1419C220.891 43.192 220.863 43.242 220.835 43.3021C220.822 43.3221 220.808 43.3522 220.794 43.3722C220.752 43.4523 220.697 43.5324 220.641 43.6125V43.6225C220.711 43.6726 220.766 43.7326 220.822 43.7827C220.822 43.7927 220.849 43.8127 220.863 43.8227C220.877 43.8428 220.891 43.8528 220.905 43.8728C220.933 43.9028 220.96 43.9429 220.974 43.9729C220.974 43.9729 220.974 43.9829 220.974 43.9929C221.016 44.053 221.044 44.1031 221.071 44.1632C221.071 44.1732 221.071 44.1932 221.085 44.2032C221.099 44.2533 221.127 44.3033 221.127 44.3534C221.127 44.3534 221.127 44.3734 221.127 44.3834C221.127 44.3834 221.127 44.3834 221.127 44.3934C221.127 44.4034 221.127 44.4235 221.127 44.4335C221.127 44.4936 221.141 44.5536 221.141 44.6037V44.6237C221.141 44.6237 221.141 44.6638 221.141 44.6738C221.141 44.7238 221.141 44.7739 221.127 44.8239C221.127 44.844 221.127 44.854 221.127 44.864C221.127 44.874 221.127 44.884 221.127 44.904C221.127 44.9241 221.127 44.9441 221.127 44.9541C221.127 44.9942 221.113 45.0342 221.099 45.0642C221.099 45.0843 221.099 45.0943 221.085 45.1143C221.071 45.1543 221.058 45.1944 221.044 45.2344V45.2545C221.03 45.2945 221.002 45.3446 220.988 45.3846C220.988 45.3846 220.988 45.3846 220.988 45.3946C220.988 45.4147 220.974 45.4247 220.96 45.4347C220.947 45.4647 220.933 45.4948 220.919 45.5248C220.919 45.5448 220.891 45.5548 220.891 45.5749C220.891 45.5949 220.863 45.6149 220.849 45.6349C220.849 45.6549 220.822 45.665 220.822 45.685C220.822 45.705 220.794 45.715 220.78 45.735C220.78 45.7551 220.752 45.7651 220.752 45.7751C220.752 45.7751 220.752 45.7951 220.738 45.7951V45.8151C220.738 45.8151 220.724 45.8151 220.711 45.8252C220.711 45.8352 220.683 45.8452 220.683 45.8552V45.8652L220.655 45.8752L220.808 45.9353C220.808 45.9353 220.808 45.9353 220.794 45.9353C220.711 45.9353 220.586 45.9553 220.447 45.9653H220.419C220.336 45.9653 220.252 45.9753 220.155 45.9853C220.114 45.9853 220.072 45.9853 220.03 45.9853C219.989 45.9853 219.947 45.9853 219.905 45.9853C219.864 45.9853 219.808 45.9853 219.767 45.9954C219.725 45.9954 219.683 45.9954 219.656 45.9954C219.6 45.9954 219.558 45.9954 219.503 46.0054C219.461 46.0054 219.434 46.0054 219.392 46.0054C219.336 46.0054 219.281 46.0054 219.225 46.0254C219.198 46.0254 219.156 46.0254 219.128 46.0254C219.059 46.0254 218.989 46.0354 218.92 46.0454C218.92 46.0454 218.892 46.0454 218.878 46.0454C218.795 46.0454 218.712 46.0654 218.642 46.0755C218.615 46.0755 218.601 46.0755 218.587 46.0755C218.531 46.0755 218.476 46.0955 218.434 46.1055C218.406 46.1055 218.379 46.1155 218.365 46.1155C218.323 46.1155 218.281 46.1355 218.24 46.1455C218.212 46.1455 218.198 46.1556 218.17 46.1656C218.143 46.1656 218.101 46.1856 218.073 46.1956C218.059 46.1956 218.032 46.2056 218.018 46.2156C218.018 46.2156 218.004 46.2256 217.99 46.2256H217.962V46.2356C217.962 46.2356 217.934 46.2457 217.921 46.2557C216.963 46.566 214.131 46.7563 211.827 47.2268C209.218 47.7575 207.455 47.8376 205.706 48.2381C205.151 48.3682 204.637 48.4583 204.221 48.5384H204.151L206.927 49.6197H206.955C207.385 49.5396 207.899 49.4395 208.454 49.3194C210.175 48.9289 211.952 48.8388 214.575 48.3081C216.88 47.8376 219.683 47.6574 220.697 47.327C220.724 47.3169 220.738 47.3069 220.752 47.2969C220.752 47.2969 220.766 47.2969 220.78 47.2869C220.794 47.2869 220.808 47.2769 220.835 47.2669C220.863 47.2669 220.891 47.2469 220.919 47.2369C220.947 47.2369 220.96 47.2268 220.988 47.2168C221.016 47.2168 221.058 47.1968 221.099 47.1968C221.127 47.1968 221.141 47.1868 221.169 47.1868C221.21 47.1868 221.266 47.1668 221.321 47.1568C221.349 47.1568 221.363 47.1568 221.377 47.1467C221.446 47.1367 221.529 47.1267 221.613 47.1167C221.613 47.1167 221.641 47.1167 221.654 47.1167C221.724 47.1167 221.793 47.0967 221.863 47.0967C221.89 47.0967 221.918 47.0967 221.946 47.0967C222.001 47.0967 222.057 47.0867 222.112 47.0767C222.14 47.0767 222.182 47.0767 222.21 47.0767C222.265 47.0767 222.321 47.0767 222.376 47.0666C222.404 47.0666 222.446 47.0666 222.473 47.0666C222.529 47.0666 222.584 47.0666 222.654 47.0566C222.682 47.0566 222.709 47.0566 222.737 47.0566C222.82 47.0566 222.904 47.0466 222.973 47.0366C222.987 47.0366 223.015 47.0366 223.029 47.0366C223.084 47.0366 223.14 47.0366 223.195 47.0266C223.237 47.0266 223.278 47.0266 223.32 47.0266C223.348 47.0266 223.376 47.0266 223.403 47.0266C223.445 47.0266 223.487 47.0266 223.528 47.0166C223.542 47.0166 223.556 47.0166 223.57 47.0166C223.598 47.0166 223.625 47.0166 223.639 47.0166C223.653 47.0166 223.667 47.0166 223.667 47.0166C223.681 47.0166 223.709 47.0166 223.723 46.9966C223.723 46.9966 223.723 46.9865 223.723 46.9765C223.723 46.9665 223.723 46.9565 223.695 46.9565C223.639 46.9365 223.57 46.9065 223.514 46.8864C223.514 46.8864 223.514 46.8864 223.514 46.8764C223.514 46.8664 223.542 46.8464 223.556 46.8264C223.556 46.8264 223.57 46.8063 223.584 46.7963C223.584 46.7763 223.612 46.7563 223.625 46.7362C223.625 46.7262 223.639 46.7162 223.653 46.6962C223.667 46.6762 223.681 46.6461 223.709 46.6161C223.709 46.6061 223.723 46.5861 223.736 46.5761C223.75 46.546 223.778 46.516 223.792 46.4859C223.792 46.4759 223.806 46.4559 223.82 46.4459C223.847 46.3958 223.861 46.3558 223.889 46.3057C223.889 46.3057 223.889 46.2857 223.889 46.2757C223.903 46.2356 223.917 46.1956 223.931 46.1555C223.931 46.1355 223.931 46.1255 223.945 46.1055C223.945 46.0654 223.972 46.0354 223.972 45.9954C223.972 45.9753 223.972 45.9553 223.972 45.9353C223.972 45.9053 223.972 45.8852 223.972 45.8552C223.972 45.8051 223.972 45.7551 223.972 45.705C223.972 45.685 223.972 45.665 223.972 45.6549C223.972 45.6549 223.972 45.6449 223.972 45.6349C223.972 45.5749 223.972 45.5148 223.959 45.4547C223.959 45.4347 223.959 45.4247 223.959 45.4046C223.959 45.3946 223.959 45.3846 223.959 45.3746C223.959 45.3245 223.931 45.2745 223.917 45.2244C223.917 45.2144 223.917 45.1944 223.903 45.1844C223.875 45.1243 223.847 45.0742 223.82 45.0142C223.82 45.0142 223.82 45.0042 223.806 44.9942C223.778 44.9441 223.736 44.894 223.695 44.844C223.695 44.834 223.667 44.8139 223.653 44.8039C223.598 44.7539 223.542 44.7038 223.487 44.6437C223.542 44.5636 223.598 44.4835 223.639 44.4135C223.653 44.3934 223.667 44.3634 223.681 44.3434C223.709 44.2933 223.736 44.2332 223.764 44.1832C223.778 44.1531 223.792 44.1231 223.806 44.0931C223.82 44.053 223.847 44.013 223.861 43.9729C223.861 43.9429 223.889 43.9129 223.903 43.8828C223.917 43.8428 223.931 43.8127 223.945 43.7727C223.945 43.7426 223.959 43.7126 223.972 43.6826C223.972 43.6525 224 43.6125 224 43.5825C224 43.5524 224.014 43.5324 224.028 43.5024C224.028 43.4723 224.042 43.4423 224.056 43.4022C224.056 43.3722 224.056 43.3522 224.056 43.3221C224.056 43.3021 224.056 43.2721 224.056 43.2521C224.056 43.222 224.056 43.202 224.056 43.172C224.056 43.1519 224.056 43.1319 224.056 43.1019V43.0818L224 43.0919Z" fill="#AA6926"/>
<path d="M220.461 52.4631C220.461 52.4631 220.433 52.4631 220.419 52.4631C220.405 52.4631 220.391 52.4631 220.364 52.4631C220.336 52.4631 220.322 52.4631 220.294 52.4631C220.266 52.4631 220.239 52.4631 220.211 52.4631C220.183 52.4631 220.141 52.4631 220.1 52.4631C220.072 52.4631 220.03 52.4631 220.003 52.4631C219.961 52.4631 219.906 52.4631 219.85 52.4631C219.822 52.4631 219.781 52.4631 219.753 52.4631C219.683 52.4631 219.6 52.4631 219.531 52.4731C219.531 52.4731 219.517 52.4731 219.503 52.4731C219.239 52.4932 218.948 52.5032 218.615 52.5232C218.587 52.5232 218.559 52.5232 218.517 52.5232C218.42 52.5232 218.323 52.5332 218.212 52.5432C218.157 52.5432 218.115 52.5432 218.059 52.5432C217.962 52.5432 217.865 52.5532 217.768 52.5632C217.712 52.5632 217.657 52.5632 217.601 52.5733C217.504 52.5733 217.407 52.5833 217.31 52.5933C217.254 52.5933 217.185 52.5933 217.129 52.6033C217.032 52.6033 216.935 52.6133 216.852 52.6233C216.782 52.6233 216.727 52.6233 216.658 52.6333C216.56 52.6333 216.463 52.6433 216.366 52.6534C216.311 52.6534 216.241 52.6534 216.172 52.6634C216.075 52.6634 215.977 52.6834 215.88 52.6834C215.825 52.6834 215.769 52.6834 215.7 52.6934C215.589 52.6934 215.492 52.7134 215.394 52.7234C215.339 52.7234 215.297 52.7234 215.242 52.7334C215.089 52.7435 214.936 52.7635 214.798 52.7735C212.743 52.9938 209.537 53.204 209.162 53.204H209.093L209.121 53.2341C209.121 53.2341 209.148 53.2541 209.162 53.2541C209.842 53.5144 210.522 53.7747 211.189 54.035C211.411 54.1251 211.633 54.2052 211.855 54.2953H211.869C212.341 54.2753 215.478 54.0751 217.518 53.8548C217.657 53.8348 217.81 53.8248 217.962 53.8148C218.018 53.8148 218.073 53.8148 218.129 53.7947C218.226 53.7947 218.323 53.7747 218.42 53.7647C218.49 53.7647 218.559 53.7547 218.629 53.7447C218.712 53.7447 218.809 53.7347 218.892 53.7246C218.962 53.7246 219.045 53.7146 219.114 53.7046C219.198 53.7046 219.281 53.6946 219.364 53.6846C219.434 53.6846 219.517 53.6746 219.586 53.6646C219.67 53.6646 219.753 53.6546 219.822 53.6445C219.906 53.6445 219.975 53.6345 220.058 53.6245C220.141 53.6245 220.211 53.6145 220.294 53.6045C220.377 53.6045 220.447 53.6045 220.516 53.5945C220.586 53.5945 220.669 53.5945 220.738 53.5845C220.808 53.5845 220.891 53.5845 220.96 53.5745C221.03 53.5745 221.099 53.5745 221.169 53.5645C221.238 53.5645 221.307 53.5645 221.391 53.5544C221.46 53.5544 221.53 53.5544 221.585 53.5444C221.668 53.5444 221.765 53.5344 221.849 53.5244C221.932 53.5244 222.001 53.5244 222.071 53.5144C222.14 53.5144 222.196 53.5144 222.265 53.5044C222.321 53.5044 222.376 53.5044 222.418 53.5044C222.473 53.5044 222.515 53.5044 222.571 53.5044C222.612 53.5044 222.654 53.5044 222.695 53.5044C222.737 53.5044 222.779 53.5044 222.806 53.5044C222.848 53.5044 222.876 53.5044 222.904 53.5044C222.931 53.5044 222.959 53.5044 222.987 53.5044C223.015 53.5044 223.042 53.5044 223.056 53.5044C223.084 53.5044 223.098 53.5044 223.112 53.5044C223.126 53.5044 223.14 53.5044 223.154 53.5044C223.167 53.5044 223.195 53.5044 223.209 53.4743C223.209 53.4743 223.278 52.7034 223.278 51.9325C223.278 51.6521 223.278 51.3818 223.251 51.1215C223.251 51.0214 223.237 50.9313 223.223 50.8211C223.223 50.721 223.209 50.6109 223.195 50.5108C223.195 50.5008 223.195 50.4807 223.195 50.4707C223.195 50.3706 223.181 50.2705 223.167 50.1704C223.167 50.1503 223.167 50.1403 223.167 50.1203C223.167 50.0202 223.14 49.9301 223.126 49.84C223.126 49.8199 223.126 49.7999 223.126 49.7799C223.126 49.7298 223.098 49.6798 223.084 49.6297C223.084 49.6097 223.084 49.5897 223.07 49.5696C223.056 49.5096 223.029 49.4395 223.001 49.3794C223.001 49.3694 223.001 49.3594 223.001 49.3494C222.973 49.2993 222.959 49.2493 222.931 49.2092C222.931 49.1892 222.918 49.1792 222.904 49.1591C222.876 49.1191 222.862 49.0791 222.834 49.049C222.834 49.039 222.82 49.019 222.806 49.009C222.765 48.9589 222.723 48.9189 222.682 48.8788C222.64 48.8488 222.598 48.8087 222.543 48.7887C222.501 48.7687 222.473 48.7487 222.418 48.7286C221.516 48.3782 220.613 48.0378 219.711 47.6874L219.656 47.7174C219.656 47.7174 219.725 47.7474 219.753 47.7575C219.753 47.7575 219.753 47.7575 219.767 47.7675C219.808 47.7975 219.864 47.8275 219.906 47.8576C219.906 47.8576 219.989 47.9377 220.03 47.9877C220.03 47.9877 220.03 47.9877 220.03 47.9977C220.03 47.9977 220.03 48.0178 220.044 48.0278C220.072 48.0678 220.1 48.0979 220.114 48.1379C220.114 48.1579 220.128 48.168 220.141 48.188C220.169 48.228 220.183 48.2781 220.211 48.3281C220.211 48.3382 220.211 48.3482 220.225 48.3582C220.253 48.4183 220.266 48.4783 220.28 48.5484C220.28 48.5684 220.28 48.5885 220.294 48.6085C220.294 48.6585 220.322 48.7086 220.336 48.7587C220.336 48.7687 220.336 48.7787 220.336 48.7887C220.336 48.7887 220.336 48.8087 220.336 48.8187C220.35 48.9088 220.364 49.009 220.377 49.0991C220.377 49.1191 220.377 49.1291 220.377 49.1491C220.377 49.2493 220.405 49.3494 220.405 49.4395C220.405 49.4495 220.405 49.4695 220.405 49.4795C220.405 49.5897 220.419 49.6898 220.433 49.7899C220.433 49.89 220.447 49.9901 220.461 50.0903C220.488 50.3406 220.488 50.6209 220.488 50.8912C220.488 51.6321 220.419 52.343 220.419 52.4231L220.461 52.4631Z" fill="#AA6926"/>
<path d="M223.653 85.9434C222.307 83.891 222.695 80.4168 223.084 78.2442C223.112 78.104 223.028 78.0339 222.904 77.8937C222.321 77.233 220.502 77.5233 220.003 77.4933C219.85 77.4933 219.572 77.4832 219.433 77.5133C213.201 78.8549 209.495 77.8737 209.495 77.8737C210.134 77.7936 222.376 75.9714 222.917 75.9514C222.945 74.7099 223.264 73.4584 222.64 72.277C223.126 71.0455 223.098 69.8841 222.57 68.6726C223.209 67.3511 223.098 66.0295 223.084 64.6378L220.336 63.5865C221.252 63.4964 222.293 63.4163 223.139 63.6065C223.084 63.5765 223.028 63.5465 222.973 63.5265C223.153 63.136 223.584 62.6254 222.987 62.305C222.321 60.1724 223.542 57.9698 223.389 55.7971C223.251 54.9461 221.377 54.836 220.53 54.3354H220.502C220.502 54.3354 220.474 54.3554 220.461 54.3654C220.474 54.3654 220.516 54.3854 220.53 54.4055C221.127 56.6782 219.128 59.3214 220.419 61.464C220.697 61.8044 220.336 62.1548 220.197 62.4752C218.184 62.305 215.936 62.6554 214.006 63.1059C213.909 63.136 213.701 63.2161 213.84 63.2862C213.84 63.2862 213.826 63.2962 213.826 63.3062C214.714 63.6866 215.658 64.017 216.56 64.3675L216.588 64.3474C216.588 64.3474 216.644 64.3374 216.657 64.3274C216.644 64.3274 216.56 64.2974 216.56 64.2874C216.56 64.2874 216.56 64.2874 216.56 64.2774C217.629 63.8168 219.059 63.7667 220.28 63.5965C220.28 64.9782 220.419 66.3098 219.767 67.6214C219.767 67.6214 219.767 67.6414 219.767 67.6614C220.211 68.8128 220.419 69.9342 219.85 71.0956C220.28 72.3371 220.266 73.5986 220.086 74.9001C217.809 75.0904 214.145 74.8 212.008 75.4308C212.008 75.4408 212.049 75.4608 212.077 75.4708C212.077 75.4808 212.077 75.4909 212.077 75.5009C212.965 75.9013 208.704 77.8637 202.486 77.8637C200.82 77.9238 204.776 78.945 204.762 79.0852L204.818 79.0551C204.818 79.0551 204.818 79.0551 204.818 79.0451C210.647 78.8849 213.937 78.2842 220.225 78.0339L220.28 78.0539C220.28 78.0539 220.28 78.094 220.28 78.114C219.753 79.8161 220.086 81.5381 219.961 83.3203C220.058 83.941 220.835 84.4516 220.849 85.1024C220.849 85.1024 220.849 85.1224 220.849 85.1325C220.835 85.1825 220.821 85.2426 220.78 85.2826C219.864 85.6431 220.849 86.6443 219.905 87.0247C219.919 87.6455 219.905 88.1561 219.892 88.6367C218.795 88.7869 215.505 89.3776 214.076 89.4777L216.866 90.549C217.754 90.4689 218.906 90.2987 219.961 90.1385C220.35 91.2398 220.127 92.4813 219.836 93.5826C219.836 93.5826 219.836 93.5926 219.822 93.6026C219.85 93.6127 219.989 93.6527 219.989 93.6827C216.949 94.0732 213.631 93.893 210.717 94.5238C208.884 94.5238 203.554 95.3548 201.556 95.4749L204.346 96.5462C206.33 96.426 211.674 95.585 213.451 95.6051C216.019 94.9743 218.989 95.2346 221.696 94.8141C221.918 94.7841 223.098 94.8542 222.64 94.6239C222.904 93.5125 223.251 92.1709 222.695 91.0996C222.237 90.6391 221.016 90.4388 220.294 90.0784C221.321 89.9182 222.196 89.758 222.57 89.718C222.584 89.718 222.64 89.748 222.654 89.748C222.709 89.728 222.779 89.718 222.792 89.6879C222.792 89.6779 222.737 89.6579 222.695 89.6379C222.695 89.1973 222.723 88.6667 222.709 88.076C223.625 87.7456 222.737 86.7744 223.445 86.434C223.653 86.3339 223.667 86.1437 223.639 85.9835L223.653 85.9434Z" fill="#AA6926"/>
<path d="M222.557 100.161C222.557 100.09 222.501 100.04 222.418 100C221.488 99.5198 220.239 99.0292 219.156 98.6487L219.392 98.849C219.503 98.899 219.628 98.9491 219.725 99.0192C220.28 99.7901 220.266 101.602 219.642 102.614C218.212 102.714 213.854 101.562 212.341 102.233L215.145 103.314C215.145 103.314 215.145 103.254 215.145 103.244C215.145 103.224 215.145 103.214 215.172 103.194C216.435 102.934 217.823 103.284 219.572 103.414C219.503 103.445 219.489 103.505 219.475 103.555C219.475 103.555 219.475 103.595 219.475 103.605C219.447 103.895 219.531 104.205 219.628 104.486C218.864 105.597 216.921 105.817 215.478 106.278C215.478 106.298 215.505 106.318 215.505 106.338C215.505 106.338 215.505 106.338 215.505 106.348C165.176 106.809 113.347 107.159 62.7807 106.799C61.0179 107.249 59.0608 106.148 57.3396 106.769C40.9887 106.368 24.1519 106.728 7.99524 106.308C5.73275 106.428 2.99834 106.408 1.29106 105.847H0.930176C3.77563 107.179 7.05138 107.69 10.6741 107.379C26.8585 107.81 43.6953 107.429 60.0741 107.85C61.7813 107.219 63.7385 108.32 65.5013 107.88C116.012 108.13 168.257 108.08 218.295 107.329C219.725 106.879 221.599 106.648 222.39 105.587C222.432 105.607 222.473 105.587 222.473 105.587C222.473 105.547 222.473 105.517 222.459 105.477L222.418 105.457C222.335 105.167 222.224 104.846 222.307 104.556C222.335 104.476 222.21 103.485 222.473 103.344C218.726 103.555 218.212 103.154 216.713 102.944C218.67 103.094 222.251 102.834 222.251 102.834C222.765 101.492 222.695 100.611 222.612 100.191L222.557 100.161Z" fill="#AA6926"/>
<path d="M51.6627 41.9805C52.5927 41.6201 52.8148 41.3298 53.2173 40.7991C53.606 40.2985 53.5227 39.5276 53.5643 38.9769C53.6476 37.8656 54.4943 36.4839 53.8558 35.4026C53.5782 34.9321 53.1479 34.4915 52.6344 34.1411C51.9959 33.7006 50.9132 33.5604 50.705 34.3313C50.5662 34.8119 51.399 34.6617 51.5656 34.3514C51.635 34.2212 51.8015 34.031 51.9681 33.9609C52.4123 33.7907 53.1341 33.8407 53.4672 33.5904C53.4811 33.7106 53.4949 33.8407 53.5088 33.9609C53.0785 33.7106 52.4539 33.7707 51.9403 33.7907C51.4684 33.8007 51.4129 33.2801 51.8848 33.2701C52.6205 33.25 53.37 33.21 53.9808 33.5604C54.1196 33.6405 54.1612 33.8307 54.0224 33.9308C53.7725 34.1211 53.5366 34.2312 53.1618 34.2612C52.7176 34.3013 52.3151 34.4214 52.1347 34.7418C52.0653 34.862 51.9404 35.0622 51.7738 35.1223C51.1769 35.3526 50.5523 35.3626 50.1498 34.922C49.7889 34.5216 50.0249 33.9709 50.358 33.6105C50.8299 33.1199 51.7321 33.2 52.3845 33.3902C53.3006 33.6605 53.953 34.4014 54.3833 35.0121C54.8969 35.733 54.8136 36.5941 54.6192 37.375C54.5082 37.8656 54.3278 38.3261 54.2722 38.8267C54.2028 39.4074 54.2028 39.9681 54.064 40.5488C53.8558 41.4199 52.7593 41.9705 51.8293 42.4411C51.4407 42.6313 51.0243 42.2008 51.4129 42.0106L51.6211 41.9805H51.6627Z" fill="#412312"/>
<path d="M180.555 41.9805C179.625 41.62 179.403 41.3297 179 40.7991C178.612 40.2985 178.695 39.5275 178.653 38.9769C178.57 37.8655 177.723 36.4839 178.362 35.4026C178.639 34.932 179.07 34.4915 179.583 34.141C180.222 33.7005 181.304 33.5603 181.513 34.3313C181.651 34.8118 180.819 34.6617 180.652 34.3513C180.583 34.2211 180.416 34.0309 180.25 33.9608C179.805 33.7906 179.084 33.8407 178.75 33.5904C178.737 33.7105 178.723 33.8407 178.709 33.9608C179.139 33.7105 179.764 33.7706 180.277 33.7906C180.749 33.8006 180.805 33.28 180.333 33.27C179.597 33.25 178.848 33.2099 178.237 33.5603C178.098 33.6404 178.056 33.8307 178.195 33.9308C178.445 34.121 178.681 34.2311 179.056 34.2612C179.5 34.3012 179.903 34.4214 180.083 34.7418C180.152 34.8619 180.277 35.0621 180.444 35.1222C181.041 35.3525 181.665 35.3625 182.068 34.922C182.429 34.5215 182.193 33.9708 181.86 33.6104C181.388 33.1198 180.486 33.1999 179.833 33.3901C178.917 33.6605 178.265 34.4014 177.834 35.0121C177.321 35.733 177.404 36.594 177.598 37.3749C177.709 37.8655 177.89 38.3261 177.945 38.8267C178.015 39.4074 178.015 39.9681 178.154 40.5488C178.362 41.4198 179.458 41.9705 180.388 42.441C180.777 42.6313 181.193 42.2007 180.805 42.0105L180.597 41.9805H180.555Z" fill="#412312"/>
<path d="M211.91 47.347H212.16C212.549 47.2869 212.938 47.2369 213.326 47.1768C214.603 46.9966 215.672 46.8064 216.81 46.6161C216.81 46.6161 216.838 46.6161 216.852 46.6161C216.852 46.6161 216.861 46.6161 216.88 46.6161C216.88 46.6161 216.907 46.6161 216.921 46.6161C216.921 46.6161 216.949 46.6161 216.963 46.6161C216.977 46.6161 216.991 46.6161 217.004 46.6161C217.462 46.536 217.921 46.466 218.337 46.3859C218.767 46.3158 219.17 46.2357 219.531 46.1556H219.558C219.905 46.0755 220.086 46.0054 220.363 45.9153H220.558C220.655 45.8953 220.752 45.8752 220.849 45.8452C220.891 45.8052 220.933 45.7551 220.974 45.695C221.21 45.3646 221.404 44.834 221.307 44.3434C221.307 44.3033 221.293 44.2533 221.28 44.2032C221.28 44.1832 221.266 44.1632 221.252 44.1432C221.238 44.0731 221.21 44.003 221.155 43.9429C221.085 43.8128 220.974 43.6926 220.835 43.5925C220.849 43.5625 220.877 43.5224 220.891 43.4924L220.905 43.4723C221.044 43.222 221.182 42.9717 221.28 42.7214C221.28 42.7014 221.307 42.6914 221.307 42.6714C221.543 42.0907 221.571 41.55 220.835 41.2497C219.295 37.8055 200.889 39.8079 195.212 39.0871C175.613 39.2372 155.723 38.6465 135.999 38.7166C107.808 38.7767 79.4508 38.5865 51.3016 38.9169H51.2322C50.3438 38.9369 49.4971 38.9469 48.6088 38.9569C47.193 38.9769 45.7772 38.997 44.3614 39.017C32.591 39.2272 20.8344 39.1071 9.02223 39.3574C4.74711 39.4976 4.10861 39.037 1.66568 40.4187C4.10861 40.8892 6.63483 41.3498 9.07776 41.8304C9.09164 41.8304 9.10552 41.8304 9.1194 41.8304C9.1194 41.8304 9.12865 41.8304 9.14716 41.8304C9.14716 41.8304 9.16104 41.8304 9.17492 41.8304C9.17492 41.8304 9.18417 41.8304 9.20268 41.8304C9.20268 41.8304 9.21656 41.8304 9.23044 41.8304C9.23044 41.8304 9.23969 41.8304 9.2582 41.8304C9.2582 41.8304 9.27208 41.8304 9.28596 41.8304C9.28596 41.8304 9.29521 41.8304 9.31372 41.8304C9.31372 41.8304 9.3276 41.8304 9.34148 41.8304C9.34148 41.8304 9.35073 41.8304 9.36924 41.8304C9.36924 41.8304 9.38312 41.8304 9.397 41.8304C9.397 41.8304 9.40626 41.8304 9.42476 41.8304C9.42476 41.8304 9.42476 41.8304 9.45252 41.8304C9.45252 41.8304 9.46178 41.8304 9.48028 41.8304C9.56357 41.8404 9.64685 41.8504 9.73013 41.8704C10.4519 42.0006 11.1737 42.1307 11.8955 42.2609C8.30046 42.1107 4.71935 41.9605 1.12435 41.8204C1.12435 42.0206 0.596902 43.5324 1.3048 43.8628C1.91553 43.8528 4.76099 44.023 6.46826 44.1131H6.73199C6.85691 44.1331 6.92631 44.1432 7.03735 44.1532C6.62095 44.1532 6.13514 44.1432 5.63545 44.1331H5.33008C3.77549 44.1031 2.05433 44.0631 0.916148 44.0731L1.09659 44.1832V44.2933C1.09659 44.2933 1.08271 44.3234 1.08271 44.3334C0.596902 52.7735 -0.152635 49.5296 12.3535 50.9313C9.81341 51.462 2.4985 51.9726 0.943909 52.2729C1.09659 52.7735 0.305416 54.8561 0.943909 55.647C3.35908 55.9273 7.03735 55.8973 10.0771 55.9674C7.13452 56.0074 3.74773 56.488 1.05495 56.1676C1.19375 56.5981 1.13823 57.1788 0.846747 57.5593C1.11047 57.8096 1.24927 58.0599 1.3048 58.3002C1.33256 58.3703 1.34644 58.4303 1.34644 58.4904V58.5205C1.41584 59.1012 1.09659 59.6819 0.888388 60.2826C0.888388 60.3026 0.888388 60.3126 0.888388 60.3326C0.818986 60.5629 0.763465 60.7932 0.763465 61.0335C0.916148 62.255 0.971669 63.927 0.957789 64.8981L1.15211 65.0183C2.41522 64.8781 4.41398 65.0183 5.70485 65.1985C4.83039 65.3787 0.874507 65.1184 0.749585 65.579C0.916148 66.3999 0.277655 68.2722 0.957789 69.1733C2.55402 69.2534 4.20578 69.3435 5.87141 69.4536C5.98245 69.4536 6.09349 69.4736 6.20454 69.4736H6.94019C8.32822 69.5938 9.78565 69.734 11.2431 69.8641H11.8677C12.062 69.8741 12.2425 69.8942 12.4507 69.9042C15.2406 70.0944 18.0861 70.7051 20.9315 70.4348C19.3353 70.585 18.1832 72.267 7.88405 73.058H7.32884C5.67709 73.058 3.98369 73.058 2.47074 73.088C2.10985 73.088 1.74897 73.088 1.38808 73.088C1.23539 73.088 1.09659 73.088 0.957789 73.098H0.916148C0.818986 73.098 0.735704 73.098 0.638542 73.098C0.749585 73.6387 0.583021 74.1593 0.569141 75.0904C0.707944 75.4809 0.832866 75.8613 0.846747 76.2118C0.846747 76.2318 0.846747 76.2418 0.846747 76.2518C0.874507 76.5722 0.805106 76.8726 0.583021 77.1329C0.832866 77.0528 1.08271 77.0027 1.34644 76.9827C1.34644 76.9827 1.35569 76.9827 1.3742 76.9827C1.3742 76.9827 1.38808 76.9727 1.40196 76.9827C1.40196 76.9827 1.41121 76.9827 1.42972 76.9827C1.42972 76.9827 1.42972 76.9727 1.45748 76.9827C1.45748 76.9827 1.46673 76.9827 1.48524 76.9827C1.48524 76.9827 1.49912 76.9727 1.513 76.9827C1.54076 76.9727 1.56852 76.9727 1.59628 76.9727C1.70732 76.9727 1.81837 76.9727 1.92941 76.9727H2.2903C2.66506 76.9927 2.91491 77.0628 3.3452 77.1229C2.38746 77.1729 1.23539 76.9927 0.485859 77.253C0.943909 79.3455 0.0139296 82.5894 0.471979 84.8321C1.48524 84.752 6.24618 85.7132 8.91119 86.1938C9.06388 86.2238 9.21656 86.2538 9.35536 86.2739C9.73013 86.344 10.0355 86.394 10.2715 86.4241C9.79953 86.4941 9.27208 86.5742 8.70299 86.6543H8.57807C8.46702 86.6744 8.39762 86.7044 8.25882 86.7244C8.16166 86.7244 8.05061 86.7545 7.95345 86.7645H7.77301C5.44112 87.1049 2.84551 87.4953 0.902268 87.7757C-0.235916 87.9058 1.02719 88.837 0.458099 89.4076H0.305416C1.77673 90.0785 8.36986 89.5578 11.4374 89.9082C8.50866 90.0084 1.95717 90.0584 0.402578 90.1285C-0.44412 91.39 0.596902 94.0232 0.291535 95.485C0.846747 95.6251 2.73447 95.7152 4.02533 95.8254H4.10861C4.1919 95.8454 4.24742 95.8554 4.3307 95.8754H4.4695C4.4695 95.8754 4.56666 95.8754 4.6083 95.8854C2.84551 95.9856 0.943909 95.9655 0.249894 96.0657C0.152732 96.3059 -0.44412 97.7076 0.416458 97.8778C0.749585 97.978 1.11047 98.048 1.513 98.0981H1.52688C1.52688 98.0981 1.59628 98.0981 1.63792 98.0981H1.67956C3.69221 98.3484 6.21842 98.1181 8.16166 98.3684C5.80201 98.7889 2.20701 97.988 0.0139296 98.879C0.347056 98.879 0.583021 98.9792 0.749585 99.1193V99.1293C0.763465 99.1293 0.777345 99.1594 0.791226 99.1694C1.09659 99.4998 1.08271 100.02 0.888388 100.531V100.551C0.721824 100.962 0.430338 101.362 0.0972113 101.602C0.971669 102.373 1.29092 103.885 0.0972113 104.336C-0.44412 105.918 2.01269 106.298 4.06697 106.328C4.4001 106.448 4.78875 106.488 5.20516 106.488C6.01021 106.488 6.94019 106.348 7.84241 106.378C9.70237 106.428 11.5623 106.468 13.4362 106.488C13.5333 106.488 13.6166 106.488 13.7138 106.488C13.7554 106.488 13.7971 106.488 13.8387 106.488C13.8665 106.488 13.9081 106.488 13.9497 106.488C28.2603 106.708 42.9734 106.448 57.2979 106.849C58.9913 106.198 60.9345 107.299 62.7251 106.869C68.8324 106.889 74.9536 106.919 81.1026 106.929C81.63 106.929 82.1436 106.939 82.671 106.929C83.2818 106.939 83.9203 106.939 84.5587 106.939C88.2648 106.959 91.9847 106.969 95.7046 106.969H95.774C101.465 106.989 107.156 106.999 112.861 106.999H116.636C149.838 106.999 183.178 106.829 215.63 106.288C217.768 105.707 219.309 105.327 219.767 104.446C219.725 104.326 219.642 104.135 219.6 103.935V103.885V103.855C219.6 103.855 219.586 103.805 219.586 103.785C219.586 103.655 219.6 103.545 219.656 103.455L220.183 103.324C219.406 103.374 218.032 103.054 216.574 102.744H216.56C216.56 102.744 216.533 102.744 216.519 102.734C216.519 102.734 216.509 102.734 216.491 102.734H216.463C215.047 102.423 213.604 102.113 212.688 102.113C214.52 102.003 218.268 102.674 219.753 102.684C219.739 102.493 220.183 101.482 220.239 100.511C220.239 100.501 220.239 100.491 220.239 100.471C220.239 100.241 220.239 100.01 220.197 99.7901C220.197 99.7401 220.197 99.69 220.169 99.64C220.169 99.6299 220.169 99.6099 220.169 99.5999C219.905 98.7889 219.086 98.2383 216.977 98.6788C215.269 98.2283 213.035 98.2783 210.661 98.1482C210.606 98.1482 210.384 98.0781 210.05 97.9679C210.05 97.9679 210.037 97.9679 210.023 97.9579C209.176 97.6776 207.635 97.1169 206.164 96.5963H206.136C206.136 96.5963 206.081 96.5663 206.039 96.5462C205.026 96.1858 204.054 95.8354 203.402 95.6151H203.374C202.971 95.4749 202.68 95.3948 202.597 95.3848C203.957 95.2647 205.789 95.0044 207.455 94.8041C207.607 94.7841 207.677 94.7741 207.788 94.7541H207.885C208.996 94.6239 209.995 94.5338 210.689 94.5538C213.16 93.9231 216.616 94.1133 219.156 93.7529C219.489 93.7328 220.419 93.7529 219.989 93.4926C220.003 93.4225 220.016 93.3524 220.044 93.2823V93.2623C220.058 93.1722 220.086 93.0721 220.114 92.9619V92.9119C220.141 92.8017 220.169 92.6816 220.197 92.5614V92.5214C220.322 91.7805 220.391 90.9395 220.169 90.2887C220.141 90.1686 220.1 90.0684 220.044 89.9783C219.114 89.3275 216.907 89.5879 215.089 89.3776C215.908 89.2875 217.31 89.0572 218.434 88.867C218.476 88.867 218.503 88.867 218.545 88.867C218.601 88.847 218.656 88.837 218.739 88.8169C219.309 88.7268 219.794 88.6567 220.044 88.6267C220.044 88.1261 220.086 87.6555 220.058 87.0348V86.9847C220.155 86.9347 220.239 86.8846 220.294 86.8345C220.724 86.4441 220.363 85.8333 220.599 85.4228C221.793 84.9823 220.044 83.7208 220.127 83.2502C220.127 83.04 220.1 82.8097 220.1 82.5794C220.1 81.9186 220.141 81.2378 220.183 80.557C220.183 80.547 220.183 80.537 220.197 80.527V80.3467C220.197 80.2967 220.197 80.2466 220.197 80.1966C220.197 80.1064 220.197 80.0263 220.197 79.9463C220.252 79.1753 220.294 78.4444 220.239 77.8037C220.239 77.1829 219.364 77.4332 218.309 77.6735H218.281H218.254H218.226H218.198H218.184C218.184 77.6735 218.156 77.6735 218.143 77.6735H218.129C218.129 77.6735 218.032 77.6935 217.976 77.7036C217.712 77.7536 217.449 77.8037 217.199 77.8337H217.115C217.115 77.8337 217.115 77.8537 217.074 77.8537C217.074 77.8537 217.065 77.8537 217.046 77.8537H217.018C214.534 78.2242 210.3 77.7536 207.385 77.7736C207.441 77.7536 207.469 77.7336 207.538 77.7236C207.538 77.7236 207.547 77.7236 207.566 77.7236C207.566 77.7236 207.566 77.7236 207.594 77.7236C207.594 77.7236 207.603 77.7236 207.621 77.7236C207.621 77.7236 207.621 77.7236 207.649 77.7236C207.649 77.7236 207.658 77.7236 207.677 77.7236C207.677 77.7236 207.677 77.7236 207.705 77.7236C207.705 77.7236 207.714 77.7236 207.732 77.7236C207.843 77.7036 207.954 77.6835 208.079 77.6835H208.329C212.132 77.1529 219.156 74.9803 220.266 74.9102C220.211 74.74 220.211 74.5197 220.225 74.2594C220.28 73.5285 220.516 72.5574 220.252 71.8866C219.836 71.3759 219.975 70.8853 220.141 70.3447C220.169 70.2946 220.183 70.2346 220.197 70.1845C220.266 69.9843 220.322 69.794 220.35 69.5838C220.363 69.5437 220.363 69.5037 220.363 69.4636C220.363 69.3034 220.363 69.1533 220.35 68.9831C220.322 68.8529 220.28 68.7327 220.225 68.6026C220.225 68.5826 220.225 68.5625 220.225 68.5425H220.211C220.072 68.1721 219.892 67.7916 219.905 67.4112C219.905 67.4112 219.91 67.4045 219.919 67.3911C219.905 67.301 219.933 67.2109 219.975 67.1208C219.961 67.1108 219.975 67.1008 219.975 67.1008C220.03 66.9005 220.155 66.7003 220.363 66.4901C220.53 65.8593 220.433 65.1885 220.377 64.5577V64.5277C220.35 64.1673 220.35 63.8268 220.419 63.5065C218.698 63.1961 216.074 63.3963 214.187 63.1861C214.103 63.1861 214.034 63.1861 213.965 63.1661H213.951C213.951 63.1661 213.951 63.1661 213.923 63.1661H213.909C214.409 63.0159 215.047 62.8757 215.741 62.7556H215.755C215.755 62.7556 215.769 62.7556 215.783 62.7556C215.783 62.7556 215.792 62.7556 215.811 62.7556C215.811 62.7556 215.811 62.7556 215.838 62.7556C215.838 62.7556 215.848 62.7556 215.866 62.7556C215.866 62.7556 215.866 62.7556 215.894 62.7556C215.95 62.7355 215.991 62.7155 216.074 62.6955C216.13 62.6955 216.172 62.6855 216.227 62.6955C217.698 62.4552 219.225 62.325 220.391 62.5954C220.114 62.265 221.099 61.6042 220.322 61.1737H220.294C220.294 60.7131 220.294 60.2826 220.294 59.8821V59.822C220.294 58.7908 220.377 57.9498 220.447 57.2589V57.2389C220.933 52.7035 221.738 54.6758 210.231 53.3743C210.12 53.3643 209.995 53.3442 209.87 53.3342C209.856 53.3242 209.842 53.3242 209.828 53.3342C209.828 53.3342 209.819 53.3342 209.801 53.3342C209.801 53.3342 209.773 53.3242 209.731 53.3142C211.73 53.134 214.492 52.9738 217.032 52.7635H217.129C217.129 52.7635 217.139 52.7635 217.157 52.7635C217.157 52.7635 217.171 52.7535 217.185 52.7635C217.185 52.7635 217.194 52.7635 217.213 52.7635H217.393C218.573 52.6634 219.669 52.5433 220.599 52.4031C220.474 51.2918 221.293 48.3783 219.531 47.5773C218.975 47.5172 217.782 47.8576 216.907 47.7275C213.382 47.9477 209.578 48.4784 205.512 48.4784H205.081C206.844 48.0879 209.273 47.7074 211.758 47.347C211.785 47.327 211.813 47.317 211.827 47.297L211.91 47.347ZM53.5641 41.8604C53.5641 41.8604 53.689 41.9205 53.7445 41.9505H53.7584C54.4524 42.381 54.4524 42.9918 53.7584 43.4123H53.7445C53.7445 43.4123 53.6335 43.4824 53.5641 43.5124C53.342 43.6225 53.0644 43.7126 52.7313 43.7627C52.5925 43.7927 52.4536 43.8128 52.301 43.8228C52.1066 43.8428 51.9123 43.8528 51.6902 43.8528H51.6486C51.4404 43.8528 51.2461 43.8528 51.0656 43.8228C48.2479 43.6125 48.3312 41.6301 51.3432 41.53C51.4404 41.53 51.5375 41.53 51.6486 41.53H51.6902C51.9123 41.53 52.1066 41.53 52.301 41.56C52.4536 41.56 52.5925 41.5901 52.7313 41.6201C53.0644 41.6702 53.342 41.7603 53.5641 41.8704V41.8604ZM177.626 42.6914C177.557 41.1796 183.095 41.1796 183.025 42.6914C183.095 44.1932 177.557 44.1932 177.626 42.6914Z" fill="#F7B168"/>
<path d="M178.001 0.360432C178.223 1.51182 177.959 2.63317 177.807 3.77454C177.543 5.85705 178.112 8.01965 178.348 10.0921C178.584 12.2347 179.139 14.3473 179.431 16.4898C179.708 18.6024 179.111 20.6949 179.361 22.7974C179.611 24.8599 180.652 26.7722 180.416 28.8647C180.277 30.0762 179.889 31.2776 179.819 32.4991C179.791 32.9497 179.944 33.4202 180.027 33.8608C180.138 34.4615 180.055 35.0822 180.111 35.693C180.208 36.7943 180.583 37.8656 180.819 38.9469C180.943 39.5176 180.971 40.0882 181.082 40.6589C181.221 41.2797 180.943 41.6601 180.402 42.1107C180.041 42.411 180.43 42.5812 180.86 42.4211C180.86 42.4211 180.888 42.4211 181.152 42.2809C181.249 42.2108 181.887 41.52 181.832 40.9393C181.735 39.918 181.526 38.8868 181.277 37.8756C181.027 36.9044 180.791 35.9332 180.763 34.9421C180.735 33.9809 180.444 32.9897 180.569 32.0386C180.694 30.9873 180.971 29.946 181.11 28.8948C181.249 27.9036 181.11 26.9424 180.888 25.9612C180.652 25.0201 180.333 24.099 180.138 23.1579C179.889 21.9965 180.041 20.8551 180.18 19.6937C180.416 17.6713 180.069 15.6388 179.597 13.6464C179.097 11.4838 178.986 9.28117 178.681 7.09854C178.528 6.00723 178.403 4.9059 178.514 3.80458C178.612 2.78335 178.959 1.37165 178.764 0.35042C178.667 -0.150182 177.89 -0.120146 178.001 0.35042V0.360432Z" fill="#412312"/>
<path d="M54.2025 0.360409C53.9388 1.5118 54.2442 2.63314 54.3969 3.77452C54.6606 5.85703 54.0915 8.01963 53.8555 10.0921C53.6196 12.2347 53.0644 14.3472 52.7729 16.4898C52.4953 18.6024 53.0921 20.6949 52.8423 22.7974C52.5924 24.8599 51.5514 26.7722 51.7874 28.8647C51.9262 30.0762 52.3148 31.2776 52.3842 32.4991C52.412 32.9496 52.2593 33.4202 52.176 33.8607C52.065 34.4615 52.1483 35.0822 52.0927 35.6929C51.9956 36.7943 51.6208 37.8656 51.3848 38.9469C51.2599 39.5175 51.2322 40.0882 51.1211 40.6589C50.9823 41.2797 51.2599 41.6601 51.8012 42.1107C52.1621 42.411 51.7735 42.5812 51.3432 42.421C51.3432 42.421 51.3154 42.421 51.0517 42.2809C50.9545 42.2108 50.3161 41.5199 50.3716 40.9392C50.4687 39.918 50.6769 38.8868 50.9268 37.8756C51.1766 36.9044 51.4126 35.9332 51.4404 34.942C51.4681 33.9809 51.7596 32.9897 51.6347 32.0385C51.5098 30.9873 51.2322 29.946 51.0934 28.8948C50.9546 27.9036 51.0934 26.9424 51.3154 25.9612C51.5514 25.0201 51.8706 24.099 52.065 23.1578C52.3148 21.9965 52.1621 20.8551 52.0233 19.6937C51.7874 17.6712 52.1344 15.6388 52.6063 13.6464C53.106 11.4838 53.217 9.28115 53.5224 7.09852C53.6751 6.00721 53.8 4.90588 53.689 3.80455C53.5918 2.78333 53.3142 1.38164 53.4391 0.350397C53.4946 -0.150205 54.3136 -0.110157 54.2025 0.350397V0.360409Z" fill="#412312"/>
</g>
<defs>
<clipPath id="clip0_421_785">
<rect width="224" height="108" fill="white"/>
</clipPath>
</defs>
</svg>
