<svg width="71" height="81" viewBox="0 0 71 81" fill="none" xmlns="http://www.w3.org/2000/svg">
<g clip-path="url(#clip0_134_33334)">
<path d="M69.8478 48.7936C69.5835 50.0889 69.1681 51.4748 68.5412 52.9136C68.1975 53.718 67.7821 54.5337 67.2912 55.3644C66.6455 56.4634 65.8638 57.5849 64.9235 58.7027C64.2777 59.4769 63.5527 60.251 62.7483 61.0214C61.8156 61.9126 60.7733 62.8 59.6064 63.6686C57.435 65.2962 54.8407 66.8747 51.7403 68.3512C50.3355 69.0196 48.9194 67.4487 49.7162 66.1119L53.5379 59.7185L53.9306 59.0652C54.1421 58.7103 54.5008 58.4724 54.9087 58.3893C55.3845 58.2949 56.1095 57.9965 56.9592 57.1318C57.4954 56.588 58.0846 55.8214 58.6925 54.7338C59.1948 53.835 59.7122 52.7135 60.2257 51.3238C60.5203 50.5383 60.8073 49.6622 61.0943 48.6917C61.4115 47.6117 61.7249 46.4108 62.027 45.074C62.027 45.0664 62.027 45.0626 62.027 45.0551C62.0837 44.8021 62.1214 44.5415 62.1517 44.2847C62.7257 38.7902 64.8819 38.0122 66.7059 38.4239C68.4279 38.8128 69.7043 40.2667 70.0026 42.0076C70.2707 43.571 70.418 45.969 69.844 48.7936H69.8478Z" fill="#726789" stroke="#000263" stroke-width="0.755264" stroke-linecap="round" stroke-linejoin="round"/>
<path d="M69.8476 48.7939C69.5832 50.0892 69.1678 51.4751 68.541 52.9139C66.8114 51.577 63.8206 49.4887 61.0941 48.6919C61.4113 47.6119 61.7247 46.411 62.0268 45.0742C63.8999 45.6256 66.8869 46.732 69.8476 48.7939Z" fill="white"/>
<path d="M67.2911 55.365C66.6453 56.4639 65.8636 57.5855 64.9233 58.7033C63.292 57.34 60.9393 55.5991 58.6924 54.7344C59.1947 53.8356 59.712 52.714 60.2256 51.3243C62.0798 52.0456 64.727 53.3107 67.2911 55.365Z" fill="white"/>
<path d="M62.7481 61.0214C61.8154 61.9127 60.7731 62.8001 59.6062 63.6687C57.8729 62.0977 55.6222 60.3757 53.5377 59.7186L53.9304 59.0653C54.1419 58.7103 54.5007 58.4724 54.9085 58.3894C55.3843 58.2949 56.1094 57.9966 56.959 57.1318C58.5791 57.9437 60.69 59.205 62.7481 61.0214Z" fill="white"/>
<path d="M69.8478 48.7936C69.5835 50.0889 69.1681 51.4748 68.5412 52.9136C68.1975 53.718 67.7821 54.5337 67.2912 55.3644C66.6455 56.4634 65.8638 57.5849 64.9235 58.7027C64.2777 59.4769 63.5527 60.251 62.7483 61.0214C61.8156 61.9126 60.7733 62.8 59.6064 63.6686C57.435 65.2962 54.8407 66.8747 51.7403 68.3512C50.3355 69.0196 48.9194 67.4487 49.7162 66.1119L53.5379 59.7185L53.9306 59.0652C54.1421 58.7103 54.5008 58.4724 54.9087 58.3893C55.3845 58.2949 56.1095 57.9965 56.9592 57.1318C57.4954 56.588 58.0846 55.8214 58.6925 54.7338C59.1948 53.835 59.7122 52.7135 60.2257 51.3238C60.5203 50.5383 60.8073 49.6622 61.0943 48.6917C61.4115 47.6117 61.7249 46.4108 62.027 45.074C62.027 45.0664 62.027 45.0626 62.027 45.0551C62.0837 44.8021 62.1214 44.5415 62.1517 44.2847C62.7257 38.7902 64.8819 38.0122 66.7059 38.4239C68.4279 38.8128 69.7043 40.2667 70.0026 42.0076C70.2707 43.571 70.418 45.969 69.844 48.7936H69.8478Z" stroke="#000263" stroke-width="0.755264" stroke-linecap="round" stroke-linejoin="round"/>
<path d="M56.4273 62.6264C56.4046 62.8115 56.382 62.9927 56.3593 63.174C56.2196 64.2314 56.0308 65.2623 55.8042 66.2593V66.2668C54.1804 73.4909 50.6382 78.8835 49.3014 79.2687C48.0892 79.6161 45.3816 79.4009 42.6626 79.0346C42.3794 78.9968 42.0962 78.959 41.8129 78.9175H41.8092C41.5448 78.8797 41.288 78.8382 41.0312 78.7967C40.6687 78.7438 40.3137 78.6871 39.9663 78.6305C39.8228 78.6078 39.6793 78.5814 39.5396 78.5587C39.1771 78.4983 38.8296 78.4379 38.4973 78.3813C37.9686 78.2869 37.4815 78.1962 37.0548 78.1169C37.0245 78.1094 36.9906 78.1056 36.9604 78.1018C36.9604 78.1018 36.9578 78.1018 36.9528 78.1018C36.5563 78.0301 36.156 77.9847 35.7557 77.9621H35.7482C34.9967 77.9205 34.2452 77.9659 33.5012 78.1018H33.4975C33.4635 78.1056 33.4333 78.1094 33.3993 78.1169C32.7044 78.2491 31.851 78.4001 30.9182 78.5587C30.4386 78.6381 29.9364 78.7211 29.4228 78.7967C28.8866 78.8797 28.339 78.9628 27.7914 79.0346C25.0725 79.4009 22.3649 79.6161 21.1527 79.2687C19.8159 78.8835 16.2699 73.4871 14.6461 66.2555C14.3817 65.0886 14.1703 63.8764 14.0268 62.6264C13.7058 59.8471 14.1891 57.0488 15.3145 54.4847C15.7525 53.4877 16.1075 52.4455 16.3907 51.3994C17.8068 46.2183 17.5463 40.9692 17.5463 40.9692H52.9229C52.9229 40.9692 52.6736 46.0257 54.0029 51.1162C54.0293 51.2106 54.052 51.305 54.0784 51.3994C54.3654 52.4455 54.7166 53.4877 55.1547 54.4847C56.28 57.0488 56.7634 59.8471 56.4424 62.6264H56.4273Z" fill="#726789" stroke="#000263" stroke-width="0.755264" stroke-linecap="round" stroke-linejoin="round"/>
<path d="M47.711 60.5119C47.711 66.5653 39.9243 70.251 35.219 70.251C31.318 70.251 22.7269 66.5653 22.7269 60.5119C22.7269 54.4584 28.3196 49.553 35.219 49.553C42.1183 49.553 47.711 54.4584 47.711 60.5119Z" fill="white"/>
<path d="M56.4265 62.627C56.4038 62.8121 56.3811 62.9933 56.3585 63.1746C56.2188 64.232 56.0299 65.2629 55.8034 66.2599V66.2674C55.1463 67.3437 54.4099 68.4312 53.6056 69.5113C52.6086 70.8443 51.5663 72.0754 50.509 73.1856C50.4674 73.2272 50.4259 73.2725 50.3843 73.314C50.2597 73.4462 50.1313 73.5784 50.0029 73.7068C49.8519 73.8616 49.7008 74.0126 49.5498 74.1561C49.2061 74.4922 48.8663 74.8132 48.5188 75.1229C48.3338 75.289 48.1525 75.4476 47.9675 75.6062C47.9297 75.6402 47.8957 75.6704 47.858 75.7007C47.7107 75.8253 47.5634 75.9461 47.4162 76.067C47.2311 76.218 47.0499 76.3615 46.8686 76.5012C46.6873 76.6447 46.5061 76.7807 46.3248 76.9129C45.5695 77.468 44.8256 77.9438 44.1081 78.3365C43.8211 78.4951 43.5379 78.6386 43.2584 78.7708C43.0583 78.869 42.8581 78.9558 42.6618 79.0351C42.4012 79.1447 42.1444 79.2391 41.8914 79.3184C41.7894 79.3486 41.6875 79.3826 41.5855 79.409C41.2381 79.5072 40.902 79.5789 40.5772 79.6243C40.4526 79.6394 40.3318 79.6545 40.2109 79.662C40.1241 79.6696 40.0448 79.6733 39.9617 79.6733C39.9202 79.6771 39.8786 79.6771 39.8409 79.6771C39.6218 79.6771 39.4066 79.662 39.2027 79.628C38.9345 79.5903 38.6815 79.5223 38.4436 79.4241C38.3228 79.3788 38.2057 79.3259 38.0962 79.258C38.0433 79.2277 37.9867 79.1938 37.9338 79.1598C37.8772 79.1296 37.8281 79.0918 37.7752 79.054C37.7035 79.0012 37.6393 78.9445 37.5751 78.8841C37.4429 78.7708 37.322 78.6386 37.2163 78.4951C37.1634 78.4272 37.1106 78.3554 37.0615 78.2799C37.0237 78.2232 36.986 78.1628 36.9482 78.1024C36.9255 78.0571 36.8991 78.0118 36.8764 77.9627C36.665 77.5548 36.5215 77.0828 36.4422 76.5541C36.4044 76.3124 36.3817 76.0594 36.3666 75.7951C36.3591 75.6516 36.3553 75.5081 36.3591 75.357C36.3591 75.2135 36.3629 75.0625 36.3704 74.9114C36.378 74.7452 36.3931 74.5715 36.412 74.3978C36.4271 74.2241 36.4497 74.0428 36.4762 73.8616C36.5026 73.6879 36.529 73.5066 36.563 73.3253C36.5668 73.3102 36.5668 73.2914 36.5743 73.2763C36.6045 73.1025 36.6423 72.9213 36.6839 72.74C36.7254 72.5474 36.7707 72.3511 36.8236 72.1547C36.8613 72.0036 36.9029 71.8488 36.9482 71.694C37.0162 71.4447 37.0917 71.1955 37.1785 70.9387C37.2427 70.731 37.3145 70.5233 37.39 70.3118C37.5411 69.8889 37.7072 69.4584 37.8885 69.0203C38.0698 68.5823 38.2699 68.1405 38.4814 67.6911C38.5645 67.5136 38.6513 67.3323 38.7457 67.1511C38.7986 67.0416 38.8552 66.9283 38.9119 66.8187C39.1082 66.4336 39.3159 66.0408 39.5387 65.6481C39.8711 65.0476 40.226 64.451 40.6074 63.8506C41.1701 62.9593 41.7857 62.0606 42.4541 61.1694C43.1187 60.2782 43.806 59.4323 44.5084 58.6392C47.7523 54.9309 51.2416 52.3403 54.0663 51.4C54.3533 52.4461 54.7045 53.4883 55.1425 54.4853C56.2679 57.0494 56.7512 59.8477 56.4302 62.627H56.4265Z" fill="#726789" stroke="#000263" stroke-width="0.755264" stroke-linecap="round" stroke-linejoin="round"/>
<path d="M56.4265 62.627C56.4038 62.8121 56.3811 62.9933 56.3585 63.1746C56.2188 64.232 56.0299 65.2629 55.8034 66.2599V66.2674C55.1463 67.3437 54.4099 68.4312 53.6056 69.5113C52.6086 70.8443 51.5663 72.0754 50.509 73.1856C50.4674 73.2272 50.4259 73.2725 50.3843 73.314C50.2597 73.4462 50.1313 73.5784 50.0029 73.7068C49.8519 73.8616 49.7008 74.0126 49.5498 74.1561C49.2061 74.4922 48.8663 74.8132 48.5188 75.1229C48.3338 75.289 48.1525 75.4476 47.9675 75.6062C47.9297 75.6402 47.8957 75.6704 47.858 75.7007C47.7107 75.8253 47.5634 75.9461 47.4162 76.067C47.2311 76.218 47.0499 76.3615 46.8686 76.5012C46.6873 76.6447 46.5061 76.7807 46.3248 76.9129C45.5695 77.468 44.8256 77.9438 44.1081 78.3365C43.8211 78.4951 43.5379 78.6386 43.2584 78.7708C43.0583 78.869 42.8581 78.9558 42.6618 79.0351C42.4012 79.1447 42.1444 79.2391 41.8914 79.3184C41.7894 79.3486 41.6875 79.3826 41.5855 79.409C41.2381 79.5072 40.902 79.5789 40.5772 79.6243C40.4526 79.6394 40.3318 79.6545 40.2109 79.662C40.1241 79.6696 40.0448 79.6733 39.9617 79.6733C39.9202 79.6771 39.8786 79.6771 39.8409 79.6771C39.6218 79.6771 39.4066 79.662 39.2027 79.628C38.9345 79.5903 38.6815 79.5223 38.4436 79.4241C38.3228 79.3788 38.2057 79.3259 38.0962 79.258C38.0433 79.2277 37.9867 79.1938 37.9338 79.1598C37.8772 79.1296 37.8281 79.0918 37.7752 79.054C37.7035 79.0012 37.6393 78.9445 37.5751 78.8841C37.4429 78.7708 37.322 78.6386 37.2163 78.4951C37.1634 78.4272 37.1106 78.3554 37.0615 78.2799C37.0237 78.2232 36.986 78.1628 36.9482 78.1024C36.9255 78.0571 36.8991 78.0118 36.8764 77.9627C36.665 77.5548 36.5215 77.0828 36.4422 76.5541C36.4044 76.3124 36.3817 76.0594 36.3666 75.7951C36.3591 75.6516 36.3553 75.5081 36.3591 75.357C36.3591 75.2135 36.3629 75.0625 36.3704 74.9114C36.378 74.7452 36.3931 74.5715 36.412 74.3978C36.4271 74.2241 36.4497 74.0428 36.4762 73.8616C36.5026 73.6879 36.529 73.5066 36.563 73.3253C36.5668 73.3102 36.5668 73.2914 36.5743 73.2763C36.6045 73.1025 36.6423 72.9213 36.6839 72.74C36.7254 72.5474 36.7707 72.3511 36.8236 72.1547C36.8613 72.0036 36.9029 71.8488 36.9482 71.694C37.0162 71.4447 37.0917 71.1955 37.1785 70.9387C37.2427 70.731 37.3145 70.5233 37.39 70.3118C37.5411 69.8889 37.7072 69.4584 37.8885 69.0203C38.0698 68.5823 38.2699 68.1405 38.4814 67.6911C38.5645 67.5136 38.6513 67.3323 38.7457 67.1511C38.7986 67.0416 38.8552 66.9283 38.9119 66.8187C39.1082 66.4336 39.3159 66.0408 39.5387 65.6481C39.8711 65.0476 40.226 64.451 40.6074 63.8506C41.1701 62.9593 41.7857 62.0606 42.4541 61.1694C43.1187 60.2782 43.806 59.4323 44.5084 58.6392C47.7523 54.9309 51.2416 52.3403 54.0663 51.4C54.3533 52.4461 54.7045 53.4883 55.1425 54.4853C56.2679 57.0494 56.7512 59.8477 56.4302 62.627H56.4265Z" fill="#726789" stroke="#000263" stroke-width="0.755264" stroke-linecap="round" stroke-linejoin="round"/>
<path d="M37.5002 76.7505C37.3567 76.8562 37.2169 76.9469 37.0772 77.0224C36.9111 77.1168 36.7487 77.1923 36.5976 77.2452C36.4655 76.8109 36.3899 76.3238 36.3635 75.7951C36.4504 75.7196 36.5448 75.644 36.6429 75.5723C37.4435 74.9907 38.2819 74.783 38.5198 75.1116C38.7577 75.4363 38.3007 76.1727 37.5002 76.7505Z" fill="white"/>
<path d="M37.5002 76.7505C37.3567 76.8562 37.2169 76.9469 37.0772 77.0224C36.9111 77.1168 36.7487 77.1923 36.5976 77.2452C36.4655 76.8109 36.3899 76.3238 36.3635 75.7951C36.4504 75.7196 36.5448 75.644 36.6429 75.5723C37.4435 74.9907 38.2819 74.783 38.5198 75.1116C38.7577 75.4363 38.3007 76.1727 37.5002 76.7505Z" stroke="#000263" stroke-width="0.377632" stroke-miterlimit="10"/>
<path d="M40.8755 79.1255C40.7962 79.2803 40.7094 79.4276 40.6187 79.5598C40.6036 79.5824 40.5885 79.6013 40.5734 79.624C40.0825 79.692 39.6218 79.692 39.1988 79.6278C39.2215 79.4314 39.2744 79.2086 39.3574 78.9745C39.4141 78.8083 39.4896 78.6384 39.5765 78.4647C40.0296 77.581 40.6829 77.0183 41.0417 77.1996C41.4004 77.3846 41.3249 78.2456 40.8755 79.1255Z" fill="white"/>
<path d="M40.8755 79.1255C40.7962 79.2803 40.7094 79.4276 40.6187 79.5598C40.6036 79.5824 40.5885 79.6013 40.5734 79.624C40.0825 79.692 39.6218 79.692 39.1988 79.6278C39.2215 79.4314 39.2744 79.2086 39.3574 78.9745C39.4141 78.8083 39.4896 78.6384 39.5765 78.4647C40.0296 77.581 40.6829 77.0183 41.0417 77.1996C41.4004 77.3846 41.3249 78.2456 40.8755 79.1255Z" stroke="#000263" stroke-width="0.377632" stroke-miterlimit="10"/>
<path d="M50.5095 73.1852C46.9937 76.886 43.3156 79.2538 40.574 79.6239C40.5891 79.6012 40.6042 79.5823 40.6193 79.5597C40.7099 79.4275 40.7968 79.2802 40.8761 79.1254C41.3255 78.2455 41.401 77.3845 41.0423 77.1995C40.6835 77.0182 40.0302 77.5809 39.577 78.4645C39.4902 78.6382 39.4147 78.8082 39.358 78.9743C39.2749 79.2085 39.2221 79.4313 39.1994 79.6276C38.6632 79.5446 38.1836 79.3557 37.7757 79.0499C37.2131 78.6269 36.8203 78.0152 36.5975 77.2448C36.7486 77.1919 36.911 77.1164 37.0771 77.022C37.2168 76.9465 37.3566 76.8558 37.5001 76.7501C38.3007 76.1723 38.7576 75.4359 38.5197 75.1112C38.2818 74.7826 37.4434 74.9903 36.6428 75.5719C36.5447 75.6436 36.4503 75.7191 36.3634 75.7947C36.2426 73.1815 37.3717 69.5147 39.5355 65.6439C39.5997 65.98 39.6488 66.3879 39.6715 66.8788C39.6715 66.8788 39.2334 74.3332 48.2588 73.1664C49.2218 73.0417 49.9582 73.0568 50.5095 73.1852Z" fill="#726789" stroke="#000263" stroke-width="0.755264" stroke-linecap="round" stroke-linejoin="round"/>
<path d="M52.4011 57.1318C53.0164 57.1318 53.5151 56.6331 53.5151 56.0178C53.5151 55.4026 53.0164 54.9038 52.4011 54.9038C51.7859 54.9038 51.2871 55.4026 51.2871 56.0178C51.2871 56.6331 51.7859 57.1318 52.4011 57.1318Z" fill="white"/>
<path d="M52.4009 64.0426C53.4604 64.0426 54.3193 63.1837 54.3193 62.1242C54.3193 61.0647 53.4604 60.2058 52.4009 60.2058C51.3414 60.2058 50.4825 61.0647 50.4825 62.1242C50.4825 63.1837 51.3414 64.0426 52.4009 64.0426Z" fill="white"/>
<path d="M46.4458 61.6672C46.4458 63.5062 44.9541 64.9941 43.1151 64.9941C42.1144 64.9941 41.2156 64.5523 40.6038 63.8499C41.1665 62.9587 41.782 62.0599 42.4504 61.1687C43.1151 60.2775 43.8024 59.4316 44.5048 58.6385C45.649 59.1635 46.4458 60.3228 46.4458 61.6672Z" fill="white"/>
<path d="M40.6038 63.8501C41.1665 62.9589 41.782 62.0602 42.4504 61.1689L40.6038 63.8501Z" fill="#726789"/>
<path d="M40.6038 63.8501C41.1665 62.9589 41.782 62.0602 42.4504 61.1689" stroke="#000263" stroke-width="0.755264" stroke-linecap="round" stroke-linejoin="round"/>
<path d="M42.4507 61.1687C43.1153 60.2775 43.8026 59.4316 44.505 58.6385L42.4507 61.1687Z" fill="#726789"/>
<path d="M42.4507 61.1687C43.1153 60.2775 43.8026 59.4316 44.505 58.6385" stroke="#000263" stroke-width="0.755264" stroke-linecap="round" stroke-linejoin="round"/>
<path d="M34.0783 75.1377C34.0859 75.3379 34.0821 75.538 34.0783 75.7306V75.7948C34.0632 76.0592 34.0406 76.3122 34.0028 76.5539C33.9839 76.6747 33.9612 76.7955 33.9348 76.9088C33.8895 77.1279 33.8291 77.3356 33.7573 77.5282C33.7233 77.615 33.6894 77.7019 33.6516 77.7849C33.6516 77.7925 33.644 77.8038 33.6365 77.8114C33.6176 77.8642 33.5949 77.9133 33.5685 77.9624C33.5534 77.9889 33.5421 78.0153 33.527 78.0417C33.5156 78.0606 33.5043 78.0833 33.4968 78.1022H33.493C33.4703 78.1437 33.4477 78.1815 33.4212 78.2192C33.4099 78.2419 33.3986 78.2608 33.3835 78.2796C33.3344 78.3552 33.2815 78.4269 33.2286 78.4949C33.1758 78.5666 33.1191 78.6346 33.0587 78.6988C32.9983 78.763 32.9341 78.8234 32.8699 78.8839C32.8057 78.9443 32.7415 79.0009 32.6697 79.0538C32.6169 79.0915 32.5678 79.1293 32.5111 79.1595C32.4583 79.1935 32.4016 79.2275 32.3488 79.2577C32.2543 79.3106 32.1562 79.3559 32.058 79.4012C31.9825 79.4314 31.9032 79.4616 31.8238 79.4881C31.6501 79.5485 31.4651 79.5938 31.2763 79.624C31.265 79.624 31.2574 79.6278 31.2461 79.6278C31.2347 79.6278 31.2272 79.6316 31.2159 79.6316C31.0195 79.6618 30.8156 79.6769 30.6041 79.6769C30.5663 79.6769 30.5248 79.6769 30.4833 79.6731C30.404 79.6731 30.3209 79.6693 30.2378 79.6618C30.1207 79.6542 29.9999 79.6391 29.8753 79.624C29.5505 79.5787 29.2144 79.5069 28.8632 79.4088C28.7613 79.3823 28.6593 79.3483 28.5573 79.3181C28.3081 79.2388 28.0475 79.1444 27.787 79.0349C27.5906 78.9518 27.3904 78.865 27.1903 78.7706C27.0506 78.7026 26.9109 78.6346 26.7674 78.5629C26.5634 78.4571 26.3557 78.3476 26.148 78.2268C26.0423 78.1701 25.9403 78.1097 25.8346 78.0455C25.5212 77.8642 25.204 77.6603 24.8792 77.4413C24.4525 77.1543 24.0182 76.8409 23.5801 76.501C23.4178 76.3764 23.2554 76.248 23.0892 76.112C22.0885 75.3001 21.0727 74.3598 20.0644 73.3138C20.0228 73.2722 19.9813 73.2269 19.9398 73.1854C18.8824 72.0751 17.8401 70.8441 16.8432 69.511C16.035 68.4272 15.2987 67.3359 14.6416 66.2558C14.3772 65.0889 14.1658 63.8767 14.0223 62.6268C13.7013 59.8474 14.1846 57.0492 15.31 54.485C15.748 53.4881 16.103 52.4458 16.3862 51.3998C19.2109 52.3401 22.7003 54.9306 25.9441 58.639C26.6465 59.432 27.3338 60.2779 27.9984 61.1691C28.6668 62.0603 29.2824 62.9591 29.8451 63.8503C30.2265 64.4507 30.5814 65.0512 30.9138 65.6478V65.6516C30.9591 65.7385 31.0082 65.8216 31.0535 65.9084C31.0912 65.9802 31.1328 66.0519 31.1705 66.1199C31.2876 66.3276 31.3971 66.5353 31.4991 66.743L31.703 67.1508C31.7483 67.2415 31.7936 67.3321 31.839 67.4227C32.4205 68.6123 32.8888 69.7678 33.2475 70.8629C33.3079 71.0442 33.3646 71.2255 33.4175 71.403C33.4703 71.5804 33.5232 71.7579 33.5685 71.9316C33.6176 72.1054 33.6629 72.2791 33.7007 72.449C33.7422 72.6227 33.78 72.7889 33.814 72.9588C33.848 73.1099 33.8744 73.2647 33.9008 73.412C33.9386 73.6045 33.965 73.7896 33.9877 73.9746C34.0066 74.1181 34.0217 74.2579 34.0368 74.3976L34.0594 74.6581C34.067 74.745 34.0745 74.8281 34.0783 74.9112C34.0821 74.9867 34.0859 75.0622 34.0859 75.1377H34.0783Z" fill="#726789" stroke="#000263" stroke-width="0.755264" stroke-linecap="round" stroke-linejoin="round"/>
<path d="M34.0783 75.1377C34.0859 75.3379 34.0821 75.538 34.0783 75.7306V75.7948C34.0632 76.0592 34.0406 76.3122 34.0028 76.5539C33.9839 76.6747 33.9612 76.7955 33.9348 76.9088C33.8895 77.1279 33.8291 77.3356 33.7573 77.5282C33.7233 77.615 33.6894 77.7019 33.6516 77.7849C33.6516 77.7925 33.644 77.8038 33.6365 77.8114C33.6176 77.8642 33.5949 77.9133 33.5685 77.9624C33.5534 77.9889 33.5421 78.0153 33.527 78.0417C33.5156 78.0606 33.5043 78.0833 33.4968 78.1022H33.493C33.4703 78.1437 33.4477 78.1815 33.4212 78.2192C33.4099 78.2419 33.3986 78.2608 33.3835 78.2796C33.3344 78.3552 33.2815 78.4269 33.2286 78.4949C33.1758 78.5666 33.1191 78.6346 33.0587 78.6988C32.9983 78.763 32.9341 78.8234 32.8699 78.8839C32.8057 78.9443 32.7415 79.0009 32.6697 79.0538C32.6169 79.0915 32.5678 79.1293 32.5111 79.1595C32.4583 79.1935 32.4016 79.2275 32.3488 79.2577C32.2543 79.3106 32.1562 79.3559 32.058 79.4012C31.9825 79.4314 31.9032 79.4616 31.8238 79.4881C31.6501 79.5485 31.4651 79.5938 31.2763 79.624C31.265 79.624 31.2574 79.6278 31.2461 79.6278C31.2347 79.6278 31.2272 79.6316 31.2159 79.6316C31.0195 79.6618 30.8156 79.6769 30.6041 79.6769C30.5663 79.6769 30.5248 79.6769 30.4833 79.6731C30.404 79.6731 30.3209 79.6693 30.2378 79.6618C30.1207 79.6542 29.9999 79.6391 29.8753 79.624C29.5505 79.5787 29.2144 79.5069 28.8632 79.4088C28.7613 79.3823 28.6593 79.3483 28.5573 79.3181C28.3081 79.2388 28.0475 79.1444 27.787 79.0349C27.5906 78.9518 27.3904 78.865 27.1903 78.7706C27.0506 78.7026 26.9109 78.6346 26.7674 78.5629C26.5634 78.4571 26.3557 78.3476 26.148 78.2268C26.0423 78.1701 25.9403 78.1097 25.8346 78.0455C25.5212 77.8642 25.204 77.6603 24.8792 77.4413C24.4525 77.1543 24.0182 76.8409 23.5801 76.501C23.4178 76.3764 23.2554 76.248 23.0892 76.112C22.0885 75.3001 21.0727 74.3598 20.0644 73.3138C20.0228 73.2722 19.9813 73.2269 19.9398 73.1854C18.8824 72.0751 17.8401 70.8441 16.8432 69.511C16.035 68.4272 15.2987 67.3359 14.6416 66.2558C14.3772 65.0889 14.1658 63.8767 14.0223 62.6268C13.7013 59.8474 14.1846 57.0492 15.31 54.485C15.748 53.4881 16.103 52.4458 16.3862 51.3998C19.2109 52.3401 22.7003 54.9306 25.9441 58.639C26.6465 59.432 27.3338 60.2779 27.9984 61.1691C28.6668 62.0603 29.2824 62.9591 29.8451 63.8503C30.2265 64.4507 30.5814 65.0512 30.9138 65.6478V65.6516C30.9591 65.7385 31.0082 65.8216 31.0535 65.9084C31.0912 65.9802 31.1328 66.0519 31.1705 66.1199C31.2876 66.3276 31.3971 66.5353 31.4991 66.743L31.703 67.1508C31.7483 67.2415 31.7936 67.3321 31.839 67.4227C32.4205 68.6123 32.8888 69.7678 33.2475 70.8629C33.3079 71.0442 33.3646 71.2255 33.4175 71.403C33.4703 71.5804 33.5232 71.7579 33.5685 71.9316C33.6176 72.1054 33.6629 72.2791 33.7007 72.449C33.7422 72.6227 33.78 72.7889 33.814 72.9588C33.848 73.1099 33.8744 73.2647 33.9008 73.412C33.9386 73.6045 33.965 73.7896 33.9877 73.9746C34.0066 74.1181 34.0217 74.2579 34.0368 74.3976L34.0594 74.6581C34.067 74.745 34.0745 74.8281 34.0783 74.9112C34.0821 74.9867 34.0859 75.0622 34.0859 75.1377H34.0783Z" fill="#726789" stroke="#000263" stroke-width="0.755264" stroke-linecap="round" stroke-linejoin="round"/>
<path d="M32.9418 76.7505C33.0853 76.8562 33.2251 76.9469 33.3648 77.0224C33.5309 77.1168 33.6933 77.1923 33.8444 77.2452C33.9766 76.8109 34.0521 76.3238 34.0785 75.7951C33.9917 75.7196 33.8973 75.644 33.7991 75.5723C32.9985 74.9907 32.1601 74.783 31.9222 75.1116C31.6843 75.4363 32.1413 76.1727 32.9418 76.7505Z" fill="white"/>
<path d="M32.9418 76.7505C33.0853 76.8562 33.2251 76.9469 33.3648 77.0224C33.5309 77.1168 33.6933 77.1923 33.8444 77.2452C33.9766 76.8109 34.0521 76.3238 34.0785 75.7951C33.9917 75.7196 33.8973 75.644 33.7991 75.5723C32.9985 74.9907 32.1601 74.783 31.9222 75.1116C31.6843 75.4363 32.1413 76.1727 32.9418 76.7505Z" stroke="#000263" stroke-width="0.377632" stroke-miterlimit="10"/>
<path d="M29.5656 79.1255C29.6449 79.2803 29.7318 79.4276 29.8224 79.5598C29.8375 79.5824 29.8526 79.6013 29.8677 79.624C30.3586 79.692 30.8193 79.692 31.2423 79.6278C31.2196 79.4314 31.1668 79.2086 31.0837 78.9745C31.027 78.8083 30.9515 78.6384 30.8647 78.4647C30.4115 77.581 29.7582 77.0183 29.3995 77.1996C29.0407 77.3846 29.1162 78.2456 29.5656 79.1255Z" fill="white"/>
<path d="M29.5656 79.1255C29.6449 79.2803 29.7318 79.4276 29.8224 79.5598C29.8375 79.5824 29.8526 79.6013 29.8677 79.624C30.3586 79.692 30.8193 79.692 31.2423 79.6278C31.2196 79.4314 31.1668 79.2086 31.0837 78.9745C31.027 78.8083 30.9515 78.6384 30.8647 78.4647C30.4115 77.581 29.7582 77.0183 29.3995 77.1996C29.0407 77.3846 29.1162 78.2456 29.5656 79.1255Z" stroke="#000263" stroke-width="0.377632" stroke-miterlimit="10"/>
<path d="M19.9318 73.1852C23.4475 76.886 27.1257 79.2538 29.8673 79.6239C29.8522 79.6012 29.8371 79.5823 29.822 79.5597C29.7313 79.4275 29.6445 79.2802 29.5652 79.1254C29.1158 78.2455 29.0403 77.3845 29.399 77.1995C29.7578 77.0182 30.4111 77.5809 30.8642 78.4645C30.9511 78.6382 31.0266 78.8082 31.0833 78.9743C31.1663 79.2085 31.2192 79.4313 31.2419 79.6276C31.7781 79.5446 32.2577 79.3557 32.6656 79.0499C33.2282 78.6269 33.621 78.0152 33.8438 77.2448C33.6927 77.1919 33.5303 77.1164 33.3642 77.022C33.2244 76.9465 33.0847 76.8558 32.9412 76.7501C32.1406 76.1723 31.6837 75.4359 31.9216 75.1112C32.1595 74.7826 32.9979 74.9903 33.7984 75.5719C33.8966 75.6436 33.991 75.7191 34.0779 75.7947C34.1987 73.1815 33.0696 69.5147 30.9058 65.6439C30.8416 65.98 30.7925 66.3879 30.7698 66.8788C30.7698 66.8788 31.2079 74.3332 22.1825 73.1664C21.2195 73.0417 20.4831 73.0568 19.9318 73.1852Z" fill="#726789" stroke="#000263" stroke-width="0.755264" stroke-linecap="round" stroke-linejoin="round"/>
<path d="M18.0363 57.1318C18.6515 57.1318 19.1503 56.6331 19.1503 56.0178C19.1503 55.4026 18.6515 54.9038 18.0363 54.9038C17.421 54.9038 16.9222 55.4026 16.9222 56.0178C16.9222 56.6331 17.421 57.1318 18.0363 57.1318Z" fill="white"/>
<path d="M19.9323 64.4276C20.9918 64.4276 21.8507 63.5687 21.8507 62.5092C21.8507 61.4497 20.9918 60.5908 19.9323 60.5908C18.8728 60.5908 18.0139 61.4497 18.0139 62.5092C18.0139 63.5687 18.8728 64.4276 19.9323 64.4276Z" fill="white"/>
<path d="M23.9919 61.6672C23.9919 63.5062 25.4835 64.9941 27.3226 64.9941C28.3233 64.9941 29.2221 64.5523 29.8338 63.8499C29.2712 62.9587 28.6556 62.0599 27.9872 61.1687C27.3226 60.2775 26.6353 59.4316 25.9329 58.6385C24.7887 59.1635 23.9919 60.3228 23.9919 61.6672Z" fill="white"/>
<path d="M29.8335 63.8501C29.2708 62.9589 28.6553 62.0602 27.9868 61.1689L29.8335 63.8501Z" fill="#726789"/>
<path d="M29.8335 63.8501C29.2708 62.9589 28.6553 62.0602 27.9868 61.1689" stroke="#000263" stroke-width="0.755264" stroke-linecap="round" stroke-linejoin="round"/>
<path d="M27.9872 61.1687C27.3226 60.2775 26.6353 59.4316 25.9329 58.6385L27.9872 61.1687Z" fill="#726789"/>
<path d="M27.9872 61.1687C27.3226 60.2775 26.6353 59.4316 25.9329 58.6385" stroke="#000263" stroke-width="0.755264" stroke-linecap="round" stroke-linejoin="round"/>
<path d="M26.2767 13.3071L15.3594 16.6793L13.3202 2.13672L23.5767 7.26874L26.2767 13.3071Z" fill="#FEFEFE"/>
<path d="M44.1572 13.228L55.101 16.5021L57.0118 1.94434L46.8007 7.16699L44.1572 13.228Z" fill="#FEFEFE"/>
<path d="M55.2753 17.2278C56.1816 14.3918 58.927 5.20022 57.8356 0.906546C57.7525 0.585559 57.5146 0.366532 57.2503 0.377861C53.0812 0.581783 46.5255 6.46529 44.9508 7.93051C41.926 6.23871 38.6028 5.18134 35.1173 5.19645C31.6317 5.21155 28.3161 6.29913 25.3064 8.01736C23.7241 6.56725 17.1155 0.744164 12.9427 0.57423C12.6746 0.562901 12.4405 0.785704 12.3612 1.10669C11.3076 5.4117 14.1322 14.5768 15.065 17.4053C11.8891 21.7028 10.0123 26.0946 10.0236 28.655C10.0538 35.6714 21.4054 51.9473 35.3212 51.8907C49.2369 51.8265 60.4413 35.4486 60.4111 28.4322C60.3997 25.8718 58.4851 21.4951 55.2715 17.2278H55.2753ZM16.2054 15.9363C15.2463 12.5489 14.1209 7.62085 14.744 4.87546C14.8195 4.54314 15.0612 4.31279 15.3331 4.32789C17.8935 4.47139 21.4772 7.02041 23.8261 8.93123C20.9145 10.8534 18.3277 13.3382 16.2054 15.9363ZM54.1235 15.7664C51.9785 13.1834 49.3729 10.725 46.4425 8.82927C48.7762 6.89957 52.3373 4.31657 54.8939 4.15041C55.1658 4.13153 55.4074 4.36188 55.4867 4.69042C56.1325 7.43203 55.0525 12.3715 54.1235 15.7664Z" fill="#726789" stroke="#000263" stroke-width="0.755264" stroke-linecap="round" stroke-linejoin="round"/>
<path d="M26.875 27.6006C28.762 26.7832 29.3892 24.037 28.2759 21.4668C27.1626 18.8966 24.7304 17.4756 22.8434 18.293C20.9564 19.1104 20.3292 21.8565 21.4425 24.4267C22.5558 26.9969 24.988 28.4179 26.875 27.6006Z" fill="#000263"/>
<path d="M48.9594 24.2997C50.0497 21.7197 49.3981 18.9792 47.5039 18.1787C45.6097 17.3781 43.1903 18.8207 42.0999 21.4007C41.0095 23.9807 41.6611 26.7212 43.5553 27.5217C45.4495 28.3223 47.869 26.8797 48.9594 24.2997Z" fill="#000263"/>
<path d="M35.3438 47.5967C32.0207 47.6118 28.9618 46.7735 26.5941 45.3762C21.7453 42.5062 21.5112 35.5389 26.224 32.4461C27.7232 31.4605 29.8908 30.422 33.1951 29.2136C33.7653 28.9568 34.5999 28.8435 35.2192 28.8359C35.8385 28.8359 36.6769 28.9417 37.2471 29.1947C40.5627 30.3767 42.7379 31.3963 44.2484 32.3668C48.9877 35.4181 48.8177 42.3854 43.9916 45.3007C41.639 46.7206 38.5877 47.5854 35.2645 47.6005" fill="white"/>
<path d="M38.2363 32.3783C38.2439 33.8208 36.9071 35.4975 35.253 35.505C33.599 35.5126 32.2471 33.8472 32.2395 32.4047C32.232 30.9621 33.5764 30.7846 35.2304 30.7771C36.8844 30.7695 38.2288 30.9357 38.2363 32.3783Z" fill="#000263"/>
<path d="M35.249 35.5085L35.2641 38.303" stroke="#000263" stroke-width="0.755264" stroke-linecap="round" stroke-linejoin="round"/>
<path d="M40.4421 36.0483C40.4496 37.4116 38.1385 38.5256 35.2874 38.5369C32.4325 38.5483 30.1176 37.4569 30.11 36.0937" stroke="#000263" stroke-width="0.755264" stroke-linecap="round" stroke-linejoin="round"/>
<path d="M26.3261 26.3736C27.2897 26.3736 28.0708 25.5925 28.0708 24.6289C28.0708 23.6654 27.2897 22.8843 26.3261 22.8843C25.3626 22.8843 24.5815 23.6654 24.5815 24.6289C24.5815 25.5925 25.3626 26.3736 26.3261 26.3736Z" fill="white"/>
<path d="M44.0782 26.2943C45.0418 26.2943 45.8229 25.5131 45.8229 24.5496C45.8229 23.586 45.0418 22.8049 44.0782 22.8049C43.1147 22.8049 42.3336 23.586 42.3336 24.5496C42.3336 25.5131 43.1147 26.2943 44.0782 26.2943Z" fill="white"/>
<path d="M54.0779 30.6296C54.0779 30.6296 61.6343 24.8405 70.1574 24.4326" stroke="#000263" stroke-width="0.755264" stroke-linecap="round" stroke-linejoin="round"/>
<path d="M54.6147 32.2194C54.6147 32.2194 60.7134 28.6395 66.0607 28.8623" stroke="#000263" stroke-width="0.755264" stroke-linecap="round" stroke-linejoin="round"/>
<path d="M54.6222 33.6276C54.6222 33.6276 64.1385 32.6042 68.266 35.1608" stroke="#000263" stroke-width="0.755264" stroke-linecap="round" stroke-linejoin="round"/>
<path d="M16.5076 30.7956C16.5076 30.7956 8.89828 25.0745 0.375122 24.7422" stroke="#000263" stroke-width="0.755264" stroke-linecap="round" stroke-linejoin="round"/>
<path d="M15.9862 32.3899C15.9862 32.3899 9.85722 28.8666 4.50995 29.1347" stroke="#000263" stroke-width="0.755264" stroke-linecap="round" stroke-linejoin="round"/>
<path d="M15.9935 33.7982C15.9935 33.7982 6.46583 32.8617 2.36475 35.4522" stroke="#000263" stroke-width="0.755264" stroke-linecap="round" stroke-linejoin="round"/>
<path d="M22.8176 72.7128C22.8176 76.9159 19.4 80.3221 15.1819 80.3221C11.6775 80.3221 8.72438 77.9733 7.82939 74.7672C7.64057 74.1139 7.54239 73.4266 7.54239 72.7128C7.54239 72.2899 7.57638 71.8745 7.64435 71.4704C7.66323 71.3496 7.71232 71.2325 7.79163 71.1343C8.31653 70.4848 9.12089 70.0694 10.0234 70.0694C10.1027 70.0694 10.182 70.0732 10.2613 70.0807C10.1065 69.7333 10.0234 69.3481 10.0234 68.9479C10.0234 67.3694 11.3074 66.0892 12.8934 66.0892C13.6109 66.0892 14.268 66.3535 14.7703 66.7916C15.0762 66.1081 15.6464 65.5643 16.3525 65.2924C16.4809 65.2433 16.6244 65.2357 16.7604 65.2659C17.9801 65.519 19.0942 66.0665 20.0231 66.8293C21.73 68.2228 22.8176 70.3413 22.8176 72.7128Z" fill="#726789" stroke="#000263" stroke-width="0.755264" stroke-linecap="round" stroke-linejoin="round"/>
<path d="M11.7 75.307C12.3132 75.307 12.8103 74.8117 12.8103 74.2006C12.8103 73.5895 12.3132 73.0941 11.7 73.0941C11.0869 73.0941 10.5898 73.5895 10.5898 74.2006C10.5898 74.8117 11.0869 75.307 11.7 75.307Z" fill="#FFC8C8"/>
<path d="M13.5876 71.3914C14.2196 71.3914 14.7318 70.8808 14.7318 70.2509C14.7318 69.6211 14.2196 69.1105 13.5876 69.1105C12.9557 69.1105 12.4434 69.6211 12.4434 70.2509C12.4434 70.8808 12.9557 71.3914 13.5876 71.3914Z" fill="#FFC8C8"/>
<path d="M18.7841 74.4835C18.1119 74.846 17.164 75.7032 16.7599 76.5C16.2539 77.497 14.7358 75.5975 14.7358 74.4835C14.7358 73.3695 15.6422 72.4669 16.7599 72.4669C17.8777 72.4669 19.7659 73.9548 18.7841 74.4835Z" fill="#FFC8C8"/>
<path d="M18.0062 70.2167C18.6194 70.2167 19.1165 69.7213 19.1165 69.1102C19.1165 68.4992 18.6194 68.0038 18.0062 68.0038C17.3931 68.0038 16.896 68.4992 16.896 69.1102C16.896 69.7213 17.3931 70.2167 18.0062 70.2167Z" fill="#FFC8C8"/>
<path d="M47.6204 72.7128C47.6204 76.9159 51.038 80.3221 55.2561 80.3221C58.7605 80.3221 61.7136 77.9733 62.6086 74.7672C62.7974 74.1139 62.8956 73.4266 62.8956 72.7128C62.8956 72.2899 62.8616 71.8745 62.7936 71.4704C62.7748 71.3496 62.7257 71.2287 62.6464 71.1343C62.1215 70.4848 61.3171 70.0694 60.4146 70.0694C60.3353 70.0694 60.256 70.0732 60.1767 70.0807C60.3315 69.7333 60.4146 69.3481 60.4146 68.9479C60.4146 67.3694 59.1306 66.0892 57.5446 66.0892C56.8271 66.0892 56.17 66.3535 55.6677 66.7916C55.3619 66.1081 54.7916 65.5643 54.0855 65.2924C53.9571 65.2433 53.8136 65.2357 53.6776 65.2659C52.4579 65.519 51.3438 66.0665 50.4149 66.8293C48.708 68.2228 47.6204 70.3413 47.6204 72.7128Z" fill="#726789" stroke="#000263" stroke-width="0.755264" stroke-linecap="round" stroke-linejoin="round"/>
<path d="M58.742 75.307C59.3551 75.307 59.8522 74.8117 59.8522 74.2006C59.8522 73.5895 59.3551 73.0941 58.742 73.0941C58.1288 73.0941 57.6317 73.5895 57.6317 74.2006C57.6317 74.8117 58.1288 75.307 58.742 75.307Z" fill="#FFC8C8"/>
<path d="M56.8499 71.3914C57.4818 71.3914 57.9941 70.8808 57.9941 70.2509C57.9941 69.6211 57.4818 69.1105 56.8499 69.1105C56.2179 69.1105 55.7057 69.6211 55.7057 70.2509C55.7057 70.8808 56.2179 71.3914 56.8499 71.3914Z" fill="#FFC8C8"/>
<path d="M51.6578 74.4835C52.33 74.846 53.2779 75.7032 53.6819 76.5C54.188 77.497 55.706 75.5975 55.706 74.4835C55.706 73.3695 54.7997 72.4669 53.6819 72.4669C52.5641 72.4669 50.676 73.9548 51.6578 74.4835Z" fill="#FFC8C8"/>
<path d="M52.4358 70.2167C53.049 70.2167 53.546 69.7213 53.546 69.1102C53.546 68.4992 53.049 68.0038 52.4358 68.0038C51.8226 68.0038 51.3256 68.4992 51.3256 69.1102C51.3256 69.7213 51.8226 70.2167 52.4358 70.2167Z" fill="#FFC8C8"/>
</g>
<defs>
<clipPath id="clip0_134_33334">
<rect width="70.6248" height="80.7" fill="white" transform="translate(-0.00244141)"/>
</clipPath>
</defs>
</svg>
