<svg width="20" height="20" viewBox="0 0 20 20" fill="none" xmlns="http://www.w3.org/2000/svg">
<path d="M20 10C20 15.5228 15.5228 20 10 20C4.47715 20 0 15.5228 0 10C0 4.47715 4.47715 0 10 0C15.5228 0 20 4.47715 20 10ZM2.6 10C2.6 14.0869 5.91309 17.4 10 17.4C14.0869 17.4 17.4 14.0869 17.4 10C17.4 5.91309 14.0869 2.6 10 2.6C5.91309 2.6 2.6 5.91309 2.6 10Z" fill="#231F1F"/>
<path d="M10 0C12.3924 2.8529e-08 14.7055 0.857694 16.5196 2.41742C18.3336 3.97715 19.5284 6.13555 19.887 8.50091C20.2456 10.8663 19.7444 13.2818 18.4742 15.3092C17.2041 17.3365 15.2492 18.8414 12.9643 19.5505L12.1936 17.0674C13.8844 16.5426 15.331 15.429 16.2709 13.9288C17.2109 12.4285 17.5818 10.641 17.3164 8.89067C17.051 7.14031 16.1669 5.54309 14.8245 4.38889C13.4821 3.23469 11.7704 2.6 10 2.6V0Z" fill="#008348"/>
</svg>
