<svg width="224" height="200" viewBox="0 0 224 200" fill="none" xmlns="http://www.w3.org/2000/svg">
<path d="M150.414 144.625C177.752 146.356 191.704 140.069 204.773 137.667C207.563 137.137 212.225 136.395 217.736 135.477C222.469 123.009 224.341 110.4 223.74 99.3445C223.387 92.9516 222.539 86.6293 221.374 80.4836C200.675 82.1436 200.252 91.5035 181.637 100.016C161.08 109.375 139.499 101.111 140.912 87.1944C142.325 73.2783 141.23 68.0509 123.817 30.2583C118.059 17.755 116.929 8.18324 117.918 0.907295C95.4186 -0.470191 76.769 0.130252 76.769 0.130252C76.769 0.130252 41.5892 4.36867 19.902 30.2583C20.9264 30.4349 38.5163 33.8257 50.4901 54.0994C62.8525 75.009 32.9002 88.4659 50.4901 100.016C68.0447 111.565 69.8108 146.391 69.8108 162.038C69.8108 171.468 66.6319 183.195 59.1791 191.106C68.6452 194.497 79.5241 197.075 91.9571 198.594C96.8314 199.195 101.494 199.548 106.05 199.76C106.403 192.625 107.498 183.724 110.289 174.188C116.858 151.548 123.075 142.859 150.449 144.59L150.414 144.625Z" fill="#76CBEB"/>
<path d="M50.5005 100.014C32.9106 88.4648 62.8629 74.9725 50.5005 54.0983C38.4914 33.7892 20.9015 30.4338 19.9125 30.2572C13.484 37.9217 8.18585 47.3875 5.39548 59.3257C-5.23617 104.924 -6.01323 167.794 59.1895 191.105C66.6423 183.193 69.8212 171.467 69.8212 162.037C69.8212 146.355 68.0905 111.529 50.5005 100.014Z" fill="#2DB473"/>
<path d="M123.789 30.2234C141.203 68.016 142.333 73.2434 140.885 87.1595C139.472 101.076 161.053 109.341 181.61 99.9807C200.26 91.5039 200.683 82.1441 221.346 80.4487C214.459 44.7047 194.008 14.4707 164.091 7.0181C149.962 3.52141 133.044 1.72008 117.891 0.801758C116.902 8.07771 118.032 17.6495 123.789 30.1528V30.2234Z" fill="#2DB473"/>
<path d="M217.717 135.475C212.207 136.358 207.545 137.135 204.754 137.665C191.685 140.067 177.769 146.354 150.395 144.623C123.057 142.892 116.805 151.581 110.235 174.221C107.48 183.758 106.385 192.659 105.996 199.793C170.034 202.937 204.684 169.736 217.682 135.475H217.717Z" fill="#2DB473"/>
</svg>
