<svg width="200" height="200" viewBox="0 0 200 200" fill="none" xmlns="http://www.w3.org/2000/svg">
<path d="M77.8629 42.5405C54.8352 84.7462 22.0596 184.274 89.9772 198.966C133.807 208.432 169.161 151.074 139.847 101.205C118.585 65.0738 103.292 22.0205 103.681 4.43183C104.069 -13.1568 86.8338 26.188 77.8982 42.5405H77.8629Z" fill="#76CBEB"/>
<path d="M62.0036 128.435C62.0036 128.435 61.933 128.435 61.8977 128.435C60.6968 128.365 59.7432 127.34 59.8139 126.104C61.0147 103.748 74.2238 70.8308 79.2038 58.434C79.6982 57.1625 80.122 56.1383 80.4399 55.326C80.899 54.1958 81.9586 53.666 82.9828 54.1605C83.5126 54.4077 83.4066 55.997 82.8769 57.551C82.4884 58.7519 82.2058 59.8114 81.676 61.0829C76.7668 73.3031 65.3589 104.701 64.1934 126.352C64.1227 127.517 63.1691 128.435 62.0036 128.435Z" fill="#177BA0"/>
<path d="M58.4412 137.265C58.1587 139.561 63.7037 140.938 64.3394 137.265C64.8692 134.192 59.0416 132.25 58.4412 137.265Z" fill="#177BA0"/>
</svg>
