<svg width="24" height="24" viewBox="0 0 24 24" fill="none" xmlns="http://www.w3.org/2000/svg">
<path d="M13.752 3.396L13.368 14.988H10.536L10.128 3.396H13.752ZM12.024 20.604C11.416 20.604 10.912 20.42 10.512 20.052C10.128 19.668 9.93604 19.196 9.93604 18.636C9.93604 18.076 10.128 17.612 10.512 17.244C10.912 16.86 11.416 16.668 12.024 16.668C12.616 16.668 13.104 16.86 13.488 17.244C13.872 17.612 14.064 18.076 14.064 18.636C14.064 19.196 13.872 19.668 13.488 20.052C13.104 20.42 12.616 20.604 12.024 20.604Z" fill="#FEFEFE"/>
</svg>
