<svg width="15" height="15" viewBox="0 0 15 15" fill="none" xmlns="http://www.w3.org/2000/svg">
<path fill-rule="evenodd" clip-rule="evenodd" d="M2.06838 7.0759C2.2965 6.86283 2.55832 6.67747 2.76335 6.53231C2.78996 6.51341 2.81567 6.49521 2.84021 6.47785C3.07376 6.31128 3.28237 6.15613 3.49048 5.95673C4.33734 5.14563 5.85903 3.44824 6.37378 1.78678C6.53034 1.28145 7.06462 0.960212 7.62666 1.03344C8.18857 1.10657 8.60659 1.55195 8.60659 2.07761C8.60659 3.06123 8.147 4.09909 7.49491 5.09641C7.3421 5.33005 7.51985 5.63525 7.81617 5.63525L12.3592 5.63525C12.9879 5.63525 13.4976 6.1074 13.4976 6.68976C13.4976 6.73375 13.4946 6.77703 13.4891 6.8196C13.4362 7.21742 13.1443 7.54666 12.7504 7.68016C12.6888 7.70109 12.6248 7.71714 12.5587 7.72796L12.7504 7.72796C13.1953 7.72796 13.5808 7.96444 13.768 8.30901C13.8453 8.45133 13.8889 8.6122 13.8889 8.78235C13.8889 9.01824 13.8053 9.23593 13.664 9.41155C13.4565 9.66968 13.1246 9.83674 12.7505 9.83674L12.3759 9.83674C12.5139 9.87704 12.6407 9.94089 12.7505 10.0234C13.0027 10.2129 13.1658 10.5003 13.1721 10.8231C13.1722 10.8296 13.1723 10.8363 13.1723 10.8428C13.1723 11.27 12.898 11.638 12.5035 11.8036C12.3602 11.8637 12.2013 11.8972 12.0338 11.8972L10.873 11.8972C11.373 12.0075 11.7451 12.4233 11.7466 12.92L11.7466 12.9229C11.7466 13.5053 11.2369 13.9773 10.6081 13.9773L8.93186 13.9773C7.18837 13.9773 5.3343 13.7257 3.87067 13.0912C2.39124 12.4499 1.11125 11.3067 1.11125 9.52603C1.11125 8.98981 1.18423 8.51885 1.35448 8.09808C1.52977 7.66483 1.7856 7.34009 2.06838 7.0759ZM14.6087 6.6897C14.6087 6.95128 14.5563 7.20179 14.4604 7.43281C14.7972 7.79663 15 8.26866 15 8.78229C15 9.40827 14.6989 9.97256 14.2208 10.3543C14.2618 10.511 14.2834 10.6746 14.2834 10.8428C14.2834 11.7196 13.6926 12.4754 12.8524 12.7783C12.8559 12.8261 12.8577 12.8742 12.8577 12.9229C12.8577 14.064 11.8569 15 10.6081 15L8.93189 15C7.09657 15 5.06284 14.7383 3.39716 14.0164C1.70509 13.2829 -1.03642e-06 11.8553 -8.32782e-07 9.52591C-7.78648e-07 8.90669 0.0839636 8.30746 0.31325 7.74102C0.552354 7.14986 0.904355 6.70614 1.27714 6.35799C1.55926 6.0944 1.87172 5.87324 2.07026 5.73271L2.08589 5.72154C2.11276 5.70251 2.13705 5.68539 2.15991 5.6691C2.38442 5.50907 2.53994 5.39124 2.68941 5.24809C3.51289 4.45921 4.86924 2.91355 5.30532 1.50609C5.61276 0.513881 6.66617 -0.124822 7.78238 0.0205782C8.89756 0.165869 9.71766 1.04703 9.71766 2.07737C9.71766 2.95184 9.438 3.81293 9.03486 4.61237L12.3593 4.61237C13.6081 4.61237 14.6087 5.54854 14.6087 6.6897Z" fill="#FEFEFE"/>
</svg>
