<svg width="40" height="40" viewBox="0 0 40 40" fill="none" xmlns="http://www.w3.org/2000/svg">
<path d="M21.5 33.64C23.9989 31.9159 26.9641 30.995 30 31C31.42 31 32.792 31.196 34.092 31.564C34.3151 31.6271 34.5498 31.6376 34.7777 31.5946C35.0055 31.5517 35.2203 31.4566 35.4052 31.3166C35.5901 31.1767 35.74 30.9959 35.8432 30.7882C35.9464 30.5806 36.0001 30.3519 36 30.12V8.12002C35.9997 7.79357 35.8929 7.47614 35.6958 7.2159C35.4987 6.95566 35.2221 6.76681 34.908 6.67802C33.311 6.22701 31.6594 5.99885 30 6.00002C27.0341 5.99591 24.1135 6.72777 21.5 8.13002V33.64ZM18.5 8.13002C15.8865 6.72777 12.9659 5.99591 10 6.00002C8.3 6.00002 6.654 6.23602 5.092 6.67802C4.77786 6.76681 4.50127 6.95566 4.30419 7.2159C4.10711 7.47614 4.00031 7.79357 4 8.12002V30.12C4.00022 30.3517 4.05411 30.5802 4.15745 30.7876C4.26078 30.9949 4.41075 31.1756 4.59559 31.3153C4.78043 31.4549 4.99512 31.5499 5.22282 31.5927C5.45052 31.6356 5.68504 31.625 5.908 31.562C7.23959 31.187 8.61662 30.9979 10 31C13.158 31 16.084 31.974 18.5 33.64V8.13002Z" fill="#2196F3"/>
</svg>
