<svg width="25" height="24" viewBox="0 0 25 24" fill="none" xmlns="http://www.w3.org/2000/svg">
<path id="Vector" fill-rule="evenodd" clip-rule="evenodd" d="M11.4395 0.439185C11.7208 0.157975 12.1022 0 12.5 0C12.8978 0 13.2792 0.157975 13.5605 0.439185L24.0608 10.9393C24.2705 11.1491 24.4133 11.4164 24.4712 11.7073C24.529 11.9982 24.4993 12.2998 24.3858 12.5738C24.2723 12.8479 24.0801 13.0821 23.8335 13.247C23.5869 13.4118 23.2969 13.4998 23.0003 13.4999H21.5002V22.5C21.5002 22.8978 21.3422 23.2793 21.0609 23.5607C20.7796 23.842 20.398 24 20.0002 24H17.0001C16.6023 24 16.2207 23.842 15.9394 23.5607C15.6581 23.2793 15.5001 22.8978 15.5001 22.5V17.9999C15.5001 17.6021 15.342 17.2206 15.0607 16.9392C14.7794 16.6579 14.3979 16.4999 14 16.4999H11C10.6021 16.4999 10.2206 16.6579 9.93927 16.9392C9.65796 17.2206 9.49992 17.6021 9.49992 17.9999V22.5C9.49992 22.8978 9.34188 23.2793 9.06057 23.5607C8.77926 23.842 8.39772 24 7.99988 24H4.9998C4.60196 24 4.22042 23.842 3.93911 23.5607C3.6578 23.2793 3.49976 22.8978 3.49976 22.5V13.4999H1.99972C1.70309 13.4998 1.41313 13.4118 1.16651 13.247C0.919889 13.0821 0.727675 12.8479 0.614167 12.5738C0.500658 12.2998 0.470953 11.9982 0.528806 11.7073C0.586659 11.4164 0.729472 11.1491 0.939192 10.9393L11.4395 0.439185Z" fill="#231F1F"/>
</svg>
