<svg width="74" height="115" viewBox="0 0 74 115" fill="none" xmlns="http://www.w3.org/2000/svg">
<g id="Group">
<g id="Group_2">
<path id="Vector" d="M67.6817 39.0927C67.8974 38.9654 68.1256 38.9188 68.3484 38.9188C68.6087 38.9188 68.8564 38.9833 69.0365 39.0479C69.1274 39.0802 69.2005 39.1124 69.2504 39.1376L69.3074 39.1662L69.3199 39.1734H69.3235C69.4001 39.2182 69.4946 39.1913 69.5374 39.116C69.5819 39.0407 69.5534 38.9457 69.4803 38.9009C69.4678 38.8955 68.9669 38.6068 68.3466 38.605C68.0828 38.605 67.7922 38.6606 67.5213 38.822C67.368 38.9134 67.2218 39.0425 67.0899 39.2039C66.9883 39.3294 66.892 39.4729 66.81 39.6468C66.7726 39.7239 66.8047 39.819 66.8831 39.8566C66.9598 39.8943 67.0542 39.862 67.0935 39.7831C67.1897 39.5823 67.3002 39.4316 67.4143 39.3115C67.4999 39.2218 67.589 39.1483 67.6817 39.0945V39.0927Z" fill="#BA6945"/>
<path id="Vector_2" d="M5.65865 38.822C5.3877 38.6606 5.09892 38.605 4.83332 38.605C4.21298 38.605 3.71208 38.8955 3.6996 38.9009C3.62474 38.9439 3.598 39.0407 3.64078 39.116C3.68534 39.1913 3.77982 39.2182 3.85469 39.1752H3.85825C3.90103 39.1483 4.3449 38.917 4.83332 38.9188C5.05614 38.9188 5.28431 38.9636 5.5 39.0927C5.5927 39.1465 5.68182 39.22 5.76917 39.3097C5.88326 39.4298 5.99199 39.5805 6.09003 39.7813C6.12747 39.8602 6.22194 39.8925 6.2986 39.8548C6.37703 39.8172 6.40911 39.7221 6.37168 39.645C6.28968 39.4729 6.19342 39.3276 6.09182 39.2021C5.95812 39.0407 5.81374 38.9116 5.66043 38.8202L5.65865 38.822Z" fill="#BA6945"/>
<path id="Vector_3" d="M50.8646 106.141C51.4903 107.323 56.4209 107.244 57.674 106.141C58.9254 105.04 53.7791 103.15 53.7791 103.15L50.5508 104.174C50.5508 104.174 50.2371 104.961 50.8646 106.143V106.141Z" fill="#27120F"/>
<g id="Group_3">
<path id="Vector_4" d="M53.6602 102.407C53.6566 102.382 53.653 102.358 53.6477 102.333C53.6085 102.091 53.5675 101.845 53.5265 101.596C53.5211 101.567 53.5158 101.539 53.5104 101.51C53.4694 101.261 53.4249 101.01 53.3803 100.757C53.3767 100.732 53.3732 100.707 53.3678 100.683C53.3215 100.42 53.2751 100.158 53.227 99.8908C53.2252 99.8836 53.2234 99.8765 53.2216 99.8693C53.0701 99.0337 52.9061 98.1819 52.735 97.3248C52.735 97.3176 52.7314 97.3122 52.7314 97.3033C52.678 97.0343 52.6227 96.7635 52.5692 96.4927C52.5657 96.4766 52.5621 96.4605 52.5585 96.4443C51.0095 97.6547 48.6297 98.1335 47.2554 98.3182C47.291 98.3827 47.3267 98.4455 47.3641 98.5119C47.4176 98.6087 47.4711 98.7037 47.5245 98.7988C47.562 98.8687 47.603 98.9404 47.6422 99.0104C47.7224 99.152 47.8008 99.2937 47.8775 99.4318C47.9238 99.516 47.9702 99.5985 48.0165 99.681C48.0611 99.7581 48.1021 99.8352 48.1449 99.9123C48.2073 100.024 48.2697 100.133 48.3303 100.242C48.3802 100.328 48.4283 100.416 48.4764 100.504C48.5246 100.588 48.5727 100.673 48.619 100.757C48.6476 100.809 48.6761 100.859 48.7046 100.911C48.7813 101.046 48.8561 101.18 48.9292 101.307C48.9595 101.361 48.9898 101.417 49.0201 101.469C49.0789 101.573 49.1342 101.673 49.1912 101.774C49.2394 101.856 49.2839 101.937 49.3285 102.016C49.3552 102.064 49.382 102.111 49.4105 102.159C49.4497 102.229 49.4907 102.299 49.5282 102.367C49.5692 102.441 49.6101 102.514 49.6494 102.582C49.6886 102.651 49.726 102.717 49.7617 102.781C49.7902 102.83 49.8169 102.878 49.8437 102.925C49.89 103.006 49.9346 103.086 49.9774 103.162C50.0005 103.203 50.0219 103.24 50.0433 103.278C50.0665 103.321 50.0914 103.362 50.1146 103.404C50.1324 103.434 50.1521 103.468 50.1681 103.499C50.2626 103.664 50.3392 103.802 50.3998 103.909C50.407 103.922 50.4141 103.931 50.4194 103.943C50.4408 103.981 50.4587 104.013 50.4765 104.042C50.5246 104.128 50.5531 104.178 50.5531 104.178L53.7814 103.154C53.7439 102.909 53.7047 102.661 53.6637 102.41L53.6602 102.407Z" fill="#F4E9D7"/>
<path id="Vector_5" d="M19.1971 99.8312C19.1917 99.8563 19.1864 99.8832 19.1828 99.9083C19.1383 100.156 19.0937 100.403 19.0491 100.649C19.042 100.692 19.0349 100.735 19.026 100.778C18.985 101.016 18.944 101.253 18.903 101.488C18.8958 101.529 18.8887 101.574 18.8816 101.615C18.8424 101.852 18.8014 102.089 18.7639 102.322C18.7586 102.354 18.7532 102.385 18.7479 102.415C18.7087 102.661 18.6694 102.905 18.6338 103.147L21.862 104.171C21.862 104.171 21.8906 104.122 21.9387 104.034C21.9547 104.006 21.9743 103.973 21.9957 103.936C22.0029 103.923 22.0082 103.914 22.0153 103.902C22.0759 103.794 22.1544 103.656 22.2471 103.491C22.256 103.475 22.2667 103.457 22.2756 103.441C22.3683 103.276 22.4752 103.088 22.5964 102.874C22.6054 102.858 22.6161 102.842 22.625 102.824C22.9547 102.239 23.3772 101.493 23.8603 100.635C23.8674 100.624 23.8728 100.615 23.8781 100.602C24.2703 99.9029 24.7035 99.13 25.158 98.3123C23.7819 98.1276 21.4021 97.6489 19.8549 96.4385C19.6213 97.5789 19.4003 98.7158 19.1953 99.8258L19.1971 99.8312Z" fill="#F4E9D7"/>
</g>
<g id="Group_4">
<path id="Vector_6" d="M49.155 76.8452C49.2852 77.2325 49.426 77.6503 49.5739 78.0951C49.4278 77.6503 49.2869 77.2307 49.1568 76.8452H49.155Z" fill="#3C7EA0"/>
<path id="Vector_7" d="M23.6209 76.8252C23.5104 77.1516 23.391 77.5048 23.2698 77.8742C23.3928 77.5048 23.5122 77.1533 23.6209 76.8252Z" fill="#3C7EA0"/>
</g>
<path id="Vector_8" d="M49.5946 78.1683C49.5874 78.1468 49.5821 78.127 49.5732 78.1037C49.427 77.659 49.2862 77.2412 49.1543 76.8539C47.238 77.4869 42.762 78.6865 36.4214 78.6632C30.0077 78.6865 25.496 77.4564 23.6189 76.8306C23.5084 77.1569 23.389 77.5102 23.2678 77.8796C23.2642 77.8921 23.2606 77.9047 23.2553 77.9154C21.9326 81.8945 20.0377 87.9608 20.4531 88.8986C20.56 89.1389 20.8809 89.4007 21.339 89.6697C23.0628 90.681 26.7545 91.7838 28.5549 92.1263C29.1057 92.2321 29.4818 92.268 29.5656 92.207C30.0041 91.8914 34.5443 84.4892 34.5443 84.4892H38.2235C38.2235 84.4892 42.7638 91.8914 43.2005 92.207C43.2682 92.2554 43.516 92.2429 43.8886 92.1855C45.4412 91.9398 49.1632 90.8711 51.1133 89.8454C51.739 89.5173 52.1847 89.1927 52.313 88.9004C52.7194 87.9805 50.9119 82.1473 49.5946 78.1683Z" fill="#3C7EA0"/>
<path id="Vector_9" d="M58.006 34.1002C59.6763 33.1032 59.8332 28.6418 58.006 28.154C56.7172 27.8115 55.3286 28.8982 54.6191 29.5689C54.8384 31.0931 54.9917 32.6728 55.0452 34.2185C55.8277 34.518 56.9935 34.7045 58.006 34.1002Z" fill="#D88355"/>
<g id="Group_5">
<path id="Vector_10" d="M58.6863 25.6387C58.1694 25.5276 57.6881 25.5222 57.246 25.5885C56.2692 27.8659 54.6221 29.573 54.6221 29.573C55.3315 28.9023 56.7202 27.8156 58.009 28.1581C59.8361 28.6459 59.6792 33.1073 58.009 34.1043C56.9965 34.7104 55.8324 34.5221 55.0481 34.2227C55.0748 34.9865 55.0766 35.7415 55.0481 36.4767C57.6239 37.0236 59.3067 36.127 60.2514 34.4199C61.2942 32.5299 61.3531 26.2108 58.6846 25.6405L58.6863 25.6387Z" fill="#E69C6A"/>
<path id="Vector_11" d="M14.2294 34.1042C12.5609 33.1072 12.4041 28.6458 14.2294 28.158C14.5895 28.063 14.9567 28.0809 15.315 28.167C14.7161 27.1682 14.315 26.3057 14.0654 25.5615C13.8979 25.5777 13.7267 25.5992 13.5503 25.6386C10.8835 26.2089 10.9406 32.5298 11.9834 34.418C12.9709 36.204 14.766 37.106 17.545 36.3941C17.5201 35.6338 17.5236 34.852 17.5539 34.063C16.807 34.4359 15.4131 34.8125 14.2259 34.1042H14.2294Z" fill="#E69C6A"/>
</g>
<path id="Vector_12" d="M15.3147 28.1624C14.9564 28.0763 14.5891 28.0566 14.2291 28.1534C12.4037 28.6411 12.5606 33.1025 14.2291 34.0996C15.4163 34.8079 16.8102 34.4313 17.5571 34.0583C17.5946 33.1079 17.6676 32.145 17.7728 31.191C17.6231 31.2753 17.5304 31.3201 17.5304 31.3201C16.5963 30.1384 15.8726 29.0912 15.3147 28.1624Z" fill="#D88355"/>
<g id="Group_6">
<path id="Vector_13" d="M59.8314 49.0511C59.5462 49.3183 59.2681 49.5765 58.9883 49.8347C58.9883 49.8347 58.9889 49.8347 58.9901 49.8347C59.2664 49.5783 59.548 49.3165 59.8314 49.0493V49.0511Z" fill="#F7B385"/>
<g id="Group_7">
<path id="Vector_14" d="M72.8206 36.2882C71.9382 36.5141 70.6672 37.1883 70.5888 37.0861C70.4693 36.9301 71.9756 35.8739 72.5068 35.1961C72.8384 34.7729 72.5354 34.4968 72.2394 34.5631C71.8473 34.6492 70.1788 36.1214 69.9827 36.2398C69.7866 36.3581 69.7492 36.1985 69.7492 36.1985C71.0416 34.3085 70.8972 34.0377 70.5888 33.8907C70.1877 33.7006 67.849 36.8118 67.6529 36.6378C67.4586 36.4639 67.3409 35.9062 67.2625 35.4615C67.1841 35.0168 66.6742 34.4107 66.4461 34.6869C66.2161 34.963 66.127 38.2302 66.4461 38.7197C64.5708 39.5966 57.9147 42.7795 52.1926 46.303C53.7363 47.5457 55.125 50.4471 55.7756 52.7172C56.781 51.8475 57.8559 50.8846 58.9896 49.8356C58.9896 49.8356 58.9896 49.8356 58.9914 49.8356C59.2677 49.5792 59.5493 49.3174 59.8327 49.0502C59.8541 49.0287 59.8755 49.0089 59.8987 48.9874C60.8096 48.1303 61.7544 47.2176 62.7276 46.2492C64.5138 44.474 66.4015 42.5123 68.3641 40.3515C68.9559 40.3945 70.9417 39.1519 70.9417 39.1519C71.6655 39.1303 72.7617 39.2397 72.7813 38.865C72.801 38.4758 71.4355 38.3145 71.2359 38.2463C70.9524 38.1477 71.2162 37.911 71.2162 37.911C71.833 37.538 72.5478 37.2726 73.0363 36.8674C73.4052 36.5625 72.9614 36.2505 72.8206 36.2864V36.2882Z" fill="#F7B385"/>
<path id="Vector_15" d="M6.73344 34.6849C6.50349 34.4088 5.99546 35.0149 5.91702 35.4596C5.83859 35.9043 5.72094 36.4619 5.52486 36.6359C5.32877 36.8098 2.99182 33.6987 2.59074 33.8887C2.28236 34.034 2.13797 34.3066 3.43033 36.1966C3.43033 36.1966 3.3929 36.3561 3.19682 36.2378C3.00073 36.1195 1.33225 34.6473 0.940079 34.5612C0.644172 34.4948 0.339352 34.771 0.672693 35.1942C1.2039 35.8702 2.71017 36.9282 2.59074 37.0842C2.51231 37.1864 1.23955 36.5139 0.35896 36.2862C0.218137 36.2504 -0.225723 36.5624 0.143269 36.8672C0.631694 37.2725 1.34829 37.5361 1.96328 37.9108C1.96328 37.9108 2.2271 38.1475 1.94367 38.2462C1.74402 38.3143 0.378569 38.4757 0.398177 38.8648C0.417785 39.2396 1.51407 39.1302 2.23779 39.1517C2.23779 39.1517 4.22358 40.3944 4.81539 40.3513C6.77622 42.5121 8.66397 44.4738 10.4501 46.2491C11.4252 47.2174 12.3699 48.1301 13.2808 48.9873C13.3022 49.0088 13.3254 49.0285 13.3468 49.05C13.6302 49.3154 13.9101 49.579 14.1882 49.8354C14.1882 49.8354 14.1882 49.8354 14.1899 49.8354C15.4057 50.9615 16.559 51.989 17.625 52.9071C18.2257 50.6639 19.584 47.7141 21.1224 46.3872C15.3664 42.8277 8.62119 39.6018 6.73166 38.7178C7.05074 38.2282 6.96161 34.9593 6.73166 34.6849H6.73344Z" fill="#F7B385"/>
</g>
<path id="Vector_16" d="M14.1915 49.8412C13.9135 49.583 13.6336 49.3248 13.3484 49.0576C13.6318 49.323 13.9117 49.5866 14.1898 49.843L14.1915 49.8412Z" fill="#F7B385"/>
<path id="Vector_17" d="M50.3995 103.907C50.3388 103.799 50.2604 103.663 50.1677 103.496C50.2622 103.661 50.3388 103.799 50.3995 103.907Z" fill="#F7B385"/>
<path id="Vector_18" d="M51.5196 91.6198C51.3841 91.0155 51.2486 90.4238 51.1149 89.8428C49.1648 90.8685 45.4428 91.9372 43.8901 92.1829C43.9507 92.2958 44.0114 92.4088 44.0737 92.5218C44.088 92.5487 44.1023 92.5756 44.1165 92.6025C44.2306 92.8141 44.3465 93.0275 44.4623 93.2408C44.4855 93.2821 44.5069 93.3233 44.5301 93.3646C44.6424 93.5726 44.7565 93.7806 44.8706 93.9904C44.8937 94.0334 44.9169 94.0764 44.9401 94.1195C45.0559 94.3311 45.17 94.5409 45.2859 94.7507C45.3055 94.7865 45.3251 94.8224 45.3447 94.8583C45.4659 95.0806 45.5871 95.3012 45.7084 95.5217M45.7084 95.5217C46.236 96.4829 46.7601 97.4261 47.2556 98.3173C48.6318 98.1326 51.0097 97.6538 52.5588 96.4434C52.2272 94.8152 51.8725 93.1834 51.5196 91.618" fill="#F7B385"/>
<path id="Vector_19" d="M51.5049 91.5557C51.5084 91.5749 51.5136 91.5959 51.5171 91.6152C51.5118 91.5959 51.5084 91.5749 51.5049 91.5557Z" fill="#F7B385"/>
<path id="Vector_20" d="M51.1138 89.8428C51.2439 90.404 51.374 90.9761 51.5059 91.557C51.374 90.9743 51.2439 90.4022 51.1138 89.8428Z" fill="#F7B385"/>
<path id="Vector_21" d="M43.8901 92.1836C43.9509 92.2969 44.0117 92.4101 44.0742 92.5234C44.0135 92.4083 43.9509 92.2951 43.8901 92.1836Z" fill="#F7B385"/>
<path id="Vector_22" d="M21.3401 89.6694C21.1939 90.3006 21.0442 90.9498 20.8962 91.6114C21.0442 90.9498 21.1939 90.3024 21.3401 89.6694Z" fill="#F7B385"/>
<path id="Vector_23" d="M26.7063 95.5197C26.715 95.504 26.722 95.4865 26.7307 95.4707C26.722 95.4865 26.7133 95.504 26.7046 95.5197H26.7063Z" fill="#F7B385"/>
<path id="Vector_24" d="M25.1603 98.3179C25.0426 98.5259 24.9268 98.7357 24.8145 98.9383C24.9285 98.7339 25.0426 98.5277 25.1603 98.3179Z" fill="#F7B385"/>
<path id="Vector_25" d="M26.7077 95.5243C27.1088 94.7927 27.5152 94.0521 27.9127 93.3151C28.1284 92.9152 28.3423 92.5207 28.5526 92.128C26.7522 91.7855 23.0605 90.6827 21.3368 89.6714C21.1906 90.3044 21.0409 90.9517 20.8929 91.6134C20.8929 91.617 20.8929 91.6188 20.8929 91.6206C20.54 93.186 20.187 94.8196 19.8555 96.446C21.4045 97.6546 23.7825 98.1334 25.1586 98.3181C25.6542 97.4269 26.1765 96.4837 26.7059 95.5225" fill="#F7B385"/>
<path id="Vector_26" d="M23.8615 100.639C23.3785 101.498 22.9578 102.245 22.6262 102.828C22.956 102.244 23.3785 101.498 23.8615 100.639Z" fill="#F7B385"/>
<path id="Vector_27" d="M27.9133 93.315C28.129 92.9169 28.3429 92.5206 28.5533 92.1279C28.3411 92.5206 28.129 92.9169 27.9133 93.315Z" fill="#F7B385"/>
<path id="Vector_28" d="M22.2493 103.496C22.1566 103.661 22.0764 103.799 22.0176 103.907C22.0782 103.799 22.1566 103.663 22.2493 103.496Z" fill="#F7B385"/>
</g>
<path id="Vector_29" d="M55.0468 34.2199C54.9933 32.6742 54.84 31.0944 54.6208 29.5702C52.7366 30.2839 51.4371 21.9904 49.6616 19.7848C47.888 17.5792 40.0215 17.2905 40.0215 17.2905C40.0215 17.2905 42.6686 20.3102 39.5384 21.3592C36.4064 22.41 26.178 18.4184 26.178 18.4184C23.8821 19.2576 21.4809 24.6121 20.9604 27.2642C20.5308 29.4518 18.4773 30.7895 17.7714 31.1912C17.6662 32.1452 17.5932 33.1081 17.5557 34.0585C17.5254 34.8475 17.5201 35.6293 17.5468 36.3896C17.6538 39.5474 18.2866 42.3519 19.7822 43.9425C20.4845 44.6884 21.2207 45.3106 21.9694 45.8432C22.3847 45.6693 22.8054 45.6334 23.219 45.784C24.2368 46.1534 25.4151 47.0662 26.5506 48.1439C29.5097 49.1911 31.8894 49.4923 32.0712 50.952C32.1924 51.931 32.1247 52.7415 32.1247 53.3979C32.1247 54.4289 32.2958 55.0727 33.6363 55.3614C34.4991 55.5479 35.4331 55.7075 36.2977 55.7182C37.1605 55.7057 38.0963 55.5461 38.9591 55.3614C40.3227 55.0673 40.4743 54.4074 40.4689 53.3441C40.4654 52.6985 40.4047 51.9041 40.5242 50.952C40.7327 49.2682 43.8754 49.1247 47.4602 47.5951C48.4156 46.7613 49.3675 46.0871 50.1982 45.7858C50.4121 45.7087 50.6242 45.6818 50.8382 45.6962C51.5137 45.1977 52.1769 44.6203 52.8132 43.9442C54.2963 42.368 54.9309 39.5976 55.0468 36.4739C55.0735 35.7387 55.0718 34.9838 55.0468 34.2199ZM43.7792 25.584C45.8612 25.2164 47.0716 27.2642 47.0716 27.2642C45.7667 26.581 44.0982 26.9486 43.7792 26.581C43.4601 26.2134 43.7792 25.584 43.7792 25.584ZM44.3603 31.3221C45.1464 31.3221 45.7828 31.9641 45.7828 32.7548C45.7828 33.5456 45.1464 34.1858 44.3603 34.1858C43.5742 34.1858 42.9378 33.5456 42.9378 32.7548C42.9378 31.9641 43.5742 31.3221 44.3603 31.3221ZM33.6292 33.7716C33.6488 33.6801 33.672 33.5582 33.7272 33.4309C33.7593 33.3681 33.795 33.3018 33.8306 33.2318C33.8698 33.1637 33.9287 33.1045 33.9839 33.0328C34.2121 32.7674 34.565 32.5433 34.9608 32.407C35.1586 32.3424 35.3636 32.2779 35.5775 32.2528C35.7932 32.2205 36.0054 32.2026 36.2317 32.2008C36.4617 32.2133 36.656 32.2366 36.8681 32.2617C37.0749 32.2922 37.2763 32.3388 37.4724 32.3944C37.6685 32.441 37.8539 32.5217 38.025 32.6024C38.1979 32.6813 38.353 32.7817 38.4867 32.8911C38.6204 32.9969 38.7309 33.1153 38.8076 33.2354C38.8913 33.3502 38.9323 33.4721 38.9591 33.5672C38.9823 33.6658 38.9823 33.7447 38.9769 33.7985C38.9733 33.8505 38.9644 33.8774 38.9644 33.8792L38.9609 33.8863L38.9395 33.8971C38.9484 33.9545 38.9591 34.0119 38.9591 34.0746C38.9555 34.9533 36.7095 35.1505 36.3173 35.1487H36.303H36.2888C35.836 35.1505 33.6773 34.9533 33.6488 34.089L33.6417 34.0943L33.6256 34.0728C33.6256 34.0728 33.6203 33.967 33.6327 33.7716H33.6292ZM28.9998 25.584C28.9998 25.584 29.3207 26.2134 28.9998 26.581C28.6808 26.9486 27.0105 26.581 25.7056 27.2642C25.7056 27.2642 26.9178 25.2164 28.9998 25.584ZM28.8465 34.184C28.0604 34.184 27.424 33.5438 27.424 32.7531C27.424 31.9623 28.0604 31.3203 28.8465 31.3203C29.6327 31.3203 30.269 31.9623 30.269 32.7531C30.269 33.5438 29.6327 34.184 28.8465 34.184ZM41.419 36.0112C39.7345 36.8236 38.0321 37.0925 36.5205 37.0925C33.4937 37.0907 31.2102 36.0238 31.1853 36.013C31.0284 35.9395 30.9607 35.753 31.032 35.5952C31.1051 35.4374 31.2904 35.3675 31.4491 35.441H31.4544L31.4705 35.45C31.4865 35.4572 31.5097 35.4679 31.5418 35.4805C31.606 35.5074 31.7004 35.5486 31.8252 35.5952C32.0748 35.6903 32.4384 35.8194 32.8948 35.9467C33.8057 36.2031 35.0802 36.4595 36.5205 36.4595C37.9608 36.4595 39.5634 36.2049 41.1481 35.441C41.3049 35.3675 41.4921 35.4338 41.5652 35.5899C41.6401 35.7477 41.5741 35.9341 41.419 36.0095V36.0112Z" fill="#F7B385"/>
<path id="Vector_30" d="M38.9132 33.8791C38.9132 33.8791 38.9186 33.7805 38.8437 33.6227C38.8027 33.5492 38.7475 33.4578 38.6619 33.3717C38.5817 33.282 38.4712 33.2013 38.3428 33.1242C38.2145 33.0489 38.0665 32.9808 37.9043 32.9234C37.7439 32.8696 37.5692 32.8158 37.3838 32.7817C37.2002 32.7405 37.0077 32.7172 36.8116 32.6921C36.6155 32.6741 36.4141 32.658 36.2162 32.6508C35.8187 32.6454 35.4176 32.6903 35.0575 32.7889C34.6974 32.8857 34.3784 33.0435 34.1538 33.239C34.1003 33.291 34.045 33.3358 34.0005 33.3878C33.9595 33.4416 33.9202 33.4918 33.8828 33.5402C33.8186 33.6407 33.7741 33.7393 33.7366 33.8164C33.6885 33.9831 33.66 34.08 33.66 34.08L33.6404 34.0889C33.6689 34.9533 35.8294 35.1505 36.2804 35.1487H36.2946H36.3089C36.7011 35.1505 38.9471 34.9533 38.9507 34.0746C38.9507 34.0118 38.94 33.9545 38.9311 33.8971L38.9257 33.9007L38.9114 33.8791H38.9132Z" fill="#BA6945"/>
<path id="Vector_31" d="M31.1841 36.0144C31.2091 36.0233 33.4925 37.0921 36.5193 37.0939C38.031 37.0939 39.7333 36.8249 41.4179 36.0126C41.5729 35.9373 41.6389 35.7508 41.564 35.593C41.4892 35.4352 41.3038 35.3688 41.1469 35.4441C39.5622 36.208 37.9579 36.4627 36.5193 36.4627C35.079 36.4627 33.8063 36.2062 32.8936 35.9498C32.439 35.8207 32.0736 35.6934 31.8241 35.5983C31.6993 35.5499 31.603 35.5105 31.5406 35.4836C31.5085 35.471 31.4836 35.4603 31.4693 35.4531L31.4533 35.4459H31.4479C31.2911 35.3706 31.1039 35.4388 31.0308 35.5966C30.9577 35.7544 31.0272 35.9408 31.1841 36.0144Z" fill="#BA6945"/>
<g id="Group_8">
<path id="Vector_32" d="M28.9973 25.5837C26.9153 25.2161 25.7031 27.2639 25.7031 27.2639C27.008 26.5807 28.6782 26.9483 28.9973 26.5807C29.3182 26.2131 28.9973 25.5837 28.9973 25.5837Z" fill="#491E17"/>
<path id="Vector_33" d="M43.7773 25.5837C43.7773 25.5837 43.4582 26.2131 43.7773 26.5807C44.0964 26.9483 45.7667 26.5807 47.0697 27.2639C47.0697 27.2639 45.8576 25.2161 43.7773 25.5837Z" fill="#491E17"/>
<path id="Vector_34" d="M44.3597 31.3223C43.5736 31.3223 42.9373 31.9642 42.9373 32.755C42.9373 33.5458 43.5736 34.186 44.3597 34.186C45.1459 34.186 45.7822 33.5458 45.7822 32.755C45.7822 31.9642 45.1459 31.3223 44.3597 31.3223Z" fill="#491E17"/>
<path id="Vector_35" d="M28.8444 31.3223C28.0583 31.3223 27.4219 31.9642 27.4219 32.755C27.4219 33.5458 28.0583 34.186 28.8444 34.186C29.6305 34.186 30.2669 33.5458 30.2669 32.755C30.2669 31.9642 29.6305 31.3223 28.8444 31.3223Z" fill="#491E17"/>
<path id="Vector_36" d="M56.7078 19.05C56.7078 19.05 58.3157 11.8074 52.7344 10.7566C52.7344 10.7566 56.3388 3.30235 51.016 1.83195C45.6933 0.361547 39.7448 5.71596 39.7448 5.71596C39.7448 5.71596 39.9534 1.62035 36.718 0.25575C33.4826 -1.10885 28.1599 3.19476 25.2382 8.23537C25.2382 8.23537 22.8104 4.13976 19.6926 6.03156C16.5749 7.92156 16.3664 17.8934 16.5749 20.94C16.5749 20.94 12.5802 21.1211 14.0633 25.5592C14.3111 26.3016 14.7139 27.1641 15.3129 28.1647C15.869 29.0935 16.5945 30.1408 17.5286 31.3225C17.5286 31.3225 17.6213 31.2776 17.771 31.1934C18.4769 30.7917 20.5287 29.4522 20.9601 27.2663C21.4824 24.6142 23.8817 19.2616 26.1777 18.4206C26.1777 18.4206 36.4061 22.4104 39.538 21.3614C42.6682 20.3106 40.0211 17.2927 40.0211 17.2927C40.0211 17.2927 47.8858 17.5814 49.6613 19.787C51.4367 21.9926 52.7362 30.286 54.6204 29.5723C54.6204 29.5723 56.2675 27.8652 57.2443 25.5879C58.1 23.5939 58.4404 21.1606 56.7096 19.0518L56.7078 19.05Z" fill="#491E17"/>
</g>
<path id="Vector_37" d="M14.7396 106.143C15.9927 107.246 20.9233 107.324 21.549 106.143C22.1765 104.961 21.8627 104.174 21.8627 104.174L18.6345 103.15C18.6345 103.15 13.4882 105.04 14.7396 106.141V106.143Z" fill="#27120F"/>
<path id="Vector_38" d="M33.6201 34.0732L33.6362 34.0948L33.6433 34.0894L33.6629 34.0804C33.6629 34.0804 33.6914 33.9836 33.7395 33.8168C33.777 33.7397 33.8215 33.6411 33.8857 33.5407C33.9231 33.4923 33.9624 33.442 34.0034 33.3883C34.0461 33.3362 34.1032 33.2914 34.1567 33.2394C34.3831 33.044 34.7003 32.888 35.0604 32.7893C35.4205 32.6907 35.8234 32.6459 36.2191 32.6513C36.417 32.6584 36.6184 32.6746 36.8145 32.6925C37.0088 32.7176 37.2031 32.7409 37.3867 32.7822C37.5721 32.8144 37.7468 32.8682 37.9072 32.9238C38.0694 32.9812 38.2156 33.0493 38.3457 33.1247C38.4723 33.2018 38.5846 33.2842 38.6648 33.3721C38.7521 33.4582 38.8056 33.5478 38.8466 33.6232C38.9197 33.781 38.9161 33.8796 38.9161 33.8796L38.9304 33.9011L38.9357 33.8975L38.9571 33.8868L38.9607 33.8796C38.9607 33.8796 38.9696 33.8527 38.9732 33.7989C38.9785 33.7451 38.9803 33.668 38.9554 33.5676C38.9286 33.4743 38.8876 33.3506 38.8038 33.2358C38.7272 33.1157 38.6184 32.9973 38.483 32.8915C38.3493 32.784 38.196 32.6835 38.0213 32.6028C37.8502 32.5222 37.6648 32.4415 37.4687 32.3948C37.2726 32.3375 37.0712 32.2926 36.8644 32.2621C36.6523 32.237 36.458 32.2155 36.228 32.2012C36.0016 32.2012 35.7895 32.2209 35.5738 32.2532C35.3599 32.2783 35.1531 32.3428 34.957 32.4074C34.5631 32.5437 34.2084 32.766 33.9802 33.0332C33.9267 33.1031 33.8679 33.1623 33.8269 33.2322C33.7912 33.3022 33.7574 33.3685 33.7235 33.4313C33.6682 33.5586 33.6451 33.6805 33.6255 33.772C33.613 33.9674 33.6183 34.0714 33.6183 34.0714L33.6201 34.0732Z" fill="#BA6945"/>
<path id="Vector_39" d="M55.7746 52.7164C55.1239 50.4463 53.7371 47.5449 52.1916 46.3022C51.7477 45.9454 51.2914 45.723 50.8368 45.6961C50.6229 45.6818 50.4108 45.7087 50.1969 45.7858C49.3662 46.0871 48.4143 46.7613 47.4589 47.5951C44.6869 50.0159 41.8794 53.7959 41.8794 53.7959L41.883 53.7995C41.5104 53.6112 41.0273 53.4606 40.4676 53.3422C40.4729 54.4056 40.3214 55.0655 38.9578 55.3595C38.095 55.546 37.1609 55.7056 36.2964 55.7164C35.43 55.7038 34.496 55.5442 33.635 55.3595C32.2945 55.0708 32.1252 54.4271 32.1234 53.396C31.8239 53.466 31.553 53.5502 31.3105 53.6435C31.3105 53.6435 29.027 50.4983 26.5475 48.142C25.412 47.0643 24.2337 46.1516 23.2159 45.7822C22.8023 45.6316 22.3816 45.6675 21.9663 45.8414C21.6811 45.9597 21.3994 46.1462 21.1213 46.3847C19.583 47.7099 18.2247 50.6614 17.6239 52.9047C17.2585 54.2675 17.1694 55.3703 17.4938 55.6805C18.4207 56.5699 23.9164 59.6309 26.8309 60.653C24.7881 64.858 22.6294 70.5961 22.6419 76.467C22.6419 76.467 22.977 76.6104 23.6152 76.8238C25.4922 77.4496 30.0021 78.6798 36.4176 78.6564C42.7582 78.678 47.2343 77.4783 49.1505 76.8471C49.8332 76.6212 50.1933 76.467 50.1933 76.467C50.2058 70.6768 48.1059 65.014 46.0898 60.8251C48.8029 60.0379 54.9742 56.6273 55.9599 55.6787C56.3004 55.3524 56.1863 54.1617 55.771 52.711L55.7746 52.7164Z" fill="#E53351"/>
</g>
<path id="Vector_40" opacity="0.43" d="M36.149 114.01C49.4966 114.01 60.3169 112.839 60.3169 111.393C60.3169 109.947 49.4966 108.775 36.149 108.775C22.8013 108.775 11.981 109.947 11.981 111.393C11.981 112.839 22.8013 114.01 36.149 114.01Z" fill="#1D98F1" fill-opacity="0.08"/>
</g>
</svg>
