<svg width="73" height="115" viewBox="0 0 73 115" fill="none" xmlns="http://www.w3.org/2000/svg">
<g id="Group">
<g id="Group_2">
<path id="Vector" d="M32.407 87.2535C30.2933 87.1748 28.6392 86.7434 27.3662 86.1904C29.0306 87.1525 30.6882 87.7004 32.31 87.9657C32.3457 87.8887 32.3832 87.8185 32.4206 87.7551C32.4138 87.5874 32.4087 87.4196 32.407 87.2535Z" fill="#588C82"/>
<path id="Vector_2" d="M49.6303 83.1367C48.0068 83.5031 46.3288 84.0047 44.6287 84.6809C44.416 85.3194 44.1675 86.0179 43.8782 86.7369C45.5732 86.4887 47.5881 86.3021 49.6933 86.1446C49.7256 85.1671 49.7086 84.1639 49.6303 83.1367Z" fill="#588C82"/>
<path id="Vector_3" d="M59.4751 85.4206C60.9659 85.2768 62.2678 85.1022 63.248 84.8831C64.9277 84.5065 65.3957 83.7994 65.3106 83.0496C64.7848 82.9195 62.8107 82.4778 59.9431 82.3101C59.8614 83.2944 59.7099 84.337 59.4751 85.4206Z" fill="#588C82"/>
<g id="Group_3">
<path id="Vector_4" d="M32.0948 91.5708C31.8327 92.3412 31.6149 93.5875 32.4045 94.5907C33.2929 95.7223 33.9055 94.6061 34.0621 93.6405C33.2844 93.1835 32.4998 92.5175 32.0948 91.5708Z" fill="#27120F"/>
<path id="Vector_5" d="M46.5311 103.358L46.5243 103.354L44.5315 102.416C44.5315 102.416 43.4236 103.606 43.5495 104.244C43.6772 104.883 47.382 107.453 47.5199 106.93C47.6577 106.412 46.4273 104.255 46.5328 103.358H46.5311Z" fill="#27120F"/>
</g>
<path id="Vector_6" d="M67.16 27.1378C67.24 27.1532 67.3183 27.0984 67.3336 27.0179C67.3745 26.8091 67.434 26.6413 67.5089 26.5043C67.6212 26.2972 67.7659 26.1568 67.9225 26.0575C68.1879 25.8932 68.5045 25.8452 68.7614 25.8452C68.8976 25.8452 69.0167 25.8589 69.1018 25.8726C69.1444 25.8795 69.1784 25.8863 69.2005 25.8898L69.2243 25.8949H69.2312C69.3094 25.9154 69.3911 25.8709 69.4115 25.7887C69.432 25.71 69.3843 25.6278 69.3043 25.6073C69.3043 25.6073 69.0712 25.5474 68.7614 25.5474C68.4704 25.5474 68.1011 25.597 67.7659 25.8042C67.5344 25.948 67.3285 26.1705 67.1873 26.4872C67.126 26.6276 67.0749 26.7851 67.0409 26.9631C67.0256 27.0453 67.0801 27.1241 67.16 27.1395V27.1378Z" fill="#BA6945"/>
<path id="Vector_7" d="M58.5704 17.0384C58.7286 17.9149 58.8052 18.7367 58.8358 19.454C59.3515 19.1064 59.942 18.8668 60.5496 18.949C62.3297 19.192 62.7024 23.4222 61.2439 24.559C60.359 25.2506 59.2375 25.2112 58.4631 25.0212C58.5789 25.7385 58.6691 26.4524 58.7286 27.1474C60.3811 27.2878 61.5928 26.8786 62.4199 26.0843C62.8419 25.6786 63.167 25.1736 63.3984 24.5949C64.1183 22.8008 63.5567 17.4099 61.3358 16.5916C61.1963 16.5403 61.0516 16.506 60.8984 16.4906C59.9692 16.4119 59.2 16.6498 58.5721 17.0384H58.5704Z" fill="#E69C6A"/>
<path id="Vector_8" d="M58.8157 22.0392C58.8344 22.474 58.4941 22.7257 58.0142 22.6692C58.1877 23.4515 58.3426 24.2407 58.4634 25.0231C59.2395 25.2131 60.361 25.2525 61.2442 24.5609C62.7027 23.4242 62.3317 19.194 60.5499 18.9509C59.9406 18.8687 59.3501 19.1066 58.8361 19.4559C58.894 20.7912 58.8055 21.7636 58.8157 22.0392Z" fill="#D88355"/>
<path id="Vector_9" d="M19.9304 29.7304C18.2371 28.9857 17.5717 24.7932 19.2378 24.117C20.2469 23.7095 21.4467 24.2865 22.2415 24.8069C22.0526 24.1067 21.9402 23.2798 21.8994 22.3759C20.9702 21.7391 19.7432 21.3214 18.3018 21.8213C15.8511 22.6738 16.6442 28.6313 17.8491 30.2919C18.9893 31.8618 20.7881 32.4986 23.3289 31.4988C23.2149 30.785 23.1298 30.0471 23.0668 29.2973C22.4048 29.7373 21.1336 30.2577 19.9304 29.7304Z" fill="#E69C6A"/>
<path id="Vector_10" d="M22.2425 24.8061C21.4478 24.2857 20.248 23.7087 19.2388 24.1162C17.5727 24.7924 18.2398 28.9832 19.9314 29.7296C21.1346 30.2586 22.4059 29.7365 23.0679 29.2965C22.9862 28.3207 22.9437 27.3278 22.9334 26.3417H22.93C22.6356 25.9599 22.4093 25.4327 22.2408 24.8061H22.2425Z" fill="#D88355"/>
<path id="Vector_11" d="M43.1979 26.6053C43.1979 26.6053 43.1911 26.5111 43.1043 26.3707C43.0567 26.304 42.9954 26.2252 42.9035 26.155C42.8167 26.0814 42.7027 26.0181 42.5734 25.9599C42.444 25.9017 42.2977 25.8554 42.1377 25.8212C41.9794 25.7887 41.8075 25.7579 41.6306 25.7493C41.4536 25.7305 41.2681 25.7322 41.0809 25.7305C40.8937 25.7373 40.7013 25.7459 40.5141 25.763C40.138 25.8058 39.7654 25.8948 39.4352 26.0283C39.1068 26.1653 38.8242 26.3502 38.6353 26.5608C38.5894 26.6173 38.5417 26.6635 38.5077 26.7183C38.4754 26.773 38.443 26.8278 38.4141 26.8758C38.3648 26.9802 38.3358 27.0761 38.3086 27.1548C38.2831 27.3174 38.2678 27.4116 38.2678 27.4116L38.2507 27.4236C38.3784 28.2367 40.4393 28.1666 40.8647 28.1135H40.88L40.8937 28.1101C41.263 28.0638 43.3596 27.6136 43.2609 26.7833C43.2541 26.7251 43.2371 26.6703 43.2217 26.619L43.2166 26.6224L43.1996 26.6036L43.1979 26.6053Z" fill="#BA6945"/>
<path id="Vector_12" d="M38.2277 27.4128L38.2464 27.4299L38.2532 27.4231L38.2702 27.4111C38.2702 27.4111 38.2855 27.3169 38.3111 27.1543C38.3383 27.0755 38.3672 26.978 38.4166 26.8752C38.4455 26.8256 38.4778 26.7725 38.5102 26.7177C38.5442 26.663 38.5936 26.6167 38.6378 26.5602C38.8267 26.3497 39.1092 26.1631 39.4377 26.0278C39.7678 25.8926 40.1405 25.8036 40.5166 25.7625C40.7038 25.7454 40.8961 25.7368 41.0833 25.73C41.2705 25.73 41.456 25.73 41.633 25.7488C41.81 25.7573 41.9819 25.7882 42.1401 25.8207C42.3001 25.8549 42.4465 25.9011 42.5758 25.9594C42.7052 26.0176 42.8192 26.0809 42.906 26.1545C42.9979 26.2247 43.0591 26.3035 43.1068 26.3702C43.1953 26.5106 43.2004 26.6048 43.2004 26.6048L43.2174 26.6236L43.2225 26.6202L43.2412 26.6065V26.5996C43.2412 26.5996 43.248 26.5739 43.2463 26.5226C43.2446 26.4729 43.2344 26.3976 43.2021 26.3069C43.1646 26.2196 43.1136 26.1083 43.0217 26.0107C42.9349 25.908 42.8175 25.8104 42.6796 25.7231C42.5418 25.6375 42.3835 25.5605 42.2099 25.5057C42.038 25.4509 41.8542 25.3961 41.6636 25.3739C41.4713 25.3431 41.2773 25.3242 41.0782 25.3208C40.874 25.3208 40.6885 25.3242 40.4707 25.3379C40.2562 25.3653 40.0588 25.4081 39.8597 25.4646C39.6623 25.5125 39.4751 25.5981 39.2947 25.682C38.939 25.8566 38.631 26.1083 38.4472 26.3873C38.4047 26.461 38.357 26.5226 38.3264 26.5911C38.3008 26.6612 38.2753 26.728 38.2515 26.7931C38.2157 26.9198 38.2072 27.0362 38.1987 27.1269C38.2123 27.3135 38.2277 27.4094 38.2277 27.4094V27.4128Z" fill="#BA6945"/>
<path id="Vector_13" d="M41.01 32.9556C40.9283 32.9573 40.85 32.9556 40.7717 32.9556C40.85 32.9556 40.9266 32.9573 41.01 32.9556Z" fill="#541717"/>
<path id="Vector_14" d="M43.2797 32.4614C42.4015 32.8637 41.571 32.9236 41.571 32.9236C41.571 32.9236 42.4015 32.862 43.2797 32.4614Z" fill="#541717"/>
<path id="Vector_15" d="M38.9075 29.947C38.9291 29.947 38.9506 29.947 38.9722 29.9453C38.949 29.947 38.9291 29.947 38.9075 29.947Z" fill="#541717"/>
<path id="Vector_16" d="M41.3784 31.6452C42.2599 31.5356 43.0462 31.89 43.2827 32.4583C44.2255 32.0286 45.2245 31.2052 45.313 29.6422C45.3572 28.8701 44.9199 28.8804 44.9199 28.8804C44.8586 28.9078 44.7922 28.9317 44.731 28.9574C44.7582 29.2228 44.765 29.6268 44.5914 29.8647C44.3191 30.2379 42.5799 30.9844 41.261 31.1504C39.8842 31.3216 38.0718 31.0186 37.7161 30.7241C37.4999 30.5444 37.408 30.1815 37.3672 29.9195C37.5969 29.9349 37.8488 29.9435 38.1211 29.9469C37.8471 29.9435 37.5901 29.9315 37.3604 29.9178C37.3604 29.9178 36.4108 29.9812 36.7682 30.8542C37.0013 31.4226 37.7229 32.5747 39.7344 32.8778C39.8382 32.2786 40.5088 31.753 41.3784 31.6434V31.6452Z" fill="#541717"/>
<path id="Vector_17" d="M40.0789 32.9239C39.9615 32.9119 39.8457 32.8982 39.7351 32.8828C39.8457 32.8982 39.9598 32.9119 40.0789 32.9239Z" fill="#541717"/>
<path id="Vector_18" d="M38.5354 29.9548C38.4707 29.9548 38.4111 29.9548 38.3481 29.9531C38.4111 29.9548 38.4724 29.9548 38.5354 29.9548Z" fill="#541717"/>
<path id="Vector_19" d="M37.7117 30.7277C38.0674 31.0221 39.8798 31.3251 41.2566 31.1539C42.5772 30.9896 44.3165 30.2415 44.587 29.8683C44.7606 29.6303 44.7538 29.2246 44.7266 28.9609C43.2086 29.5807 41.1545 29.858 39.4305 29.9333C39.2757 29.9402 39.1242 29.9453 38.9744 29.947C38.9506 29.9487 38.9302 29.9487 38.9081 29.9487C38.7821 29.9504 38.6562 29.9556 38.5371 29.9556C38.4724 29.9556 38.4128 29.9556 38.3499 29.9539C38.2733 29.9539 38.195 29.9539 38.1218 29.9521C37.8495 29.9487 37.596 29.9385 37.3679 29.9248C37.4071 30.1867 37.5007 30.5496 37.7168 30.7294L37.7117 30.7277Z" fill="#F9EFEF"/>
<path id="Vector_20" d="M41.3781 31.6463C40.5085 31.7559 39.8379 32.2814 39.7341 32.8806H39.7358C39.8465 32.896 39.9622 32.9097 40.0796 32.9217C40.1222 32.9251 40.1647 32.9285 40.2072 32.932C40.3076 32.9388 40.4081 32.9457 40.5136 32.9508C40.597 32.9525 40.6837 32.9525 40.7722 32.9525C40.8505 32.9525 40.9288 32.9542 41.0105 32.9525C41.1926 32.9474 41.3781 32.9371 41.5738 32.9217C41.5738 32.9217 42.4043 32.8601 43.2824 32.4595C43.0476 31.8911 42.2596 31.5367 41.3781 31.6463Z" fill="#C72636"/>
<path id="Vector_21" d="M35.0544 26.9021C35.0425 26.8936 34.8842 26.7549 34.6204 26.618C34.3566 26.481 33.9822 26.3406 33.5397 26.3389C33.0803 26.3355 32.551 26.5016 32.0592 26.9501C31.9366 27.0631 31.9281 27.2531 32.037 27.3746C32.1477 27.4962 32.3349 27.5082 32.4574 27.3952C32.8522 27.0391 33.213 26.9398 33.5397 26.9364C33.8529 26.9364 34.1388 27.0391 34.3481 27.1487C34.4519 27.2017 34.5336 27.2548 34.5898 27.2959C34.617 27.3147 34.6391 27.3301 34.651 27.3421L34.6663 27.3507V27.3541C34.7906 27.4602 34.9778 27.4465 35.085 27.3216C35.1922 27.1966 35.1786 27.0066 35.0544 26.8987V26.9021Z" fill="#491E17"/>
<path id="Vector_22" d="M47.13 25.4278C47.1368 25.4158 47.2764 25.2258 47.513 25.0478C47.7512 24.868 48.0745 24.702 48.4677 24.702C48.7042 24.702 48.9714 24.7602 49.2794 24.9245C49.4241 25.0015 49.6045 24.9451 49.6828 24.8012C49.7594 24.654 49.7032 24.4726 49.5585 24.3955C49.1739 24.1884 48.8029 24.1045 48.4677 24.1045C47.8873 24.1045 47.4279 24.3544 47.1232 24.5941C46.8169 24.8338 46.6518 25.07 46.6416 25.0854C46.5463 25.2207 46.5804 25.4073 46.7148 25.5031C46.8492 25.5973 47.0347 25.5648 47.1283 25.4295L47.13 25.4278Z" fill="#491E17"/>
<g id="Group_4">
<path id="Vector_23" d="M64.4143 78.8567C64.4143 78.8567 64.4143 78.8567 64.4126 78.855C64.4245 78.8978 64.4364 78.9423 64.4483 78.9834C64.4364 78.9423 64.4262 78.8978 64.4143 78.8567Z" fill="#88BFB5"/>
<path id="Vector_24" d="M64.449 78.9829C64.5443 79.3304 64.6379 79.6762 64.7281 80.0238C64.6379 79.6762 64.546 79.3304 64.449 78.9829Z" fill="#88BFB5"/>
<path id="Vector_25" d="M24.0348 80.8394C23.982 81.2023 23.9327 81.5618 23.8884 81.9264L24.0348 80.8394Z" fill="#88BFB5"/>
</g>
<g id="Group_5">
<path id="Vector_26" d="M44.5901 84.6919C39.4302 86.748 35.4462 87.366 32.4085 87.2547C32.4102 87.4207 32.4153 87.5885 32.4221 87.7563C32.3846 87.8213 32.3489 87.8898 32.3115 87.9669C32.1719 88.263 32.0443 88.6482 31.9302 89.1481C31.7124 90.1085 31.8128 90.9063 32.0953 91.5688C32.5004 92.5172 33.2832 93.1831 34.0626 93.6385C34.2549 93.7515 34.4472 93.8525 34.6327 93.9398C35.0837 94.2736 35.6164 94.4739 36.2393 94.503H36.2461C36.6647 94.5219 37.1242 94.4654 37.6262 94.3164C40.5636 93.4433 42.6058 89.8894 43.8787 86.7343C44.168 86.0152 44.4182 85.3168 44.6292 84.6782C44.6156 84.6816 44.602 84.6868 44.5884 84.6902L44.5901 84.6919Z" fill="#F7B385"/>
<path id="Vector_27" d="M49.6326 83.1339C49.7109 84.1611 49.7262 85.1643 49.6956 86.1418C49.3858 95.5506 44.5339 102.412 44.5339 102.412L46.5268 103.35C54.8946 97.4286 58.288 90.8736 59.4759 85.4176C59.7108 84.334 59.8622 83.2914 59.9439 82.307C57.1716 82.1461 53.5689 82.2437 49.6343 83.1339H49.6326Z" fill="#F7B385"/>
<path id="Vector_28" d="M64.9268 34.0815C64.4962 34.8262 64.0725 35.547 63.6555 36.242C64.0725 35.547 64.4962 34.8245 64.9268 34.0815Z" fill="#F7B385"/>
<path id="Vector_29" d="M62.0108 38.1236C62.1299 38.2075 62.2643 38.2589 62.409 38.2846C62.409 38.2846 62.409 38.2811 62.409 38.2794C62.5911 37.9884 62.7749 37.6905 62.9587 37.3892C62.9825 37.3516 63.0063 37.3139 63.0284 37.2762C63.2293 36.9492 63.4301 36.6171 63.6326 36.2799C63.6394 36.2679 63.6445 36.2559 63.6513 36.2456C64.0682 35.5506 64.492 34.8282 64.9226 34.0852C64.9294 34.0749 64.9345 34.0663 64.9396 34.0561C66.1343 31.9778 67.3783 29.7026 68.6393 27.2254C69.1924 27.1159 70.7053 25.4741 70.7053 25.4741C71.3639 25.2721 72.397 25.0941 72.3221 24.7483C72.2438 24.3853 70.9504 24.5839 70.7496 24.5702C70.4637 24.5514 70.6492 24.2689 70.6492 24.2689C71.1206 23.7707 71.7111 23.3462 72.0583 22.8514C72.3187 22.4799 71.8354 22.3053 71.7162 22.3738C70.964 22.8035 69.9651 23.7416 69.8681 23.6663C69.72 23.5533 70.8381 22.2043 71.1563 21.4494C71.3554 20.9786 71.01 20.8005 70.753 20.9358C70.4143 21.1155 69.252 22.8857 69.1005 23.0432C68.9508 23.2024 68.8776 23.0654 68.8776 23.0654C69.5907 21.0043 69.3915 20.792 69.0716 20.7355C68.6581 20.6619 67.2881 24.1046 67.0652 23.995C66.8422 23.8854 66.5955 23.4027 66.4117 23.0141C66.2296 22.6255 65.6118 22.1975 65.4705 22.509C65.3276 22.8206 66.0594 25.8405 66.4763 26.2085C65.7173 26.8557 63.9798 28.3536 61.8831 30.2812C60.4961 31.5566 58.9526 33.0203 57.4278 34.5491C57.4482 34.52 57.4703 34.4943 57.4924 34.4669C58.7092 32.8046 58.9832 30.1152 58.7279 27.1518C58.6684 26.4551 58.5782 25.7429 58.4625 25.0256C58.3399 24.2432 58.1868 23.454 58.0132 22.6717C57.4448 22.6049 56.679 22.1033 56.0782 20.9358C54.9669 18.7856 52.4244 13.3022 52.4244 13.3022C52.4244 13.3022 48.5919 18.0854 45.3142 18.0854C43.6158 18.0854 43.2652 13.8946 43.2652 13.8946C43.2652 13.8946 40.7125 18.0888 38.238 18.7428C35.7653 19.3967 36.6843 13.5214 36.6843 13.5214C36.6843 13.5214 34.2864 17.4965 31.3899 18.0854C28.4934 18.676 30.1544 13.821 30.1544 13.821C30.1544 13.821 25.6259 18.4928 25.0251 22.0383C24.4278 25.5494 22.9608 26.3284 22.9336 26.3421C22.9438 27.3299 22.9846 28.3211 23.068 29.2969C23.131 30.0467 23.2178 30.7846 23.3301 31.4984C23.7981 34.4669 24.7239 37.0383 26.3202 38.3616C31.7694 42.876 38.1461 41.1829 38.735 43.5248C38.912 44.225 38.9698 44.843 39.0226 45.3754C39.1468 46.6166 39.2387 47.3715 40.7261 47.5016C41.5617 47.5735 42.462 47.6129 43.2805 47.5222C44.0957 47.4092 44.9585 47.149 45.7499 46.8716C46.8067 46.5019 47.0194 45.9883 46.982 45.2333C46.948 44.5502 46.7114 43.6737 46.7131 42.5267C46.7131 40.9603 49.4871 40.4382 52.5776 38.7057C53.1222 38.1322 53.6974 37.6135 54.2913 37.2026C54.4411 37.0982 54.6504 37.0931 54.8988 37.1581C54.9227 37.1376 54.9482 37.1187 54.9737 37.0982C54.9533 37.1204 54.9346 37.141 54.9142 37.1615C56.2195 37.521 58.6463 39.928 60.0588 41.9122C60.7991 40.8131 61.5853 39.6045 62.4107 38.2846C62.266 38.2589 62.1299 38.2075 62.0125 38.1236M32.8773 19.948C32.8773 19.948 33.2534 20.5044 32.9947 20.8896C32.7361 21.2747 31.1176 21.1258 29.9655 21.9219C29.9655 21.9219 30.8709 19.847 32.8773 19.948ZM35.088 27.3264C34.9808 27.4514 34.7936 27.4634 34.6693 27.359V27.3555L34.654 27.347C34.6421 27.335 34.62 27.3196 34.5927 27.3008C34.5366 27.2597 34.4549 27.2066 34.3511 27.1535C34.1435 27.044 33.8559 26.9413 33.5427 26.9413C33.216 26.9447 32.8569 27.044 32.4604 27.4001C32.3378 27.5113 32.1506 27.5011 32.04 27.3795C31.9311 27.258 31.9396 27.0679 32.0621 26.955C32.554 26.5064 33.0832 26.3404 33.5427 26.3438C33.9852 26.3438 34.3579 26.4859 34.6234 26.6228C34.8872 26.7598 35.0454 26.8967 35.0573 26.907C35.1816 27.0149 35.1952 27.2049 35.088 27.3299V27.3264ZM38.2517 26.7957C38.2755 26.7307 38.301 26.6639 38.3265 26.5937C38.3572 26.5253 38.4048 26.4636 38.4474 26.39C38.6312 26.1127 38.9392 25.8593 39.2949 25.6847C39.4736 25.6008 39.6608 25.5152 39.8599 25.4673C40.059 25.4108 40.2581 25.368 40.4708 25.3406C40.6904 25.3269 40.8759 25.3252 41.0784 25.3235C41.2775 25.3269 41.4715 25.3457 41.6638 25.3765C41.8527 25.3988 42.0382 25.4536 42.2101 25.5084C42.3837 25.5631 42.5419 25.6402 42.6798 25.7258C42.8193 25.8114 42.9351 25.909 43.0219 26.0134C43.1138 26.111 43.1648 26.2222 43.2023 26.3096C43.2363 26.4003 43.2448 26.4739 43.2465 26.5253C43.2482 26.5766 43.2431 26.6023 43.2431 26.6023V26.6091L43.2227 26.6228C43.238 26.6759 43.255 26.729 43.2618 26.7872C43.3605 27.6158 41.2639 28.0677 40.8946 28.1139L40.881 28.1174H40.8657C40.4402 28.1721 38.3793 28.2406 38.2517 27.4274L38.2449 27.4343L38.2261 27.4172C38.2261 27.4172 38.2108 27.3196 38.1972 27.133C38.2057 27.0423 38.2142 26.9258 38.25 26.7992L38.2517 26.7957ZM45.3108 29.6427C45.2223 31.2074 44.2233 32.0308 43.2805 32.4588C42.4024 32.8611 41.5719 32.9211 41.5719 32.9211C41.3762 32.9365 41.1907 32.9467 41.0086 32.9519C40.9269 32.9536 40.8486 32.9519 40.7704 32.9519C40.6819 32.9519 40.5951 32.9519 40.5117 32.9502C40.4062 32.945 40.3058 32.9382 40.2054 32.9313C40.1628 32.9262 40.1203 32.9245 40.0777 32.9211C39.9586 32.9091 39.8446 32.8954 39.7339 32.88H39.7322C37.7207 32.577 36.9974 31.4248 36.766 30.8565C36.4069 29.9817 37.3582 29.92 37.3582 29.92C37.5879 29.9337 37.8449 29.944 38.1189 29.9491C38.1921 29.9508 38.2704 29.9508 38.347 29.9508C38.4099 29.9526 38.4712 29.9526 38.5342 29.9526C38.655 29.9526 38.7792 29.9491 38.9052 29.9457C38.9273 29.9457 38.9494 29.9457 38.9715 29.944C39.1213 29.9423 39.2728 29.9371 39.4276 29.9303C41.1533 29.855 43.2057 29.5776 44.7237 28.9562C44.7849 28.9305 44.8513 28.9066 44.9126 28.8792C44.9126 28.8792 45.3499 28.8672 45.3057 29.641L45.3108 29.6427ZM49.6862 24.7996C49.6079 24.9451 49.4275 25.0016 49.2828 24.9229C48.9748 24.7585 48.7059 24.7003 48.4711 24.7003C48.078 24.7003 47.7546 24.8664 47.5164 25.0461C47.2798 25.2242 47.1403 25.4142 47.1334 25.4262C47.0399 25.5614 46.8544 25.594 46.7199 25.4998C46.5855 25.4039 46.5531 25.2173 46.6467 25.0821C46.6586 25.0667 46.8237 24.8304 47.1283 24.5908C47.433 24.3528 47.8908 24.1012 48.4728 24.1012C48.808 24.1012 49.179 24.1867 49.5637 24.3922C49.7083 24.4692 49.7645 24.6507 49.6879 24.7979L49.6862 24.7996ZM46.9394 19.1451C46.5957 18.8352 46.8237 18.2035 46.8237 18.2035C48.7451 17.6112 50.1287 19.3985 50.1287 19.3985C48.8183 18.9088 47.2849 19.4532 46.9411 19.1434L46.9394 19.1451Z" fill="#F7B385"/>
</g>
<path id="Vector_30" d="M13.8709 49.3148C13.8709 49.3148 14.6333 51.2801 15.8161 53.5707C17.1776 56.2053 19.0938 59.2594 21.0475 60.2609C21.1275 60.3037 21.2075 60.3448 21.2874 60.379C21.3827 60.4218 21.4763 60.4578 21.5716 60.4886C23.4862 61.0878 26.4218 59.9476 28.9082 58.6431C27.4072 57.527 25.7734 54.4523 25.4705 52.6223C24.3933 53.1975 23.4488 53.6991 22.9297 53.9576C22.9297 53.9576 18.3688 50.0886 16.2092 48.3921C16.2347 48.3732 16.2603 48.3544 16.2858 48.3321C16.701 47.9624 17.4328 44.9425 17.2899 44.6326C17.1486 44.3228 16.5309 44.7491 16.3488 45.1377C16.1667 45.5263 15.9199 46.009 15.6953 46.1186C15.4723 46.2282 14.1024 42.7855 13.6871 42.8591C13.3689 42.9139 13.1681 43.1278 13.8828 45.1873C13.8828 45.1873 13.8079 45.3243 13.6582 45.1668C13.5084 45.0076 12.3444 43.2357 12.0057 43.0577C11.7487 42.9224 11.4016 43.0987 11.6024 43.5712C11.9223 44.3262 13.037 45.6752 12.8907 45.7882C12.7937 45.8618 11.793 44.9254 11.0425 44.494C10.9217 44.4255 10.4383 44.6001 10.7004 44.9716C11.0476 45.4664 11.6364 45.8892 12.1112 46.3874C12.1112 46.3874 12.2933 46.6698 12.0091 46.6887C11.8083 46.7024 10.5166 46.5055 10.4366 46.8684C10.3601 47.216 11.3931 47.394 12.0534 47.5943L13.8709 49.3097V49.3148Z" fill="#F7B385"/>
<g id="Group_6">
<path id="Vector_31" d="M54.9139 37.1614C54.9338 37.1414 54.952 37.1213 54.972 37.0996C54.9471 37.1196 54.9238 37.138 54.8989 37.1581C54.9056 37.1581 54.9089 37.1597 54.9139 37.1614Z" fill="#FEDBA2"/>
<path id="Vector_32" d="M58.7289 27.15C58.9842 30.1134 58.7102 32.8011 57.4934 34.4651C57.473 34.4925 57.4508 34.5199 57.4287 34.5473C58.9535 33.0186 60.4971 31.5531 61.8841 30.2795C62.1904 28.8859 62.3742 27.4839 62.4184 26.0869C61.5914 26.8813 60.3797 27.2921 58.7272 27.15H58.7289Z" fill="#FEDBA2"/>
<path id="Vector_33" d="M46.7131 42.5271C46.7131 43.6741 46.948 44.5506 46.982 45.2337C47.3649 45.3073 47.7155 45.3963 48.0218 45.5024H48.0201C48.0201 45.5024 49.9636 41.452 52.5776 38.7061C49.4871 40.4368 46.7148 40.9607 46.7131 42.5271Z" fill="#FEDBA2"/>
<path id="Vector_34" d="M29.9648 21.9242C31.117 21.1265 32.7354 21.2771 32.9941 20.8919C33.2528 20.5067 32.8767 19.9503 32.8767 19.9503C30.8702 19.8493 29.9648 21.9242 29.9648 21.9242Z" fill="#FEDBA2"/>
<path id="Vector_35" d="M50.1298 19.3998C50.1298 19.3998 48.7462 17.6108 46.8249 18.2048C46.8249 18.2048 46.5968 18.8365 46.9406 19.1464C47.2844 19.4546 48.8177 18.9119 50.1281 19.4015L50.1298 19.3998Z" fill="#FEDBA2"/>
<path id="Vector_36" d="M12.0534 47.5995C11.3947 47.3993 10.3617 47.2212 10.4366 46.8737C10.5166 46.5125 11.8083 46.7076 12.0091 46.6939C12.295 46.6751 12.1112 46.3926 12.1112 46.3926C11.6381 45.8945 11.0493 45.4699 10.7004 44.9769C10.4383 44.6054 10.9216 44.429 11.0425 44.4992C11.793 44.9306 12.7936 45.8671 12.8906 45.7934C13.037 45.6805 11.9206 44.3315 11.6024 43.5765C11.4016 43.104 11.7487 42.9277 12.0057 43.0629C12.3427 43.241 13.5067 45.0128 13.6582 45.172C13.8079 45.3295 13.8828 45.1926 13.8828 45.1926C13.168 43.1331 13.3689 42.9191 13.6871 42.8643C14.1023 42.7907 15.4723 46.2334 15.6952 46.1239C15.9182 46.0143 16.1649 45.5315 16.3487 45.1429C16.5308 44.7543 17.1486 44.328 17.2898 44.6379C17.4328 44.9478 16.701 47.9676 16.2858 48.3374C16.262 48.3596 16.2347 48.3785 16.2092 48.3973C18.3688 50.0938 22.9297 53.9628 22.9297 53.9628C23.4487 53.7026 24.3932 53.2027 25.4705 52.6275C25.4092 52.2594 25.4007 51.9376 25.4603 51.6979C25.8211 50.2222 35.2747 47.2349 37.2607 46.622C37.3458 46.4748 37.4121 46.355 37.4564 46.2694C37.664 45.8773 38.2426 45.588 39.0221 45.3809C38.9693 44.8485 38.9098 44.2305 38.7345 43.5303C38.1456 41.1883 31.7689 42.8814 26.3197 38.3671C24.7217 37.0437 23.7976 34.4724 23.3296 31.5039C20.7888 32.5037 18.99 31.8668 17.8497 30.297C16.6449 28.6364 15.8518 22.6789 18.3024 21.8263C19.7422 21.3264 20.9692 21.7441 21.9001 22.381C21.9409 23.2866 22.0532 24.1118 22.2421 24.8119C22.4089 25.4385 22.637 25.9658 22.9314 26.3493H22.9348C22.962 26.3339 24.4307 25.5549 25.0263 22.0437C25.6288 18.4983 30.1556 13.8264 30.1556 13.8264C30.1556 13.8264 28.4963 18.6798 31.3911 18.0909C34.2876 17.502 36.6855 13.5268 36.6855 13.5268C36.6855 13.5268 35.7665 19.4022 38.2392 18.7483C40.712 18.0943 43.2664 13.9 43.2664 13.9C43.2664 13.9 43.6153 18.0909 45.3154 18.0909C48.5931 18.0909 52.4256 13.3077 52.4256 13.3077C52.4256 13.3077 54.9681 18.7893 56.0794 20.9412C56.6818 22.1088 57.446 22.6087 58.0144 22.6772C58.496 22.7336 58.8363 22.482 58.8159 22.0472C58.8057 21.7715 58.8942 20.7992 58.8363 19.4638C58.804 18.7465 58.7274 17.9248 58.5709 17.0483C59.2005 16.658 59.968 16.4217 60.8972 16.5005C61.0504 16.5159 61.1951 16.5501 61.3346 16.6015C60.3663 12.3987 58.2509 6.73216 53.6645 3.27233C45.9229 -2.5688 34.6773 0.576031 34.8628 3.72086C34.8628 3.72086 32.6862 3.12168 29.965 3.72086C27.2438 4.32004 20.9045 7.16528 18.2752 16.4868C15.3072 27.0101 10.9387 29.1825 3.79272 30.4528C3.79272 30.4528 0.816241 30.0145 0.220605 32.9676C-0.375032 35.919 5.72939 37.1225 5.72939 37.1225C5.72939 37.1225 1.11406 40.382 3.19879 42.8678C5.28181 45.3535 9.00369 44.9666 9.00369 44.9666C9.00369 44.9666 6.32333 48.9349 8.85393 50.8129C9.69463 51.436 12.3069 52.5351 15.8178 53.5793C14.635 51.2888 13.8726 49.3235 13.8726 49.3235M2.61847 33.3374C2.53678 33.346 2.4636 33.286 2.45509 33.2039C2.44658 33.1234 2.50615 33.0481 2.58613 33.0395C9.36277 32.3137 14.7729 27.3644 15.411 26.7533C15.4536 26.7122 15.474 26.6934 15.474 26.6934C15.5319 26.6352 15.6272 26.6352 15.685 26.6951C15.7429 26.7533 15.7412 26.8474 15.6833 26.9056C15.6714 26.9142 9.97883 32.5413 2.61847 33.3374ZM30.496 41.7721C30.5079 41.7344 30.513 41.7173 30.513 41.7173C30.5368 41.6386 30.6185 41.5924 30.6968 41.6146C30.7768 41.6386 30.821 41.7225 30.7972 41.8012C30.7921 41.8218 29.2638 47.0295 23.0131 51.2049C22.9433 51.2511 22.8514 51.2306 22.8071 51.1621C22.7612 51.0936 22.7799 50.9995 22.848 50.9549C28.6342 47.0894 30.3122 42.3353 30.4943 41.7721H30.496ZM25.2612 39.3685C25.2765 39.3309 25.2816 39.3138 25.2816 39.3138C25.3088 39.235 25.3956 39.1939 25.4722 39.223C25.5488 39.2504 25.5879 39.336 25.5607 39.4148C25.5556 39.4233 23.7091 44.5472 19.6435 48.8116C19.5873 48.8715 19.492 48.8732 19.4341 48.8167C19.3746 48.7602 19.3712 48.6644 19.429 48.6062C23.1935 44.6602 25.0467 39.9369 25.2595 39.3703L25.2612 39.3685ZM21.6261 33.9948C21.7078 33.8458 21.7486 33.7654 21.7486 33.7654C21.7878 33.6935 21.878 33.6644 21.9511 33.7037C22.0243 33.7414 22.0515 33.8321 22.0124 33.9058C22.009 33.9109 19.2725 39.1118 15.6884 42.9688C15.6323 43.0304 15.5387 43.0321 15.4791 42.9756C15.4195 42.9208 15.4161 42.825 15.4723 42.765C18.5781 39.4268 21.0594 35.0339 21.6278 33.9948H21.6261ZM16.7827 30.3244C16.8525 30.3672 16.8763 30.4596 16.8338 30.5298C16.8304 30.5367 15.6084 32.5824 13.505 34.9141C11.4033 37.2457 8.42167 39.865 4.88188 41.0017C4.8036 41.0274 4.72021 40.9846 4.69469 40.9042C4.67086 40.8254 4.7134 40.7415 4.79169 40.7176C8.03365 39.6767 10.8314 37.3416 12.8838 35.1503C14.9379 32.9573 16.2449 30.9133 16.5223 30.4665C16.5581 30.4083 16.5768 30.3757 16.5768 30.3757C16.6176 30.3055 16.7095 30.2833 16.781 30.3244H16.7827ZM58.9572 14.4444C58.9895 14.5215 58.9538 14.6088 58.8789 14.6396C58.8023 14.6721 58.7155 14.6362 58.6849 14.5591C56.7873 10.0191 54.4916 7.22006 52.1414 5.55435C49.7929 3.88863 47.3848 3.35108 45.2456 3.35108C41.5697 3.35108 38.6885 4.94661 38.3533 5.14177L38.3209 5.1606C38.2494 5.20169 38.1592 5.17943 38.1167 5.10924C38.0742 5.03734 38.098 4.94661 38.166 4.90381C38.1797 4.89696 41.2327 3.05321 45.2439 3.05149C47.4325 3.05149 49.9086 3.60445 52.3116 5.30954C54.7145 7.01292 57.0443 9.86501 58.9572 14.4427V14.4444ZM36.5476 3.9708C36.5544 3.9554 36.8216 3.18502 37.6998 2.41808C38.5779 1.6477 40.0636 0.887604 42.4734 0.889316C43.4706 0.889316 44.6245 1.01771 45.9621 1.32928C46.0421 1.34812 46.0931 1.42686 46.0727 1.50733C46.054 1.5895 45.9757 1.63914 45.894 1.62031C44.5768 1.31388 43.4451 1.18891 42.4734 1.18891C40.1997 1.18891 38.811 1.8771 37.9754 2.57386C37.1399 3.27233 36.8591 3.99306 36.8318 4.06325V4.0701C36.8046 4.14713 36.7195 4.18822 36.6412 4.16083C36.5646 4.13515 36.5221 4.04784 36.5493 3.9708H36.5476ZM23.4096 9.77941C24.817 7.56245 26.9 6.33841 28.898 5.67076C30.8976 5.00139 32.8155 4.88498 33.92 4.88498C34.5157 4.88498 34.8747 4.91751 34.8781 4.91751C34.9598 4.92607 35.0194 4.99968 35.0126 5.08185C35.0058 5.16403 34.9326 5.22566 34.8509 5.2171C34.8509 5.2171 34.8305 5.2171 34.7896 5.21196C34.7488 5.20854 34.6875 5.20511 34.6059 5.20169C34.4476 5.19313 34.2127 5.18457 33.92 5.18457C32.8377 5.18457 30.9469 5.29927 28.9916 5.95494C27.0379 6.6089 25.0212 7.7987 23.6615 9.94204C23.6155 10.0105 23.5253 10.0311 23.4555 9.98656C23.3858 9.94204 23.367 9.85131 23.4096 9.77941ZM35.7648 6.52159C35.7478 6.60205 35.6695 6.65512 35.5895 6.638L35.5708 6.63458C35.5572 6.63458 35.535 6.62944 35.5078 6.62431C35.4517 6.61404 35.3666 6.60377 35.2594 6.59007C35.21 6.58322 35.1555 6.57809 35.0977 6.57466C34.8952 6.55583 34.6365 6.54042 34.3302 6.54042C33.1508 6.54042 31.2839 6.76298 29.3166 7.87574C29.1821 7.95277 29.046 8.03323 28.9099 8.11712C27.0651 9.26925 25.1625 11.2328 23.6734 14.5677C23.6393 14.6447 23.5508 14.6773 23.476 14.6447C23.4011 14.6105 23.367 14.5215 23.4011 14.4462C24.6366 11.6745 26.1665 9.82221 27.722 8.59133C28.2036 8.20956 28.6886 7.88601 29.1685 7.61552C31.192 6.47195 33.1134 6.24255 34.3285 6.24255C35.1436 6.24255 35.6423 6.34526 35.6508 6.34697C35.7137 6.36067 35.758 6.41203 35.7682 6.47195C35.7699 6.48907 35.7716 6.50618 35.7682 6.5233L35.7648 6.52159ZM57.4357 18.2415C57.3558 18.2569 57.2775 18.2056 57.2605 18.1234C56.224 12.9414 53.9215 9.90952 51.2684 8.15649C50.0413 7.34675 48.7395 6.81433 47.4478 6.47195C45.9451 6.07478 44.4594 5.93611 43.1354 5.93782C42.4955 5.93782 41.8947 5.97035 41.3468 6.01828C39.8083 6.15524 38.697 6.42744 38.3822 6.51132C38.3209 6.52673 38.2903 6.537 38.2903 6.537C38.212 6.55926 38.1269 6.51303 38.1048 6.43428C38.0827 6.35382 38.1269 6.27165 38.2069 6.24768C38.2103 6.24768 38.3413 6.20831 38.5813 6.15181C39.3029 5.98062 41.0098 5.63652 43.1337 5.63652C45.2575 5.63652 47.6945 5.96864 50.0379 7.11563C50.5076 7.34675 50.9739 7.60696 51.43 7.90655C54.1512 9.70237 56.5049 12.8232 57.5498 18.0669C57.5651 18.1474 57.514 18.2261 57.4323 18.2432L57.4357 18.2415Z" fill="#FEDBA2"/>
</g>
<g id="Group_7">
<path id="Vector_37" d="M64.4169 78.8368C61.5084 68.3186 56.5085 58.7044 53.0113 52.6493C53.0827 52.6065 53.1083 52.5123 53.0623 52.4404C55.3785 50.927 60.421 45.5156 61.0915 44.3926C61.3281 43.9954 60.8567 43.011 60.0602 41.8932C58.6477 39.909 56.2226 37.5037 54.9156 37.1425C54.9105 37.1425 54.9071 37.1391 54.9003 37.1391C54.6518 37.0723 54.4425 37.0792 54.2927 37.1836C53.6988 37.5945 53.1236 38.1132 52.579 38.6867C49.965 41.4326 48.0215 45.4814 48.0215 45.4814H48.0232C47.7169 45.3769 47.3663 45.2862 46.9834 45.2143C47.0209 45.9693 46.8081 46.4829 45.7513 46.8526C44.9583 47.13 44.0954 47.3902 43.282 47.5032C42.4634 47.5939 41.5648 47.5545 40.7275 47.4826C39.2401 47.3508 39.15 46.5976 39.024 45.3564C38.2429 45.5635 37.666 45.8529 37.4583 46.2449C37.4141 46.3305 37.3477 46.4503 37.2626 46.5976C35.2766 47.2104 25.8247 50.1995 25.4622 51.6735C25.4044 51.9131 25.4112 52.2333 25.4724 52.603C25.7754 54.4348 27.4108 57.5077 28.9101 58.6239C29.1688 58.8174 29.4241 58.9526 29.6674 59.0108C29.9993 59.093 30.3328 59.0879 30.6647 59.0262C30.6051 59.1598 30.5558 59.2676 30.5183 59.3532C30.4843 59.4285 30.5183 59.5141 30.5932 59.5501C28.2992 64.7081 25.1916 76.3733 24.288 79.8502C24.111 80.5316 23.9731 81.2215 23.8863 81.9217C23.8863 81.9251 23.8863 81.9285 23.8863 81.932C23.8863 81.932 23.8863 81.9354 23.8863 81.9388C23.8489 82.2333 23.8149 82.5294 23.7825 82.8239C23.74 83.2159 23.8608 83.6114 24.1195 83.9092C24.6232 84.4913 25.6426 85.4517 27.3666 86.1964C28.6378 86.7476 30.2937 87.1808 32.4074 87.2595C35.4451 87.3708 39.4308 86.7528 44.589 84.6967C44.6026 84.6933 44.6162 84.6882 44.6298 84.6847C46.3282 84.0085 48.0079 83.5069 49.6315 83.1406C53.5661 82.2504 57.1688 82.1528 59.9411 82.3137C62.8069 82.4815 64.781 82.9232 65.3086 83.0533C65.0891 82.0295 64.9921 81.0503 64.73 80.0386C64.73 80.0368 64.73 80.0351 64.73 80.0317C64.6296 79.6397 64.5258 79.2511 64.4169 78.8642" fill="#88BFB5"/>
<path id="Vector_38" d="M65.3083 83.0503C65.3083 83.0503 65.3379 83.0569 65.3461 83.0585C65.3412 83.0585 65.3313 83.0552 65.3083 83.0503Z" fill="#88BFB5"/>
</g>
<path id="Vector_39" d="M23.4507 9.97999C23.5204 10.0262 23.6123 10.004 23.6566 9.93548C25.0163 7.79214 27.0313 6.60234 28.9867 5.94838C30.9421 5.29442 32.8328 5.17801 33.9151 5.17801C34.2079 5.17801 34.441 5.18657 34.601 5.19513C34.6827 5.19855 34.7439 5.20197 34.7848 5.2054C34.8256 5.20882 34.846 5.21053 34.846 5.21053C34.9277 5.21909 35.0009 5.15918 35.0077 5.07529C35.0145 4.99312 34.955 4.92122 34.8733 4.91094C34.8699 4.91094 34.5108 4.87842 33.9151 4.87842C32.8124 4.87842 30.8927 4.99483 28.8931 5.6642C26.8951 6.33185 24.8121 7.55589 23.4047 9.77285C23.3605 9.84475 23.3809 9.93548 23.4507 9.97999Z" fill="#FEDBA2"/>
<path id="Vector_40" d="M23.3965 14.4324C23.3625 14.5077 23.3965 14.5967 23.4714 14.631C23.5463 14.6635 23.6348 14.631 23.6688 14.5539C25.1579 11.2208 27.0605 9.25718 28.9053 8.10333C29.0415 8.01945 29.1759 7.93899 29.312 7.86195C31.2794 6.7509 33.1462 6.52664 34.3256 6.52664C34.6319 6.52664 34.8906 6.54205 35.0931 6.56088C35.151 6.56601 35.2071 6.57115 35.2548 6.57629C35.3637 6.58827 35.4471 6.60025 35.5033 6.61052C35.5305 6.61566 35.5526 6.61908 35.5662 6.6208L35.5849 6.62422C35.6649 6.64134 35.7432 6.58998 35.7602 6.50781C35.7653 6.48898 35.7636 6.47186 35.7602 6.45645C35.75 6.39653 35.7058 6.34346 35.6428 6.33148C35.636 6.32977 35.1357 6.22705 34.3205 6.22705C33.1054 6.22705 31.184 6.45645 29.1606 7.60002C28.6807 7.87051 28.1974 8.19236 27.714 8.57583C26.1586 9.80671 24.6286 11.659 23.3931 14.4307L23.3965 14.4324Z" fill="#FEDBA2"/>
<path id="Vector_41" d="M36.6353 4.1514C36.7136 4.17879 36.7987 4.1377 36.8259 4.06067V4.05382C36.8531 3.98192 37.1356 3.2629 37.9712 2.56443C38.8068 1.86596 40.1955 1.17947 42.4691 1.17947C43.4409 1.17947 44.5726 1.30445 45.8898 1.61088C45.9698 1.62971 46.0498 1.58007 46.0685 1.4979C46.0872 1.41743 46.0379 1.33869 45.9579 1.31985C44.6219 1.00828 43.4664 0.879886 42.4691 0.879886C40.0594 0.878174 38.5737 1.63656 37.6955 2.40865C36.8191 3.17731 36.5502 3.94597 36.5434 3.96137C36.5162 4.04012 36.5587 4.12572 36.6353 4.1514Z" fill="#FEDBA2"/>
<path id="Vector_42" d="M38.1611 4.89601C38.0913 4.93881 38.0675 5.02955 38.1118 5.10145C38.1543 5.17164 38.2462 5.1956 38.316 5.15281L38.3483 5.13397C38.6836 4.93881 41.5647 3.34158 45.2407 3.34329C47.3799 3.34329 49.7862 3.88084 52.1364 5.54655C54.4849 7.21227 56.7824 10.0113 58.6799 14.5513C58.7123 14.6284 58.7991 14.6643 58.8739 14.6318C58.9488 14.601 58.9863 14.512 58.9522 14.4366C57.0394 9.85892 54.7096 7.00683 52.3066 5.30346C49.9037 3.59837 47.4275 3.04541 45.239 3.04541C41.2261 3.04712 38.1747 4.89259 38.1611 4.89773V4.89601Z" fill="#FEDBA2"/>
<path id="Vector_43" d="M38.1041 6.42203C38.1262 6.50078 38.2096 6.547 38.2896 6.52475C38.2896 6.52475 38.3202 6.51448 38.3815 6.49907C38.698 6.41519 39.8076 6.14299 41.346 6.00603C41.894 5.9581 42.4948 5.92557 43.1347 5.92557C44.457 5.92557 45.9444 6.06253 47.4471 6.4597C48.7388 6.80208 50.0406 7.3345 51.2677 8.14424C53.9208 9.89898 56.2233 12.9308 57.2598 18.1111C57.2751 18.1933 57.3534 18.2464 57.435 18.2293C57.5167 18.2121 57.5678 18.1334 57.5525 18.0529C56.5076 12.811 54.1539 9.68841 51.4327 7.89259C50.9766 7.593 50.512 7.33278 50.0406 7.10167C47.6972 5.95467 45.216 5.62256 43.1364 5.62256C41.0567 5.62256 39.3039 5.96666 38.584 6.13785C38.344 6.19435 38.213 6.23201 38.2096 6.23372C38.1296 6.25769 38.0854 6.33986 38.1075 6.42032L38.1041 6.42203Z" fill="#FEDBA2"/>
<path id="Vector_44" d="M15.6812 26.6879C15.6233 26.628 15.5297 26.6263 15.4702 26.6862C15.4702 26.6862 15.4498 26.705 15.4072 26.7461C14.769 27.3573 9.35895 32.3065 2.58231 33.0323C2.50062 33.0409 2.44276 33.1145 2.45127 33.1967C2.45978 33.2789 2.53296 33.3388 2.61464 33.3302C9.97501 32.5342 15.6676 26.907 15.6795 26.8985C15.7374 26.8403 15.7391 26.7461 15.6812 26.6879Z" fill="#FEDBA2"/>
<path id="Vector_45" d="M13.5019 34.9042C15.6053 32.5725 16.8272 30.5268 16.8306 30.5199C16.8732 30.448 16.8494 30.3573 16.7796 30.3145C16.7098 30.2734 16.6179 30.2957 16.5754 30.3659C16.5754 30.3659 16.5566 30.3984 16.5209 30.4566C16.2435 30.9034 14.9348 32.9475 12.8824 35.1404C10.83 37.3317 8.03224 39.6668 4.79028 40.7077C4.712 40.7333 4.66775 40.8155 4.69328 40.8943C4.7188 40.973 4.80219 41.0175 4.88048 40.9918C8.41856 39.8551 11.4018 37.2341 13.5036 34.9042H13.5019Z" fill="#FEDBA2"/>
<path id="Vector_46" d="M15.4756 42.9658C15.5369 43.024 15.6305 43.0206 15.6849 42.9589C19.2689 39.1036 22.0072 33.9011 22.0089 33.8959C22.048 33.8223 22.0208 33.7316 21.9476 33.6939C21.8744 33.6545 21.7859 33.6836 21.7468 33.7555C21.7468 33.7555 21.7042 33.836 21.6226 33.9849C21.0541 35.0258 18.5712 39.4169 15.4671 42.7552C15.4109 42.8134 15.4143 42.9093 15.4739 42.9658H15.4756Z" fill="#FEDBA2"/>
<path id="Vector_47" d="M19.4339 48.8091C19.4917 48.8656 19.587 48.8639 19.6432 48.804C23.7088 44.5395 25.5553 39.4174 25.5604 39.4072C25.5876 39.3284 25.5485 39.2428 25.4719 39.2154C25.3936 39.1863 25.3085 39.2274 25.2813 39.3062C25.2813 39.3062 25.2745 39.325 25.2609 39.3609C25.0482 39.9276 23.1949 44.6508 19.4305 48.5968C19.3726 48.6568 19.376 48.7509 19.4356 48.8074L19.4339 48.8091Z" fill="#FEDBA2"/>
<path id="Vector_48" d="M22.8062 51.1532C22.8522 51.2216 22.9424 51.2422 23.0122 51.196C29.263 47.0205 30.7912 41.8128 30.7963 41.7923C30.8201 41.7153 30.7759 41.6297 30.6959 41.6057C30.6176 41.5834 30.5342 41.6297 30.5121 41.7084C30.5121 41.7084 30.507 41.7255 30.4951 41.7632C30.313 42.3264 28.635 47.0805 22.8488 50.946C22.7807 50.9905 22.7603 51.083 22.808 51.1532H22.8062Z" fill="#FEDBA2"/>
</g>
<path id="Vector_49" opacity="0.43" d="M39.4465 114.01C53.3875 114.01 64.689 112.665 64.689 111.005C64.689 109.345 53.3875 108 39.4465 108C25.5055 108 14.2041 109.345 14.2041 111.005C14.2041 112.665 25.5055 114.01 39.4465 114.01Z" fill="#1D98F1" fill-opacity="0.08"/>
</g>
</svg>
