<svg width="15" height="15" viewBox="0 0 15 15" fill="none" xmlns="http://www.w3.org/2000/svg">
<path id="Vector" fill-rule="evenodd" clip-rule="evenodd" d="M2.06838 7.9241C2.2965 8.13717 2.55833 8.32253 2.76335 8.46769C2.78996 8.48659 2.81567 8.50478 2.84021 8.52214C3.07376 8.68872 3.28237 8.84387 3.49048 9.04327C4.33734 9.85437 5.85903 11.5518 6.37378 13.2132C6.53034 13.7185 7.06462 14.0398 7.62666 13.9666C8.18857 13.8934 8.60659 13.448 8.60659 12.9224C8.60659 11.9388 8.147 10.9009 7.49491 9.90359C7.3421 9.66995 7.51985 9.36475 7.81617 9.36475L12.3592 9.36475C12.9879 9.36475 13.4976 8.8926 13.4976 8.31024C13.4976 8.26625 13.4946 8.22297 13.4891 8.1804C13.4362 7.78258 13.1443 7.45334 12.7504 7.31984C12.6888 7.29891 12.6248 7.28286 12.5587 7.27204L12.7504 7.27204C13.1953 7.27204 13.5808 7.03556 13.768 6.69099C13.8453 6.54867 13.8889 6.3878 13.8889 6.21765C13.8889 5.98176 13.8053 5.76407 13.664 5.58845C13.4565 5.33032 13.1246 5.16326 12.7505 5.16326L12.3759 5.16326C12.5139 5.12296 12.6407 5.05911 12.7505 4.9766C13.0027 4.78707 13.1658 4.4997 13.1721 4.17691C13.1722 4.17037 13.1723 4.16371 13.1723 4.15717C13.1723 3.72998 12.898 3.36199 12.5035 3.19638C12.3602 3.13633 12.2013 3.1028 12.0338 3.1028L10.873 3.1028C11.373 2.99247 11.7451 2.57669 11.7466 2.08004L11.7466 2.07707C11.7466 1.4947 11.2369 1.02268 10.6081 1.02268L8.93186 1.02268C7.18837 1.02268 5.3343 1.27426 3.87068 1.90881C2.39124 2.55013 1.11125 3.69333 1.11125 5.47397C1.11125 6.01019 1.18423 6.48115 1.35449 6.90192C1.52978 7.33517 1.78561 7.6599 2.06838 7.9241ZM14.6087 8.3103C14.6087 8.04872 14.5563 7.79821 14.4604 7.56719C14.7972 7.20337 15 6.73134 15 6.21771C15 5.59173 14.6989 5.02744 14.2208 4.64567C14.2618 4.48896 14.2834 4.32537 14.2834 4.15723C14.2834 3.28036 13.6926 2.52465 12.8524 2.2217C12.8559 2.17391 12.8577 2.12576 12.8577 2.07713C12.8577 0.935958 11.8569 -2.74776e-07 10.6081 -3.83953e-07L8.93189 -5.30491e-07C7.09657 -6.9094e-07 5.06284 0.261693 3.39716 0.983622C1.7051 1.71711 1.03642e-06 3.14469 8.32782e-07 5.47409C7.78648e-07 6.09331 0.0839651 6.69253 0.313251 7.25898C0.552355 7.85014 0.904357 8.29386 1.27714 8.642C1.55926 8.9056 1.87172 9.12675 2.07027 9.26728L2.0859 9.27846C2.11276 9.29748 2.13705 9.31461 2.15991 9.3309C2.38442 9.49093 2.53994 9.60876 2.68941 9.75191C3.51289 10.5408 4.86924 12.0864 5.30532 13.4939C5.61276 14.4861 6.66617 15.1248 7.78238 14.9794C8.89756 14.8341 9.71766 13.953 9.71766 12.9226C9.71766 12.0482 9.438 11.1871 9.03486 10.3876L12.3593 10.3876C13.6081 10.3876 14.6087 9.45146 14.6087 8.3103Z" fill="#FEFEFE"/>
</svg>
