<svg width="200" height="200" viewBox="0 0 200 200" fill="none" xmlns="http://www.w3.org/2000/svg">
<path d="M150.137 63.8889C148.054 86.2092 146.423 108.565 145.278 130.921C144.757 141.092 145.347 151.828 143.994 161.894C142.848 170.334 143.994 178.881 142.744 187.392C141.668 194.774 138.892 194.244 132.401 194.244H64.1309C63.8532 194.103 63.4714 193.961 63.2979 194.244C59.4106 151.687 55.3498 109.165 51.0807 66.6436C50.9072 64.9131 49.7271 63.8536 48.8941 62.335C47.6099 60.004 47.5752 57.2493 47.5752 54.5652C47.5752 48.9498 47.7834 43.2285 49.4494 37.8603C51.636 30.7969 54.8291 24.122 58.3693 17.659C61.1807 12.538 63.6796 5.43929 69.2676 2.93179C72.2525 1.58974 75.5498 1.23657 78.7776 0.954035C89.1205 0.0357936 99.5676 -0.211425 109.945 0.177062C118.553 0.494914 127.855 1.55442 134.241 7.41704C140.245 12.9265 142.397 21.4379 146.701 28.36C148.575 31.362 150.901 34.152 152.081 37.5071C153.573 41.9217 152.809 46.6189 152.393 51.1395C152.011 55.3775 153.365 60.4985 150.137 63.8183V63.8889Z" fill="#2DB473"/>
<path d="M158.984 53.506C158.984 53.506 158.949 53.5767 158.914 53.612C156.693 57.1084 150.029 56.0489 146.628 56.0489H127.573C115.113 56.0489 102.618 56.0489 90.1578 56.0489C81.0644 56.0489 71.9709 55.7663 62.8774 55.7663C59.3372 55.7663 55.6235 55.7663 52.0833 56.0136C49.272 56.2255 46.0094 57.1437 43.4757 55.3072C40.4561 53.1176 41.0809 47.2903 41.1156 44.0411C41.1156 42.6284 41.185 41.2157 41.775 39.9443C43.5451 36.0948 49.272 37.3309 52.6039 37.2956C57.3242 37.2249 62.0445 37.119 66.7994 37.013C76.0317 36.7658 85.2987 36.5186 94.531 36.5186H131.113C136.18 36.5186 141.283 36.0595 146.35 36.0241C149.578 35.9888 155.964 35.1765 158.151 38.4257C158.949 39.6265 159.192 41.1098 159.331 42.5578C159.608 45.1006 159.712 47.6787 159.643 50.2569C159.643 51.387 159.539 52.5525 159.018 53.506H158.984Z" fill="#248F5B"/>
<path d="M84.4301 13.6685H116.812C120.596 13.6685 121.533 20.3787 119.485 23.5926C119.034 24.2989 118.444 24.9346 117.68 25.2525C117.16 25.4997 116.57 25.5703 116.014 25.641C107.129 26.8417 98.2091 27.654 89.2545 28.0425C86.3737 28.1838 83.1112 28.1485 81.0634 26.1001C79.3975 24.4402 78.9462 21.7208 79.7792 19.5311C80.6122 17.3415 82.1741 14.2689 84.4301 13.6332V13.6685Z" fill="white"/>
<path d="M55.1693 162.067C54.4058 162.243 53.6075 162.526 53.0522 163.126C52.0456 164.186 52.1151 165.846 52.2192 167.329C52.8092 174.322 53.3993 181.35 53.9893 188.342C54.267 191.768 54.6487 195.406 56.8006 198.019C57.9113 199.361 59.6814 200.386 61.3473 199.856C63.3951 199.22 64.1587 196.748 64.5405 194.594C65.7899 187.46 66.0676 180.22 66.3106 172.98C66.38 170.825 66.4494 168.636 65.7899 166.622C64.3669 162.279 59.1608 161.148 55.1693 162.067Z" fill="#273425"/>
<path d="M151.279 162.067C152.042 162.243 152.841 162.526 153.396 163.126C154.402 164.186 154.333 165.846 154.229 167.329C153.639 174.322 153.049 181.35 152.459 188.342C152.181 191.768 151.799 195.406 149.647 198.019C148.537 199.361 146.767 200.386 145.101 199.856C143.053 199.22 142.289 196.748 141.908 194.594C140.658 187.46 140.38 180.22 140.137 172.98C140.068 170.825 139.999 168.636 140.658 166.622C142.081 162.279 147.287 161.148 151.279 162.067Z" fill="#273425"/>
</svg>
