<?xml version="1.0" encoding="UTF-8"?>
<svg id="Calque_2" data-name="Calque 2" xmlns="http://www.w3.org/2000/svg" viewBox="0 0 234.76 231.32">
  <defs>
    <style>
      .cls-1 {
        fill: none;
        stroke: #2196f3;
        stroke-miterlimit: 10;
        stroke-width: 5px;
      }
    </style>
  </defs>
  <g id="Calque_22" data-name="Calque 22">
    <g>
      <path class="cls-1" d="m218.65,51.27c-1.21.37-2.5-.08-3.24-1.1-5.78-7.93-12.47-15.13-19.93-21.36-9.81-8.03-20.8-14.5-32.51-18.97-11.74-4.39-24.1-6.85-36.44-7.29-12.32-.4-24.62,1.27-36.3,4.78-11.64,3.61-22.64,9.03-32.36,16.11-9.7,7.08-18.24,15.62-25.03,25.33-12.76,17.86-19.49,39.51-19.58,60.85-.01,2.82,2.24,5.13,5.06,5.13h0c2.62,0,4.77-2,5.03-4.6,1.89-19.24,9.68-37.53,21.98-51.71,6.55-7.72,14.42-14.18,22.96-19.26,8.56-5.08,17.91-8.6,27.46-10.6,9.58-1.9,19.4-2.29,28.95-1.07,9.54,1.26,18.75,4.05,27.23,8.17,8.45,4.2,16.11,9.78,22.7,16.3,2.09,2.12,4.05,4.34,5.89,6.65,1.29,1.62.51,4.04-1.47,4.64l-3.55,1.08c-3.73,1.13-4.83,5.87-1.99,8.53l38.29,35.89c2.84,2.66,7.5,1.25,8.38-2.54l11.94-51.1c.89-3.79-2.66-7.12-6.39-5.99l-7.08,2.15Z"/>
      <path class="cls-1" d="m16.11,180.05c1.21-.37,2.5.08,3.24,1.1,5.78,7.93,12.47,15.13,19.93,21.36,9.81,8.03,20.8,14.5,32.51,18.97,11.74,4.39,24.1,6.85,36.44,7.29,12.32.4,24.62-1.27,36.3-4.78,11.64-3.61,22.64-9.03,32.36-16.11,9.7-7.08,18.24-15.62,25.03-25.33,12.76-17.86,19.49-39.51,19.58-60.85.01-2.82-2.24-5.13-5.06-5.13h0c-2.62,0-4.77,2-5.03,4.6-1.89,19.24-9.68,37.53-21.98,51.71-6.55,7.72-14.42,14.18-22.96,19.26-8.56,5.08-17.91,8.6-27.46,10.6-9.58,1.9-19.4,2.29-28.95,1.07-9.54-1.26-18.75-4.05-27.23-8.17-8.45-4.2-16.11-9.78-22.7-16.3-2.09-2.12-4.05-4.34-5.89-6.65-1.29-1.62-.51-4.04,1.47-4.64l3.55-1.08c3.73-1.13,4.83-5.87,1.99-8.53l-38.29-35.89c-2.84-2.66-7.5-1.25-8.38,2.54l-11.94,51.1c-.89,3.79,2.66,7.12,6.39,5.99l7.08-2.15Z"/>
    </g>
  </g>
</svg>