<?xml version="1.0" encoding="UTF-8"?>
<svg id="Calque_2" data-name="Calque 2" xmlns="http://www.w3.org/2000/svg" viewBox="0 0 182 186.81">
  <defs>
    <style>
      .cls-1 {
        fill: #2196f3;
        stroke-width: 0px;
      }
    </style>
  </defs>
  <g id="Calque_22" data-name="Calque 22">
    <g>
      <path class="cls-1" d="m179.86,43.12h0c-1.94-2.06-4.75-2.91-7.52-2.27l-6.68,1.57c-8.46-14.3-20.92-26.03-35.31-33.21-9.06-4.57-18.44-7.45-27.88-8.55-9.85-1.19-19.58-.75-28.92,1.3-9.53,2.12-18.51,5.8-26.69,10.92-8.15,5.15-15.32,11.58-21.32,19.13-5.92,7.48-10.49,15.91-13.6,25.04-2.73,8.01-4.19,16.56-4.35,25.42-.04,2.14.77,4.15,2.26,5.67,1.49,1.51,3.48,2.35,5.6,2.35,4.18,0,7.62-3.26,7.84-7.42.38-7.21,1.8-14.08,4.22-20.43,2.75-7.22,6.63-13.8,11.53-19.56,4.94-5.79,10.78-10.67,17.32-14.48,6.49-3.75,13.56-6.36,21.01-7.74,7.22-1.32,14.72-1.38,22.32-.19,7.04,1.08,14.05,3.51,20.83,7.23,8.55,4.65,16.21,11.64,21.95,19.98l-2.57.6c-2.76.65-4.91,2.66-5.73,5.38-.82,2.72-.15,5.58,1.8,7.65l22.81,24.27c1.95,2.07,4.76,2.92,7.52,2.27,2.77-.65,4.91-2.66,5.72-5.38l9.62-31.9c.82-2.72.15-5.58-1.8-7.65Z"/>
      <path class="cls-1" d="m172.15,98.67c-1.49-1.51-3.48-2.35-5.6-2.35-4.18,0-7.62,3.26-7.84,7.42-.38,7.21-1.8,14.08-4.22,20.43-2.75,7.22-6.63,13.8-11.53,19.56-4.94,5.79-10.78,10.67-17.32,14.48-6.49,3.75-13.57,6.36-21.01,7.74-7.21,1.32-14.72,1.38-22.32.19-7.04-1.08-14.05-3.51-20.83-7.23-8.55-4.65-16.21-11.64-21.95-19.98l2.56-.6c2.77-.65,4.91-2.66,5.73-5.38.82-2.72.15-5.58-1.8-7.65l-22.81-24.27c-1.94-2.07-4.75-2.92-7.52-2.27-2.77.65-4.91,2.66-5.73,5.38L.34,136.04c-.82,2.72-.15,5.58,1.8,7.65,1.94,2.06,4.75,2.92,7.52,2.27l6.68-1.57c8.46,14.3,20.92,26.03,35.31,33.21,9.06,4.57,18.44,7.45,27.87,8.55,3.59.43,7.21.65,10.76.65,6.15,0,12.26-.65,18.16-1.95,9.54-2.12,18.51-5.8,26.69-10.92,8.15-5.15,15.32-11.58,21.32-19.13,5.92-7.48,10.5-15.91,13.6-25.04,2.73-8.01,4.19-16.56,4.35-25.42.04-2.14-.76-4.15-2.26-5.67h0Z"/>
    </g>
  </g>
</svg>