<svg width="61" height="115" viewBox="0 0 61 115" fill="none" xmlns="http://www.w3.org/2000/svg">
<g id="Group">
<g id="Group_2">
<path id="Vector" d="M53.7416 27.9481C54.4062 25.8801 53.2405 19.6345 50.4978 19.5947C49.3752 19.5791 48.5057 19.9775 47.8342 20.5403C48.1407 21.0669 48.4024 21.9104 48.5883 22.8387C49.098 22.449 49.6868 22.1702 50.3153 22.2117C52.2109 22.3347 52.9203 26.7669 51.4654 28.078C50.5856 28.873 49.401 28.9163 48.5694 28.7743C48.7433 29.5207 48.8914 30.2655 49.0068 30.9964C51.6531 31.0293 53.1407 29.8152 53.7399 27.9464L53.7416 27.9481Z" fill="#AD6F53"/>
<path id="Vector_2" d="M51.4654 28.0742C52.9203 26.7631 52.2109 22.3309 50.3153 22.2079C49.6851 22.1681 49.098 22.4452 48.5884 22.8349C49.0033 24.8942 49.0343 27.3641 48.2939 27.6568C48.3921 28.0274 48.4851 28.3981 48.5694 28.7704C49.4011 28.9125 50.5856 28.8674 51.4654 28.0742Z" fill="#9F5F44"/>
<path id="Vector_3" d="M8.29126 36.6477C6.4507 35.9913 5.43313 31.6215 7.14111 30.7832C7.78677 30.468 8.54263 30.5511 9.23133 30.7763C9.11425 29.55 9.14524 28.4104 9.14524 28.4104C8.23615 28.0415 7.15834 27.9254 5.9841 28.4312C3.46345 29.5171 4.74444 35.7384 6.14078 37.3977C7.45965 38.9669 9.40523 39.5038 12.0068 38.2568C11.8346 37.512 11.6883 36.7413 11.566 35.9549C10.9014 36.4676 9.59979 37.1136 8.29126 36.6477Z" fill="#AD6F53"/>
<path id="Vector_4" d="M9.96306 33.4599C9.53606 32.9368 9.32945 31.8232 9.22959 30.777C8.54089 30.5519 7.78503 30.467 7.13937 30.784C5.43311 31.6223 6.45068 35.9921 8.28952 36.6485C9.59633 37.1161 10.8997 36.4701 11.5643 35.9557C11.4765 35.3928 11.4007 34.8195 11.337 34.2462C11.034 34.4471 10.5622 34.196 9.96306 33.4599Z" fill="#9F5F44"/>
<path id="Vector_5" d="M32.5934 31.5947C32.5934 31.5947 32.5796 31.4959 32.4763 31.3539C32.4212 31.2898 32.3489 31.2084 32.2474 31.1409C32.1492 31.0699 32.0252 31.011 31.8858 30.959C31.7446 30.9088 31.5862 30.8707 31.414 30.8482C31.2453 30.8257 31.0628 30.8083 30.8734 30.8101C30.684 30.8031 30.4912 30.8222 30.2932 30.8326C30.0969 30.8534 29.8954 30.8776 29.6991 30.9088C29.3049 30.9833 28.9192 31.1045 28.5817 31.2725C28.246 31.4388 27.9602 31.657 27.7777 31.8943C27.7346 31.9567 27.6881 32.0121 27.6554 32.071C27.6244 32.1333 27.5969 32.1887 27.5693 32.2442C27.5246 32.3585 27.5022 32.4624 27.4798 32.5473C27.4643 32.7222 27.4557 32.8227 27.4557 32.8227L27.4385 32.8382C27.633 33.6835 29.8025 33.4548 30.2467 33.3665L30.2622 33.363L30.2759 33.3596C30.6633 33.2851 32.8396 32.6495 32.6726 31.7817C32.6623 31.7194 32.6399 31.6657 32.6193 31.612L32.6141 31.6155L32.5951 31.5981L32.5934 31.5947Z" fill="#945338"/>
<path id="Vector_6" d="M35.5384 32.7673C35.4334 32.6252 35.2372 32.5975 35.0977 32.7032C32.7578 34.4629 30.0874 34.8612 28.1556 34.8612C27.3722 34.8612 26.711 34.7972 26.2479 34.7313C26.0172 34.6984 25.8363 34.6638 25.7124 34.6395C25.6504 34.6274 25.6039 34.6188 25.5729 34.6118L25.5385 34.6049L25.5299 34.6014C25.3612 34.5599 25.1907 34.6638 25.1494 34.8335C25.1081 35.005 25.2131 35.1765 25.3801 35.2163C25.399 35.2198 26.5165 35.4934 28.1556 35.4934C30.17 35.4934 32.9816 35.0812 35.473 33.2106C35.6125 33.105 35.6417 32.9075 35.5367 32.7673H35.5384Z" fill="#9A5D41"/>
<path id="Vector_7" d="M27.4113 32.8254L27.4302 32.8427L27.4371 32.8375L27.4543 32.8219C27.4543 32.8219 27.4629 32.7215 27.4784 32.5466C27.5008 32.4617 27.5232 32.3578 27.568 32.2435C27.5938 32.1898 27.6231 32.1326 27.654 32.0703C27.6868 32.0114 27.7333 31.9559 27.7763 31.8936C27.9588 31.658 28.2429 31.4398 28.5804 31.2718C28.9178 31.1055 29.3052 30.9826 29.6978 30.9081C29.8941 30.8769 30.0972 30.8527 30.2918 30.8319C30.4898 30.8198 30.6843 30.8024 30.872 30.8094C31.0614 30.8076 31.2422 30.825 31.4127 30.8475C31.5848 30.8717 31.7415 30.9098 31.8844 30.9583C32.0239 31.0085 32.1496 31.0674 32.246 31.1402C32.3476 31.2077 32.4181 31.2891 32.475 31.3532C32.5783 31.4952 32.5921 31.5922 32.5921 31.594L32.611 31.6113L32.6162 31.6078L32.6351 31.5922V31.5836C32.6351 31.5836 32.6403 31.5559 32.6351 31.5039C32.6299 31.4519 32.6144 31.3723 32.5731 31.2787C32.5266 31.1904 32.4646 31.0778 32.3596 30.9826C32.2598 30.8769 32.1289 30.7834 31.9757 30.7037C31.8241 30.624 31.652 30.5548 31.466 30.5115C31.2818 30.4664 31.0821 30.4214 30.8806 30.4162C30.6757 30.3989 30.4691 30.392 30.2591 30.4023C30.0438 30.4179 29.8493 30.4353 29.6186 30.4664C29.3947 30.5132 29.1881 30.5721 28.985 30.6466C28.7784 30.7124 28.5872 30.8163 28.4047 30.9185C28.0432 31.1298 27.7367 31.419 27.5628 31.7256C27.5232 31.8053 27.4784 31.8745 27.4526 31.9507C27.4302 32.0287 27.4096 32.0997 27.3889 32.169C27.3596 32.3058 27.3614 32.4305 27.3579 32.524C27.3855 32.7198 27.4096 32.8202 27.4096 32.8202V32.8237L27.4113 32.8254Z" fill="#945338"/>
<path id="Vector_8" d="M15.6153 61.4388C16.4521 61.4197 17.3956 61.4422 18.3632 61.489C18.0671 60.4498 17.907 59.4643 17.9793 58.7144C15.5206 59.5769 12.3819 60.9954 11.0286 62.9456C11.5571 62.3845 12.8295 61.4977 15.6153 61.4388Z" fill="#A3634A"/>
<path id="Vector_9" d="M50.9844 51.5692C51.711 50.9266 52.4341 50.3152 53.0987 49.8025C55.2888 48.1138 56.8212 47.9926 57.5925 48.0931C55.325 47.4349 52.0106 48.294 49.5623 49.1634C50.0857 49.7055 50.5712 50.5733 50.9844 51.5692Z" fill="#A3634A"/>
<g id="Group_3">
<path id="Vector_10" d="M28.3916 52.9882C28.4398 52.9397 28.4932 52.8912 28.5483 52.8462C28.4915 52.8912 28.4398 52.9397 28.3916 52.9882Z" fill="#FDE06C"/>
<path id="Vector_11" d="M28.314 53.065C28.314 53.065 28.314 53.0684 28.314 53.0702C28.3261 53.0562 28.3365 53.0423 28.3504 53.0283C28.3382 53.0405 28.3244 53.0545 28.314 53.065Z" fill="#FDE06C"/>
<path id="Vector_12" d="M28.3508 53.0279C28.363 53.0157 28.3768 53.0017 28.3924 52.9878C28.3768 53.0017 28.3647 53.0157 28.3508 53.0279Z" fill="#FDE06C"/>
<path id="Vector_13" d="M38.3995 50.5066C38.2393 50.4945 38.0706 50.4876 37.8967 50.4858C38.0723 50.4876 38.2393 50.4962 38.3995 50.5066Z" fill="#FDE06C"/>
<path id="Vector_14" d="M38.3989 50.5073C38.6555 50.5246 38.8948 50.5541 39.11 50.5957C38.8948 50.5558 38.6555 50.5246 38.3989 50.5073Z" fill="#FDE06C"/>
<path id="Vector_15" d="M29.2556 52.3825C29.3813 52.315 29.5104 52.2491 29.6499 52.1851C29.5104 52.2491 29.3796 52.315 29.2556 52.3825Z" fill="#FDE06C"/>
<path id="Vector_16" d="M24.3558 69.3433C24.3093 70.1053 24.2904 70.8761 24.2973 71.6503C24.2904 70.8761 24.3111 70.1036 24.3558 69.3433Z" fill="#FDE06C"/>
<path id="Vector_17" d="M24.552 75.2988C24.5641 75.3958 24.5778 75.4928 24.5916 75.5881C24.5916 75.5794 24.5916 75.5742 24.5916 75.5638C24.5778 75.4755 24.5641 75.3872 24.5537 75.2988H24.552Z" fill="#FDE06C"/>
<path id="Vector_18" d="M28.9045 64.3019C28.8304 64.411 28.7203 64.5184 28.5481 64.5946C28.357 64.6777 28.1762 64.7176 28.0264 64.7366C27.7957 64.766 27.639 64.7435 27.639 64.7435C27.639 64.7435 26.9176 65.471 26.16 65.1228C25.3869 65.5368 23.6996 66.4166 21.804 67.2705C21.8177 67.2722 21.8315 67.2774 21.8453 67.2774C22.3566 67.2393 23.4035 66.8514 24.6586 66.3093C24.5226 67.2948 24.4193 68.3062 24.3573 69.3333C27.045 68.6336 28.4017 66.6557 28.9975 64.2568C29.0285 64.1287 29.0612 64.0005 29.0904 63.8706C29.0749 63.881 29.0612 63.8914 29.0422 63.9C29.0422 63.9 29.0388 64.1044 28.9045 64.3036V64.3019Z" fill="#FDE06C"/>
<path id="Vector_19" d="M47.1624 59.3086C46.787 60.0568 45.7729 59.9425 45.7729 59.9425C45.7729 59.9425 45.6662 60.0585 45.4647 60.1798C45.3373 60.2594 45.1703 60.3408 44.9689 60.3963C44.7881 60.4482 44.6348 60.4326 44.5109 60.3928C44.2819 60.32 44.1527 60.1642 44.1527 60.1642C43.6362 60.2646 43.2678 59.5303 43.2678 59.5303C43.2006 59.5355 43.1404 59.5337 43.0784 59.5251C43.4124 59.8697 43.7551 60.1884 44.1011 60.4811C45.4355 61.6104 46.8215 62.3569 47.9802 62.8436C47.5257 61.8286 47.0332 60.8552 46.5202 59.9373C48.9065 59.3726 51.193 58.7405 51.8679 58.2763C51.88 58.2676 51.8869 58.2555 51.8972 58.2451C49.8862 58.7699 48.025 59.1423 47.1624 59.3051V59.3086Z" fill="#FDE06C"/>
</g>
<g id="Group_4">
<path id="Vector_20" d="M38.2169 52.8069C38.1204 51.5599 37.9035 50.5172 37.8966 50.4878C38.1067 51.5356 38.0843 52.2163 36.7981 52.774C35.982 53.1256 35.0919 53.4651 34.2414 53.6469C33.3856 53.8028 32.4335 53.8288 31.5468 53.815C30.1694 53.7907 29.8801 53.1897 29.6787 52.1748C29.6683 52.1782 29.6597 52.1834 29.6511 52.1869C29.8354 52.8849 30.0902 53.7699 30.3794 54.603C30.419 54.7139 30.4569 54.823 30.4965 54.9304C30.8598 55.9263 31.2696 56.794 31.6621 57.0798C32.7641 57.8696 36.6191 58.1068 37.7227 56.4892C38.2324 55.7375 38.3064 54.3934 38.241 53.1689C38.2341 53.0459 38.2255 52.9247 38.2169 52.8069Z" fill="#FDE06C"/>
<path id="Vector_21" d="M28.3136 53.0732C28.1811 53.2187 28.0829 53.3659 28.0364 53.5184C27.9417 53.837 27.7575 54.3532 27.5233 55.0252C25.0079 55.1568 20.3574 55.9276 18.4394 57.6041C18.169 57.8397 18.0261 58.2259 17.9797 58.7143C17.9073 59.4643 18.0675 60.4498 18.3636 61.489C18.5496 61.4977 18.7355 61.5081 18.9232 61.5167C19.0334 61.5219 19.1436 61.5306 19.252 61.5358C21.8416 61.6934 24.4483 61.9913 25.6449 62.1368C25.6449 62.1333 26.8708 60.2887 27.4355 59.9995C27.8901 59.7657 28.8078 59.9441 29.3863 60.2506C29.3829 60.0826 29.376 59.9129 29.3708 59.7449C29.2606 57.159 28.7251 54.6563 28.3136 53.0732Z" fill="#FDE06C"/>
<path id="Vector_22" d="M49.5646 49.1652C49.2237 48.8136 48.8725 48.6005 48.5143 48.5867C46.2916 48.4983 42.867 50.2667 40.6752 51.6991C40.4669 51.4549 40.2964 51.2522 40.1776 51.1067C39.9744 50.8556 39.5991 50.6945 39.1118 50.5958C39.1893 51.2886 39.2995 51.9467 39.4373 52.5685C39.5802 53.218 39.7541 53.8312 39.9572 54.4079C40.3877 55.6446 40.9403 56.7201 41.5653 57.6537C41.5688 57.645 41.5722 57.6346 41.5757 57.6259C41.8115 57.0059 42.4521 56.2213 42.9789 56.1105C43.5987 55.9823 45.6993 56.6526 45.7044 56.6543C46.5223 55.8143 48.2957 54.0234 50.1586 52.3139C50.2413 52.2395 50.3256 52.1615 50.41 52.087C50.6011 51.9121 50.794 51.7406 50.9851 51.5692C50.5736 50.5733 50.0863 49.7055 49.5629 49.1634L49.5646 49.1652Z" fill="#FDE06C"/>
</g>
<g id="Group_5">
<path id="Vector_23" d="M26.0363 103.642C24.9017 104.39 23.3435 105.59 24.2009 106.082C25.4854 106.818 29.9447 106.044 30.1306 104.868C30.1771 104.572 30.1875 104.249 30.1771 103.946C29.2043 103.927 26.8782 103.477 26.0363 103.642Z" fill="#27120F"/>
<path id="Vector_24" d="M43.2126 104.122C42.0728 104.134 40.11 104.08 39.3541 103.896C39.3025 104.335 39.2629 104.958 39.349 105.499C39.5366 106.673 43.9943 107.449 45.2804 106.713C46.1964 106.188 44.3472 104.847 43.2126 104.122Z" fill="#27120F"/>
</g>
<g id="Group_6">
<path id="Vector_25" d="M31.4669 101.112C31.1466 100.883 25.4338 100.499 25.4321 100.497C25.4321 100.497 24.9397 100.499 24.9397 101.091C24.9397 101.683 24.9982 103.843 26.0347 103.641C26.8767 103.476 29.2028 103.926 30.1756 103.945C30.4011 103.951 30.5561 103.932 30.5991 103.876C30.835 103.583 32.0953 101.566 31.4669 101.112Z" fill="#F6A451"/>
<path id="Vector_26" d="M44.8859 101.229C44.7637 101.101 44.6036 101.077 44.6036 101.077C44.6036 101.077 39.0974 100.689 38.7531 100.876C38.0713 101.245 38.8547 103.446 39.0509 103.765C39.0819 103.818 39.1938 103.86 39.354 103.9C40.1098 104.082 42.0726 104.135 43.2124 104.125C43.3588 104.125 43.4948 104.121 43.6084 104.118C44.6656 104.087 44.941 102.32 45.0168 101.731C45.0478 101.48 44.9772 101.329 44.8877 101.231L44.8859 101.229Z" fill="#F6A451"/>
</g>
<path id="Union" fill-rule="evenodd" clip-rule="evenodd" d="M49.0075 30.9941C49.4999 34.0978 49.4103 36.9521 48.2516 38.7984V38.8002C46.0292 42.3394 42.883 44.0373 40.5651 45.2881C38.7257 46.2807 37.408 46.9918 37.4872 48.1183C37.5199 48.5686 37.5836 48.9774 37.6559 49.3515C37.7012 49.5869 37.7502 49.8088 37.7964 50.0178C37.8328 50.1824 37.8674 50.3389 37.897 50.4877C38.107 51.5338 38.0864 52.2162 36.7985 52.7739C35.9824 53.1238 35.0922 53.465 34.2417 53.6468C33.386 53.8027 32.4338 53.8304 31.5471 53.8148C30.1697 53.7923 29.8805 53.1896 29.679 52.1746C29.6487 52.0195 29.6201 51.855 29.5899 51.6815C29.5274 51.3223 29.4581 50.9244 29.3536 50.4911C29.2985 50.2608 29.2331 50.0235 29.1522 49.7723C28.7996 48.7015 27.3128 48.5477 25.2376 48.333C22.6206 48.0623 19.0679 47.6948 15.6743 45.2692C13.8922 43.9961 12.7232 41.3531 12.0069 38.2598C11.8347 37.515 11.6884 36.7443 11.5662 35.958C11.4783 35.3951 11.4026 34.8235 11.3389 34.2485C11.5024 34.1394 11.6178 33.8969 11.6746 33.5228C11.7621 32.9429 11.8197 31.704 11.8748 30.5204C11.9206 29.5368 11.9646 28.5915 12.0224 28.0947C12.1498 27.0001 13.6443 21.695 14.667 20.6662C14.667 20.6662 18.5668 21.5356 19.8822 20.2696C19.8822 20.2696 24.7393 21.4577 26.7073 18.8459C26.7073 18.8459 31.418 20.9831 32.6818 17.895C32.6818 17.895 36.4507 18.7662 37.9124 16.6289C37.9124 16.6289 39.7685 18.515 41.814 17.6577C41.814 17.6577 45.3177 21.9392 45.8084 24.0332C46.3009 26.1254 47.222 28.0809 48.2946 27.6582C48.3911 28.0306 48.4841 28.4013 48.5701 28.7719C48.744 29.5184 48.8921 30.2632 49.0075 30.9941ZM27.4158 32.0837C27.4075 32.113 27.3993 32.1417 27.3908 32.1701L27.3925 32.1684C27.368 32.2828 27.3652 32.3888 27.363 32.4751C27.3625 32.492 27.3621 32.5081 27.3615 32.5234C27.3874 32.7191 27.4132 32.8196 27.4132 32.8196V32.8231L27.4321 32.8404L27.439 32.8352C27.6336 33.6804 29.8013 33.4518 30.2472 33.3634L30.2627 33.36L30.2765 33.3565C30.6621 33.282 32.8402 32.6464 32.6732 31.7787C32.6645 31.7262 32.6473 31.6812 32.6297 31.6352C32.6264 31.6265 32.6231 31.6177 32.6198 31.6089L32.6405 31.5933V31.5847C32.6405 31.5847 32.6439 31.557 32.637 31.505C32.6318 31.4513 32.6163 31.3734 32.575 31.2798C32.5285 31.1915 32.4666 31.0789 32.3615 30.9837C32.2617 30.878 32.1308 30.7845 31.9776 30.7048C31.826 30.6269 31.6539 30.5576 31.4679 30.5126C31.2837 30.4675 31.084 30.4242 30.8825 30.4173C30.6776 30.4 30.471 30.3931 30.261 30.4035C30.0458 30.419 29.8512 30.4364 29.6205 30.4675C29.3967 30.5143 29.1918 30.5732 28.9869 30.6477C28.7803 30.7135 28.5891 30.8174 28.4066 30.9196C28.0451 31.1309 27.7386 31.4201 27.5647 31.7267C27.5521 31.7521 27.5391 31.7764 27.5264 31.8002C27.4993 31.8512 27.4733 31.8999 27.4545 31.9519C27.4403 31.9979 27.4279 32.0414 27.4158 32.0837ZM24.242 32.3987C24.1559 32.3379 23.5739 31.9273 22.7696 31.9224L22.7713 31.9241C22.2479 31.919 21.6333 32.1199 21.0961 32.6897C20.9755 32.8161 20.9807 33.017 21.1064 33.1365C21.2321 33.2578 21.4301 33.2543 21.5506 33.1279C21.9845 32.6776 22.396 32.5598 22.7713 32.5563C23.0761 32.5563 23.3584 32.6447 23.5633 32.7382C23.6649 32.7849 23.7458 32.8317 23.8009 32.8646L23.8629 32.9027L23.8767 32.9114V32.9131C24.0162 33.017 24.2124 32.9876 24.3157 32.8473C24.419 32.707 24.3898 32.5096 24.252 32.4056C24.2505 32.4047 24.2471 32.4023 24.242 32.3987ZM21.4025 26.3419C21.647 25.9176 21.2097 25.3582 21.2097 25.3582C19.0851 25.4032 18.2862 27.66 18.2862 27.66C18.9442 27.1303 19.7842 26.914 20.4307 26.7476C20.9193 26.6219 21.2973 26.5246 21.4025 26.3419ZM15.0455 42.3771C16.1627 44.0688 18.2201 45.0076 20.3247 44.5902C23.1105 44.036 24.9235 41.3168 24.3743 38.5144C24.2013 37.6348 23.8159 36.8513 23.2824 36.2076C23.8153 36.8511 24.2002 37.634 24.3731 38.513C24.9224 41.3136 23.1094 44.0346 20.3236 44.5888C18.2208 45.0061 16.1633 44.0679 15.0455 42.3771ZM28.1587 35.4938C30.1714 35.4938 32.9831 35.0816 35.4762 33.211H35.4779C35.6174 33.1054 35.6449 32.9079 35.5416 32.7676C35.4366 32.6256 35.2403 32.5979 35.1008 32.7035C32.761 34.4633 30.0905 34.8616 28.1587 34.8616C27.3753 34.8616 26.7141 34.7958 26.251 34.7317C26.0203 34.6988 25.8378 34.6642 25.7155 34.6399C25.6536 34.6295 25.6071 34.6191 25.5761 34.6122L25.5761 34.6122L25.5416 34.6053L25.533 34.6018C25.3643 34.5602 25.1939 34.6642 25.1525 34.8339C25.1112 35.0054 25.2145 35.1768 25.3832 35.2167C25.3841 35.2168 25.3873 35.2176 25.3927 35.2188C25.5059 35.2447 26.5949 35.4938 28.1587 35.4938ZM39.3605 23.4755C39.3605 23.4755 37.7678 21.6933 35.7861 22.464H35.7878C35.7878 22.464 35.5932 23.1464 35.9806 23.4478C36.1468 23.5769 36.534 23.5224 37.0343 23.4519C37.695 23.3588 38.5531 23.2379 39.3605 23.4755ZM36.4387 30.0293C36.5867 30.1194 36.7796 30.0692 36.8691 29.9202L36.8674 29.9168L36.8684 29.9151C36.8836 29.8919 37.0286 29.6692 37.2754 29.4595C37.5337 29.2413 37.8866 29.0438 38.336 29.0438C38.5581 29.0438 38.8095 29.0923 39.0988 29.2205C39.2589 29.2915 39.4431 29.2188 39.5137 29.0594C39.5843 28.9001 39.512 28.7113 39.3536 28.642C38.9937 28.4827 38.6511 28.4134 38.3377 28.4134C37.6748 28.4134 37.1687 28.7165 36.8398 29.004C36.5228 29.283 36.3562 29.5525 36.3324 29.591C36.3314 29.5926 36.3307 29.5938 36.3302 29.5946C36.2424 29.7453 36.2906 29.9393 36.4387 30.0293ZM42.7192 29.8303C44.9038 30.0601 46.7786 31.6921 47.2272 33.9748C47.7764 36.7772 45.9651 39.4964 43.1776 40.0507C42.5203 40.181 41.8676 40.1791 41.2466 40.0633C41.867 40.1788 42.5191 40.1806 43.1758 40.0503C45.9616 39.4961 47.7746 36.7769 47.2254 33.9745C46.777 31.6938 44.903 30.0612 42.7192 29.8303Z" fill="#B7795A"/>
<g id="Group_7">
<path id="Vector_27" d="M29.7325 60.4872C29.6447 60.4023 29.5259 60.3226 29.3881 60.2499C28.8096 59.9433 27.8936 59.7649 27.4374 59.9987C26.8726 60.2897 25.6485 62.1343 25.6468 62.136C24.4501 61.9905 21.8434 61.6944 19.2539 61.535C19.1454 61.5298 19.0352 61.5194 18.925 61.516C18.7391 61.5056 18.5514 61.4969 18.3654 61.4883C17.3961 61.4415 16.4543 61.4172 15.6175 61.438C12.8317 61.4969 11.5593 62.3837 11.0308 62.9449C10.7811 63.2081 10.695 63.4021 10.695 63.4021C8.93882 66.5491 11.58 68.7609 14.5122 69.3532C16.0049 69.6563 19.111 68.4907 21.8038 67.2731C23.6994 66.4192 25.3851 65.5394 26.1598 65.1254C26.9174 65.4753 27.6388 64.7479 27.6388 64.7479C27.6388 64.7479 27.7955 64.7721 28.0262 64.7409C28.176 64.7219 28.3551 64.6821 28.5479 64.5989C28.7218 64.5227 28.8303 64.4171 28.9043 64.3062C29.0386 64.1053 29.0421 63.9027 29.0421 63.9027C29.061 63.894 29.0748 63.8836 29.0903 63.8732C29.4932 63.5978 29.3382 62.8496 29.3382 62.8496C29.8719 62.5136 29.7497 61.6493 29.7497 61.6493C29.9959 61.509 30.1905 60.9219 29.7308 60.4872H29.7325Z" fill="#B7795A"/>
<path id="Vector_28" d="M58.1628 48.2457C58.1628 48.2457 57.9682 48.1435 57.5946 48.095C56.825 47.9962 55.2909 48.1158 53.1008 49.8062C52.4362 50.3171 51.7131 50.9285 50.9865 51.5728C50.7937 51.746 50.6025 51.9157 50.4114 52.0907C50.3271 52.1652 50.2427 52.2431 50.16 52.3176C48.2971 54.027 46.5254 55.8179 45.7058 56.6579C45.7007 56.6579 43.6002 55.9859 42.9803 56.1141C42.4535 56.2249 41.813 57.0095 41.5771 57.6296C41.5736 57.6383 41.5702 57.6469 41.5667 57.6573C41.5306 57.756 41.5048 57.8548 41.4927 57.9379C41.4032 58.5666 41.9197 58.9026 42.2004 58.8576C42.2004 58.8576 42.555 59.4586 43.0784 59.5331C43.1404 59.54 43.2007 59.5417 43.2679 59.5383C43.2679 59.5383 43.6363 60.2726 44.1528 60.1722C44.1528 60.1722 44.282 60.328 44.511 60.4008C44.6349 60.4406 44.7881 60.4562 44.9689 60.4042C45.1704 60.3488 45.3374 60.2674 45.4648 60.1877C45.6645 60.0665 45.7713 59.9505 45.7713 59.9505C45.7713 59.9505 46.7871 60.063 47.1607 59.3166C48.0216 59.152 49.8845 58.7796 51.8955 58.2548C54.7537 57.5118 57.9028 56.4674 58.8807 55.2949C60.8022 52.9879 61.4875 49.6001 58.161 48.2491L58.1628 48.2457Z" fill="#B7795A"/>
</g>
<path id="Vector_29" d="M38.6384 57.7237C38.6384 58.2035 39.0258 58.5949 39.5045 58.5949C39.9831 58.5949 40.3705 58.2035 40.3705 57.7237C40.3705 57.244 39.9831 56.8525 39.5045 56.8525C39.0258 56.8525 38.6384 57.2422 38.6384 57.7237Z" fill="#C15E1B"/>
<path id="Vector_30" d="M30.167 59.1356C30.167 59.6171 30.5544 60.0068 31.033 60.0068C31.5117 60.0068 31.8991 59.6171 31.8991 59.1356C31.8991 58.6541 31.5117 58.2661 31.033 58.2661C30.5544 58.2661 30.167 58.6558 30.167 59.1356Z" fill="#C15E1B"/>
<path id="Vector_31" d="M32.3198 63.3162C32.3938 63.7994 32.4919 64.2913 32.6297 64.6966C32.6986 64.901 32.7778 65.0811 32.8707 65.2318C32.9672 65.379 33.0791 65.5002 33.2289 65.5626C33.5956 65.7098 34.2619 65.8328 35.0195 65.9246C35.7771 66.0146 36.6156 66.0701 37.2939 66.0701C37.6435 66.0701 37.9499 66.0562 38.1892 66.0216C38.4974 65.9748 38.8263 65.8311 39.1534 65.6197C39.6441 65.3028 40.1366 64.83 40.524 64.293C40.9114 63.7544 41.1972 63.1517 41.2609 62.5576C41.2712 62.4675 41.2746 62.3775 41.2746 62.2891C41.2746 61.5409 40.9699 60.8031 40.672 60.2454C40.3741 59.6894 40.0763 59.3136 40.0728 59.3084L40.0143 59.2339L39.9213 59.2512C39.9213 59.2512 38.2529 59.5578 36.4589 59.9665C35.5618 60.1709 34.6321 60.3978 33.8625 60.6264C33.4785 60.7407 33.1307 60.8568 32.8466 60.9676C32.5625 61.0819 32.3421 61.1893 32.1924 61.3071L32.1304 61.3573L32.1338 61.4387C32.1338 61.4387 32.1734 62.3549 32.3181 63.3197L32.3198 63.3162ZM32.3404 62.3861L32.516 62.3394C32.4902 62.0744 32.4747 61.844 32.4644 61.6812C32.4592 61.6085 32.4558 61.5496 32.4541 61.508C32.566 61.4353 32.7416 61.3487 32.9654 61.2586C33.9158 60.8827 35.6789 60.4532 37.1923 60.1241C37.9499 59.9596 38.6472 59.8176 39.1551 59.7188C39.5029 59.6478 39.756 59.6011 39.8851 59.5768C39.9764 59.7015 40.1658 59.9734 40.3621 60.3285L40.5567 60.28C40.6427 60.2575 40.7271 60.3112 40.7477 60.3943C40.7684 60.4809 40.7185 60.5658 40.6341 60.5866L40.5119 60.6177C40.7529 61.1131 40.963 61.7158 40.9612 62.2857C40.9612 62.3636 40.9578 62.4433 40.9492 62.5212C40.8786 63.2053 40.4379 63.9778 39.8766 64.5875C39.5959 64.8923 39.2877 65.1573 38.9847 65.3513C38.6834 65.547 38.389 65.6717 38.1462 65.7063C37.9344 65.7375 37.6366 65.7514 37.2957 65.7514C36.6328 65.7514 35.8012 65.696 35.0574 65.6076C34.3153 65.5193 33.649 65.3911 33.3477 65.2664C33.2874 65.2422 33.2116 65.1746 33.1359 65.0586C33.005 64.8542 32.8862 64.5182 32.795 64.1337C32.6813 63.6643 32.6039 63.1291 32.5505 62.658L32.4162 62.6909C32.3335 62.7117 32.2475 62.6598 32.2251 62.5766C32.2044 62.4918 32.2544 62.4034 32.3387 62.3844L32.3404 62.3861Z" fill="#C15E1B"/>
<path id="Vector_32" d="M32.417 62.6934L32.5513 62.6605L40.511 60.6202L40.6332 60.5891C40.7176 60.5683 40.7675 60.4817 40.7469 60.3968C40.7262 60.3137 40.6401 60.26 40.5558 60.2825L40.3612 60.331L32.5169 62.3418L32.3413 62.3886C32.2569 62.4076 32.2053 62.496 32.2276 62.5808C32.2483 62.6657 32.3344 62.7177 32.4188 62.6952L32.417 62.6934Z" fill="#C15E1B"/>
<g id="Group_8">
<path id="Vector_33" d="M57.8336 27.3926C60.869 22.8807 57.3945 19.5899 57.3945 19.5899C58.1814 14.4009 53.3811 13.2249 53.3811 13.2249C53.5378 7.60453 46.8763 7.68247 46.8763 7.68247C45.5643 1.19096 38.8237 3.32824 38.8237 3.32824C36.699 -1.58023 30.7194 1.7452 30.7194 1.7452C25.5266 -2.13447 21.477 1.66553 21.477 1.66553C15.3492 -0.00065294 14.1871 4.54064 14.1871 4.54064C7.68915 4.11976 7.26903 8.94683 7.26903 8.94683C1.36857 10.9265 3.09894 15.6756 3.09894 15.6756C-2.09387 19.0807 1.5993 23.5216 1.5993 23.5216C-1.31735 28.2014 2.46878 30.7665 2.46878 30.7665C0.0290464 36.3591 3.49151 38.9484 3.49151 38.9484C2.78387 44.0145 6.26698 45.0451 6.26698 45.0451C6.28592 50.0315 10.0221 49.3993 10.0221 49.3993C11.7542 53.9129 16.8695 51.2993 16.8695 51.2993C18.9942 54.9417 23.7153 51.2993 23.7153 51.2993C25.6867 52.4666 28.178 51.2265 29.3523 50.4922C29.2972 50.2601 29.2318 50.0228 29.1508 49.7734C28.3554 47.3521 21.7576 49.6192 15.6729 45.2702C13.8892 43.9955 12.7218 41.3542 12.0056 38.2608C9.40229 39.5079 7.45671 38.971 6.13957 37.4018C4.74323 35.7425 3.46223 29.5212 5.98289 28.4352C7.15712 27.9295 8.23494 28.0455 9.14403 28.4144C9.14403 28.4144 9.11304 29.5524 9.23011 30.7803C9.3317 31.8282 9.53831 32.9401 9.96358 33.4632C10.5628 34.1993 11.0328 34.4504 11.3375 34.2495C11.5011 34.1421 11.6165 33.8979 11.6733 33.5238C11.8334 32.4638 11.8937 29.1921 12.0211 28.0958C12.1485 27.0011 13.6447 21.696 14.6657 20.6672C14.6657 20.6672 18.5655 21.5367 19.8809 20.2706C19.8809 20.2706 24.738 21.4588 26.7059 18.8469C26.7059 18.8469 31.4167 20.9842 32.6805 17.896C32.6805 17.896 36.4494 18.7672 37.9111 16.63C37.9111 16.63 39.7689 18.5161 41.8127 17.6588C41.8127 17.6588 45.3147 21.942 45.8071 24.0342C46.2995 26.1282 47.2207 28.0819 48.2933 27.6593C49.0337 27.3666 49.0027 24.8968 48.5877 22.8374C48.4018 21.9091 48.1384 21.0656 47.8336 20.5391C48.5034 19.9762 49.3746 19.5778 50.4972 19.5934C53.2382 19.6332 54.4056 25.8788 53.741 27.9468C53.1418 29.8156 51.6542 31.0298 49.0079 30.9968C49.5003 34.0988 49.4107 36.9549 48.252 38.8012C44.2679 45.1507 37.3085 45.575 37.4876 48.1193C37.5203 48.5714 37.5823 48.9784 37.6563 49.3525C41.7317 49.5881 43.5464 47.4213 43.5464 47.4213C48.8184 49.0841 51.1807 43.7807 51.1807 43.7807C57.3188 43.7807 57.0829 37.3689 57.0829 37.3689C61.9606 33.0943 57.837 27.3943 57.837 27.3943L57.8336 27.3926ZM28.624 10.3636C25.5369 10.3671 22.3189 11.0218 19.2284 12.7676C15.5128 14.8668 11.9832 18.5403 9.10098 24.5573C9.10098 24.5573 9.08722 23.6636 9.32654 22.278C10.0428 18.1385 13.0214 9.60672 25.4146 7.3915C25.4146 7.3915 40.4249 4.96497 45.7193 16.0255C45.7193 16.0255 45.3491 15.764 44.6811 15.3517C42.2396 13.8466 35.7917 10.3532 28.6257 10.3636H28.624Z" fill="#491E17"/>
<path id="Vector_34" d="M21.4018 26.3412C21.6445 25.9151 21.2089 25.3574 21.2089 25.3574C19.086 25.4025 18.2854 27.6592 18.2854 27.6592C19.4407 26.7292 21.1573 26.7655 21.4018 26.3412Z" fill="#491E17"/>
<path id="Vector_35" d="M39.3572 23.4749C39.3572 23.4749 37.7646 21.6926 35.7828 22.4634C35.7828 22.4634 35.59 23.1458 35.9757 23.4472C36.3613 23.7485 37.9368 23.0575 39.3555 23.4749H39.3572Z" fill="#491E17"/>
<path id="Vector_36" d="M21.5467 33.1274C21.9806 32.6771 22.3903 32.5593 22.7674 32.5559C23.0722 32.5559 23.3545 32.6459 23.5594 32.7377C23.661 32.7845 23.7436 32.8313 23.797 32.8642L23.859 32.9023L23.8728 32.9109V32.9127C24.0123 33.0149 24.2085 32.9871 24.3118 32.8469C24.4151 32.7066 24.3859 32.5074 24.2481 32.4052C24.2206 32.3879 23.6197 31.9272 22.7657 31.922C22.2423 31.9168 21.6276 32.1177 21.0904 32.6875C20.9699 32.8139 20.9751 33.0149 21.1008 33.1344C21.2265 33.2556 21.4244 33.2521 21.545 33.1257L21.5467 33.1274Z" fill="#491E17"/>
<path id="Vector_37" d="M39.0986 29.2226C39.257 29.2936 39.4429 29.2209 39.5135 29.0616C39.5841 28.9005 39.5118 28.7134 39.3534 28.6442C38.9935 28.4848 38.6492 28.4155 38.3375 28.4155C37.6747 28.4155 37.1685 28.7186 36.8396 29.0061C36.509 29.2971 36.3403 29.5777 36.33 29.5967C36.2404 29.7474 36.2904 29.9414 36.4385 30.0315C36.5865 30.1215 36.7794 30.0713 36.8689 29.9224C36.8758 29.9102 37.0221 29.6799 37.2769 29.4651C37.5352 29.2469 37.8882 29.0494 38.3375 29.0494C38.5596 29.0494 38.811 29.0962 39.1003 29.2261L39.0986 29.2226Z" fill="#491E17"/>
</g>
<g id="Group_9">
<path id="Vector_38" d="M50.3718 72.3237V72.3202C50.3632 71.9825 50.3528 71.8076 50.3528 71.8076L50.3425 71.811C50.3339 71.6933 50.3253 71.5737 50.315 71.4542C50.3098 71.3867 50.3029 71.3174 50.296 71.2481C50.2702 70.9676 50.2392 70.687 50.2031 70.4081C50.1962 70.3648 50.191 70.3215 50.1841 70.2782C50.1497 70.0357 50.1118 69.795 50.0705 69.5542C50.0567 69.478 50.0429 69.4018 50.0309 69.3256C49.9844 69.0658 49.9327 68.806 49.8776 68.548C49.8587 68.4683 49.8398 68.3834 49.8208 68.2985C49.7778 68.1098 49.733 67.9192 49.6848 67.7305C49.6624 67.6335 49.6383 67.5382 49.6125 67.4412C49.5522 67.2126 49.4885 66.984 49.4214 66.7553C49.3869 66.6341 49.3508 66.5146 49.3129 66.3951C49.2716 66.2617 49.2302 66.1266 49.1855 65.995C49.1183 65.7837 49.0477 65.5724 48.9737 65.3645C48.9341 65.252 48.8962 65.1411 48.8566 65.0303C48.8015 64.8761 48.7447 64.7237 48.6862 64.573C48.6586 64.502 48.6311 64.4327 48.6035 64.3617C48.4882 64.0638 48.3694 63.7676 48.2471 63.4801C48.2316 63.4438 48.2161 63.4091 48.2024 63.3728C48.1283 63.1996 48.0543 63.0281 47.9785 62.8584V62.8549C46.8198 62.3699 45.4338 61.6234 44.0994 60.4924C43.7534 60.1997 43.4107 59.8828 43.0767 59.5364C42.5533 59.4619 42.1986 58.8609 42.1986 58.8609C41.9197 58.9059 41.4032 58.5699 41.491 57.9412C41.503 57.8564 41.5288 57.7594 41.565 57.6606C40.94 56.7271 40.3873 55.6515 39.9569 54.4149C39.7554 53.8381 39.5798 53.2267 39.4369 52.5755C39.2992 51.952 39.1872 51.2956 39.1115 50.6028C38.7602 50.5335 38.3488 50.4988 37.8977 50.4937C37.9028 50.5231 38.1198 51.564 38.2179 52.8128C38.2265 52.9323 38.2351 53.0535 38.242 53.1748C38.3075 54.3993 38.2351 55.7451 37.7238 56.495C36.6219 58.1127 32.7651 57.8754 31.6632 57.0856C31.2706 56.8016 30.8608 55.9338 30.4975 54.9362C30.4579 54.8288 30.4201 54.7197 30.3805 54.6089C30.0912 53.7775 29.8364 52.8907 29.6522 52.1927C29.5127 52.2568 29.3819 52.3226 29.2579 52.3902C29.2355 52.4006 29.2148 52.4144 29.1942 52.4266C29.0909 52.482 28.9927 52.5391 28.8998 52.5998C28.8808 52.6119 28.8619 52.6257 28.8412 52.6379C28.7482 52.7002 28.6622 52.7608 28.5847 52.8232C28.5726 52.8318 28.5623 52.8405 28.5503 52.8509C28.4624 52.9219 28.3832 52.9964 28.3144 53.0709C28.7259 54.6556 29.2613 57.1601 29.3715 59.746C29.3784 59.914 29.3836 60.0837 29.387 60.2517C29.5248 60.3244 29.6436 60.4041 29.7314 60.489C30.1911 60.9237 29.9965 61.5091 29.7503 61.6512C29.7503 61.6512 29.8708 62.5154 29.3388 62.8514C29.3388 62.8514 29.492 63.5979 29.0909 63.875C29.0616 64.0049 29.0289 64.1331 28.9979 64.2613C28.4022 66.6583 27.0454 68.638 24.3578 69.3377C24.3578 69.3412 24.3578 69.3429 24.3578 69.3499C24.3113 70.1119 24.2923 70.8827 24.2992 71.6569C24.2992 71.7192 24.2992 71.7833 24.2992 71.8439C24.3027 72.0535 24.3078 72.2631 24.3147 72.4727C24.3182 72.5558 24.3216 72.6389 24.3251 72.7238C24.3337 72.9264 24.3457 73.1325 24.3578 73.3369C24.3629 73.4252 24.3698 73.5136 24.375 73.6002C24.3905 73.8046 24.4077 74.0089 24.4266 74.2133C24.4352 74.2982 24.4421 74.3796 24.4507 74.4662C24.4731 74.6757 24.4972 74.8871 24.5231 75.0966C24.5317 75.1659 24.542 75.2335 24.5523 75.3045C24.5644 75.3928 24.5764 75.4811 24.5902 75.5695C24.5902 75.5799 24.5902 75.585 24.5902 75.5937C25.0706 84.4147 25.0843 95.4094 25.4339 100.502C25.4356 100.502 31.1484 100.888 31.4686 101.116C34.0977 95.0596 36.6821 84.7681 36.6821 84.7681C36.6821 84.7681 37.5361 89.6177 38.7551 100.879C39.0995 100.692 44.6056 101.08 44.6056 101.08C44.6056 101.08 44.7657 101.104 44.888 101.232C50.3855 86.1398 50.4407 74.8178 50.3735 72.3237H50.3718ZM39.504 56.857C39.9827 56.857 40.3701 57.2467 40.3701 57.7282C40.3701 58.2097 39.9827 58.5994 39.504 58.5994C39.0254 58.5994 38.638 58.208 38.638 57.7282C38.638 57.2484 39.0254 56.857 39.504 56.857ZM32.1935 61.3082C32.3433 61.1904 32.5654 61.0831 32.8477 60.9687C33.1318 60.8579 33.4779 60.7419 33.8636 60.6275C34.6332 60.3989 35.563 60.172 36.46 59.9677C38.2541 59.5589 39.9207 59.2523 39.9225 59.2523L40.0154 59.235L40.074 59.3095C40.074 59.3095 40.3753 59.6905 40.6731 60.2465C40.971 60.8042 41.274 61.542 41.2757 62.2903C41.2757 62.3786 41.2723 62.4704 41.262 62.5587C41.1982 63.1528 40.9125 63.7555 40.5251 64.2942C40.1377 64.8311 39.6452 65.3039 39.1545 65.6209C38.8257 65.8322 38.4986 65.9777 38.1904 66.0227C37.9528 66.0573 37.6463 66.0712 37.2951 66.0712C36.615 66.0712 35.7764 66.0158 35.0206 65.9257C34.263 65.8339 33.5967 65.7109 33.23 65.5637C33.0802 65.5014 32.9683 65.3801 32.8719 65.2329C32.7772 65.084 32.6997 64.9021 32.6308 64.6977C32.4931 64.2924 32.3932 63.8006 32.3209 63.3173C32.1763 62.3526 32.1367 61.4399 32.1367 61.4364L32.1332 61.355L32.1952 61.3048L32.1935 61.3082ZM31.0313 58.2686C31.5099 58.2686 31.8973 58.6583 31.8973 59.138C31.8973 59.6178 31.5099 60.0092 31.0313 60.0092C30.5526 60.0092 30.1653 59.6195 30.1653 59.138C30.1653 58.6565 30.5526 58.2686 31.0313 58.2686Z" fill="#F18833"/>
<path id="Vector_39" d="M32.795 64.1366C32.8863 64.5193 33.005 64.8553 33.1359 65.0614C33.2099 65.1775 33.2874 65.2468 33.3477 65.2693C33.649 65.3922 34.3136 65.5221 35.0574 65.6105C35.8012 65.6988 36.6311 65.7542 37.2957 65.7542C37.6349 65.7542 37.9327 65.7386 38.1462 65.7092C38.389 65.6746 38.6834 65.5499 38.9847 65.3541C39.286 65.1602 39.596 64.8952 39.8766 64.5903C40.4379 63.9807 40.8787 63.2082 40.9493 62.5241C40.9579 62.4461 40.9613 62.3665 40.9613 62.2885C40.9613 61.7187 40.753 61.116 40.5119 60.6206L32.5522 62.6609C32.6056 63.132 32.6848 63.6689 32.7967 64.1366H32.795Z" fill="#F18833"/>
<path id="Vector_40" d="M32.5159 62.3436L40.3602 60.3327C40.1639 59.976 39.9745 59.7058 39.8832 59.5811C39.7541 59.6053 39.501 59.6538 39.1532 59.7231C38.6453 59.8218 37.948 59.9638 37.1904 60.1284C35.677 60.4574 33.9156 60.887 32.9635 61.2628C32.7397 61.3529 32.5641 61.4395 32.4521 61.5122C32.4556 61.5538 32.459 61.6127 32.4625 61.6854C32.4728 61.8482 32.49 62.0786 32.5141 62.3436H32.5159Z" fill="#F18833"/>
<path id="Vector_41" d="M44.6794 15.3534C45.3474 15.7656 45.7176 16.0271 45.7176 16.0271C40.4215 4.96663 25.4129 7.39315 25.4129 7.39315C13.0197 9.60837 10.0394 18.1402 9.32483 22.2796C9.0855 23.6635 9.09927 24.5589 9.09927 24.5589C11.9832 18.542 15.5128 14.8684 19.2267 12.7693C22.3172 11.0234 25.5369 10.3687 28.6223 10.3653C35.7882 10.3566 42.2362 13.8483 44.6776 15.3534H44.6794Z" fill="#F18833"/>
</g>
</g>
<path id="Vector_42" opacity="0.43" d="M36.0281 114.009C46.9404 114.009 55.7865 112.789 55.7865 111.284C55.7865 109.779 46.9404 108.559 36.0281 108.559C25.1159 108.559 16.2698 109.779 16.2698 111.284C16.2698 112.789 25.1159 114.009 36.0281 114.009Z" fill="#1D98F1" fill-opacity="0.08"/>
</g>
</svg>
