<svg width="68" height="115" viewBox="0 0 68 115" fill="none" xmlns="http://www.w3.org/2000/svg">
<path d="M42.9351 77.1445H42.9333C43.1636 77.3156 43.4028 77.5027 43.6543 77.7076C43.4045 77.5027 43.1636 77.3138 42.9351 77.1445Z" fill="#3E4C97"/>
<path d="M14.2 72.4365H14.2017C14.2351 72.4241 14.2685 72.4118 14.3036 72.3994C14.2685 72.4118 14.2351 72.4224 14.2 72.4365Z" fill="#3E4C97"/>
<path d="M15.4373 72.0186C15.2602 72.072 15.0724 72.1326 14.8811 72.1967C15.0724 72.1326 15.2584 72.072 15.4373 72.0186Z" fill="#3E4C97"/>
<path d="M14.7405 72.2467C14.7883 72.2306 14.8379 72.2128 14.8822 72.1968C14.8361 72.2128 14.7865 72.2306 14.7405 72.2467Z" fill="#3E4C97"/>
<path d="M49.3651 85.8961C48.4245 82.5104 46.2085 79.9427 44.3025 78.257C44.299 78.2534 44.2937 78.2499 44.2901 78.2463C44.1909 78.159 44.0935 78.0735 43.9961 77.9897C43.9872 77.9826 43.9784 77.9737 43.9713 77.9683C43.8686 77.881 43.7676 77.7973 43.6701 77.7171C43.6666 77.7135 43.6613 77.7118 43.6578 77.7082C43.4062 77.5015 43.1671 77.3162 42.9368 77.1451C42.0387 77.3197 36.6396 78.2303 28.7215 76.7068C21.1489 75.308 16.5185 72.6779 15.4415 72.0186C15.0589 72.1362 14.6426 72.2751 14.2016 72.4391C14.2016 72.4391 14.2016 72.4391 14.2033 72.4391C11.8279 73.33 8.77761 74.9534 6.62716 77.8383C5.60508 79.2086 5.36773 80.6964 5.62458 82.154C5.82475 81.762 6.06743 81.4217 6.33313 81.1294C6.27999 79.1604 7.46502 78.2713 7.46502 78.2713C11.1141 76.8707 15.0359 83.9859 15.6222 87.2859C15.787 88.2143 15.5744 88.9146 15.0997 89.328C15.1298 89.5009 15.1581 89.6737 15.1865 89.8448C17.6788 88.6081 21.861 85.6894 27.1362 86.5001C32.096 87.6103 34.916 91.5108 36.7937 93.6616C36.8646 93.544 36.9336 93.43 37.0027 93.3124C36.7937 92.7778 36.8769 92.1078 37.3216 91.3754C39.0557 88.5155 45.2733 83.3087 48.1695 85.9442C48.1695 85.9442 49.002 87.2877 48.1199 89.1944C48.2846 89.6897 48.382 90.2421 48.3643 90.8515C49.3988 89.467 49.8983 87.7974 49.3705 85.8943L49.3651 85.8961Z" fill="#3E4C97"/>
<path d="M57.6192 29.857C58.4003 29.5398 59.3073 29.3598 60.0725 29.7269C61.828 30.5679 60.8289 35.0512 58.953 35.7426C57.814 36.1614 56.6715 35.7497 55.9346 35.2971C55.8177 36.074 55.676 36.8385 55.5112 37.5762C57.3641 38.3495 58.8698 38.2302 60.046 37.4853C60.0495 37.4497 60.0548 37.4194 60.0637 37.4016C60.1133 37.3036 60.2054 37.2786 60.3152 37.3018C60.6217 37.0737 60.9051 36.8011 61.1619 36.4874C62.5737 34.775 63.8243 28.3922 61.2328 27.3071C59.8405 26.7244 58.5916 26.9863 57.5855 27.512C57.3889 27.9842 57.2666 28.2657 57.2666 28.2657C57.4509 28.8359 57.5642 29.3652 57.6209 29.857H57.6192Z" fill="#E69C6A"/>
<path d="M58.9535 35.7429C60.8294 35.0515 61.8302 30.5682 60.073 29.7271C59.3078 29.3601 58.4008 29.54 57.6197 29.8572C57.8499 31.8619 57.1166 33.2001 56.1459 33.6438C56.0875 34.1997 56.0148 34.7503 55.9333 35.2974C56.6702 35.75 57.8127 36.1616 58.9517 35.7429H58.9535Z" fill="#D88355"/>
<path d="M14.6648 27.3916C13.1644 26.0641 13.8464 21.5202 15.7861 21.3759C16.8436 21.2975 17.8001 22.0958 18.452 22.8388C18.8576 21.7412 19.3483 20.8039 19.3483 20.8039C18.6061 19.7062 17.4157 18.6531 15.5735 18.6977C12.7659 18.7654 11.634 25.1713 12.3336 27.2829C12.9944 29.2786 14.6417 30.5313 17.5875 30.3424C17.7062 29.5673 17.8568 28.7797 18.0375 27.985C17.212 28.2202 15.7312 28.336 14.663 27.3934L14.6648 27.3916Z" fill="#E69C6A"/>
<path d="M18.3512 26.1472C17.6054 25.6929 17.9668 24.1497 18.4504 22.8365C17.7985 22.0934 16.8402 21.2951 15.7844 21.3735C13.843 21.5178 13.1628 26.0599 14.6631 27.3892C15.7313 28.3319 17.2122 28.216 18.0376 27.9808C18.174 27.3839 18.3246 26.7852 18.4876 26.1864C18.4397 26.1864 18.3937 26.1722 18.3512 26.1455V26.1472Z" fill="#D88355"/>
<path d="M39.6815 31.8746C39.6815 31.8746 39.7027 31.7766 39.6602 31.6019C39.6319 31.5164 39.5947 31.4148 39.5238 31.3133C39.4565 31.2081 39.3626 31.103 39.2475 31.0014C39.1306 30.8999 38.9942 30.8037 38.8419 30.7146C38.6895 30.629 38.523 30.5399 38.3423 30.4722C38.1669 30.3956 37.9738 30.3368 37.7808 30.2726C37.5877 30.2174 37.3858 30.1622 37.1874 30.1176C36.7853 30.0356 36.3708 30.0071 35.9881 30.0357C35.6055 30.0659 35.253 30.1639 34.9891 30.319C34.9253 30.36 34.8598 30.3956 34.8067 30.4384C34.7535 30.4865 34.7039 30.5292 34.6578 30.5702C34.5746 30.6593 34.5108 30.752 34.4577 30.8233C34.378 30.9836 34.3319 31.0745 34.3319 31.0745L34.3089 31.0816C34.176 31.9619 36.3229 32.5731 36.7799 32.6568L36.7941 32.6604H36.81C37.2051 32.737 39.5167 32.9651 39.6868 32.0777C39.6974 32.0136 39.6974 31.9548 39.6992 31.8942H39.6921L39.6833 31.8728L39.6815 31.8746Z" fill="#BA6945"/>
<path d="M34.307 31.0837L34.33 31.0765C34.33 31.0765 34.3761 30.9857 34.4558 30.8253C34.5089 30.754 34.5727 30.6613 34.6559 30.5723C34.702 30.5313 34.7516 30.4867 34.8048 30.4404C34.8579 30.3958 34.9252 30.362 34.9872 30.321C35.2511 30.166 35.6036 30.068 35.9862 30.0377C36.3689 30.0074 36.7851 30.0377 37.1855 30.1196C37.3839 30.1642 37.5858 30.2194 37.7789 30.2747C37.972 30.3388 38.165 30.3958 38.3404 30.4742C38.5211 30.5437 38.6876 30.6311 38.84 30.7166C38.9923 30.8057 39.1286 30.9019 39.2456 31.0035C39.3589 31.105 39.4546 31.2102 39.5219 31.3153C39.5928 31.4169 39.63 31.5184 39.6583 31.604C39.7026 31.7786 39.6796 31.8766 39.6796 31.8766L39.6884 31.9016H39.6955L39.7185 31.8926L39.7221 31.8855C39.7221 31.8855 39.7362 31.8606 39.7504 31.8071C39.7664 31.7554 39.7805 31.6753 39.777 31.5701C39.7663 31.4686 39.7486 31.3367 39.6849 31.2066C39.6299 31.0694 39.5414 30.9304 39.4262 30.7968C39.3129 30.6631 39.1747 30.5313 39.0153 30.4172C38.8559 30.3032 38.6858 30.1856 38.4963 30.1C38.3085 30.0074 38.1137 29.9219 37.9082 29.8524C37.6992 29.7846 37.5061 29.7276 37.2758 29.6688C37.0455 29.6261 36.8276 29.6047 36.6045 29.5958C36.383 29.5815 36.1616 29.6082 35.9508 29.635C35.5257 29.6973 35.1271 29.8559 34.8455 30.0822C34.7782 30.1428 34.7073 30.1909 34.6542 30.2533C34.6046 30.3174 34.5567 30.378 34.5124 30.435C34.4327 30.5526 34.3867 30.6703 34.3477 30.7611C34.2981 30.9571 34.2839 31.0623 34.2839 31.0623V31.0658L34.2946 31.089L34.3034 31.0854L34.307 31.0837Z" fill="#BA6945"/>
<path d="M9.31881 79.395C12.6968 80.0312 14.3177 84.8619 15.0953 89.3274C15.57 88.914 15.7843 88.2137 15.6178 87.2853C15.0315 83.9852 11.1097 76.8701 7.46064 78.2707C7.46064 78.2707 6.27384 79.1616 6.32875 81.1288C7.58289 79.7407 9.31881 79.3933 9.31881 79.3933V79.395Z" fill="#2A396D"/>
<path d="M45.881 86.287C45.881 86.287 47.4877 87.3151 48.1147 89.1933C48.9969 87.2866 48.1643 85.9431 48.1643 85.9431C45.2681 83.3076 39.0506 88.5144 37.3164 91.3743C36.8718 92.1067 36.7885 92.7767 36.9976 93.3113C39.3252 89.473 42.5402 85.6562 45.8793 86.287H45.881Z" fill="#2A396D"/>
<path d="M12.8251 97.6189C12.7862 97.6029 12.7242 97.5459 12.6391 97.4585C12.4974 97.6456 9.26644 101.97 10.9245 102.218C12.6161 102.473 16.9347 99.7839 16.8249 98.4119C16.7275 97.1984 15.9711 96.4589 15.7957 96.3021C15.7727 96.2825 15.7585 96.27 15.7585 96.27C15.7585 96.27 13.9925 98.125 12.8269 97.6171L12.8251 97.6189Z" fill="#27120F"/>
<path d="M53.4646 20.9801C52.7365 19.3622 49.3762 19.4049 46.1382 19.6473C46.0655 19.7275 46.0212 19.7756 46.0212 19.7756C45.9592 19.8415 45.8583 19.8451 45.7928 19.7827C45.7609 19.7542 45.7449 19.715 45.7414 19.6758C43.7132 19.8379 41.7752 20.0535 40.6203 19.9591C37.5523 19.7096 28.2278 14.3247 26.2084 14.6027C25.6062 14.6864 24.7878 15.8179 23.8985 17.345C23.9233 17.3771 23.9357 17.3932 23.9357 17.3949C23.9924 17.4644 23.98 17.566 23.911 17.6212C23.8578 17.664 23.787 17.6658 23.7303 17.6355C21.764 21.0799 19.5038 26.2225 18.487 26.1887C18.324 26.7856 18.1734 27.3861 18.037 27.983C17.8564 28.7778 17.7058 29.5654 17.5871 30.3405C17.1 33.5551 17.2134 36.513 18.425 38.4072C22.5683 44.8666 29.6945 45.2319 29.5386 47.8406C29.4766 48.8545 29.2552 49.6617 29.133 50.3264C28.9399 51.3706 28.9895 52.053 30.2897 52.6019C31.1275 52.9547 32.0415 53.2933 32.9148 53.4714C33.7934 53.6247 34.7659 53.6407 35.6746 53.6176C37.1095 53.5801 37.3876 52.9404 37.5824 51.8642C37.7011 51.2102 37.7915 50.3941 38.0891 49.455C38.8809 46.9639 45.6581 49.2216 51.8438 44.708C53.6417 43.3965 54.8055 40.7148 55.5105 37.575C55.6752 36.8373 55.817 36.0729 55.9339 35.296C56.0154 34.7489 56.088 34.1983 56.1464 33.6424C54.9384 34.1965 54.6815 23.6797 53.4628 20.9766L53.4646 20.9801ZM30.6156 31.0533C30.4632 31.1477 30.2666 31.1014 30.1727 30.9517L30.1692 30.9464L30.1533 30.9214C30.1373 30.9 30.1107 30.8644 30.0789 30.8234C30.0115 30.7414 29.9106 30.6292 29.7795 30.5187C29.5156 30.296 29.1507 30.0875 28.6848 30.0875C28.4492 30.0875 28.1817 30.1409 27.8753 30.2835C27.7141 30.3583 27.5228 30.2888 27.4484 30.1267C27.374 29.9645 27.4431 29.7721 27.6042 29.6954C27.9869 29.5155 28.3518 29.4389 28.6848 29.4389C29.3491 29.4389 29.8592 29.7382 30.1958 30.0233C30.5341 30.3102 30.7059 30.5882 30.7183 30.606C30.814 30.7575 30.7679 30.9588 30.6174 31.0533H30.6156ZM31.023 22.6052C30.6315 22.9171 29.0107 22.2275 27.5617 22.6676C27.5617 22.6676 29.1755 20.8269 31.2108 21.5949C31.2108 21.5949 31.4163 22.2934 31.023 22.6035V22.6052ZM38.6399 37.2222C37.276 38.0704 35.1273 37.4735 34.0237 36.5701C31.6005 34.585 33.6748 33.2504 34.4276 33.817C35.765 34.8256 36.7144 35.2318 38.6736 34.7721C39.8781 34.4888 40.3156 36.178 38.6399 37.2222ZM39.7541 31.8088C39.74 31.8622 39.7258 31.8872 39.7258 31.8872L39.7223 31.8943L39.6992 31.9015C39.6974 31.962 39.6974 32.0226 39.6868 32.085C39.5167 32.9724 37.2051 32.7443 36.8101 32.6695H36.7942L36.78 32.6623C36.323 32.5768 34.1761 31.9656 34.3089 31.0871L34.3001 31.0907L34.2876 31.0675V31.064C34.2876 31.064 34.3018 30.9588 34.3514 30.7628C34.3886 30.6737 34.4347 30.5561 34.5162 30.4367C34.5604 30.3797 34.6083 30.3173 34.6579 30.255C34.711 30.1926 34.7819 30.1445 34.8492 30.0839C35.1308 29.8576 35.5294 29.699 35.9545 29.6366C36.1671 29.6099 36.3867 29.5832 36.6082 29.5974C36.8314 29.6064 37.0492 29.6295 37.2795 29.6705C37.5098 29.7293 37.7029 29.7881 37.9119 29.854C38.1174 29.9235 38.3104 30.0091 38.5 30.1017C38.6895 30.1873 38.8614 30.3049 39.019 30.4189C39.1784 30.5329 39.3166 30.6648 39.43 30.7985C39.5451 30.9321 39.6354 31.0711 39.6886 31.2083C39.7506 31.3384 39.7701 31.472 39.7807 31.5718C39.7842 31.6769 39.7701 31.7571 39.7541 31.8088ZM46.163 24.4157C48.3382 24.4406 49.1778 26.7428 49.1778 26.7428C47.9857 25.8038 46.2267 25.859 45.9734 25.4242C45.7201 24.9912 46.1612 24.4157 46.1612 24.4157H46.163ZM43.2774 32.4432C43.2915 32.4342 43.4563 32.3059 43.7291 32.1776C44.0019 32.0493 44.3827 31.9175 44.8309 31.9175C45.3552 31.9139 45.9681 32.1117 46.5137 32.6659C46.6394 32.7924 46.6394 32.9991 46.5137 33.1256C46.3879 33.2521 46.1825 33.2521 46.0567 33.1256C45.6174 32.6873 45.2064 32.5697 44.8309 32.5661C44.5209 32.5661 44.234 32.657 44.0232 32.755C43.8124 32.8512 43.6795 32.951 43.6724 32.9563C43.5307 33.065 43.3288 33.0401 43.2207 32.8993C43.1109 32.7585 43.1357 32.5536 43.2756 32.4449L43.2774 32.4432Z" fill="#F7B385"/>
<path d="M11.0583 46.3746C12.0184 47.9178 13.1893 49.4395 14.6152 50.8811C15.1803 48.9121 17.0332 45.7189 18.9108 44.4537C15.2458 40.8543 11.4391 35.7135 10.1584 29.1561C10.9024 28.3168 12.0839 26.4084 12.0538 26.1108C12.0184 25.7437 11.2372 25.9611 10.913 26.2925C10.5906 26.624 10.1673 27.0302 9.90158 27.0623C9.6341 27.0962 9.44458 23.0869 8.99288 23.0138C8.64569 22.9568 8.36759 23.1047 8.3729 25.4657C8.3729 25.4657 8.25068 25.5798 8.15148 25.3642C8.05406 25.1503 7.48542 22.9229 7.202 22.6218C6.98767 22.3937 6.56961 22.4507 6.61035 23.0031C6.67058 23.8887 7.34016 25.6671 7.14885 25.7295C7.02309 25.7704 6.33227 24.4554 5.71229 23.748C5.6131 23.6339 5.05685 23.6411 5.19325 24.115C5.3757 24.7441 5.83096 25.3873 6.13918 26.0662C6.13918 26.0662 6.22776 26.4191 5.9284 26.3389C5.71937 26.2818 4.46525 25.6208 4.25623 25.9629C4.05783 26.2908 5.05156 26.8396 5.6556 27.2797C5.6556 27.2797 6.27911 28.707 6.79813 29.4305C6.72727 30.4123 6.51118 35.1451 8.36049 40.6298C8.43666 40.8561 8.51635 41.0842 8.60137 41.3122C8.61023 41.339 8.62089 41.3657 8.63152 41.3942C8.70237 41.5884 8.77677 41.7827 8.85648 41.9787C8.87243 42.0232 8.89188 42.0696 8.90959 42.1141C8.98753 42.3119 9.06726 42.5079 9.15052 42.7039C9.16292 42.7306 9.17354 42.7592 9.18594 42.7859C9.38433 43.2474 9.59692 43.7089 9.82897 44.1722C9.84314 44.2007 9.85731 44.231 9.87148 44.2595C9.97599 44.4662 10.0822 44.6711 10.1938 44.8778C10.208 44.9081 10.224 44.9366 10.2399 44.9652C10.4932 45.4356 10.766 45.9078 11.0583 46.3764" fill="#F7B385"/>
<path d="M8.38492 40.7091C8.37614 40.6826 8.36913 40.6578 8.36035 40.6313C8.36913 40.6578 8.3779 40.6826 8.38668 40.7091H8.38492Z" fill="#F7B385"/>
<path d="M11.0565 46.3746H11.0583C10.9502 46.2 10.844 46.0272 10.7412 45.8525C10.8457 46.0272 10.9485 46.2018 11.0565 46.3746Z" fill="#F7B385"/>
<path d="M9.18359 42.7871C9.38199 43.2486 9.59458 43.7101 9.82663 44.1734C9.59458 43.7101 9.38199 43.2468 9.18359 42.7871Z" fill="#F7B385"/>
<path d="M53.7004 56.6594C54.1432 56.328 54.5666 55.9876 54.9757 55.6384C54.997 55.6188 55.0201 55.601 55.0431 55.5814C55.2255 55.4263 55.4027 55.2695 55.578 55.1109C55.5975 55.0931 55.617 55.0753 55.6382 55.0575C56.0226 54.7064 56.3928 54.3501 56.7454 53.9901C56.7613 53.9741 56.7755 53.958 56.7914 53.942C56.9473 53.7834 57.0979 53.623 57.2484 53.4644C57.2768 53.4324 57.3069 53.4021 57.3352 53.37C57.484 53.2114 57.6275 53.0493 57.7692 52.8889C57.7834 52.8729 57.7993 52.8568 57.8135 52.839C57.9747 52.6555 58.1323 52.4719 58.2882 52.2866C58.2882 52.2866 58.2882 52.2866 58.2882 52.2848C61.9851 47.8461 63.4872 43.3557 63.7724 42.4148C64.5182 41.9284 65.6129 40.8272 65.6129 40.8272C66.3338 40.6365 67.4604 40.4868 67.3913 40.1073C67.3205 39.7135 65.9122 39.8721 65.6961 39.8489C65.3897 39.8168 65.6005 39.5175 65.6005 39.5175C66.1301 38.9971 66.7855 38.5641 67.1806 38.0438C67.4799 37.6518 66.9627 37.4415 66.8298 37.5128C65.999 37.9458 64.8813 38.9205 64.7786 38.8368C64.6227 38.7085 65.8856 37.2954 66.2629 36.4918C66.4985 35.9893 66.1301 35.7844 65.8485 35.9198C65.4747 36.098 64.1444 37.9672 63.9743 38.1311C63.8061 38.2968 63.7299 38.1454 63.7299 38.1454C64.5855 35.9483 64.3782 35.7077 64.0364 35.6347C63.5882 35.5384 61.9692 39.2074 61.7318 39.0791C61.4962 38.9508 61.2482 38.418 61.0675 37.9904C60.9382 37.6892 60.5786 37.3596 60.32 37.3043C60.2102 37.2812 60.1181 37.3079 60.0685 37.4041C60.0596 37.4219 60.0543 37.4522 60.0508 37.4879C59.9905 37.969 60.3749 39.9522 60.7398 40.9341C57.1882 46.5792 51.7873 49.9844 47.0754 52.0051C48.3703 53.8672 48.9477 57.5183 48.7653 59.5621C50.6146 58.7389 52.2532 57.7446 53.7039 56.6576" fill="#F7B385"/>
<path d="M56.7441 53.9907C56.3898 54.3507 56.0214 54.707 55.637 55.0581C56.0214 54.707 56.3916 54.3507 56.7441 53.9907Z" fill="#F7B385"/>
<path d="M54.1672 56.2943C54.013 56.4154 53.8572 56.5348 53.6978 56.6542C53.8554 56.5348 54.0113 56.4119 54.1654 56.2925L54.1672 56.2943Z" fill="#F7B385"/>
<path d="M58.2834 52.2842H58.2817C58.266 52.3034 58.2486 52.3244 58.2312 52.3437C58.2486 52.3244 58.266 52.3034 58.2834 52.2842Z" fill="#F7B385"/>
<path d="M15.7579 96.2739C15.7579 96.2739 15.772 96.2864 15.795 96.306C15.7791 95.8605 15.7543 95.2636 15.7083 94.5615C15.772 95.6592 15.7579 96.2739 15.7579 96.2739Z" fill="#F7B385"/>
<path d="M15.096 89.3303C14.3183 84.8631 12.6975 80.0341 9.31948 79.3979C9.31948 79.3979 7.58532 79.7454 6.32942 81.1335C6.06371 81.4258 5.82103 81.7643 5.62087 82.1581C5.43842 82.5109 5.29136 82.9065 5.19394 83.3484C4.82549 85.0163 6.66243 88.6069 8.62866 91.768C11.6719 92.0994 14.2846 90.861 15.2536 90.3193C15.2306 90.1625 15.2058 90.0057 15.181 89.8471C15.1526 89.676 15.1243 89.5031 15.0942 89.3303H15.096Z" fill="#F7B385"/>
<path d="M33.8058 99.6737C33.8058 99.6737 34.0148 99.0999 34.4665 98.1021C34.1725 98.7364 33.9334 99.2799 33.7598 99.6897C33.7881 99.679 33.8041 99.6737 33.8041 99.6737H33.8058Z" fill="#F7B385"/>
<path d="M45.8802 86.287C42.5394 85.6562 39.3261 89.4731 36.9985 93.3113C36.9294 93.4271 36.8603 93.543 36.7895 93.6606C36.6637 93.8762 36.5379 94.0918 36.4175 94.3038C37.126 95.1627 39.1135 97.2689 42.07 98.069C45.0406 95.8363 48.0448 93.1598 48.3017 91.4706C48.3353 91.2586 48.353 91.0518 48.3584 90.8523C48.3778 90.2429 48.2786 89.6887 48.1139 89.1951C47.4868 87.3152 45.8802 86.2888 45.8802 86.2888V86.287Z" fill="#F7B385"/>
<path d="M33.8055 99.6753C33.8055 99.6753 33.7877 99.6824 33.7612 99.6913C33.5415 99.7733 32.5708 100.187 32.0429 101.283C31.446 102.523 34.5034 106.6 36.1738 106.981C37.8088 107.354 36.3509 102.141 36.2872 101.919C36.1756 101.97 36.0976 101.999 36.0569 102.001C34.7868 102.049 33.8072 99.6771 33.8072 99.6771L33.8055 99.6753Z" fill="#27120F"/>
<path d="M15.3317 90.8453C15.3069 90.6743 15.2839 90.5032 15.2555 90.3268C15.2555 90.3232 15.2555 90.3197 15.2555 90.3179C14.2848 90.8596 11.6738 92.0998 8.63062 91.7666C8.64301 91.7879 8.65718 91.8093 8.67135 91.8289C8.76701 91.984 8.86264 92.1354 8.95829 92.2869C9.01144 92.3742 9.06815 92.458 9.12306 92.5435C9.17089 92.6183 9.21868 92.6932 9.26651 92.768C10.7155 95.0132 12.1078 96.9038 12.6392 97.458C12.7242 97.5471 12.788 97.6023 12.8252 97.6184C13.9908 98.1262 15.7569 96.2712 15.7569 96.2712C15.7569 96.2712 15.7693 95.6583 15.7073 94.5588C15.6541 93.6394 15.546 92.3795 15.3335 90.8435L15.3317 90.8453Z" fill="#F4E9D7"/>
<path d="M36.4179 94.3042C36.4179 94.3042 36.4126 94.3113 36.4108 94.3149C36.324 94.4681 36.2408 94.6178 36.1575 94.7675C35.4047 96.1253 34.8485 97.2639 34.4676 98.1032C34.0159 99.1011 33.8069 99.6749 33.8069 99.6749C33.8069 99.6749 34.7882 102.047 36.0565 101.998C36.0973 101.998 36.177 101.968 36.2868 101.917C36.9812 101.594 38.9527 100.343 41.1067 98.7804C41.2059 98.7091 41.3051 98.636 41.4043 98.563C41.4557 98.5255 41.5071 98.4863 41.5602 98.4489C41.7285 98.3242 41.8986 98.1994 42.0668 98.0711C42.0686 98.0711 42.0686 98.0694 42.0686 98.0694C39.1122 97.2711 37.1247 95.1649 36.4161 94.3042H36.4179Z" fill="#F4E9D7"/>
<path d="M47.0699 52.0033C46.4942 51.1711 45.7714 50.6972 44.9123 50.8825C43.4137 51.2068 41.3076 52.1494 39.4175 53.1027C39.143 52.6483 38.4681 52.2296 37.5841 51.8625C37.3875 52.9388 37.1112 53.5767 35.6764 53.6159C34.7694 53.6391 33.7951 53.623 32.9165 53.4698C32.0433 53.2916 31.1293 52.953 30.2914 52.6002C28.9912 52.0532 28.9416 51.3689 29.1347 50.3247C28.5395 50.3532 28.0293 50.4388 27.6449 50.5885C26.0471 48.6604 23.2856 45.494 21.3264 44.195C20.5913 43.7085 19.7499 43.8885 18.9103 44.4533C17.0344 45.7185 15.1816 48.9117 14.6147 50.8807C14.4146 51.5774 14.3738 52.1227 14.5527 52.3739C15.1939 53.272 18.7686 55.9199 21.5372 57.5985C21.4929 57.6715 21.5124 57.7642 21.5815 57.8123C18.9475 61.565 16.1824 66.4866 15.194 71.8609C15.194 71.8609 15.279 71.9161 15.4384 72.0159C16.5154 72.677 21.1458 75.3053 28.7184 76.7041C36.6364 78.2276 42.0356 77.3171 42.9337 77.1425H42.9355C43.0205 77.1264 43.0683 77.1157 43.0683 77.1157C43.9894 72.2369 43.4067 67.1691 42.4643 62.9406C42.5511 62.921 42.606 62.8355 42.5865 62.75C45.1196 62.162 47.6048 61.4171 48.2815 60.9752C48.5383 60.8059 48.696 60.282 48.7615 59.5604C48.944 57.5183 48.3665 53.8672 47.0716 52.0033H47.0699Z" fill="#5A90CC"/>
<path d="M34.021 36.5692C35.1245 37.4745 37.275 38.0714 38.6372 37.2214C40.3129 36.1772 39.8754 34.488 38.6708 34.7713C36.7099 35.231 35.7622 34.8248 34.4249 33.8162C33.672 33.2495 31.5977 34.5842 34.021 36.5692Z" fill="#FCF9F6"/>
<path d="M27.5625 22.6612C29.0115 22.2193 30.6305 22.9088 31.0238 22.5988C31.417 22.287 31.2116 21.5902 31.2116 21.5902C29.1762 20.8222 27.5625 22.6629 27.5625 22.6629V22.6612Z" fill="#491E17"/>
<path d="M46.1639 24.4092C46.1639 24.4092 45.7211 24.9847 45.9761 25.4177C46.2295 25.8507 47.9884 25.7973 49.1806 26.7364C49.1806 26.7364 48.3392 24.4341 46.1657 24.4092H46.1639Z" fill="#491E17"/>
<path d="M30.1941 30.0185C29.8575 29.7334 29.3456 29.4359 28.6831 29.4341C28.35 29.4341 27.9851 29.5107 27.6025 29.6907C27.4413 29.7673 27.3723 29.9597 27.4466 30.1219C27.5228 30.2841 27.7123 30.3535 27.8735 30.2787C28.18 30.1362 28.4475 30.0827 28.6831 30.0827C29.1489 30.0827 29.5156 30.2912 29.7778 30.5139C29.9088 30.6244 30.0098 30.7367 30.0771 30.8186C30.109 30.8596 30.1356 30.8935 30.1515 30.9166L30.1675 30.9416L30.171 30.9469C30.2649 31.0984 30.4615 31.1447 30.6138 31.0485C30.7644 30.9523 30.8105 30.7527 30.7148 30.6012C30.7024 30.5834 30.5306 30.3054 30.1923 30.0185H30.1941Z" fill="#491E17"/>
<path d="M44.83 31.9076C44.3819 31.9076 43.9993 32.0395 43.7283 32.1677C43.4555 32.296 43.2907 32.4243 43.2765 32.4333C43.1366 32.5437 43.1118 32.7469 43.2217 32.8876C43.3297 33.0284 43.5316 33.0551 43.6733 32.9447C43.6733 32.9447 43.8133 32.8395 44.0241 32.7433C44.2366 32.6453 44.5218 32.5544 44.8318 32.5544C45.2074 32.558 45.6183 32.6756 46.0576 33.1139C46.1834 33.2405 46.3889 33.2405 46.5146 33.1139C46.6404 32.9874 46.6404 32.7807 46.5146 32.6542C45.969 32.1 45.3561 31.9022 44.8318 31.9058L44.83 31.9076Z" fill="#491E17"/>
<path d="M60.1065 20.4526C60.6308 18.5887 60.9515 16.8442 60.7265 15.8356C60.7265 15.8356 60.9532 14.5117 57.3255 12.4251C57.3255 12.4251 58.2129 8.73829 55.8038 6.66058C51.7669 3.17873 47.071 0.359756 42.0243 0.104943C33.667 -0.315587 28.9941 0.534383 27.8002 2.53547C26.608 4.53655 26.5336 6.25609 26.5336 6.25609C26.5336 6.25609 21.8979 7.11319 20.0362 9.89653C18.8016 11.7426 19.3472 20.8072 19.3472 20.8072C19.3472 20.8072 18.8565 21.7444 18.4509 22.8421C17.9673 24.1536 17.6059 25.6985 18.3516 26.1529C18.3942 26.1796 18.4402 26.1921 18.488 26.1939C19.5066 26.2277 21.7651 21.0851 23.7313 17.6407C23.788 17.671 23.8589 17.6692 23.912 17.6264C23.9811 17.5712 23.9935 17.4696 23.9368 17.4001C23.9368 17.4001 23.9226 17.3823 23.8996 17.3503C24.7888 15.8232 25.6072 14.6916 26.2095 14.6079C28.2271 14.3299 37.5534 19.7148 40.6214 19.9643C41.7781 20.0588 43.7142 19.8414 45.7425 19.681C45.7442 19.7202 45.7619 19.7594 45.7938 19.7879C45.8594 19.8485 45.9585 19.8449 46.0223 19.7808C46.0223 19.7808 46.0666 19.7327 46.1392 19.6525C49.3773 19.4101 52.7358 19.3656 53.4656 20.9853C54.6843 23.6885 54.9412 34.2053 56.1493 33.6511C57.12 33.2057 57.8515 31.8692 57.623 29.8646C57.5664 29.3728 57.453 28.8436 57.2688 28.2734C57.2688 28.2734 57.391 27.9918 57.5876 27.5196C58.1119 26.2562 59.1819 23.5887 59.9436 21.0299C60.0357 20.923 60.1207 20.8161 60.1969 20.7056C60.2465 20.6325 60.2287 20.531 60.1561 20.4793C60.1402 20.4686 60.1242 20.4632 60.1065 20.4579V20.4526Z" fill="#491E17"/>
<path opacity="0.43" d="M28.7877 114.01C44.4167 114.01 57.0864 112.71 57.0864 111.108C57.0864 109.505 44.4167 108.205 28.7877 108.205C13.1588 108.205 0.489014 109.505 0.489014 111.108C0.489014 112.71 13.1588 114.01 28.7877 114.01Z" fill="#1D98F1" fill-opacity="0.08"/>
</svg>
