<svg width="375" height="191" viewBox="0 0 375 191" fill="none" xmlns="http://www.w3.org/2000/svg">
<g clip-path="url(#clip0_2753_86662)">
<path opacity="0.5" d="M-547 190.598L1071.87 197L1114 132.732C1114 132.732 958.205 -4.86568 781.453 53.6117C630.066 103.745 445.998 11.7856 362.446 8.38699C159.933 0.151247 105.376 126.097 -16.1499 126.097C-137.675 126.097 -187.771 1.17619 -325.447 21.1722C-463.123 41.1681 -547 190.598 -547 190.598Z" fill="#F3F3F3"/>
<path opacity="0.5" d="M-881 188.598L737.872 195L780 130.732C780 130.732 624.205 -6.86568 447.453 51.6117C296.066 101.745 111.998 9.78559 28.4456 6.38699C-174.067 -1.84875 -228.624 124.097 -350.15 124.097C-471.675 124.097 -521.771 -0.823806 -659.447 19.1722C-797.123 39.1681 -881 188.598 -881 188.598Z" fill="#FEFEFE"/>
</g>
<defs>
<clipPath id="clip0_2753_86662">
<rect width="375" height="191" fill="white"/>
</clipPath>
</defs>
</svg>
