<svg width="127" height="129" viewBox="0 0 127 129" fill="none" xmlns="http://www.w3.org/2000/svg">
<path d="M0.665039 6.35179C0.665039 6.35179 6.23568 121.536 6.35071 124.879C6.49039 128.235 122.373 126.379 122.981 126.194C123.581 126.01 126.613 3.38983 126.613 2.45576C126.613 1.5217 12.8991 3.03341 0.665039 6.35179Z" fill="#F7B168"/>
<path d="M0.665039 5.86463C1.76201 34.9423 2.53153 54.658 4.177 89.3652C4.40622 94.0523 4.73367 101.133 5.15118 109.875C5.35584 114.252 5.58506 119.038 5.82246 124.184L5.85521 125.126C5.92889 125.412 5.70785 125.164 6.05987 126.032C6.35458 126.416 6.37914 126.292 6.55924 126.416C7.02586 126.602 7.45155 126.701 7.88543 126.751C8.73681 126.924 9.62094 127.011 10.4969 127.123C12.2733 127.271 14.0907 127.395 15.9326 127.482C30.7664 128.164 48.2525 128.139 64.9691 128.127C81.6775 128.115 97.6409 127.904 109.421 127.73C112.368 127.681 115.053 127.619 117.411 127.606C118.606 127.569 119.703 127.544 120.727 127.507C121.242 127.507 121.742 127.507 122.184 127.482C122.331 127.445 122.388 127.482 122.626 127.42C123.354 126.267 122.896 126.701 123.068 126.317L123.125 125.275C123.395 120.03 123.469 117.079 123.477 117.079C123.543 117.079 124.967 69.9098 126.22 18.0165L126.465 8.233L126.572 3.33507L126.613 2.08268C126.072 0.904698 125.933 1.0039 125.778 1.10309C125.696 1.17749 125.622 1.23949 125.499 1.10309L123.895 1.0287C119.654 0.917097 115.446 0.917097 111.296 0.929497C102.97 0.954297 94.9149 1.0659 87.498 1.17749C72.6807 1.40069 60.5321 1.72309 54.4578 1.89668C32.0762 2.83907 19.3136 2.85147 0.665039 5.86463C19.3382 3.76906 32.0844 4.24026 54.4823 3.37227C60.5484 3.18627 72.7134 2.87627 87.5308 2.65308C94.9313 2.54148 102.995 2.42988 111.304 2.39268C115.446 2.39268 119.679 2.39268 123.895 2.47948L125.458 2.54148C125.483 2.46708 125.614 2.54148 125.737 2.57868C125.958 2.69027 126.162 2.76467 125.704 2.08268L125.679 3.31027L125.557 8.2082L125.327 17.9669C124.058 69.8602 122.65 117.029 122.585 117.029C122.577 117.029 122.503 119.98 122.233 125.164L122.176 126.143C122.347 126.391 121.725 126.255 122.552 126.689C122.429 125.858 122.38 125.957 122.323 126.044C122.29 126.106 122.249 126.143 122.2 126.044C121.742 126.081 121.242 126.081 120.743 126.106C119.728 126.143 118.623 126.143 117.427 126.156C115.062 126.218 112.385 126.255 109.446 126.292C97.6573 126.478 81.7021 126.676 64.9773 126.713C48.2689 126.713 30.7828 126.738 15.99 126.056C14.1398 125.957 12.3388 125.846 10.5788 125.697C9.70281 125.585 8.85142 125.511 8.0246 125.35C7.59891 125.275 7.19777 125.176 6.82939 125.052C6.69022 124.903 6.68203 125.015 6.70659 125.126C6.73115 125.3 6.8212 125.436 6.80483 125.052L6.75571 124.072C6.52649 118.926 6.28909 114.14 6.08443 109.763C5.66692 101.021 5.33947 93.9407 5.11025 89.2412C3.44841 54.5464 2.35143 34.8679 0.665039 5.86463Z" fill="#AB6926"/>
<path d="M5.70264 11.0621C5.70264 11.0621 10.8258 116.927 10.9417 120.008C11.0658 123.088 117.66 121.381 118.231 121.195C118.785 121.047 121.574 8.34032 121.574 7.4743C121.574 6.60828 16.9587 8.00628 5.70264 11.0621Z" fill="#AB6926"/>
<path d="M6.9624 12.2391C6.9624 12.2391 11.9815 115.765 12.0892 118.798C12.1969 121.806 116.489 120.122 117.044 119.949C117.582 119.776 120.315 9.55313 120.315 8.72383C120.315 7.89453 17.978 9.21893 6.9624 12.2391Z" fill="white"/>
</svg>
