<svg width="325" height="400" viewBox="0 0 325 400" fill="none" xmlns="http://www.w3.org/2000/svg">
<path d="M0 17.0673C0 17.0673 14.3747 379.263 14.6715 389.775C15.032 400.325 314.06 394.49 315.629 393.91C317.177 393.33 325 7.75343 325 4.81629C325 1.87914 31.5692 6.63267 0 17.0673Z" fill="#F7B168"/>
<path d="M0 15.5355C2.83068 106.97 4.81638 168.965 9.0624 278.101C9.65388 292.84 10.4989 315.104 11.5762 342.593C12.1043 356.356 12.6958 371.407 13.3084 387.588L13.3929 390.552C13.583 391.448 13.0127 390.669 13.921 393.398C14.6815 394.607 14.7449 394.217 15.2096 394.607C16.4137 395.192 17.5122 395.503 18.6318 395.659C20.8287 396.205 23.1102 396.478 25.3705 396.829C29.9545 397.297 34.6441 397.687 39.3971 397.96C77.6747 400.104 122.797 400.026 165.933 399.987C209.048 399.948 250.24 399.286 280.639 398.74C288.243 398.584 295.172 398.389 301.256 398.35C304.34 398.233 307.171 398.155 309.812 398.038C311.142 398.038 312.431 398.038 313.572 397.96C313.952 397.843 314.1 397.96 314.712 397.765C316.592 394.139 315.409 395.504 315.853 394.295L316.001 391.02C316.698 374.526 316.888 365.246 316.909 365.246C317.078 365.246 320.754 216.924 323.986 53.7468L324.62 22.9828L324.894 7.58133L325 3.64323C323.606 -0.0609233 323.247 0.251005 322.845 0.562934C322.634 0.79688 322.444 0.991835 322.127 0.562934L317.987 0.328987C307.044 -0.0219325 296.186 -0.0219325 285.476 0.0170586C263.993 0.0950407 243.206 0.44596 224.067 0.79688C185.832 1.49872 154.483 2.51249 138.809 3.05836C81.0546 6.02168 48.1216 6.06067 0 15.5355C48.1849 8.94601 81.0757 10.4277 138.872 7.6983C154.526 7.11343 185.917 6.13866 224.152 5.43682C243.248 5.0859 264.056 4.73498 285.497 4.618C296.186 4.618 307.108 4.61801 317.987 4.89094L322.021 5.0859C322.085 4.85195 322.423 5.0859 322.74 5.20287C323.31 5.55379 323.838 5.78774 322.655 3.64323L322.592 7.50334L322.275 22.9048L321.683 53.5908C318.409 216.768 314.776 365.09 314.607 365.09C314.586 365.09 314.396 374.37 313.698 390.669L313.551 393.749C313.994 394.529 312.389 394.1 314.522 395.465C314.205 392.852 314.079 393.164 313.931 393.437C313.846 393.632 313.741 393.749 313.614 393.437C312.431 393.554 311.142 393.554 309.854 393.632C307.234 393.749 304.383 393.749 301.298 393.788C295.193 393.983 288.286 394.1 280.702 394.217C250.283 394.802 209.111 395.426 165.954 395.542C122.839 395.542 77.7169 395.62 39.545 393.476C34.7709 393.164 30.1235 392.813 25.5817 392.345C23.3214 391.994 21.1245 391.76 18.9909 391.253C17.8924 391.02 16.8573 390.708 15.9067 390.318C15.5476 389.85 15.5265 390.201 15.5899 390.552C15.6532 391.098 15.8856 391.526 15.8434 390.318L15.7166 387.237C15.1251 371.056 14.5125 356.006 13.9844 342.242C12.9071 314.753 12.0621 292.489 11.4706 277.711C7.18232 168.614 4.35164 106.736 0 15.5355Z" fill="#AA6926"/>
<path d="M13 31.8789C13 31.8789 26.2201 364.769 26.5191 374.456C26.8394 384.143 301.898 378.774 303.372 378.191C304.803 377.724 312 23.3203 312 20.5971C312 17.8739 42.0457 22.2699 13 31.8789Z" fill="#AA6926"/>
<path d="M16.25 35.5798C16.25 35.5798 29.2016 361.116 29.4794 370.652C29.7572 380.11 298.876 374.816 300.308 374.272C301.697 373.727 308.75 27.1339 308.75 24.5261C308.75 21.9184 44.675 26.083 16.25 35.5798Z" fill="white"/>
</svg>
