<svg width="400" height="224" viewBox="0 0 400 224" fill="none" xmlns="http://www.w3.org/2000/svg">
<path d="M0 9.55783C0 9.55783 17.692 212.387 18.0573 218.274C18.5009 224.182 386.535 220.914 388.466 220.59C390.371 220.265 400 4.34208 400 2.69729C400 1.05249 38.8545 3.71446 0 9.55783Z" fill="#F7B168"/>
<path d="M0 8.69988C3.48391 59.903 5.92785 94.6206 11.1537 155.737C11.8817 163.99 12.9217 176.458 14.2476 191.852C14.8976 199.56 15.6256 207.988 16.3796 217.049L16.4836 218.709C16.7176 219.211 16.0156 218.774 17.1336 220.303C18.0695 220.98 18.1475 220.761 18.7195 220.98C20.2015 221.307 21.5535 221.482 22.9314 221.569C25.6354 221.875 28.4433 222.028 31.2252 222.224C36.8671 222.486 42.6389 222.705 48.4888 222.858C95.5996 224.058 151.134 224.015 204.225 223.993C257.29 223.971 307.988 223.6 345.401 223.294C354.761 223.207 363.289 223.098 370.777 223.076C374.573 223.01 378.057 222.967 381.306 222.901C382.944 222.901 384.53 222.901 385.934 222.858C386.402 222.792 386.584 222.858 387.338 222.748C389.652 220.718 388.196 221.482 388.742 220.805L388.924 218.971C389.782 209.735 390.016 204.538 390.042 204.538C390.25 204.538 394.774 121.478 398.752 30.0982L399.532 12.8704L399.87 4.24554L400 2.04021C398.284 -0.0341171 397.842 0.140563 397.348 0.315243C397.088 0.446253 396.854 0.555428 396.464 0.315243L391.368 0.184233C377.901 -0.0122822 364.537 -0.0122822 351.355 0.00955281C324.914 0.0532228 299.331 0.249738 275.775 0.446253C228.716 0.839283 190.133 1.40699 170.842 1.71268C99.7595 3.37214 59.2265 3.39398 0 8.69988C59.3045 5.00977 99.7855 5.8395 170.92 4.31105C190.185 3.98352 228.82 3.43765 275.879 3.04462C299.383 2.8481 324.992 2.65159 351.381 2.58608C364.537 2.58608 377.979 2.58608 391.368 2.73893L396.334 2.8481C396.412 2.71709 396.828 2.8481 397.218 2.91361C397.92 3.11012 398.57 3.24113 397.114 2.04021L397.036 4.20187L396.646 12.8267L395.918 30.0108C391.888 121.39 387.416 204.451 387.208 204.451C387.182 204.451 386.948 209.647 386.09 218.774L385.908 220.499C386.454 220.936 384.478 220.696 387.104 221.46C386.714 219.997 386.558 220.172 386.376 220.325C386.272 220.434 386.142 220.499 385.986 220.325C384.53 220.39 382.944 220.39 381.358 220.434C378.135 220.499 374.625 220.499 370.829 220.521C363.315 220.63 354.813 220.696 345.479 220.761C308.04 221.089 257.368 221.438 204.251 221.504C151.186 221.504 95.6516 221.547 48.6708 220.347C42.7949 220.172 37.0751 219.975 31.4852 219.713C28.7033 219.517 25.9993 219.386 23.3734 219.102C22.0214 218.971 20.7475 218.796 19.5775 218.578C19.1355 218.316 19.1095 218.512 19.1875 218.709C19.2655 219.015 19.5515 219.255 19.4995 218.578L19.3435 216.853C18.6155 207.791 17.8616 199.363 17.2116 191.655C15.8856 176.262 14.8456 163.794 14.1176 155.518C8.83978 94.4241 5.35587 59.7719 0 8.69988Z" fill="#AB6926"/>
<path d="M16 17.8524C16 17.8524 32.2709 204.271 32.6389 209.696C33.0331 215.12 371.567 212.114 373.381 211.787C375.142 211.526 384 13.0595 384 11.5346C384 10.0096 51.7486 12.4713 16 17.8524Z" fill="#AB6926"/>
<path d="M20 19.9248C20 19.9248 35.9404 202.225 36.2823 207.565C36.6243 212.862 367.848 209.897 369.61 209.592C371.32 209.287 380 15.1951 380 13.7348C380 12.2745 54.9847 14.6066 20 19.9248Z" fill="white"/>
</svg>
