<svg width="62" height="46" viewBox="0 0 62 46" fill="none" xmlns="http://www.w3.org/2000/svg">
<g id="Calque_8">
<path id="Vector" d="M23.3668 12.0528L14.0357 14.869L12.3487 2.53711L21.0868 6.92652L23.3668 12.0528Z" fill="#EDF4FF"/>
<path id="Vector_2" d="M38.6334 12.0528L47.9644 14.869L49.6514 2.53711L40.9133 6.92652L38.6334 12.0528Z" fill="#EDF4FF"/>
<path id="Vector_3" d="M48.1094 15.4854C48.8942 13.0842 51.2702 5.30695 50.3552 1.66287C50.2869 1.38972 50.0843 1.20339 49.8561 1.21397C46.2965 1.37066 40.6765 6.3339 39.3286 7.57047C36.7522 6.12427 33.9198 5.2159 30.9446 5.2159C27.9693 5.2159 25.1348 6.12427 22.5584 7.57047C21.2126 6.33178 15.5948 1.37066 12.033 1.21185C11.8048 1.20127 11.6022 1.3876 11.5339 1.66287C10.619 5.30695 12.9949 13.0842 13.7819 15.4854C11.054 19.1146 9.43738 22.8307 9.43738 25.0011C9.43738 30.9489 19.0649 44.7863 30.9467 44.7884C42.8264 44.7863 52.456 30.9489 52.456 25.0011C52.456 22.8307 50.8393 19.1146 48.1115 15.4854H48.1094ZM14.7609 14.2446C13.9547 11.3691 13.012 7.19145 13.5537 4.86229C13.6198 4.58279 13.8267 4.38799 14.057 4.40281C16.241 4.53409 19.2909 6.70656 21.2915 8.33486C18.7982 9.95257 16.5823 12.0488 14.7609 14.2446ZM47.1304 14.2446C45.309 12.0488 43.093 9.95257 40.5998 8.33486C42.6003 6.70656 45.6502 4.53409 47.8342 4.40281C48.0667 4.38799 48.2736 4.58279 48.3376 4.86229C48.8793 7.18933 47.9366 11.3691 47.1304 14.2446Z" fill="#726789" stroke="#000263" stroke-width="0.833333" stroke-linecap="round" stroke-linejoin="round"/>
<path id="Vector_4" d="M23.8264 24.1654C25.4399 23.4798 25.9853 21.1548 25.0444 18.9724C24.1036 16.7899 22.0329 15.5765 20.4194 16.2621C18.8058 16.9476 18.2605 19.2726 19.2013 21.4551C20.1422 23.6375 22.2129 24.851 23.8264 24.1654Z" fill="#000263"/>
<path id="Vector_5" d="M42.6895 21.4588C43.6303 19.2763 43.085 16.9513 41.4714 16.2658C39.8579 15.5802 37.7872 16.7936 36.8463 18.9761C35.9055 21.1585 36.4508 23.4835 38.0644 24.1691C39.6779 24.8547 41.7486 23.6412 42.6895 21.4588Z" fill="#000263"/>
<g id="Vector_6">
<mask id="path-6-outside-1_633_27531" maskUnits="userSpaceOnUse" x="19.3198" y="24.2446" width="24" height="18" fill="black">
<rect fill="white" x="19.3198" y="24.2446" width="24" height="18"/>
<path d="M30.9766 41.1465C28.14 41.1465 25.5316 40.4265 23.5161 39.2302C19.387 36.7803 19.2164 30.8748 23.2495 28.2704C24.5356 27.4404 26.3868 26.568 29.2149 25.5559C29.7012 25.3399 30.4157 25.2467 30.9446 25.2446C31.4736 25.2446 32.1881 25.3399 32.6743 25.5559C35.5003 26.568 37.3537 27.4404 38.6398 28.2704C42.6729 30.8727 42.5023 36.7803 38.3732 39.2302C36.3598 40.4244 33.7514 41.1465 30.9127 41.1465"/>
</mask>
<path d="M30.9766 41.1465C28.14 41.1465 25.5316 40.4265 23.5161 39.2302C19.387 36.7803 19.2164 30.8748 23.2495 28.2704C24.5356 27.4404 26.3868 26.568 29.2149 25.5559C29.7012 25.3399 30.4157 25.2467 30.9446 25.2446C31.4736 25.2446 32.1881 25.3399 32.6743 25.5559C35.5003 26.568 37.3537 27.4404 38.6398 28.2704C42.6729 30.8727 42.5023 36.7803 38.3732 39.2302C36.3598 40.4244 33.7514 41.1465 30.9127 41.1465" fill="white"/>
<path d="M23.5161 39.2302L23.9415 38.5136L23.9413 38.5135L23.5161 39.2302ZM23.2495 28.2704L22.7976 27.5702L22.7974 27.5704L23.2495 28.2704ZM29.2149 25.5559L29.4957 26.3405L29.5249 26.3301L29.5532 26.3175L29.2149 25.5559ZM30.9446 25.2446V24.4113L30.9413 24.4113L30.9446 25.2446ZM32.6743 25.5559L32.3361 26.3175L32.3643 26.33L32.3934 26.3404L32.6743 25.5559ZM38.6398 28.2704L38.1879 28.9706L38.188 28.9706L38.6398 28.2704ZM38.3732 39.2302L38.7983 39.9469L38.7984 39.9469L38.3732 39.2302ZM30.9766 40.3131C28.2759 40.3131 25.8168 39.6267 23.9415 38.5136L23.0907 39.9468C25.2464 41.2263 28.0042 41.9798 30.9766 41.9798V40.3131ZM23.9413 38.5135C20.3318 36.3719 20.2006 31.2312 23.7016 28.9705L22.7974 27.5704C18.2321 30.5185 18.4422 37.1888 23.0909 39.9469L23.9413 38.5135ZM23.7014 28.9706C24.9106 28.1902 26.6944 27.343 29.4957 26.3405L28.9341 24.7713C26.0793 25.793 24.1605 26.6906 22.7976 27.5702L23.7014 28.9706ZM29.5532 26.3175C29.8907 26.1676 30.4751 26.0798 30.948 26.078L30.9413 24.4113C30.3563 24.4136 29.5117 24.5122 28.8767 24.7943L29.5532 26.3175ZM30.9446 26.078C31.4124 26.078 31.9974 26.167 32.3361 26.3175L33.0126 24.7943C32.3788 24.5128 31.5347 24.4113 30.9446 24.4113V26.078ZM32.3934 26.3404C35.1929 27.3431 36.9788 28.1902 38.1879 28.9706L39.0917 27.5702C37.7286 26.6906 35.8077 25.7929 32.9553 24.7714L32.3934 26.3404ZM38.188 28.9706C41.6883 31.2292 41.5578 36.3718 37.948 38.5135L38.7984 39.9469C43.4469 37.1889 43.6575 30.5163 39.0916 27.5702L38.188 28.9706ZM37.9481 38.5135C36.0745 39.6248 33.6152 40.3131 30.9127 40.3131V41.9798C33.8876 41.9798 36.6452 41.224 38.7983 39.9469L37.9481 38.5135Z" fill="#000263" mask="url(#path-6-outside-1_633_27531)"/>
</g>
<path id="Vector_7" d="M33.504 28.2621C33.504 29.4859 32.3587 30.9025 30.9446 30.9025C29.5306 30.9025 28.3853 29.4859 28.3853 28.2621C28.3853 27.0382 29.5306 26.8921 30.9446 26.8921C32.3587 26.8921 33.504 27.0382 33.504 28.2621Z" fill="#000263"/>
<path id="Vector_8" d="M30.9445 30.9023V33.2717" stroke="#000263" stroke-width="0.833333" stroke-linecap="round" stroke-linejoin="round"/>
<path id="Vector_9" d="M35.3744 31.3809C35.3744 32.5349 33.3994 33.4708 30.9637 33.4708C28.5281 33.4708 26.5531 32.5349 26.5531 31.3809" stroke="#000263" stroke-width="0.833333" stroke-linecap="round" stroke-linejoin="round"/>
<path id="Vector_10" d="M23.3667 23.1278C24.1889 23.1278 24.8554 22.4661 24.8554 21.6498C24.8554 20.8336 24.1889 20.1719 23.3667 20.1719C22.5446 20.1719 21.8781 20.8336 21.8781 21.6498C21.8781 22.4661 22.5446 23.1278 23.3667 23.1278Z" fill="white"/>
<path id="Vector_11" d="M38.5246 23.1278C39.3468 23.1278 40.0133 22.4661 40.0133 21.6498C40.0133 20.8336 39.3468 20.1719 38.5246 20.1719C37.7024 20.1719 37.0359 20.8336 37.0359 21.6498C37.0359 22.4661 37.7024 23.1278 38.5246 23.1278Z" fill="white"/>
<path id="Vector_12" d="M47.0366 26.8392C47.0366 26.8392 53.5097 21.9607 60.7868 21.6494" stroke="#000263" stroke-width="0.833333" stroke-linecap="round" stroke-linejoin="round"/>
<path id="Vector_13" d="M47.4886 28.1877C47.4886 28.1877 52.7076 25.1768 57.2739 25.3843" stroke="#000263" stroke-width="0.833333" stroke-linecap="round" stroke-linejoin="round"/>
<path id="Vector_14" d="M47.4886 29.3818C47.4886 29.3818 55.6189 28.5517 59.1316 30.7306" stroke="#000263" stroke-width="0.833333" stroke-linecap="round" stroke-linejoin="round"/>
<path id="Vector_15" d="M14.9636 26.8392C14.9636 26.8392 8.4905 21.9607 1.21338 21.6494" stroke="#000263" stroke-width="0.833333" stroke-linecap="round" stroke-linejoin="round"/>
<path id="Vector_16" d="M14.5114 28.1877C14.5114 28.1877 9.2924 25.1768 4.72607 25.3843" stroke="#000263" stroke-width="0.833333" stroke-linecap="round" stroke-linejoin="round"/>
<path id="Vector_17" d="M14.5113 29.3818C14.5113 29.3818 6.38107 28.5517 2.86835 30.7306" stroke="#000263" stroke-width="0.833333" stroke-linecap="round" stroke-linejoin="round"/>
</g>
</svg>
