<svg width="148" height="148" viewBox="0 0 148 148" fill="none" xmlns="http://www.w3.org/2000/svg">
<path d="M80.1212 115.24C75.4779 114.121 71.3772 111.451 68.4774 107.661C65.319 103.621 63.0481 98.9596 61.8121 93.9892C61.9879 93.99 82.0453 95.7217 103.993 83.0542C105.816 81.9909 107.664 80.8411 109.447 79.6287C111.251 78.3787 112.938 76.9847 114.479 75.406L114.501 75.3682C115.776 73.9886 116.744 72.8349 117.533 71.905L117.598 71.7916C118.736 70.2572 120.106 68.9321 121.712 67.8949C122.656 67.3066 123.807 67.1899 124.879 67.5573C126.462 68.2191 127.692 69.5341 128.24 71.1599C128.67 72.2901 128.773 73.5081 128.535 74.7056L127.637 80.2319L132.299 77.1304C132.909 76.7273 133.463 76.2914 134.001 75.796C142.47 67.8899 138.481 54.7309 130.152 45.8166C122.154 37.2447 112.907 34.6764 105.426 38.9965C104.262 39.6596 103.187 40.4746 102.203 41.3929C101.975 41.6137 101.717 41.8426 101.519 42.0554L97.2246 46.3518L103.291 46.2273C104.885 46.2154 106.461 46.4957 107.96 47.0841C111.142 48.2915 112.855 50.6909 112.413 53.3323C112.223 54.5328 111.496 55.5739 110.425 56.1644C105.738 58.8735 93.1989 56.5963 72.4526 52.8297L72.4149 52.8079C68.3056 52.0726 63.2014 51.1408 57.7943 50.2103C49.5052 48.7746 37.4765 47.4467 28.7093 52.5105C16.0411 59.8811 9.53891 74.5897 12.6461 88.9272L12.8558 89.8291L13.5947 90.3817C27.7098 100.748 40.2255 99.6615 40.7561 99.6152C43.0404 105.518 46.7617 110.765 51.5784 114.856C61.7417 123.167 75.2134 123.086 80.8203 119.875C81.8836 119.255 83.2423 117.948 83.074 116.844C82.9007 115.661 80.159 115.262 80.1103 115.259L80.1212 115.24Z" fill="black"/>
<path d="M49.4709 111.22L49.4331 111.198C49.4331 111.198 49.3794 111.117 49.3336 111.065C46.7388 108.056 44.6055 104.683 43.0254 101.051L42.3798 99.5948L40.797 99.5877C33.6848 99.3856 26.7294 97.3849 20.5927 93.7915L13.3895 89.7335L17.2205 97.0585C17.2205 97.0585 17.4406 97.4626 17.5451 97.6741C17.6955 97.9372 17.8458 98.2003 17.9962 98.4634C24.1233 109.054 35.4935 115.492 47.7102 115.317L53.3546 115.225L49.4818 111.201L49.4709 111.22Z" fill="black"/>
<path d="M83.7483 98.4409C87.4647 96.2794 91.0118 93.8439 94.3679 91.1721L103.303 80.5382L94.9772 88.0228L91.9326 86.9702C82.7705 90.7985 72.9614 92.8679 63.0498 93.0646L59.6081 93.0926L60.7625 96.3282C61.8392 99.3931 63.3252 102.316 65.1774 104.998L66.3578 106.662L68.2068 105.815C69.4729 105.236 72.2326 104.034 72.2326 104.034C76.2009 102.395 80.0567 100.516 83.7891 98.414L83.7483 98.4409Z" fill="black"/>
<path d="M58.6825 69.2609C64.5387 72.642 66.5427 80.1212 63.1617 85.9774C59.7806 91.8336 52.3014 93.8376 46.4452 90.4565C40.589 87.0755 38.585 79.5963 41.9661 73.7401C45.3471 67.8839 52.8263 65.8799 58.6825 69.2609ZM45.6434 75.4854C44.3899 77.482 44.3273 79.9898 45.4843 82.0431C45.6237 82.3251 45.9587 82.443 46.2487 82.3333L48.2249 81.4844C48.5258 81.3559 48.6734 81.013 48.5449 80.7121C48.0286 79.3813 47.7564 78.544 48.4326 77.3728C48.9343 76.5038 50.1227 75.7542 50.9728 76.245C51.6151 76.6159 51.6309 77.3302 51.6203 78.4828C51.609 79.8112 51.5336 81.556 53.2904 82.5703L53.4605 82.6685C53.7438 82.8321 54.1014 82.7363 54.265 82.4529L55.6501 80.0537C55.8137 79.7704 55.7179 79.4128 55.4346 79.2492L55.3779 79.2165C54.1689 78.5185 56.1626 74.9343 52.8756 73.0365C50.4009 71.6077 47.0474 73.0971 45.6514 75.5152L45.6434 75.4854ZM56.0776 81.8874C55.4559 82.9642 55.8312 84.3647 56.908 84.9863C57.9847 85.608 59.3852 85.2327 60.0069 84.156C60.6286 83.0792 60.2533 81.6787 59.1765 81.057C58.0998 80.4353 56.7102 80.7917 56.0776 81.8874Z" fill="white"/>
<path d="M29.9568 82.1965C30.6314 81.0279 30.231 79.5338 29.0625 78.8591C27.894 78.1845 26.3998 78.5849 25.7252 79.7534C25.0506 80.9219 25.4509 82.416 26.6194 83.0907C27.788 83.7653 29.2821 83.365 29.9568 82.1965Z" fill="black"/>
</svg>
