<svg width="147" height="148" viewBox="0 0 147 148" fill="none" xmlns="http://www.w3.org/2000/svg">
<path d="M53.4188 109.333L53.3833 109.313C53.3833 109.313 53.3149 109.226 53.2896 109.187C50.8223 106.317 48.8173 103.097 47.3049 99.64L46.6796 98.2596L45.1619 98.2605C38.3871 98.047 31.7775 96.1511 25.9236 92.7002L19.0658 88.812L22.7116 95.8001C22.7116 95.8001 22.9084 96.1982 23.0171 96.3795C23.1483 96.6449 23.2898 96.8925 23.4313 97.1401C29.2456 107.229 40.0502 113.396 51.703 113.249L57.0786 113.177L53.3908 109.341L53.4188 109.333Z" fill="#EFEFEF"/>
<path d="M84.9015 97.8317C88.4374 95.7722 91.8318 93.465 95.0285 90.9253L100.659 84.6227L98.9058 84.2507L93.5145 86.1161C81.4458 91.0481 70.2857 92.6408 65.198 92.6666L61.9131 92.6901L62.9968 95.7811C64.0252 98.7217 65.4311 101.501 67.1818 104.052L68.2824 105.636L70.0506 104.832C71.26 104.297 73.8853 103.158 73.8853 103.158C77.648 101.609 81.3329 99.8249 84.8913 97.8495L84.9015 97.8317Z" fill="#EFEFEF"/>
<path d="M81.2781 113.921C76.8726 112.847 72.9525 110.276 70.1981 106.671C67.2106 102.812 65.0584 98.3697 63.8801 93.6359C64.0456 93.6366 83.1485 95.3259 104.077 83.301C105.821 82.2928 107.57 81.1929 109.276 80.0445C111.002 78.8605 112.61 77.513 114.078 76.0375L114.099 76.002C115.327 74.6961 116.248 73.5925 117.001 72.6995L117.063 72.5929C118.144 71.131 119.461 69.8764 120.972 68.9003C121.879 68.3568 122.972 68.2293 123.981 68.575C125.488 69.2081 126.664 70.456 127.187 72.0141C127.582 73.0955 127.686 74.2699 127.462 75.3969L126.604 80.6615L131.057 77.7097C131.632 77.3303 132.181 76.9126 132.688 76.4463C140.762 68.9476 136.991 56.3876 129.077 47.8832C121.474 39.701 112.672 37.2504 105.547 41.3387C104.442 41.9805 103.402 42.7551 102.476 43.6193C102.261 43.8271 102.019 44.0425 101.822 44.2606L97.7318 48.3471L103.505 48.2429C105.033 48.2243 106.534 48.4983 107.934 49.0698C110.964 50.2266 112.584 52.5128 112.175 55.0268C112.005 56.1846 111.293 57.172 110.284 57.7277C105.817 60.2923 93.8713 58.1129 74.1125 54.4804L74.077 54.4599C70.1638 53.7652 65.3069 52.8574 60.1647 51.9509C52.2645 50.5662 40.827 49.2727 32.4535 54.0862C20.3527 61.0857 14.1511 75.0706 17.0644 88.7473L17.2515 89.6139L17.9647 90.1441C31.378 100.045 43.3224 99.0241 43.8217 98.9805C45.9763 104.61 49.5112 109.614 54.1053 113.523C63.7741 121.452 76.6154 121.422 81.951 118.34C82.9696 117.766 84.2585 116.519 84.1104 115.462C83.9398 114.32 81.3315 113.952 81.2856 113.949L81.2781 113.921Z" fill="#61ACD2" stroke="white" stroke-width="0.51" stroke-miterlimit="4.01"/>
<path d="M32.0583 81.6633C32.6988 80.5538 32.3187 79.135 31.2091 78.4944C30.0996 77.8538 28.6809 78.234 28.0403 79.3435C27.3997 80.4531 27.7798 81.8718 28.8893 82.5124C29.9989 83.153 31.4177 82.7729 32.0583 81.6633Z" fill="black"/>
</svg>
