<svg width="142" height="149" viewBox="0 0 142 149" fill="none" xmlns="http://www.w3.org/2000/svg">
<path d="M20.6906 23.4787L40.314 16.0218L47.098 17.1847L51.8275 18.4498L56.0051 19.7482L68.4038 37.0013L70.6032 47.7253L68.3027 60.2502L66.8846 61.8981L70.4848 61.1597L75.5875 60.3527L78.958 56.5483L78.848 56.0121L86.3707 51.4361L88.0267 45.1098L91.2618 38.6991L91.7038 38.1295L95.6772 35.3191L94.5479 33.3157L94.7347 27.61L95.0059 23.4834L98.0699 22.8551L102.428 26.5909L104.789 23.3129L106.844 23.2109L108.576 26.2081L107.829 30.3524L108.11 34.4455L118.826 39.9906L121.687 44.9913L125.152 50.9858L125.806 53.0069L125.916 53.5431L127.045 55.5465L123.955 63.444L121.934 64.098L121.492 64.6676L120.567 66.773L118.495 66.3998L112.271 66.7982L108.331 70.1606L109.638 74.2028L114.419 76.495L119.828 72.512L124.142 67.0776L126.163 66.4236L126.247 68.0027L127.716 67.3822L129.839 68.7826L128.965 71.9153L128.523 72.4849L127.81 77.181L124.795 78.4379L123.395 80.561L120.075 85.3926L107.22 93.9359L102.541 93.6981L102.651 94.2343L102.456 107.684L97.8209 116.218L97.0567 119.887L94.2715 124.21L97.3355 123.582L98.7889 122.884L107.068 122.384L110.737 123.148L112.078 127.742L110.66 129.39L110.269 130.987L99.9513 131.666L83.4529 132.176L78.7744 131.938L73.1022 132.303L72.4148 129.73L69.8419 130.417L59.6186 131.556L53.2591 129.348L53.2081 128.321L52.2318 129.399L50.2618 131.081L44.0808 130.911L36.6511 119.983L27.6915 100.428L30.8661 84.7705L36.1128 69.4861L34.4397 59.7717L30.7708 59.0075L28.563 65.3671L21.6257 70.4617L10.5522 67.0654L5.71933 47.7818L20.722 23.6319L20.6906 23.4787Z" fill="black"/>
<path d="M88.7447 91.8211C91.5882 105.686 82.6372 119.255 68.7726 122.099C54.9079 124.942 41.3383 115.991 38.4949 102.127C35.6514 88.2622 44.6023 74.6926 58.4669 71.8491C72.3315 69.0057 85.9012 77.9565 88.7447 91.8211ZM60.8688 80.0571C56.0115 80.8937 51.9948 84.2718 50.3919 88.9109C50.1189 89.5256 50.4135 90.1836 51.0283 90.4566L55.1017 92.415C55.7164 92.6881 56.4667 92.4543 56.7397 91.8396C58.1068 89.1645 59.0655 87.611 61.8231 87.0454C63.8913 86.6213 66.6861 87.405 67.1102 89.4733C67.4244 91.0053 66.356 92.0226 64.5234 93.5958C62.4159 95.385 59.6209 97.7143 60.4692 101.851L60.5478 102.234C60.6892 102.923 61.3354 103.349 62.0248 103.208L67.6931 102.045C68.3825 101.904 68.8088 101.258 68.6674 100.568L68.636 100.415C68.039 97.5045 76.4493 95.6998 74.8469 87.8865C73.0088 82.0374 66.9496 78.5706 60.9296 79.9648L60.8688 80.0571ZM65.3321 105.323C62.7277 105.858 61.0838 108.35 61.6179 110.954C62.152 113.559 64.6443 115.203 67.2487 114.669C69.8531 114.135 71.4971 111.642 70.963 109.038C70.4289 106.433 67.9365 104.789 65.3321 105.323Z" fill="white"/>
</svg>
