<svg width="147" height="153" viewBox="0 0 147 153" fill="none" xmlns="http://www.w3.org/2000/svg">
<path d="M19.753 28.5662L38.8983 19.9552L45.7395 20.7126L50.5359 21.6941L54.7834 22.7417L68.1865 39.2269L71.0199 49.8012L69.4685 62.4409L68.1508 64.1702L71.7008 63.219L76.7465 62.1099L79.8848 58.1118L79.7431 57.583L86.9803 52.5676L88.2571 46.1539L91.1052 39.5621L91.5125 38.9673L95.3118 35.9254L94.0653 33.9927L93.9124 28.286L93.9377 24.1506L96.9589 23.341L101.532 26.8111L103.693 23.3985L105.738 23.1744L107.646 26.0633L107.147 30.2446L107.671 34.3139L118.697 39.2118L121.851 44.0335L125.666 49.8113L126.439 51.79L126.581 52.3187L127.827 54.2514L125.213 62.3188L123.234 63.0918L122.827 63.6867L122.029 65.8435L119.938 65.5941L113.748 66.3621L110.015 69.9529L111.561 73.9102L116.47 75.914L121.633 71.6163L125.615 65.9349L127.594 65.1619L127.772 66.7332L129.202 66.0263L131.404 67.298L130.718 70.4772L130.311 71.072L129.878 75.8023L126.943 77.2363L125.671 79.439L122.645 84.4595L110.321 93.7524L105.636 93.7933L105.778 94.322L106.383 107.76L102.264 116.554L101.719 120.262L99.1959 124.743L102.217 123.934L103.626 123.151L111.861 122.159L115.569 122.704L117.181 127.21L115.863 128.939L115.568 130.557L105.309 131.848L88.8701 133.339L84.1858 133.38L78.5453 134.081L77.7061 131.554L75.1785 132.393L65.041 134.138L58.5613 132.312L58.4493 131.29L57.5389 132.424L55.6724 134.22L49.4922 134.418L41.4255 123.951L31.3187 104.964L33.5563 89.1448L37.8846 73.5753L35.6367 63.9774L31.9288 63.4328L30.1031 69.9126L23.481 75.4108L12.2251 72.6791L6.25367 53.717L19.7934 28.7172L19.753 28.5662Z" fill="#9B804B" stroke="white" stroke-width="0.51"/>
</svg>
