<svg width="148" height="133" viewBox="0 0 148 133" fill="none" xmlns="http://www.w3.org/2000/svg">
<path d="M7.19234 80.2963L7.55417 80.3938L7.70707 77.0505L9.14412 59.98L11.0272 45.1653L18.9007 36.0333L28.2666 28.8302L35.6854 25.3505L40.1564 23.3165L52.3198 24.1551L69.138 26.9728L74.9987 27.0483L86.91 23.2138L87.3867 22.9524L87.9475 20.9216L92.8523 15.3757L96.5877 13.2169L98.4295 15.5293L99.9589 16.8158L103.463 17.7167L117.509 21.9017L119.843 23.8651L121.711 25.9118L122.456 28.0019L123.758 30.2047L124.78 34.1617L125.315 40.8828L127.321 47.9615L128.327 54.3481L128.981 58.5669L132.934 59.6881L138.836 60.7976L140.911 60.2488L140.867 61.3584L139.231 62.3961L133.82 62.4329L129.118 61.4729L129.654 69.8877L127.61 77.9008L122.008 84.1571L115.107 82.2475L112.817 77.4807L113.518 72.3928L116.47 68.8037L119.891 69.2401L122.393 69.3584L122.072 72.3127L119.776 75.6526L118.962 75.2443L119.386 74.2352L118.189 71.9422L116.952 72.5431L117.693 76.7767L120.005 77.1689L122.681 73.9294L122.784 67.695L122.485 61.9149L121.687 59.077L120.407 58.5535L118.338 57.1574L117.216 57.2913L115.097 56.7157L111.172 53.0948L109.349 52.263L107.08 59.0489L104.703 68.0684L103.528 73.5083L103.82 81.3413L104.649 93.6613L105.209 103.738L107.39 109.045L107.068 112.107L102.202 112.542L101.825 112.533L101.993 112.921L101.249 116.885L96.114 117.203L84.1783 115.448L84.7892 110.254L86.4873 105.768L87.9177 92.9845L87.22 83.9297L87.2415 79.5552L86.2513 74.6667L71.8663 79.5949L59.7556 81.738L46.5298 79.7281L46.7695 90.633L47.3927 101.189L48.4929 105.429L49.4059 107.8L48.3709 110.183L48.1958 110.153L47.7313 110.237L43.8839 110.719L32.3781 109.721L32.2688 108.135L34.4372 101.621L34.5493 97.2438L32.9517 89.3515L31.3812 87.1392L27.1905 97.1842L26.1652 105.244L27.4077 108.752L29.99 111.478L29.2363 113.585L27.0833 113.85L24.8645 113.654L23.936 113.604L21.431 113.395L18.4618 113.162L16.7072 112.99L12.2113 111.561L11.838 109.407L13.8603 105.877L15.6679 96.9227L16.4379 90.261L15.1486 87.7721L13.6994 83.04L15.239 71.8424L15.0733 65.5984L12.6681 55.2449L12.2605 53.8245L9.79841 72.9011L8.71033 80.4818L9.27076 80.5769L9.67321 85.744L8.43935 90.2551L8.78764 92.9807L9.65716 94.2273L7.23887 92.3396L5.90847 88.9248L5.88128 83.2449L7.23926 80.2322L7.19234 80.2963Z" fill="black"/>
<path d="M61.8606 42.1514C67.2896 43.0726 70.9395 48.2142 70.0183 53.6432C69.0971 59.0721 63.9556 62.722 58.5266 61.8008C53.0976 60.8796 49.4477 55.7381 50.3689 50.3091C51.2901 44.8802 56.4316 41.2303 61.8606 42.1514ZM53.6709 50.5991C53.2799 52.4786 53.943 54.4108 55.4082 55.6504C55.5946 55.8262 55.8837 55.8212 56.074 55.6553L57.3421 54.4471C57.5353 54.2637 57.5508 53.96 57.3674 53.7668C56.5961 52.8972 56.1509 52.3352 56.3352 51.2494C56.4719 50.4438 57.1666 49.5347 57.9547 49.6684C58.5501 49.7695 58.7646 50.3103 59.0833 51.1932C59.4512 52.2105 59.8882 53.5639 61.5169 53.8402L61.6745 53.867C61.9372 53.9115 62.183 53.737 62.2276 53.4743L62.6049 51.2502C62.6495 50.9875 62.475 50.7417 62.2123 50.6971L62.1598 50.6882C61.039 50.4981 61.5451 47.1967 58.4978 46.6797C56.2037 46.2904 54.0658 48.378 53.6854 50.6196L53.6709 50.5991ZM63.451 52.5288C63.2816 53.5271 63.9651 54.4899 64.9633 54.6592C65.9615 54.8286 66.9243 54.1451 67.0937 53.1469C67.263 52.1487 66.5796 51.1859 65.5814 51.0165C64.5831 50.8472 63.6233 51.5131 63.451 52.5288Z" fill="white"/>
</svg>
