<svg width="148" height="133" viewBox="0 0 148 133" fill="none" xmlns="http://www.w3.org/2000/svg">
<path d="M7.19313 81.2231L7.55498 81.3206L7.70793 77.9772L9.14534 60.9061L11.0288 46.0909L18.9027 36.9587L28.269 29.7555L35.6882 26.2758L40.1594 24.2419L52.3232 25.0807L69.1419 27.8988L75.0029 27.9744L86.9146 24.14L87.3914 23.8786L87.9523 21.8477L92.8573 16.3018L96.5929 14.1429L98.4347 16.4554L99.9641 17.742L103.469 18.643L117.515 22.8284L119.848 24.7919L121.717 26.8387L122.462 28.9289L123.764 31.1318L124.786 35.089L125.321 41.8103L127.327 48.8893L128.333 55.2762L128.986 59.4951L132.94 60.6164L138.842 61.726L140.917 61.1773L140.873 62.2869L139.237 63.3246L133.826 63.3613L129.124 62.4012L129.66 70.8164L127.615 78.8297L122.013 85.0861L115.112 83.1763L112.822 78.4093L113.523 73.3212L116.475 69.7321L119.896 70.1685L122.398 70.2869L122.077 73.2413L119.781 76.5813L118.967 76.1729L119.391 75.1637L118.194 72.8707L116.957 73.4715L117.698 77.7053L120.01 78.0976L122.686 74.858L122.789 68.6234L122.49 62.8431L121.693 60.0051L120.412 59.4815L118.343 58.0853L117.221 58.2193L115.103 57.6436L111.177 54.0225L109.354 53.1906L107.085 59.9767L104.708 68.9965L103.532 74.4366L103.825 82.2699L104.653 94.5903L105.213 104.667L107.393 109.974L107.072 113.037L102.205 113.472L101.829 113.462L101.997 113.851L101.252 117.815L96.1173 118.133L84.1812 116.377L84.7922 111.184L86.4905 106.697L87.9211 93.9132L87.2235 84.8581L87.2452 80.4834L86.255 75.5947L71.8694 80.5229L59.7582 82.6658L46.532 80.6556L46.7715 91.5609L47.3945 102.117L48.4947 106.358L49.4077 108.729L48.3727 111.112L48.1975 111.082L47.733 111.165L43.8854 111.647L32.3792 110.65L32.27 109.064L34.4386 102.549L34.5508 98.1717L32.9532 90.2791L31.3827 88.0667L27.1917 98.112L26.1662 106.172L27.4087 109.68L29.9911 112.407L29.2373 114.513L27.0842 114.778L24.8653 114.582L23.9368 114.532L21.4317 114.323L18.4624 114.09L16.7078 113.918L12.2117 112.489L11.8384 110.335L13.8609 106.805L15.6687 97.8503L16.4389 91.1883L15.1496 88.6993L13.7004 83.967L15.2402 72.769L15.0747 66.5248L12.6696 56.1709L12.262 54.7504L9.79943 73.8277L8.71118 81.4086L9.27162 81.5037L9.67399 86.671L8.44001 91.1823L8.78826 93.908L9.65779 95.1546L7.23945 93.2668L5.90906 89.8519L5.88198 84.1717L7.24006 81.159L7.19313 81.2231Z" fill="#9E9E9E" stroke="white" stroke-width="0.51"/>
</svg>
