<svg width="146" height="154" viewBox="0 0 146 154" fill="none" xmlns="http://www.w3.org/2000/svg">
<path d="M94.3043 34.3173H94.4223L109.943 34.7599L109.53 34.3173L95.7501 20.7441C95.7501 20.7441 91.6486 30.5109 94.3337 34.3173H94.3043Z" fill="#030303"/>
<path d="M72.469 62.8495L101.002 70.4917C94.009 66.2132 87.547 61.1085 81.7342 55.3252C77.0721 55.3252 72.469 62.8495 72.469 62.8495Z" fill="#030303"/>
<path d="M37.2379 22.7793L46.267 35.0541L27.4121 44.6734L70.2561 42.9915C70.2561 42.9915 110.592 96.8416 146 71.7312L109.766 34.405L74.0034 33.3132L44.7031 0L52.1684 19.7696L37.2379 22.7793Z" fill="#030303"/>
<path d="M63.1151 99.438L63.0266 99.3789L51.5779 88.904H52.1975L71.554 88.668C71.554 88.668 67.7182 98.5528 63.1446 99.438H63.1151Z" fill="#030303"/>
<path d="M59.0433 135.111L33.1953 120.771C41.2212 122.541 49.3946 123.367 57.5975 123.249C60.9318 126.495 59.0433 135.111 59.0433 135.111Z" fill="#030303"/>
<path d="M112.392 131.069L97.3432 133.607L104.189 153.642L74.5343 122.542C74.5343 122.542 7.93735 133.105 0 90.35L52.1092 88.7861L78.5768 112.952L122.896 109.441L103.717 118.47L112.362 131.04L112.392 131.069Z" fill="#030303"/>
<path d="M113.484 51.9027C113.484 58.9843 107.759 64.7086 100.678 64.7086C93.5959 64.7086 87.8716 58.9843 87.8716 51.9027C87.8716 44.821 93.5959 39.0967 100.678 39.0967C107.759 39.0967 113.484 44.821 113.484 51.9027ZM101.032 43.3161C98.5826 43.2276 96.2515 44.4964 95.0122 46.6209C94.8352 46.8865 94.8942 47.2701 95.1598 47.4471L96.9597 48.8044C97.2253 49.011 97.6089 48.952 97.8154 48.6864C98.7301 47.5061 99.3793 46.8275 100.766 46.8275C101.828 46.8275 103.127 47.5061 103.127 48.5389C103.127 49.306 102.478 49.7191 101.445 50.2798C100.235 50.9584 98.6121 51.8141 98.6121 53.9386V54.1452C98.6121 54.4992 98.8777 54.7648 99.2317 54.7648H102.123C102.477 54.7648 102.743 54.4992 102.743 54.1452V54.0862C102.743 52.6108 107.051 52.5518 107.051 48.5684C107.051 45.5587 103.953 43.2867 101.032 43.2867V43.3161ZM100.678 56.1221C99.3793 56.1221 98.2875 57.1844 98.2875 58.5122C98.2875 59.84 99.3497 60.9023 100.678 60.9023C102.005 60.9023 103.068 59.84 103.068 58.5122C103.068 57.2139 102.005 56.1516 100.678 56.1221Z" fill="white"/>
<path d="M55.7093 105.751C55.7093 113.128 49.7194 119.118 42.3427 119.118C34.966 119.118 28.9761 113.128 28.9761 105.751C28.9761 98.3747 34.966 92.3848 42.3427 92.3848C49.7194 92.3848 55.7093 98.3747 55.7093 105.751ZM42.7262 96.8108C40.1591 96.7223 37.7396 98.0206 36.4413 100.234C36.2643 100.529 36.3233 100.912 36.5889 101.119L38.4478 102.535C38.7133 102.742 39.1264 102.683 39.333 102.417C40.3067 101.207 40.9559 100.499 42.4312 100.499C43.523 100.499 44.8803 101.207 44.8803 102.27C44.8803 103.066 44.2016 103.479 43.1393 104.099C41.8705 104.807 40.1887 105.692 40.1887 107.905V108.112C40.1887 108.466 40.4837 108.761 40.8378 108.761H43.8475C44.2016 108.761 44.4967 108.466 44.4967 108.112V108.053C44.4967 106.519 48.9817 106.46 48.9817 102.299C48.9817 99.1713 45.736 96.8108 42.6968 96.8108H42.7262ZM42.3722 110.177C41.0149 110.177 39.8936 111.299 39.8936 112.656C39.8936 114.013 41.0149 115.135 42.3722 115.135C43.7295 115.135 44.8507 114.043 44.8507 112.656C44.8507 111.299 43.7295 110.177 42.3722 110.177Z" fill="white"/>
</svg>
