<svg width="148" height="155" viewBox="0 0 148 155" fill="none" xmlns="http://www.w3.org/2000/svg">
<path d="M95.3043 35.2831H95.4223L110.943 35.7257L110.53 35.2831L96.7501 21.71C96.7501 21.71 92.6486 31.4767 95.3337 35.2831H95.3043Z" fill="#61ACD2" stroke="white" stroke-width="0.51"/>
<path d="M73.4692 63.8153L102.002 71.4575C95.0092 67.179 88.5472 62.0744 82.7344 56.291C78.0723 56.291 73.4692 63.8153 73.4692 63.8153Z" fill="#61ACD2" stroke="white" stroke-width="0.51"/>
<path d="M38.2376 23.7451L47.2667 36.0199L28.4119 45.6392L71.2558 43.9573C71.2558 43.9573 111.592 97.8074 147 72.697L110.765 35.3708L75.0032 34.2791L45.7029 0.96582L53.1681 20.7354L38.2376 23.7451Z" fill="#495577" stroke="white" stroke-width="0.51" stroke-miterlimit="3.99"/>
<path d="M115.427 64.0796C110.588 59.7716 107.991 52.1293 106.605 45.7559C105.424 49.2377 104.303 52.8375 103.27 56.4669C100.615 57.234 97.8706 57.5881 95.1265 57.4701C100.762 62.2502 108.05 64.6107 115.427 64.0501V64.0796Z" fill="#61ACD2" stroke="white" stroke-width="0.51"/>
<path d="M129.149 68.8883C130.273 68.8883 131.184 67.9768 131.184 66.8524C131.184 65.728 130.273 64.8164 129.149 64.8164C128.024 64.8164 127.113 65.728 127.113 66.8524C127.113 67.9768 128.024 68.8883 129.149 68.8883Z" fill="#2A324E" stroke="white" stroke-width="0.51"/>
<path d="M64.1153 100.404L64.0268 100.345L52.5781 89.8698H53.1978L72.5543 89.6338C72.5543 89.6338 68.7184 99.5186 64.1449 100.404H64.1153Z" fill="#61ACD2" stroke="white" stroke-width="0.51"/>
<path d="M60.0433 136.077L34.1953 121.736C42.2212 123.507 50.3946 124.333 58.5975 124.215C61.9318 127.461 60.0433 136.077 60.0433 136.077Z" fill="#61ACD2" stroke="white" stroke-width="0.51"/>
<path d="M113.392 132.034L98.3432 134.572L105.189 154.607L75.5343 123.507C75.5343 123.507 8.93735 134.07 1 91.3148L53.1091 89.751L79.5768 113.917L123.896 110.406L104.717 119.435L113.362 132.005L113.392 132.034Z" fill="#495577" stroke="white" stroke-width="0.51"/>
<path d="M29.6509 107.132C36.1129 107.398 43.3125 103.68 48.7123 100.08C47.1484 103.414 45.4666 106.778 43.6666 110.112C45.024 112.502 46.7944 114.656 48.8303 116.515C41.4536 116.043 34.549 112.679 29.6509 107.162V107.132Z" fill="#61ACD2" stroke="white" stroke-width="0.51"/>
<path d="M17.8482 101.616C18.9727 101.616 19.8842 100.704 19.8842 99.5799C19.8842 98.4555 18.9727 97.5439 17.8482 97.5439C16.7238 97.5439 15.8123 98.4555 15.8123 99.5799C15.8123 100.704 16.7238 101.616 17.8482 101.616Z" fill="#2A324E" stroke="white" stroke-width="0.51"/>
</svg>
