<svg width="147" height="139" viewBox="0 0 147 139" fill="none" xmlns="http://www.w3.org/2000/svg">
<path d="M9.76409 85.7327L15.0503 82.4207L17.2058 82.3774L17.8331 82.8296L17.9831 83.1381L25.2995 75.9278L29.2787 66.7046L31.8585 57.4809L32.7104 54.5646L37.626 47.5893L41.5294 44.1422L47.8934 40.8085L50.4789 40.4595L58.2879 41.0743L66.3957 41.0601L80.449 40.016L82.564 38.9097L84.3506 36.7222L86.3157 35.3074L89.6015 31.8871L94.6972 27.2036L99.4759 21.7645L102.21 20.478L102.657 20.3109L107.56 20.8259L115.403 23.1172L116.342 24.7851L117.005 26.7605L115.964 28.1519L117.523 29.6397L119.538 31.4394L120.008 32.1967L125.144 36.6652L125.156 37.264L124.271 38.5037L123.537 39.8985L122.779 40.369L122.933 40.3707L122.637 40.6929L122.331 40.6895L122.172 41.1479L121.28 43.0012L120.202 43.0228L117.733 42.0037L117.274 41.8452L116.355 41.4085L114.707 43.5788L114.737 45.5621L114.568 51.6849L114.566 51.8383L114.91 53.2115L114.153 53.682L112.909 53.1031L111.892 55.4189L111.619 57.092L110.553 57.7125L109.643 58.1812L110.11 59.2452L110.3 60.6167L109.826 60.1662L109.227 60.1782L109.263 61.7014L108.821 63.0807L108.345 62.7836L107.268 62.8052L106.699 64.8006L104.03 69.5935L102.544 70.9986L101.063 73.6161L101.031 79.8751L101.016 87.5187L101.802 89.185L104.115 90.5091L106.449 92.9109L106.472 93.8353L105.101 94.0258L104.794 94.0223L104.514 94.6366L98.0996 94.7558L95.627 94.0435L95.44 92.3652L91.9335 92.4308L90.082 91.385L89.7199 88.6272L88.4818 87.5883L88.2732 84.8322L88.9934 82.992L89.0163 76.2539L87.865 72.1367L83.8795 72.212L79.3203 73.0702L76.8762 72.8222L75.7648 71.1673L73.1672 70.9175L67.7955 69.4919L62.0895 67.1721L57.4699 65.7362L52.9074 66.9012L51.249 68.3194L51.0792 68.4522L49.0792 74.3338L47.5132 79.8761L43.6401 85.3066L43.6737 86.9831L49.4333 92.2106L51.1098 92.1769L52.1722 91.8633L53.5652 92.7506L54.3329 93.0323L54.6551 93.3277L55.4495 94.2271L55.7888 94.6611L56.0853 95.5849L52.4317 96.4345L49.3836 96.6586L45.2379 95.6732L40.7198 91.178L35.8829 86.0805L37.032 82.6886L37.1318 79.7826L35.2038 82.5672L34.0496 86.4192L36.5826 91.0981L38.1343 91.527L39.6575 91.4916L41.1772 91.763L42.2543 93.1406L42.7841 94.9462L39.9032 95.6174L35.1656 95.7029L32.3742 94.3884L29.9495 87.7091L27.3053 85.6105L26.8132 83.7755L27.7057 81.9222L30.4976 76.8202L33.6392 66.2146L33.5381 61.185L33.7646 57.6631L31.3199 65.504L30.0123 69.3543L28.1396 74.8932L22.8984 80.2073L19.1212 83.7382L19.2859 84.0656L17.2169 86.7475L14.7797 87.5584L11.5515 87.1632L8.64552 87.0634L9.6862 85.6719L9.76409 85.7327Z" fill="black"/>
<path d="M95.9907 48.1493C99.4139 52.5276 98.6547 58.8683 94.2575 62.3062C89.8603 65.7441 83.5384 64.9702 80.1005 60.573C76.6774 56.1947 77.4366 49.854 81.8338 46.416C86.2121 42.9929 92.5528 43.7521 95.9907 48.1493ZM84.0923 48.877C82.5194 50.0155 81.7049 51.9295 81.9492 53.8366C81.9688 54.095 82.1836 54.2919 82.4567 54.2913L84.2341 54.27C84.5073 54.2693 84.7042 54.0545 84.7035 53.7813C84.709 52.6215 84.7659 51.8776 85.634 51.1989C86.2946 50.6825 87.4307 50.4632 87.9323 51.1048C88.3012 51.5766 88.0967 52.1318 87.7502 53.0109C87.3199 54.0163 86.7328 55.3268 87.7657 56.6478L87.8689 56.7799C88.0312 56.9875 88.3339 57.0245 88.5415 56.8622L90.3344 55.4605C90.5419 55.2982 90.579 54.9956 90.4167 54.788L90.3872 54.7502C89.6789 53.8444 92.3104 51.7262 90.3775 49.2539C88.9315 47.4045 85.8999 47.4941 84.0882 48.9106L84.0923 48.877ZM90.0966 56.9843C89.2851 57.6188 89.141 58.7957 89.7755 59.6072C90.4099 60.4187 91.5869 60.5628 92.3984 59.9284C93.2099 59.2939 93.354 58.1169 92.7195 57.3055C92.085 56.494 90.9081 56.3499 90.0966 56.9843Z" fill="white"/>
</svg>
