<svg width="146" height="140" viewBox="0 0 146 140" fill="none" xmlns="http://www.w3.org/2000/svg">
<path d="M9.46308 86.1012L14.7492 82.7891L16.9042 82.7452L17.5311 83.197L17.6809 83.5053L24.9984 76.296L28.9805 67.076L31.5637 57.8558L32.4167 54.9406L37.334 47.9671L41.2377 44.5203L47.6014 41.1862L50.1863 40.8365L57.9928 41.4485L66.0984 41.4317L80.1481 40.3837L82.263 39.2773L84.0501 37.0902L86.0153 35.6755L89.3016 32.2557L94.398 27.5728L99.1777 22.1348L101.912 20.848L102.359 20.6809L107.26 21.194L115.1 23.4817L116.038 25.1486L116.7 27.1228L115.658 28.5139L117.216 30.0005L119.23 31.7987L119.7 32.5555L124.832 37.0202L124.844 37.6187L123.958 38.8582L123.224 40.2526L122.466 40.7231L122.62 40.7247L122.324 41.0469L122.017 41.0435L121.859 41.5018L120.966 43.3545L119.888 43.3764L117.42 42.3586L116.962 42.2004L116.043 41.7641L114.395 43.9339L114.424 45.9163L114.252 52.0362L114.25 52.1895L114.593 53.562L113.836 54.0325L112.594 53.4543L111.575 55.7694L111.302 57.4417L110.236 58.0622L109.325 58.531L109.792 59.5944L109.982 60.9652L109.508 60.515L108.909 60.5272L108.944 62.0496L108.502 63.4285L108.026 63.1317L106.949 63.1536L106.38 65.1482L103.71 69.9397L102.223 71.3446L100.742 73.9613L100.706 80.2174L100.689 87.8574L101.474 89.5226L103.785 90.8453L106.117 93.2453L106.14 94.1693L104.769 94.3601L104.462 94.3568L104.182 94.9708L97.7695 95.092L95.2979 94.3808L95.1117 92.7034L91.6062 92.7701L89.7557 91.7253L89.3949 88.969L88.1577 87.9309L87.9503 85.1762L88.6711 83.3367L88.697 76.6017L87.5478 72.4869L83.5634 72.5633L79.0052 73.4226L76.5618 73.1755L75.4515 71.5217L72.8548 71.2729L67.4852 69.8497L61.7819 67.5328L57.1642 66.099L52.6024 67.2649L50.944 68.683L50.7741 68.8157L48.772 74.6953L47.2041 80.2354L43.3296 85.6645L43.3625 87.3403L49.1181 92.5635L50.7942 92.5293L51.8564 92.2155L53.2487 93.1019L54.016 93.3832L54.338 93.6784L55.1317 94.5771L55.4708 95.0108L55.7668 95.934L52.1138 96.7844L49.0665 97.0094L44.9224 96.0258L40.4076 91.5341L35.5743 86.4406L36.7246 83.0499L36.8257 80.1453L34.897 82.9291L33.7413 86.7797L36.2716 91.4556L37.8227 91.8838L39.3454 91.8479L40.8646 92.1187L41.9408 93.4954L42.4697 95.2999L39.5893 95.9717L34.853 96.0587L32.063 94.7457L29.6419 88.0703L26.9994 85.9736L26.5082 84.1395L27.4012 82.2869L30.1947 77.1863L33.34 66.5848L33.2412 61.5576L33.4692 58.0373L31.0217 65.8753L29.7128 69.7242L27.8382 75.261L22.5961 80.5743L18.8184 84.1048L18.983 84.4319L16.9133 87.1132L14.4764 87.9245L11.2493 87.5305L8.34423 87.4316L9.38524 86.0405L9.46308 86.1012Z" fill="#C8B052" stroke="white" stroke-width="0.51"/>
</svg>
