<svg width="148" height="121" viewBox="0 0 148 121" fill="none" xmlns="http://www.w3.org/2000/svg">
<path d="M16.1295 78.3584L25.4015 69.4413L29.5989 65.9571L34.9042 55.312L38.207 46.7666L41.4182 41.4095L44.3631 39.8196L46.16 36.97L51.3615 35.5097L61.1085 35.9522L75.5091 34.945L83.3096 32.8538L87.2028 31.0619L90.0265 25.9306L92.8159 19.6692L97.1988 13.8678L100.65 10.3908L103.762 8.61905L104.694 8.58106L107.008 4.39217L108.508 3.98106L109.481 5.81949L109.951 9.34658L111.462 9.48331L117.195 13.0641L118.785 16.0089L119.622 18.2145L121.105 19.1106L127.397 23.2286L127.644 24.7117L126.932 25.8489L126.553 25.9927L123.447 28.1958L122.728 28.5867L120.471 28.4571L117.649 28.1872L116.899 28.3928L114.666 28.8454L113.472 32.4521L113.757 36.0101L112.654 36.4283L112.881 38.2739L113.47 38.9964L111.967 38.4628L112.214 39.9459L111.286 39.7854L112.057 41.8187L111.41 44.2715L110.646 44.1277L109.718 43.9672L109.976 45.9981L110.23 48.2275L109.104 48.0635L108.464 51.2625L107.626 54.458L106.37 56.5507L104.891 56.5994L104.374 57.9386L103.278 59.1032L102.877 70.7265L103.058 82.3262L102.796 85.8948L105.261 86.5759L106.817 88.3906L106.68 89.901L104.423 89.7714L104.663 91.6513L101.711 92.495L96.6633 92.2809L95.2683 89.5381L94.0895 88.093L92.6448 77.8397L90.588 71.1693L88.9875 67.6766L89.1171 65.4199L88.2913 62.6189L88.2948 62.4205L82.2103 65.3983L76.4193 66.1361L68.5251 65.0698L62.6961 64.8758L61.6527 67.3214L57.9079 73.0385L54.6386 76.6831L55.5202 80.5667L59.2099 85.514L61.2681 85.6401L62.5765 85.9717L63.0636 89.3348L59.7041 89.6234L55.584 89.5698L52.4042 83.6801L48.6729 77.9996L47.8744 76.7256L48.9321 74.6294L47.2921 75.6062L45.5534 80.1682L48.2506 88.5273L48.6582 89.0823L50.72 89.0099L52.0522 89.9238L52.878 92.7248L47.8405 93.0585L44.4632 92.053L43.4247 88.8991L41.1457 81.6428L39.7886 79.8317L40.9451 75.2934L42.2656 69.6285L41.6454 67.5773C41.29 68.3034 40.9822 69.0509 40.7694 69.8411C40.5983 70.2214 37.3871 75.5784 37.3871 75.5784L33.7304 78.3056L30.378 79.3405L18.0378 83.39L14.4692 83.1272L13.8383 80.5282L16.2115 78.3667L16.1295 78.3584Z" fill="black"/>
<path d="M80.2105 47.5494C82.2365 52.8911 79.541 58.8804 74.1993 60.9063C68.8575 62.9323 62.8682 60.2368 60.8423 54.8951C58.8163 49.5533 61.5118 43.564 66.8536 41.5381C72.1953 39.5121 78.1846 42.2076 80.2105 47.5494ZM68.3448 44.6386C66.4577 45.2755 65.1005 46.894 64.7368 48.8453C64.6773 49.1043 64.8164 49.367 65.0754 49.4264L66.8116 49.9505C67.0707 50.0099 67.3333 49.8709 67.4403 49.6332C67.7897 48.4758 68.0762 47.7758 69.1445 47.3707C69.9372 47.07 71.1326 47.208 71.4202 47.9661C71.6424 48.552 71.2775 49.0452 70.6417 49.7593C69.9073 50.6292 68.9494 51.7415 69.5507 53.3268L69.616 53.4991C69.7206 53.7748 70.0058 53.9031 70.2815 53.7986L72.4527 52.9751C72.7284 52.8706 72.8568 52.5854 72.7522 52.3096L72.7261 52.2407C72.3078 51.1379 75.5211 49.8404 74.384 46.8421C73.267 44.6245 70.6147 43.6595 68.3187 44.5697L68.3448 44.6386ZM71.742 54.4273C70.7426 54.8063 70.2505 55.8996 70.6296 56.899C71.0086 57.8985 72.1019 58.3905 73.1013 58.0114C74.1008 57.6324 74.5928 56.5391 74.2138 55.5397C73.8347 54.5403 72.7414 54.0482 71.742 54.4273Z" fill="white"/>
</svg>
