<svg width="149" height="121" viewBox="0 0 149 121" fill="none" xmlns="http://www.w3.org/2000/svg">
<path d="M16.984 78.436L26.256 69.5196L30.4534 66.0357L35.7589 55.3912L39.062 46.8462L42.2733 41.4895L45.2181 39.8998L47.0151 37.0504L52.2164 35.5903L61.963 36.0332L76.3632 35.0267L84.1635 32.9358L88.0566 31.1442L90.8805 26.0132L93.67 19.7522L98.053 13.9512L101.504 10.4744L104.617 8.70287L105.548 8.66492L107.862 4.47629L109.362 4.06526L110.335 5.90365L110.805 9.43064L112.316 9.56743L118.049 13.1483L119.639 16.0931L120.475 18.2987L121.958 19.1948L128.25 23.3129L128.497 24.7959L127.785 25.9331L127.406 26.0768L124.299 28.2797L123.58 28.6706L121.324 28.5409L118.502 28.2709L117.752 28.4764L115.519 28.929L114.324 32.5355L114.609 36.0933L113.506 36.5115L113.733 38.357L114.323 39.0796L112.819 38.5459L113.067 40.0289L112.138 39.8684L112.909 41.9017L112.263 44.3544L111.499 44.2105L110.571 44.05L110.828 46.0809L111.083 48.3102L109.956 48.1461L109.316 51.345L108.478 54.5403L107.222 56.6329L105.743 56.6815L105.226 58.0207L104.13 59.1851L103.729 70.8081L103.909 82.4073L103.647 85.9758L106.112 86.6569L107.668 88.4716L107.531 89.9819L105.274 89.8522L105.514 91.7322L102.562 92.5756L97.5142 92.3613L96.1193 89.6186L94.9406 88.1735L93.4965 77.9205L91.44 71.2503L89.8397 67.7577L89.9694 65.5011L89.1437 62.7001L89.1473 62.5017L83.0629 65.4791L77.2721 66.2166L69.3782 65.15L63.5495 64.9559L62.5059 67.4014L58.761 73.1181L55.4917 76.7624L56.3731 80.6459L60.0624 85.5932L62.1206 85.7193L63.4289 86.0509L63.9159 89.4139L60.5564 89.7024L56.4366 89.6486L53.2571 83.759L49.5262 78.0786L48.7278 76.8046L49.7855 74.7085L48.1455 75.6852L46.4067 80.247L49.1035 88.6059L49.511 89.1608L51.5728 89.0885L52.9048 90.0025L53.7305 92.8034L48.6932 93.1369L45.316 92.1313L44.2777 88.9774L41.9991 81.7213L40.6421 79.9102L41.7987 75.3721L43.1194 69.7075L42.4993 67.6564C42.144 68.3824 41.8361 69.1299 41.6234 69.9201C41.4522 70.3003 38.2409 75.657 38.2409 75.657L34.5842 78.3839L31.2319 79.4187L18.892 83.4675L15.3235 83.2046L14.6927 80.6056L17.066 78.4443L16.984 78.436Z" fill="#8BB5BE" stroke="white" stroke-width="0.51"/>
</svg>
