<svg width="147" height="144" viewBox="0 0 147 144" fill="none" xmlns="http://www.w3.org/2000/svg">
<path d="M145.103 64.2502L143.075 67.9045L142.916 68.2676L142.662 69.8913L137.205 70.0058L136.432 70.0803L133.883 70.4017L128.755 71.0491L122.799 71.1184L117.358 70.8457L113.219 71.8155L111.407 72.3292L109.209 81.6851L107.725 89.8068L108.345 96.8306L108.864 98.3797L108.978 98.5158L111.443 99.3303L114.163 100.305L114.587 103.115L108.88 103.206L100.558 100.831L99.1844 97.0622L97.8145 95.1846L97.6394 95.9348L98.0968 98.3702L98.2962 99.1542L100.586 100.719L102.842 102.658L102.588 104.282L102.089 104.237L99.5793 103.921L93.537 103.343L85.0283 101.842L84.7882 99.9113L85.7636 98.5747L84.2336 96.9527L82.6742 94.0589L82.4045 90.856L81.363 84.1901L68.4851 85.141L66.0998 84.8369L64.5281 85.6054L64.6009 84.5944L61.9534 84.2851L61.1582 84.6094L59.6254 84.7411L60.0561 84.1509L59.1525 84.0768L57.2402 84.4371L57.2904 83.6757L55.6892 83.1722L55.0413 83.2581L53.9377 91.551L56.7621 92.8937L58.4782 93.6406L59.7266 97.3981L55.5802 96.8463L46.9988 96.3569L43.7611 95.617L43.011 95.442L43.7517 97.5256L40.1969 97.5119L34.5679 96.3305L27.3382 96.322L21.386 94.745L20.3454 93.4005L21.0773 92.1788L21.9678 90.594L23.3665 76.6107L23.9615 70.1813L22.6409 62.2211L25.2547 54.046L21.3273 55.7823L21.2945 52.6192L23.0549 47.5457L25.9529 44.34L30.1087 42.9833L31.8812 43.1062L32.9762 42.0431L41.1322 37.939L50.9067 34.3509L58.7491 34.5406L69.1795 37.7094L76.5429 41.0344L84.1264 43.1101L91.1614 42.3647L96.9246 41.6488L100.457 41.912L107.37 44.3231L119.37 50.1535L126.044 52.4173L126.482 51.6722L127.817 52.5402L128.29 53.2046L132.148 54.3704L133.905 56.2645L135.844 59.3295L141.004 61.7378L143.1 62.656L144.441 63.2616L145.141 64.1981L145.103 64.2502ZM37.7193 91.7933L40.1679 92.9948L40.782 93.2834L41.6805 89.6826L42.5813 82.6518L41.5389 79.5234L40.9942 80.2699L38.8473 85.0346L37.8779 91.4302L37.7193 91.7933Z" fill="black"/>
<path d="M75.9439 51.3711C81.3251 55.2981 82.5026 62.8347 78.5757 68.2159C74.6487 73.5971 67.1122 74.7746 61.7309 70.8477C56.3497 66.9208 55.1722 59.3842 59.0991 54.003C63.0261 48.6218 70.5627 47.4442 75.9439 51.3711ZM62.5179 56.0987C61.0804 57.9228 60.7557 60.3727 61.6733 62.5056C61.7803 62.7964 62.096 62.9471 62.3916 62.8701L64.4165 62.2461C64.7247 62.1518 64.9054 61.8314 64.8111 61.5232C64.4452 60.1654 64.2664 59.3167 65.0518 58.2405C65.6345 57.442 66.8773 56.8325 67.6584 57.4026C68.2486 57.8333 68.1891 58.5347 68.0577 59.6625C67.9071 60.9626 67.65 62.6637 69.2643 63.8418L69.4206 63.9558C69.681 64.1458 70.0412 64.0895 70.2313 63.8291L71.84 61.6246C72.03 61.3642 71.9738 61.0039 71.7134 60.8139L71.6613 60.7759C70.5503 59.9651 72.8797 56.6637 69.8593 54.4596C67.5853 52.8001 64.144 53.9068 62.5226 56.1287L62.5179 56.0987ZM72.0661 63.4656C71.3441 64.455 71.5646 65.8662 72.554 66.5883C73.5435 67.3103 74.9547 67.0899 75.6767 66.1004C76.3988 65.111 76.1783 63.6997 75.1889 62.9777C74.1994 62.2556 72.8008 62.4588 72.0661 63.4656Z" fill="white"/>
</svg>
