<svg width="147" height="144" viewBox="0 0 147 144" fill="none" xmlns="http://www.w3.org/2000/svg">
<path d="M145.105 64.311L143.077 67.9655L142.919 68.3287L142.665 69.9525L137.208 70.0673L136.435 70.1419L133.886 70.4635L128.758 71.1113L122.801 71.1811L117.36 70.9088L113.221 71.8789L111.41 72.3928L109.212 81.7491L107.728 89.8711L108.349 96.895L108.868 98.4442L108.982 98.5802L111.447 99.3946L114.168 100.369L114.592 103.179L108.885 103.271L100.562 100.896L99.1883 97.1274L97.8182 95.2498L97.6432 96.0001L98.1008 98.4355L98.3003 99.2195L100.59 100.784L102.847 102.723L102.593 104.347L102.094 104.302L99.5838 103.987L93.5413 103.409L85.0323 101.909L84.7919 99.9776L85.7672 98.6409L84.2372 97.019L82.6775 94.1253L82.4075 90.9222L81.3655 84.2563L68.4873 85.2081L66.102 84.9043L64.5303 85.6729L64.6029 84.6618L61.9554 84.3528L61.1601 84.6771L59.6274 84.809L60.0581 84.2187L59.1544 84.1447L57.2421 84.5051L57.2922 83.7437L55.6909 83.2404L55.043 83.3262L53.9401 91.6194L56.7646 92.962L58.4809 93.7088L59.7296 97.4663L55.583 96.9148L47.0013 96.4261L43.7635 95.6863L43.0133 95.5114L43.7543 97.5949L40.1993 97.5816L34.5701 96.4006L27.3402 96.3926L21.3877 94.8161L20.347 93.4716L21.0788 92.2498L21.9692 90.6649L23.3669 76.6811L23.9614 70.2515L22.6402 62.2912L25.2534 54.1157L21.3261 55.8524L21.293 52.6892L23.053 47.6154L25.9509 44.4094L30.1067 43.0523L31.8793 43.1751L32.9742 42.1119L41.1301 38.007L50.9046 34.4182L58.7472 34.6072L69.1781 37.7753L76.5419 41.0999L84.1258 43.175L91.161 42.429L96.9242 41.7127L100.457 41.9757L107.37 44.3863L119.37 50.2159L126.045 52.4792L126.483 51.7342L127.818 52.602L128.291 53.2664L132.149 54.432L133.906 56.3259L135.846 59.3909L141.006 61.7989L143.103 62.7169L144.443 63.3225L145.143 64.2589L145.105 64.311ZM37.7213 91.863L40.17 93.0644L40.7841 93.3529L41.6823 89.752L42.5827 82.7209L41.54 79.5925L40.9953 80.339L38.8487 85.1041L37.8798 91.4999L37.7213 91.863Z" fill="#643C1E" stroke="white" stroke-width="0.51" stroke-miterlimit="4.01"/>
</svg>
