<svg width="148" height="138" viewBox="0 0 148 138" fill="none" xmlns="http://www.w3.org/2000/svg">
<path d="M15.5352 21.4093V18.5907C15.5352 12.3497 20.6085 7.27637 26.8495 7.27637H29.668V10.0949C29.668 16.3359 24.5947 21.4093 18.3537 21.4093H15.5352Z" fill="#F9D43A" stroke="white" stroke-width="0.51"/>
<path d="M15.536 21.4093H12.7174C6.47638 21.4093 1.40308 16.3359 1.40308 10.0949V7.27637H4.22162C10.4626 7.27637 15.536 12.3497 15.536 18.5907V21.4093Z" fill="#F9D43A" stroke="white" stroke-width="0.51"/>
<path d="M58.0152 67.19C57.3307 67.19 56.7671 66.586 56.8073 65.9015C56.8073 65.2573 57.371 64.6936 58.0152 64.6936H60.5519L15.5361 19.6777C7.40263 27.8112 4.14115 39.6892 6.99994 50.8425C8.44947 56.4796 11.3888 61.6335 15.5361 65.7807C15.9387 66.1834 16.3413 66.5457 16.744 66.9081C20.8912 70.6527 25.9243 73.2699 31.3601 74.4779C41.547 76.8132 52.2171 74.0752 60.0687 67.19H58.0555H58.0152Z" fill="#F9993A" stroke="white" stroke-width="0.51"/>
<path d="M58.0148 67.1901C57.3303 67.1901 56.7666 66.6264 56.7666 65.9017C56.7666 65.2172 57.3303 64.6535 58.0148 64.6535H60.5515L47.1031 51.2051C44.6872 52.6143 42.5129 54.3055 40.5399 56.2784C35.6277 61.1907 32.4065 67.5525 31.3596 74.4378C41.5466 76.7329 52.2167 74.0351 60.0683 67.1499H58.0551L58.0148 67.1901Z" fill="#F9D43A" stroke="white" stroke-width="0.51"/>
<path d="M47.949 66.9883C50.2617 66.9883 52.1365 65.1135 52.1365 62.8008C52.1365 60.4881 50.2617 58.6133 47.949 58.6133C45.6363 58.6133 43.7615 60.4881 43.7615 62.8008C43.7615 65.1135 45.6363 66.9883 47.949 66.9883Z" fill="black" stroke="black" stroke-width="0.51"/>
<path d="M31.1986 35.3003L38.3657 42.4674L40.701 40.1321C42.9559 37.8772 42.9559 34.2132 40.701 31.9583L32.9702 24.2275L31.1583 26.0394C28.5814 28.6164 28.5814 32.7234 31.1583 35.3003H31.1986Z" fill="#F9D43A" stroke="white" stroke-width="0.51"/>
<path d="M8.16713 63.4445L1 56.2774L3.33539 53.9421C5.59021 51.6873 9.25428 51.6873 11.5091 53.9421L19.2399 61.6729L17.428 63.4848C14.8511 66.0618 10.7441 66.0618 8.16713 63.4848V63.4445Z" fill="#F9D43A" stroke="white" stroke-width="0.51"/>
<path d="M128.316 19.6359L129.484 17.059C132.021 11.3414 129.484 4.65747 123.726 2.1208L121.149 0.953125L119.982 3.53006C117.445 9.24763 119.982 15.9316 125.739 18.4682L128.316 19.6359Z" fill="#F9D43A" stroke="white" stroke-width="0.51"/>
<path d="M128.317 19.6365L130.894 20.8042C136.612 23.3408 143.296 20.8042 145.832 15.0463L147 12.4694L144.423 11.3017C138.705 8.76504 132.021 11.3017 129.485 17.0596L128.317 19.6365Z" fill="#F9D43A" stroke="white" stroke-width="0.51"/>
<path d="M70.8991 44.1984C71.5433 44.44 72.2681 44.1581 72.5499 43.5139C72.7915 42.9099 72.5499 42.1851 71.946 41.9033L69.6509 40.8564L129.081 18.0264C135.524 34.8167 127.149 53.6606 110.358 60.1029C109.835 60.3042 109.312 60.5056 108.788 60.6666C93.0849 65.7802 76.0127 58.3313 69.0872 43.3528L70.9394 44.1581L70.8991 44.1984Z" fill="#F9993A" stroke="white" stroke-width="0.51"/>
<path d="M70.8597 44.1965C71.5039 44.4381 72.2287 44.1562 72.5106 43.512C72.7522 42.908 72.5106 42.1832 71.9066 41.9014L69.6115 40.8545L87.3682 34.0498C93.0858 42.0625 94.8977 52.2092 92.2805 61.6713C82.0533 59.6581 73.3964 52.8534 69.0076 43.3509L70.8597 44.1562V44.1965Z" fill="#F9D43A" stroke="white" stroke-width="0.51"/>
<path d="M81.8918 48.4639C84.2045 48.4639 86.0793 46.5891 86.0793 44.2764C86.0793 41.9637 84.2045 40.0889 81.8918 40.0889C79.5791 40.0889 77.7043 41.9637 77.7043 44.2764C77.7043 46.5891 79.5791 48.4639 81.8918 48.4639Z" fill="black" stroke="black" stroke-width="0.51"/>
<path d="M108.345 25.9552L98.8831 29.579L97.6752 26.4786C96.5478 23.4991 98.0376 20.1571 101.017 19.0297L111.204 15.124L112.13 17.4997C113.419 20.8819 111.728 24.6667 108.345 25.9552Z" fill="#F9D43A" stroke="white" stroke-width="0.51"/>
<path d="M117.969 61.0695L127.431 57.4457L126.223 54.3453C125.095 51.3657 121.753 49.8759 118.774 51.0033L108.587 54.909L109.513 57.2846C110.801 60.6668 114.586 62.3579 117.969 61.0695Z" fill="#F9D43A" stroke="white" stroke-width="0.51"/>
<path d="M59.3032 111.882L56.6055 110.956C50.6866 108.902 47.5459 102.46 49.5994 96.5815L50.5256 93.8838L53.2233 94.8099C59.1422 96.8634 62.2828 103.306 60.2293 109.184L59.3032 111.882Z" fill="#F9D43A" stroke="white" stroke-width="0.51"/>
<path d="M59.3032 111.84L58.3771 114.538C56.3236 120.457 49.8813 123.597 43.9624 121.544L41.2646 120.618L42.1907 117.92C44.2442 112.001 50.6866 108.861 56.6055 110.914L59.3032 111.84Z" fill="#F9D43A" stroke="white" stroke-width="0.51"/>
<path d="M116.439 86.5979C116.197 87.2422 115.473 87.5643 114.828 87.3227C114.224 87.0811 113.902 86.3966 114.063 85.7926L114.869 83.417L57.6526 111.32C62.6857 121.668 72.8324 128.594 84.3481 129.52C90.1462 130.003 95.9845 128.876 101.219 126.339C101.702 126.098 102.226 125.856 102.709 125.574C107.581 122.876 111.728 118.971 114.627 114.219C120.143 105.361 121.029 94.369 117.083 84.7055L116.439 86.5979Z" fill="#F9993A" stroke="white" stroke-width="0.51"/>
<path d="M116.439 86.5979C116.197 87.2422 115.472 87.6046 114.828 87.363C114.184 87.1214 113.862 86.4368 114.063 85.7926L114.868 83.417L97.7559 91.7518C98.3196 94.4898 99.2054 97.107 100.413 99.6034C103.473 105.844 108.426 110.998 114.586 114.179C120.103 105.321 120.989 94.3287 117.043 84.6652L116.398 86.5576L116.439 86.5979Z" fill="#F9D43A" stroke="white" stroke-width="0.51"/>
<path d="M108.99 98.917C111.303 98.917 113.178 97.0422 113.178 94.7295C113.178 92.4168 111.303 90.542 108.99 90.542C106.677 90.542 104.802 92.4168 104.802 94.7295C104.802 97.0422 106.677 98.917 108.99 98.917Z" fill="black" stroke="black" stroke-width="0.51"/>
<path d="M77.5838 101.576L86.7239 97.1065L85.2744 94.1269C83.8651 91.2681 80.4024 90.0602 77.5436 91.4694L67.719 96.2609L68.8464 98.556C70.4167 101.817 74.3626 103.146 77.5838 101.576Z" fill="#F9D43A" stroke="white" stroke-width="0.51"/>
<path d="M96.6689 132.496L87.5288 136.966L86.0793 133.986C84.67 131.127 85.878 127.665 88.7368 126.255L98.5613 121.464L99.6888 123.759C101.259 127.02 99.9303 130.926 96.6689 132.537V132.496Z" fill="#F9D43A" stroke="white" stroke-width="0.51"/>
</svg>
