<svg width="146" height="137" viewBox="0 0 146 137" fill="none" xmlns="http://www.w3.org/2000/svg">
<path d="M14.5349 20.4562V17.6376C14.5349 11.3966 19.6083 6.32324 25.8493 6.32324H28.6678V9.14176C28.6678 15.3828 23.5945 20.4562 17.3534 20.4562H14.5349Z" fill="black"/>
<path d="M14.536 20.4562H11.7174C5.47639 20.4562 0.403076 15.3828 0.403076 9.14176V6.32324H3.22163C9.46266 6.32324 14.536 11.3966 14.536 17.6376V20.4562Z" fill="black"/>
<path d="M57.0154 66.237C56.3309 66.237 55.7672 65.633 55.8075 64.9485C55.8075 64.3043 56.3711 63.7406 57.0154 63.7406H59.5521L14.5361 18.7246C6.40263 26.8581 3.14115 38.7362 5.99995 49.8895C7.44948 55.5266 10.3888 60.6805 14.5361 64.8277C14.9388 65.2304 15.3414 65.5928 15.744 65.9551C19.8913 69.6998 24.9244 72.317 30.3601 73.5249C40.5471 75.8603 51.2173 73.1223 59.0689 66.237H57.0557H57.0154Z" fill="black"/>
<path d="M57.0151 66.2371C56.3306 66.2371 55.7669 65.6734 55.7669 64.9486C55.7669 64.2641 56.3306 63.7004 57.0151 63.7004H59.5518L46.1034 50.252C43.6875 51.6612 41.5132 53.3523 39.5402 55.3253C34.6279 60.2376 31.4067 66.5995 30.3599 73.4847C40.5468 75.7798 51.217 73.0821 59.0687 66.1968H57.0554L57.0151 66.2371Z" fill="black"/>
<path d="M46.9492 66.0352C49.2619 66.0352 51.1368 64.1604 51.1368 61.8477C51.1368 59.535 49.2619 57.6602 46.9492 57.6602C44.6365 57.6602 42.7617 59.535 42.7617 61.8477C42.7617 64.1604 44.6365 66.0352 46.9492 66.0352Z" fill="black"/>
<path d="M30.1986 34.3472L37.3657 41.5143L39.7011 39.179C41.9559 36.9242 41.9559 33.2601 39.7011 31.0052L31.9703 23.2744L30.1583 25.0863C27.5813 27.6633 27.5813 31.7703 30.1583 34.3472H30.1986Z" fill="black"/>
<path d="M7.16715 62.4915L0 55.3243L2.33539 52.989C4.59022 50.7341 8.25431 50.7341 10.5091 52.989L18.24 60.7198L16.4281 62.5317C13.8511 65.1087 9.7441 65.1087 7.16715 62.5317V62.4915Z" fill="black"/>
<path d="M127.317 18.6828L128.484 16.1059C131.021 10.3883 128.484 3.70436 122.726 1.16768L120.15 0L118.982 2.57694C116.445 8.29454 118.982 14.9785 124.74 17.5152L127.317 18.6828Z" fill="black"/>
<path d="M127.318 18.6834L129.895 19.8511C135.612 22.3878 142.296 19.8511 144.833 14.0932L146 11.5163L143.424 10.3486C137.706 7.81191 131.022 10.3486 128.485 16.1064L127.318 18.6834Z" fill="black"/>
<path d="M69.8994 43.2453C70.5436 43.4869 71.2683 43.2051 71.5502 42.5608C71.7918 41.9569 71.5502 41.2321 70.9462 40.9502L68.6512 39.9033L128.082 17.0732C134.524 33.8636 126.149 52.7076 109.359 59.1499C108.835 59.3512 108.312 59.5526 107.788 59.7136C92.0852 64.8273 75.0129 57.3783 68.0874 42.3998L69.9396 43.2051L69.8994 43.2453Z" fill="black"/>
<path d="M69.86 43.2434C70.5042 43.485 71.229 43.2031 71.5108 42.5589C71.7524 41.9549 71.5109 41.2301 70.9069 40.9483L68.6118 39.9014L86.3685 33.0967C92.0861 41.1094 93.898 51.2561 91.2808 60.7183C81.0536 58.7051 72.3967 51.9003 68.0078 42.3978L69.86 43.2031V43.2434Z" fill="black"/>
<path d="M80.8921 47.5118C83.2048 47.5118 85.0796 45.637 85.0796 43.3243C85.0796 41.0115 83.2048 39.1367 80.8921 39.1367C78.5794 39.1367 76.7046 41.0115 76.7046 43.3243C76.7046 45.637 78.5794 47.5118 80.8921 47.5118Z" fill="black"/>
<path d="M107.346 25.0021L97.8836 28.626L96.6757 25.5256C95.5483 22.546 97.0381 19.204 100.018 18.0766L110.205 14.1709L111.131 16.5465C112.419 19.9288 110.728 23.7137 107.346 25.0021Z" fill="black"/>
<path d="M116.969 60.1164L126.431 56.4926L125.223 53.3922C124.096 50.4126 120.754 48.9228 117.774 50.0502L107.587 53.9559L108.513 56.3315C109.802 59.7137 113.587 61.4049 116.969 60.1164Z" fill="black"/>
<path d="M58.3035 110.93L55.6058 110.004C49.6868 107.95 46.5462 101.508 48.5997 95.6294L49.5258 92.9316L52.2235 93.8577C58.1425 95.9112 61.2831 102.354 59.2296 108.232L58.3035 110.93Z" fill="black"/>
<path d="M58.3032 110.887L57.3772 113.585C55.3237 119.504 48.8813 122.644 42.9624 120.591L40.2646 119.665L41.1907 116.967C43.2442 111.048 49.6866 107.907 55.6055 109.961L58.3032 110.887Z" fill="black"/>
<path d="M115.439 85.6448C115.198 86.2891 114.473 86.6111 113.829 86.3696C113.225 86.128 112.903 85.4434 113.064 84.8395L113.869 82.4639L56.6528 110.367C61.6859 120.715 71.8327 127.641 83.3484 128.567C89.1465 129.05 94.9849 127.923 100.219 125.386C100.703 125.145 101.226 124.903 101.709 124.621C106.581 121.923 110.728 118.018 113.627 113.266C119.144 104.408 120.03 93.4159 116.084 83.7524L115.439 85.6448Z" fill="black"/>
<path d="M115.439 85.6448C115.198 86.2891 114.473 86.6514 113.829 86.4099C113.184 86.1683 112.862 85.4837 113.064 84.8395L113.869 82.4639L96.7563 90.7987C97.3201 93.5367 98.2059 96.1539 99.4138 98.6503C102.474 104.891 107.426 110.045 113.587 113.226C119.103 104.368 119.989 93.3756 116.043 83.7121L115.399 85.6045L115.439 85.6448Z" fill="black"/>
<path d="M107.99 97.9639C110.303 97.9639 112.178 96.0891 112.178 93.7764C112.178 91.4637 110.303 89.5889 107.99 89.5889C105.678 89.5889 103.803 91.4637 103.803 93.7764C103.803 96.0891 105.678 97.9639 107.99 97.9639Z" fill="black"/>
<path d="M76.5838 100.623L85.724 96.1534L84.2744 93.1738C82.8652 90.315 79.4024 89.107 76.5436 90.5163L66.719 95.3078L67.8464 97.6029C69.4167 100.864 73.3627 102.193 76.5838 100.623Z" fill="black"/>
<path d="M95.6694 131.543L86.5293 136.013L85.0798 133.033C83.6705 130.174 84.8785 126.712 87.7373 125.302L97.5619 120.511L98.6893 122.806C100.26 126.067 98.9309 129.973 95.6694 131.584V131.543Z" fill="black"/>
<path d="M35.2726 52.7079C35.2726 58.949 30.1992 64.0224 23.9582 64.0224C17.7171 64.0224 12.6438 58.949 12.6438 52.7079C12.6438 46.4669 17.7171 41.3936 23.9582 41.3936C30.1992 41.3936 35.2726 46.4669 35.2726 52.7079ZM24.2803 45.1382C22.106 45.0576 20.0927 46.1851 18.9653 48.0372C18.8043 48.2788 18.8445 48.601 19.0861 48.762L20.6564 49.9699C20.898 50.131 21.2202 50.0907 21.4215 49.8894C22.2268 48.8425 22.7905 48.2385 24.0387 48.2385C24.9648 48.2385 26.1325 48.8425 26.1325 49.7284C26.1325 50.4129 25.5688 50.7752 24.6427 51.2584C23.5555 51.8624 22.1463 52.6274 22.1463 54.4796V54.6809C22.1463 55.0031 22.3879 55.2446 22.71 55.2446H25.2466C25.5687 55.2446 25.8103 55.0031 25.8103 54.6809V54.6004C25.8103 53.3119 29.5952 53.2314 29.5952 49.7284C29.3134 47.0306 26.978 45.0174 24.2803 45.0577V45.1382ZM23.9582 56.4526C22.7905 56.4526 21.8644 57.3787 21.8644 58.5463C21.8644 59.714 22.7905 60.6401 23.9582 60.6401C25.1259 60.6401 26.052 59.714 26.052 58.5463C26.052 57.3787 25.1259 56.4526 23.9582 56.4526Z" fill="white"/>
<path d="M114.915 44.5331C114.915 50.7742 109.842 55.8476 103.601 55.8476C97.36 55.8476 92.2866 50.7742 92.2866 44.5331C92.2866 38.2921 97.36 33.2188 103.601 33.2188C109.842 33.2188 114.915 38.2921 114.915 44.5331ZM103.923 36.9634C101.749 36.8828 99.7356 38.0103 98.6082 39.8624C98.4471 40.104 98.4874 40.4261 98.7289 40.5872L100.299 41.7951C100.541 41.9562 100.863 41.9159 101.064 41.7146C101.87 40.6677 102.433 40.0637 103.682 40.0637C104.608 40.0637 105.775 40.6677 105.775 41.5536C105.775 42.2381 105.212 42.6004 104.285 43.0836C103.198 43.6876 101.789 44.4526 101.789 46.3048V46.5061C101.789 46.8282 102.031 47.0698 102.353 47.0698H104.89C105.212 47.0698 105.453 46.8282 105.453 46.5061V46.4256C105.453 45.1371 109.238 45.0566 109.238 41.5536C108.956 38.8558 106.621 36.8426 103.923 36.8828V36.9634ZM103.601 48.2778C102.433 48.2778 101.507 49.2039 101.507 50.3715C101.507 51.5392 102.433 52.4653 103.601 52.4653C104.769 52.4653 105.695 51.5392 105.695 50.3715C105.695 49.2039 104.769 48.2778 103.601 48.2778Z" fill="white"/>
<path d="M102.635 109.885C102.635 116.126 97.562 121.199 91.321 121.199C85.0799 121.199 80.0066 116.126 80.0066 109.885C80.0066 103.644 85.0799 98.5703 91.321 98.5703C97.562 98.5703 102.635 103.644 102.635 109.885ZM91.6431 102.315C89.4688 102.234 87.4556 103.362 86.3282 105.214C86.1671 105.456 86.2074 105.778 86.449 105.939L88.0193 107.147C88.2609 107.308 88.583 107.268 88.7843 107.066C89.5896 106.019 90.1533 105.415 91.4015 105.415C92.3276 105.415 93.4953 106.019 93.4953 106.905C93.4953 107.59 92.9316 107.952 92.0055 108.435C90.9183 109.039 89.5091 109.804 89.5091 111.656V111.858C89.5091 112.18 89.7507 112.421 90.0728 112.421H92.6095C92.9316 112.421 93.1732 112.18 93.1732 111.858V111.777C93.1732 110.489 96.9581 110.408 96.9581 106.905C96.6762 104.207 94.3408 102.194 91.6431 102.234V102.315ZM91.321 113.629C90.1533 113.629 89.2272 114.555 89.2272 115.723C89.2272 116.891 90.1533 117.817 91.321 117.817C92.4887 117.817 93.4148 116.891 93.4148 115.723C93.4148 114.555 92.4887 113.629 91.321 113.629Z" fill="white"/>
</svg>
