<svg width="147" height="143" viewBox="0 0 147 143" fill="none" xmlns="http://www.w3.org/2000/svg">
<path d="M1.89689 77.1883L9.25109 85.0905L9.63882 85.5194C10.6793 86.6412 11.7871 87.7043 12.9445 88.6963C18.9678 93.8476 26.383 97.1166 34.261 98.0931C39.3514 98.7107 44.4996 98.8666 49.6274 98.5593C54.015 98.2905 58.3914 97.6969 62.6785 96.7769C66.6036 95.9214 70.4678 94.8122 74.2357 93.4244C86.8841 88.7724 98.2598 81.1723 107.418 71.2596C75.0649 48.6719 31.4756 51.1371 1.90224 77.2184L1.89689 77.1883Z" fill="black"/>
<path d="M127.972 51.9377C128.406 51.5802 128.449 50.95 128.109 50.5281C127.869 50.2285 127.505 50.1066 127.131 50.189L127.113 50.1766C115.796 52.6926 106.428 60.5571 102.015 71.2424C105.975 81.3216 114.337 89.0285 124.688 92.1787L124.724 92.2035C125.315 92.3782 125.924 92.0362 126.098 91.4448C126.227 91.0328 126.086 90.591 125.786 90.3022C121.042 86.0433 117.549 80.5963 115.657 74.5216C116.809 65.7096 121.21 57.6568 127.989 51.9501L127.972 51.9377Z" fill="black"/>
<path d="M59.8639 39.7095L60.6306 62.5132L45.7017 61.5333C43.5398 51.678 49.7728 41.9445 59.6102 39.7703C59.7007 39.7541 59.7734 39.7256 59.8516 39.7272L59.8639 39.7095Z" fill="black"/>
<path d="M58.3391 84.135C53.8161 85.1283 50.9572 89.6067 51.9505 94.1297C52.7468 97.723 55.787 100.371 59.4354 100.67L75.3785 102.014L67.4403 88.1306C65.6257 84.9368 61.927 83.3085 58.3337 84.1048L58.3391 84.135Z" fill="black"/>
<path d="M20.1034 74.6423C21.674 75.7375 23.835 75.3521 24.9302 73.7816C26.0254 72.211 25.6401 70.05 24.0696 68.9548C22.499 67.8595 20.338 68.2449 19.2427 69.8154C18.1475 71.386 18.5328 73.547 20.1034 74.6423Z" fill="black"/>
<path d="M63.6335 81.8841C59.7913 87.3938 52.2192 88.7439 46.7095 84.9017C41.1997 81.0595 39.8496 73.4875 43.6918 67.9777C47.534 62.468 55.1061 61.1178 60.6159 64.96C66.1256 68.8022 67.4758 76.3743 63.6335 81.8841ZM58.5771 68.4518C56.7072 67.0421 54.2304 66.7678 52.1002 67.7391C51.8093 67.8532 51.6643 68.1748 51.7482 68.4711L52.4211 70.4988C52.5228 70.8075 52.8497 70.9827 53.1584 70.881C54.5192 70.4827 55.3709 70.2841 56.4729 71.0526C57.2905 71.6227 57.9317 72.8624 57.374 73.6622C56.9526 74.2665 56.2442 74.2216 55.1044 74.1136C53.7906 73.9899 52.0701 73.7675 50.9174 75.4204L50.8059 75.5804C50.62 75.847 50.6845 76.209 50.9511 76.3949L53.2083 77.9689C53.4749 78.1548 53.837 78.0903 54.0229 77.8237L54.0601 77.7704C54.8533 76.6329 58.2318 78.9097 60.3884 75.8171C62.0121 73.4888 60.822 70.0436 58.547 68.4571L58.5771 68.4518ZM51.3573 78.2367C50.3443 77.5302 48.9264 77.7831 48.2199 78.7962C47.5134 79.8092 47.7662 81.2271 48.7793 81.9336C49.7924 82.6401 51.2103 82.3872 51.9168 81.3742C52.6232 80.3611 52.3882 78.9556 51.3573 78.2367Z" fill="white"/>
<path d="M15.3599 90.4587L13.1717 88.7478L11.6976 87.3765L21.5039 80.6633C22.8211 82.6384 22.2968 85.2843 20.3216 86.6014L15.3723 90.4409L15.3599 90.4587Z" fill="black"/>
<path d="M39.9114 87.1877C40.1651 87.1269 40.3725 86.981 40.4857 86.7429C42.1802 83.3281 42.6402 79.4486 41.7798 75.7579C41.6388 75.3161 41.1572 75.0596 40.7155 75.2006C40.2861 75.3239 40.0242 75.7752 40.135 76.2224C40.8598 79.5015 40.463 82.9495 38.9755 85.9539C38.7561 86.3821 38.9257 86.8966 39.3361 87.1035C39.5084 87.1973 39.7304 87.22 39.9114 87.1877Z" fill="black"/>
<path d="M36.0627 86.7216C36.3165 86.6608 36.5239 86.5149 36.6371 86.2768C38.3315 82.862 38.7915 78.9825 37.9311 75.2918C37.7901 74.85 37.3086 74.5934 36.849 74.7221C36.4073 74.8631 36.1577 75.2967 36.2686 75.7438C36.9934 79.0229 36.5966 82.4709 35.109 85.4753C34.8897 85.9035 35.0592 86.418 35.4697 86.625C35.642 86.7188 35.864 86.7415 36.045 86.7092L36.0627 86.7216Z" fill="black"/>
<path d="M49.7477 98.2722C54.1354 98.0034 58.4887 97.3673 62.7704 96.417C66.6776 95.5492 70.5365 94.4098 74.2866 93.0096L67.4153 88.1651L60.6316 88.6121L52.2721 89.3867C52.2721 89.3867 48.3962 93.922 49.7175 98.2776L49.7477 98.2722Z" fill="black"/>
</svg>
