<svg width="147" height="144" viewBox="0 0 147 144" fill="none" xmlns="http://www.w3.org/2000/svg">
<path d="M2.18048 77.7947L9.53486 85.6962L9.92261 86.125C10.9631 87.2467 12.0709 88.3097 13.2283 89.3016C19.2517 94.4523 26.6668 97.7207 34.5445 98.6966C39.6347 99.3138 44.7827 99.4694 49.9102 99.1618C54.2977 98.8927 58.6739 98.2989 62.9607 97.3786C66.8855 96.5229 70.7495 95.4135 74.5171 94.0256C87.1647 89.3729 98.5394 81.7724 107.696 71.8596C75.3434 49.275 31.7563 51.7428 2.18584 77.8249L2.18048 77.7947Z" fill="#9E9E9E" stroke="white" stroke-width="0.51"/>
<path d="M128.248 52.5384C128.682 52.1809 128.725 51.5507 128.386 51.1288C128.145 50.8293 127.781 50.7074 127.407 50.7898L127.389 50.7774C116.072 53.294 106.706 61.1588 102.293 71.8439C106.254 81.9224 114.616 89.6285 124.967 92.7778L125.003 92.8027C125.594 92.9773 126.202 92.6353 126.377 92.0439C126.506 91.6319 126.365 91.1902 126.064 90.9014C121.321 86.6429 117.828 81.1964 115.935 75.1221C117.087 66.3104 121.487 58.2577 128.266 52.5508L128.248 52.5384Z" fill="#9E9E9E" stroke="white" stroke-width="0.51"/>
<path d="M60.1425 40.3155L60.9106 63.1182L45.9823 62.1393C43.8199 52.2846 50.0519 42.5512 59.8888 40.3763C59.9793 40.3602 60.052 40.3316 60.1301 40.3333L60.1425 40.3155Z" fill="#9E9E9E" stroke="white" stroke-width="0.51"/>
<path d="M20.3859 75.2494C21.9565 76.3445 24.1174 75.959 25.2125 74.3885C26.3075 72.8179 25.9221 70.657 24.3516 69.5619C22.781 68.4668 20.6201 68.8523 19.525 70.4229C18.4299 71.9934 18.8154 74.1543 20.3859 75.2494Z" fill="black"/>
<path d="M20.6957 74.8039C22.0209 75.7278 23.8442 75.4026 24.7681 74.0774C25.6921 72.7523 25.3669 70.929 24.0418 70.005C22.7166 69.0811 20.8933 69.4063 19.9693 70.7314C19.0454 72.0566 19.3706 73.8799 20.6957 74.8039Z" stroke="white" stroke-width="0.51"/>
<path d="M15.6438 91.0667L13.4555 89.3561L11.9815 87.9849L21.7869 81.2714C23.1041 83.2463 22.58 85.8921 20.605 87.2093L15.6562 91.0489L15.6438 91.0667Z" fill="white" stroke="white" stroke-width="0.51"/>
<path d="M40.1939 87.7917C40.4477 87.7309 40.6551 87.5849 40.7682 87.3469C42.4624 83.9321 42.9221 80.0528 42.0615 76.3623C41.9205 75.9205 41.439 75.664 40.9972 75.8051C40.5679 75.9284 40.306 76.3797 40.4169 76.8268C41.1418 80.1058 40.7453 83.5536 39.258 86.558C39.0387 86.9862 39.2082 87.5006 39.6187 87.7076C39.791 87.8013 40.0129 87.824 40.1939 87.7917Z" fill="black" stroke="white" stroke-width="0.51"/>
<path d="M36.3448 87.3256C36.5985 87.2647 36.8059 87.1189 36.9191 86.8808C38.6133 83.466 39.073 79.5867 38.2123 75.8962C38.0713 75.4544 37.5898 75.1979 37.1303 75.3265C36.6886 75.4676 36.4391 75.9012 36.55 76.3483C37.2749 79.6272 36.8783 83.0751 35.3911 86.0795C35.1717 86.5077 35.3413 87.0221 35.7518 87.229C35.9241 87.3228 36.146 87.3455 36.327 87.3132L36.3448 87.3256Z" fill="black" stroke="white" stroke-width="0.51"/>
<path d="M50.0302 98.8765C54.4176 98.6074 58.7706 97.971 63.0521 97.0206C66.9592 96.1525 70.8178 95.0129 74.5676 93.6125L67.6963 88.7687L60.9129 89.2161L52.5538 89.9912C52.5538 89.9912 48.6784 94.5265 50 98.8818L50.0302 98.8765Z" fill="#4D4D4D"/>
<path d="M58.6204 84.7393C54.0976 85.7328 51.2391 90.2112 52.2326 94.734C53.0291 98.327 56.0694 100.975 59.7176 101.274L75.6601 102.616L67.7213 88.7342C65.9067 85.5406 62.208 83.9126 58.615 84.7091L58.6204 84.7393Z" fill="#9E9E9E" stroke="white" stroke-width="0.51"/>
</svg>
