<?xml version="1.0" encoding="UTF-8" standalone="no"?>
<svg id="svg2" xmlns:rdf="http://www.w3.org/1999/02/22-rdf-syntax-ns#" xmlns="http://www.w3.org/2000/svg" height="4646pt" width="2403pt" version="1.1" xmlns:cc="http://creativecommons.org/ns#" xmlns:xlink="http://www.w3.org/1999/xlink" viewBox="0 0 2403 4646" xmlns:dc="http://purl.org/dc/elements/1.1/">
<defs id="defs70">
<linearGradient id="linearGradient4214">
<stop id="stop4216" stop-color="#bbb9b9" offset="0"/>
<stop id="stop4218" stop-color="#6a6867" offset="1"/>
</linearGradient>
<linearGradient id="linearGradient4207" y2="3700.4" gradientUnits="userSpaceOnUse" x2="2967.6" y1="3872.6" x1="213.07">
<stop id="stop4203" stop-color="#a72825" offset="0"/>
<stop id="stop4211" stop-color="#eaa09e" offset=".16073"/>
<stop id="stop4209" stop-color="#c52f2c" offset=".55312"/>
<stop id="stop4205" stop-color="#a72825" offset="1"/>
</linearGradient>
<linearGradient id="linearGradient4220" y2="5625" xlink:href="#linearGradient4214" gradientUnits="userSpaceOnUse" x2="2257.4" y1="5625" x1="625.15"/>
<linearGradient id="linearGradient4229" y2="1841.4" xlink:href="#linearGradient4214" gradientUnits="userSpaceOnUse" x2="2942" y1="1841.4" x1="87.708"/>
<linearGradient id="linearGradient4241" y2="1284.2" xlink:href="#linearGradient4214" gradientUnits="userSpaceOnUse" x2="185.92" y1="1620.5" x1="2658.3"/>
<linearGradient id="linearGradient4250" y2="1435.2" xlink:href="#linearGradient4214" gradientUnits="userSpaceOnUse" x2="2789.1" y1="1435.2" x1="246.82"/>
<linearGradient id="linearGradient4261" y2="1434.6" xlink:href="#linearGradient4214" gradientUnits="userSpaceOnUse" x2="1098.6" y1="1428.9" x1="1474.8"/>
<linearGradient id="linearGradient4270" y2="1575.2" xlink:href="#linearGradient4214" gradientUnits="userSpaceOnUse" x2="700.37" y1="1577.1" x1="1138"/>
</defs>
<g id="g4316">
<path id="rect4312" d="m1983.7 23.078c-2.9607 0.0071-5.9532 0.15531-8.9719 0.45156-34.58 6.81-65.529 24.971-95.689 42.461-88.82 55.81-171.26 122.4-242.73 199.27-41.76 35.94-72.929 83.401-92.169 134.84-28.28 95.21-55.25 190.83-83.57 286.03-74.99-6.8-150.24-10.67-225.51-12.18-240.4-1.19-482.76 22.64-713.8 91.34-92.67 28.4-183.95 63.709-267.24 113.77-58.25 35.15-113.49 77.91-153.11 133.9-24.11 35.03-41.18 75.98-43.08 118.85-2.2 29.61-19.84 54.501-30.77 81.281-8.36 19.95-9.52 41.779-9.7 63.109-9.17 36.48-4.5397 74.83 6.4703 110.33 24.95 939.05 123.6 1876.7 297.7 2799.9 8.53 75.2 51.979 141.95 105.66 193.37 53.89 52.1 118.4 92.059 185.86 124.14 179.78 83.91 380.06 117.03 577.37 118.65 150.84 0.06 302.55-17.949 447.17-61.939 118.47-36.6 234.7-89.571 327.05-173.94 9.13-9.28 18.48-18.369 29.28-25.709 42.02-32.67 79.931-73.7 98.741-124.27 8.78-22.45 11.25-46.659 15.83-70.159 167.56-933.47 249.42-1880.6 282.23-2827.8 1.1-36.1 1.79-73.75-12.9-107.58-13.76-32.77-33.949-63.73-36.969-100.05-2.71-58.22-32.71-111.45-71.42-153.56-47.33-51.15-106.24-89.99-167.45-122.55-122.44-63.7-255.93-103.32-390.59-131.32-1.92-0.22-1.2594-1.9791-0.9094-3.1891 20.06-65.23 40.25-130.42 60.3-195.65 8.81-29.81 25-57.19 45.7-80.3 77.5-80.65 156.41-161.28 248.68-225.32 26.55-16.71 35.33-51.009 31.27-80.609-5.1564-57.473-52.619-115.66-112.82-115.51z" fill="#bf900f"/>
<path id="path4" d="m2479.6 28.848c-3.7 0.009-7.5 0.194-11.3 0.564-43.2 8.513-81.9 31.214-119.6 53.076-111 69.762-214 153-303.4 249.08-52.2 44.93-91.1 104.25-115.2 168.55-35.3 119.02-69 238.54-104.4 357.54-93.8-8.5-187.9-13.34-281.9-15.22-300.4-1.49-603.38 28.3-892.18 114.17-115.83 35.5-229.93 79.59-334.05 142.19-72.81 44-141.86 97.4-191.38 167.4-30.14 43.8-51.477 95-53.852 148.6-2.75 37-24.8 68.1-38.463 101.6-10.45 24.9-11.9 52.2-12.125 78.8-11.462 45.6-5.675 93.6 8.088 138 31.187 1173.8 154.5 2345.8 372.12 3499.8 10.67 94 64.98 177.4 132.08 241.7 67.36 65.1 148 115.1 232.32 155.2 224.73 104.9 475.04 146.3 721.74 148.3 188.5 0.1 378.2-22.4 558.9-77.4 148.1-45.8 293.4-112 408.8-217.5 11.5-11.6 23.1-22.9 36.6-32.1 52.6-40.8 100-92.1 123.5-155.3 10.9-28.1 14-58.3 19.8-87.7 209.4-1166.9 311.7-2350.8 352.7-3534.8 1.4-45.1 2.3-92.2-16.1-134.5-17.2-40.9-42.4-79.6-46.2-125-3.4-72.8-40.9-139.4-89.3-192-59.1-63.9-132.8-112.5-209.3-153.2-153-79.6-319.9-129.13-488.2-164.13-2.4-0.27-1.6-2.47-1.1-3.98 25-81.54 50.3-163.03 75.3-244.56 11-37.27 31.3-71.49 57.2-100.38 96.8-100.81 195.5-201.6 310.8-281.65 33.2-20.89 44.2-63.76 39.1-100.76-6.5-71.84-65.8-144.57-141-144.39zm12.1 42.431c13.6 0.141 25.5 9.142 35.1 18.209 26.5 26.792 42.5 63.442 46.9 100.69 3.7 23.18-1.9 50.94-23 64.29-106.1 65.18-195.1 154.08-275.4 248.29-35.7 34.25-70.1 70.75-95.1 113.74-68.2 240.88-145.2 479.4-218.4 718.9-1 5-6.3 6.7-10.3 8.7-47.6 22.8-96.3 44.9-148.3 55.4-30.5 5.4-63.9 9.1-93.1-3.4 85.3-291.3 170.6-582.55 256-873.76 26.3-73.73 72.4-139.73 128.6-193.91 111-111.22 246.9-195.73 391.1-256.64 2-0.37 3.9-0.531 5.9-0.511zm-977.7 790.32c102.4-0.07 204.8 4.35 306.9 13.28-9.5 33.07-18.4 66.45-29.3 99.11-175.1-13.24-351-15.71-526.3-3.56-197.3 13.8-394.39 43.17-584.45 99.17-116.29 35.2-231.75 78.9-333.36 146.6-76.73 51.6-154.11 123.9-163.96 221.1-8.58 79.2 40.3 149.8 95.08 201.6-72.23-56.5-136.08-138.4-136.96-234.1-0.9-85.2 50.74-160.3 111.35-215.6 106.38-94.8 239.08-152.8 372.46-198.75 209.83-69.55 429.74-104.57 649.74-120.57 79.5-5.47 159.1-8.23 238.8-8.28zm617.9 58.84c184.1 35.97 368.7 90.46 530.6 186.76 76 44.7 148.4 102.4 192.8 180 20.3 36.2 31.9 77.2 31.7 118.8-0.9 71.2-38 136.9-86.6 186.9-58.5 61.5-131.4 107.4-206.8 145-214.3 106.2-452.1 156.1-688.1 185.2-3 1.5-18.7 0.3-4.3-0.8 240.2-29.7 483.1-79.9 698.8-193.6 60-33.7 117.9-73.2 163.3-125.4 42.4-48.2 70.3-112.9 60.1-178-15.2-92.6-91.1-159.5-163.3-210.7-168.1-105.7-363.4-161.3-557.3-198.5 9-32.05 19.5-63.74 29.1-95.66zm-633.4 58.12c34.8-0.06 69.6 0.51 104.2 1.79 61.6-0.61 123.3 3.65 184.7 8.49-15.1 55.86-32.1 111.26-48 166.96-47.9 6.2-94.7 26.1-140.4 43.4-77.5 32.5-154.9 66.4-226.4 110.9-13.4 10.8-33.5 18.6-38 36.9-59-8.3-119.8-11-178.4 1.7-180.01 79.2-366.77 142-554.96 198.8-26.45 7.5-52.6 17-76.19 31.3-16.05 10.2-32.61 26-29.94 46.9 4.99 23.9 23.18 43.8 44.69 54.5 82.5 47.8 171.95 82.2 262.5 111.2 66.75 26.5 142.91 26.6 210.4 2.5 178.1-57.9 348.8-137.3 512.6-227.6 8.9-7.6 22.6-12.2 32.9-19.4 7.5-13 12-27.7 19.5-40.7 210.2-43.5 430.6-89.6 607.2-220.1 21.9-16.6 48.1-33.1 54.5-61.9 4.1-24.3-22.1-36-40.7-42.9-44.4-15.9-91.5-21.3-137.4-30.3 11.8-40.9 24.1-82 37.8-122.2 161.1 30.5 321.9 73.5 468.4 148.7 55.8 29.6 109.7 64.3 153.4 110.3 42.4 42.7 73.3 101.3 67.5 162.9-6.2 62.7-46.5 116.1-92.5 156.5-69.7 60.7-153.7 101.8-238.9 136-160.9 62.6-330.9 98.1-501.6 121-157.3 20.3-318.9 30.1-475.4 27-115.6 0.6-231.2-7.7-346.1-20.1-178.18-20.9-355.85-55-524.8-116.4-98.34-36.9-196.01-81.9-274.91-152.6-46.17-41.9-86.01-98.1-87.23-162.7-2.56-59.6 30.83-113.9 70.83-155.4 59.47-59.2 133.83-100.8 209.72-135.2 207.59-90.2 432.84-131.3 656.89-154.34 104.2-9.8 209.5-15.71 314.1-15.9zm-255.3 396.74c4.1 0 8.1 0.1 12.2 0.3 28.8 6.7 57.9 12.7 86.4 20.5-75.3-8.1-153.7-4.4-224.3 24.8-21.7 11.3-46.9 24.4-55 49.3-6.7 22.3 8.7 43 26 55.1 41.3 28.6 92.2 37.4 141.1 43.5 74.5 4.8 153.3 0.5 220.6-34.8 24-12 50.9-39.6 37.9-68.4-6.5-19.9-28.3-26.9-40.6-40.5 35.3 8.4 55.5 48.3 93.5 48.4 9 0.3 14.9 8.9 20.3 15.3-33.9 29.8-74.9 50.1-113.9 72.3-69.2 36.5-138.6 73.2-210 104.8-68 35.2-140.2 67.3-210.5 99.9-73.83 17.1-152.01 19.4-225.8 0.6-87.8-19.7-176.55-48.9-247.41-106.3-16.73-12.7-30.05-39-13.07-57 23.17-23.9 57.38-31.8 87.93-42 146.7-47.2 292.7-96.5 439.05-144.7 55.6-21.9 114.8-41.5 175.6-41.1zm40.9 24.2c48.2-0.2 96.4 5.9 141.4 23.7 22.7 10 50 23.3 54.7 50.4-65.2-59.5-162.3-60.7-245.4-58.5-46.7 4.7-97.3 14.3-139.6 38.8 33.4-36.4 86-44.3 132.5-51.8 18.6-1.6 37.5-2.6 56.4-2.6zm4.8 21.6c51.8 0.2 104.2 7.7 151.1 30.2 14.8 8.3 31.9 17.9 37.4 35-5.5 16.4-21.7 26.8-36.1 35-49.1 24.4-104.9 29.4-158.8 31.3-54.5-1-110.8-7.5-160-32.6-13.4-8.2-29.2-17.5-33.7-33.7 4.4-14.4 17.9-23.6 30.2-31.1 40.7-23 88.2-30 134.2-33.2 11.8-0.6 23.7-1 35.7-0.9zm1621.1 92.7c19.8 31.3 29.7 68.7 31.8 105.6 2.7 60.5-23.3 119-61.1 165.1-41.9 52.7-96.6 93.8-153.7 128.7-87.4 53.2-182.8 91.9-279.6 124.2-326.1 104.4-671.5 135.1-1012.4 131.3v-1.2c-191.4-2.6-382.8-21.7-570.75-58-179.89-36-359.27-86.1-521.63-173.4-81.68-45.3-161.83-100.6-213.98-179.7-40.591-60.5-54.815-141.1-25.1-209.1 42.61 79.7 113.28 139.9 188.02 188.6 126.19 80.8 268.19 133 411.75 173.3 236.01 64.2 480.69 92.2 724.79 98.5 354.1 4.6 714.6-32.9 1048.3-157.6 112.8-44 223.4-98.4 315.9-177.8 49.9-43.5 94.1-96 117.7-158.5zm-2009.9 10.6h-14.38c-67.58 2.7-137.93 11.9-197.33 46.5-28.77 16.2-58.9 47.8-45.48 83.6 15.74 34.8 52.09 53.4 86.07 66.5 101.77 35.3 214.58 35.7 318.03 7.3 41.5-13.8 88.9-32.1 107.8-74.8 12.7-35.1-16.8-66.2-44.9-82.2-63.2-36.2-137.76-46.6-209.81-46.9zm9.54 8.9c63.57 0 127.47 9.3 184.97 37.1 19.1 10.9 40.3 24.5 46.8 46.8-23.7-22.6-53.2-38.1-84.2-48.1-71.81-23.3-149.37-27.1-223.77-20.3-47.63 6.1-95.16 17.3-138.46 38.7 42.39-34.4 98.77-44.2 151.44-51.4 20.88-1.8 42.03-2.8 63.22-2.8zm-5.12 21.5c70.93-0.2 144.19 9.2 205.39 46.5 18.1 10.8 43.3 36.6 22.9 56.6-38.6 42-98.4 53.9-152.46 62.5-83.79 9.9-172.13 6-250.54-27.7-23.62-11.1-52.04-27.2-56.99-54.8 8.28-25.2 33.44-39.4 55.9-50.4 45.62-20.8 95.97-28.4 145.59-32 9.99-0.4 20.08-0.6 30.21-0.7zm2063.1 180.9c-43.6 1159.9-147.1 2320.6-374.4 3460.1-5.8 35.6-21.6 68.9-40.8 99.1-66.8 100.9-173.3 167.1-281.4 216.3-219.9 99.3-462.4 140.2-702.1 151.5-114 5.1-233.6 2.5-346.5-12.8-179-20-358.32-65.7-516.09-155-80.49-47.1-156.51-106.7-209.8-184-36.05-47.9-62.73-103.9-77.77-162.2-182.55-1108.3-295.36-2227.6-353.31-3349.2 35.43 52.7 85.13 94.2 134.43 132.2 212.89 141.9 466.38 209.8 716.24 253.1 114.7 18.8 230.4 32.7 346.5 39 241.6 16.2 484.8 7.3 724.9-23.6 187.7-27.9 378.6-68.2 557.3-137.9 127.5-50.7 254.2-114.5 349.9-215.1 30.9-31.8 55.8-73.7 72.9-111.5zm-2342.4 3762.9c227.29 143.5 500.95 186.9 764.95 201.7 292.8 8.8 590.7-22.4 867.3-122.9-54.4 31.1-112.8 55.3-171.5 77.2-222 79.8-461.3 108.6-696 92.6-128.4-6.5-255.8-29-379.5-63.9-136.87-40.3-272.72-95.5-385.25-184.7z" transform="scale(.8)" fill="#1f1b17"/>
<path id="path6" fill="#f8cb63" d="m1988.6 57.43c12.9-2.35 24 5.87 32.8 14.16 21.2 21.43 34.1 50.75 37.6 80.55 2.9 18.55-1.5 40.76-18.4 51.44-84.9 52.14-156.1 123.26-220.4 198.63-28.5 27.4-56 56.6-76.1 90.99-54.5 192.7-116.1 383.55-174.7 575.2-0.7 3.9-5 5.2-8.2 6.8-38 18.3-77 36-118.6 44.4-24.4 4.4-51.1 7.2-74.5-2.8 68.2-232.95 136.5-465.96 204.8-698.93 21-58.98 57.9-111.78 102.8-155.13 88.9-88.97 197.6-156.58 312.9-205.31m17.8 33.08c-8.7 55.33-47.2 100.07-83.7 140.2-40.8 40.84-86.8 78.16-140.6 100.41-27.3 11.24-57.9 17.44-86.8 8.78 28.9 20.54 59.9 45.65 69.8 82.01 19.7-8.77 35.5-24.22 52-37.85 73.4-66.58 140.7-140.07 219.7-200.33 12.6-32.76-1.8-75.88-30.4-93.22m-364.4 256.37c24.2 18.56 50.7 34.21 73.2 54.89 6.5 7.36 16.3 15.85 11.9 26.84-6.7 4.64-12.4 12.35-21.3 12.35-33.8 0.19-66.5-10.7-97.6-23.11 29.7 29.88 70.8 47.94 112.4 53.88 13.1-13.11 27.6-25.59 40.1-38.81-21.1-47.17-69.1-76.75-118.7-86.04m-8.2 104.32c8.3 16.48 11.7 34.78 13 53.03 2.4 64.13-9.5 127.74-24.8 189.74-29.5 112.6-70.2 223.18-129.2 323.83-19.9 33.2-42.7 65.6-72.7 90.2 48.5-5.6 100.8-14 137.7-48.3 54.2-191.52 109.7-382.86 163-574.59-31.4-3.14-61.3-15.7-87-33.91z"/>
<g>
<path id="path10" d="m1642 346.88c49.6 9.29 97.6 38.87 118.7 86.04-12.5 13.22-27 25.7-40.1 38.81-41.6-5.94-82.7-24-112.4-53.88 31.1 12.41 63.8 23.3 97.6 23.11 8.9 0 14.6-7.71 21.3-12.35 4.4-10.99-5.4-19.48-11.9-26.84-22.5-20.68-49-36.33-73.2-54.89z" fill="#796520"/>
<path id="path14" d="m1514 861.6c-79.7 0.05-159.3 2.81-238.8 8.28-220 16-439.91 51.02-649.74 120.57-133.38 45.95-266.08 103.95-372.46 198.75-60.61 55.3-112.25 130.4-111.35 215.6 0.88 95.7 64.73 177.6 136.96 234.1-54.78-51.8-103.66-122.4-95.08-201.6 9.85-97.2 87.23-169.5 163.96-221.1 101.61-67.7 217.07-111.4 333.36-146.6 190.06-56 387.15-85.37 584.45-99.17 175.3-12.15 351.2-9.68 526.3 3.56 10.9-32.66 19.8-66.04 29.3-99.11-102.1-8.93-204.5-13.35-306.9-13.28zm617.9 58.84c-9.6 31.92-20.1 63.61-29.1 95.66 193.9 37.2 389.2 92.8 557.3 198.5 72.2 51.2 148.1 118.1 163.3 210.7 10.2 65.1-17.7 129.8-60.1 178-45.4 52.2-103.3 91.7-163.3 125.4-215.7 113.7-458.6 163.9-698.8 193.6-14.4 1.1 1.3 2.3 4.3 0.8 236-29.1 473.8-79 688.1-185.2 1.3-1.9 2.5-3.9 3.8-5.9-1.3 2-2.5 4-3.8 5.9 75.4-37.6 148.3-83.5 206.8-145 48.6-50 85.7-115.7 86.6-186.9 0.2-41.6-11.4-82.6-31.7-118.8-44.4-77.6-116.8-135.3-192.8-180-161.9-96.3-346.5-150.79-530.6-186.76z" transform="scale(.8)" fill="url(#linearGradient4241)"/>
<path id="path20" d="m1498.5 978.56c-104.6 0.19-209.9 6.1-314.1 15.9-224.05 23.04-449.3 64.14-656.89 154.34-75.89 34.4-150.25 76-209.72 135.2-40 41.5-73.39 95.8-70.83 155.4 1.22 64.6 41.06 120.8 87.23 162.7 78.9 70.7 176.57 115.7 274.91 152.6 168.95 61.4 346.62 95.5 524.8 116.4 114.9 12.4 230.5 20.7 346.1 20.1 156.5 3.1 318.1-6.7 475.4-27 170.7-22.9 340.7-58.4 501.6-121 85.2-34.2 169.2-75.3 238.9-136 46-40.4 86.3-93.8 92.5-156.5 5.8-61.6-25.1-120.2-67.5-162.9-43.7-46-97.6-80.7-153.4-110.3-146.5-75.2-307.3-118.2-468.4-148.7-13.7 40.2-26 81.3-37.8 122.2 45.9 9 93 14.4 137.4 30.3 18.6 6.9 44.8 18.6 40.7 42.9-6.4 28.8-32.6 45.3-54.5 61.9-176.6 130.5-397 176.6-607.2 220.1-7.5 13-12 27.7-19.5 40.7-10.3 7.2-24 11.8-32.9 19.4-163.8 90.3-334.5 169.7-512.6 227.6-67.49 24.1-143.65 24-210.4-2.5-90.55-29-180-63.4-262.5-111.2-21.51-10.7-39.7-30.6-44.69-54.5-2.67-20.9 13.89-36.7 29.94-46.9 23.59-14.3 49.74-23.8 76.19-31.3 188.19-56.8 374.95-119.6 554.96-198.8 58.6-12.7 119.4-10 178.4-1.7 4.5-18.3 24.6-26.1 38-36.9 71.5-44.5 148.9-78.4 226.4-110.9 45.7-17.3 92.5-37.2 140.4-43.4 15.9-55.7 32.9-111.1 48-166.96-61.4-4.84-123.1-9.1-184.7-8.49-34.6-1.28-69.4-1.85-104.2-1.79zm-255.3 396.74c-60.8-0.4-120 19.2-175.6 41.1-146.35 48.2-292.35 97.5-439.05 144.7-30.55 10.2-64.76 18.1-87.93 42-16.98 18-3.66 44.3 13.07 57 70.86 57.4 159.61 86.6 247.41 106.3 73.79 18.8 151.97 16.5 225.8-0.6 70.3-32.6 142.5-64.7 210.5-99.9 71.4-31.6 140.8-68.3 210-104.8 39-22.2 80-42.5 113.9-72.3-5.4-6.4-11.3-15-20.3-15.3-38-0.1-58.2-40-93.5-48.4 12.3 13.6 34.1 20.6 40.6 40.5 13 28.8-13.9 56.4-37.9 68.4-67.3 35.3-146.1 39.6-220.6 34.8-48.9-6.1-99.8-14.9-141.1-43.5-17.3-12.1-32.7-32.8-26-55.1 8.1-24.9 33.3-38 55-49.3 70.6-29.2 149-32.9 224.3-24.8-28.5-7.8-57.6-13.8-86.4-20.5-4.1-0.2-8.1-0.3-12.2-0.3zm45.7 45.8c-12-0.1-23.9 0.3-35.7 0.9-46 3.2-93.5 10.2-134.2 33.2-12.3 7.5-25.8 16.7-30.2 31.1 4.5 16.2 20.3 25.5 33.7 33.7 49.2 25.1 105.5 31.6 160 32.6 53.9-1.9 109.7-6.9 158.8-31.3 14.4-8.2 30.6-18.6 36.1-35-5.5-17.1-22.6-26.7-37.4-35-46.9-22.5-99.3-30-151.1-30.2zm-388.81 103.3c72.05 0.3 146.61 10.7 209.81 46.9 28.1 16 57.6 47.1 44.9 82.2-18.9 42.7-66.3 61-107.8 74.8-103.45 28.4-216.26 28-318.03-7.3-33.98-13.1-70.33-31.7-86.07-66.5-13.42-35.8 16.71-67.4 45.48-83.6 59.4-34.6 129.75-43.8 197.33-46.5h14.38zm4.42 30.4c-10.13 0.1-20.22 0.3-30.21 0.7-49.62 3.6-99.97 11.2-145.59 32-22.46 11-47.62 25.2-55.9 50.4 4.95 27.6 33.37 43.7 56.99 54.8 78.41 33.7 166.75 37.6 250.54 27.7 54.06-8.6 113.86-20.5 152.46-62.5 20.4-20-4.8-45.8-22.9-56.6-61.2-37.3-134.46-46.7-205.39-46.5z" transform="scale(.8)" fill="url(#linearGradient4250)"/>
<path id="path30" d="m1284.1 1399.5c-18.9 0-37.8 1-56.4 2.6-46.5 7.5-99.1 15.4-132.5 51.8 40.1-23.2 87.8-33 132.5-38 1.9 0.7 4.3 0.6 7.1-0.8 83.1-2.2 180.2-1 245.4 58.5-4.7-27.1-32-40.4-54.7-50.4-45-17.8-93.2-23.9-141.4-23.7z" transform="scale(.8)" fill="url(#linearGradient4261)"/>
</g>
<path id="path40" d="m2910 1513.8c-23.6 62.5-67.8 115-117.7 158.5-92.5 79.4-203.1 133.8-315.9 177.8-324.6 121.3-674.4 160.1-1019.1 157.9-0.2 0-0.4 0-0.6-0.1-1 0-2 0-3 0.1-8.6-0.1-17.1-0.2-25.6-0.3-244.1-6.3-488.78-34.3-724.79-98.5-143.56-40.3-285.56-92.5-411.75-173.3-74.74-48.7-145.41-108.9-188.02-188.6-29.715 68-15.491 148.6 25.1 209.1 52.15 79.1 132.3 134.4 213.98 179.7 162.36 87.3 341.74 137.4 521.63 173.4 187.95 36.3 379.35 55.4 570.75 58v1.2c340.9 3.8 686.3-26.9 1012.4-131.3 96.8-32.3 192.2-71 279.6-124.2 57.1-34.9 111.8-76 153.7-128.7 37.8-46.1 63.8-104.6 61.1-165.1-2.1-36.9-12-74.3-31.8-105.6z" transform="scale(.8)" fill="url(#linearGradient4229)"/>
<g>
<path id="path44" d="m909.63 1533.3c-21.19 0-42.34 1-63.22 2.8-52.67 7.2-109.05 17-151.44 51.4 43.3-21.4 90.83-32.6 138.46-38.7 74.4-6.8 151.96-3 223.77 20.3 31 10 60.5 25.5 84.2 48.1-6.5-22.3-27.7-35.9-46.8-46.8-57.5-27.8-121.4-37.1-184.97-37.1z" transform="scale(.8)" fill="url(#linearGradient4270)"/>
<path id="path54" d="m2967.6 1735.7c-17.1 37.8-42 79.7-72.9 111.5-95.7 100.6-222.4 164.4-349.9 215.1-178.7 69.7-369.6 110-557.3 137.9-240.1 30.9-483.3 39.8-724.9 23.6-116.1-6.3-231.8-20.2-346.5-39-249.86-43.3-503.35-111.2-716.24-253.1-49.3-38-99-79.5-134.43-132.2 57.95 1121.6 170.76 2240.9 353.31 3349.2 15.04 58.3 41.72 114.3 77.77 162.2 53.29 77.3 129.31 136.9 209.8 184 157.77 89.3 337.09 135 516.09 155 111.3 15.1 229 17.8 341.5 13 1.4 0.2 3 0.2 5-0.2 239.7-11.3 482.2-52.2 702.1-151.5 108.1-49.2 214.6-115.4 281.4-216.3 19.2-30.2 35-63.5 40.8-99.1 227.3-1139.5 330.8-2300.2 374.4-3460.1z" transform="scale(.8)" fill="url(#linearGradient4207)"/>
<path id="path64" d="m625.15 5498.6c112.53 89.2 248.38 144.4 385.25 184.7 123.7 34.9 251.1 57.4 379.5 63.9 234.7 16 474-12.8 696-92.6 58.7-21.9 117.1-46.1 171.5-77.2-276.6 100.5-574.5 131.7-867.3 122.9-264-14.8-537.66-58.2-764.95-201.7z" transform="scale(.8)" fill="url(#linearGradient4220)"/>
</g>
</g>
</svg>
