<?xml version="1.0" encoding="iso-8859-1"?>
<!-- Uploaded to: SVG Repo, www.svgrepo.com, Generator: SVG Repo Mixer Tools -->
<svg height="800px" width="800px" version="1.1" id="Layer_1" xmlns="http://www.w3.org/2000/svg" xmlns:xlink="http://www.w3.org/1999/xlink" 
	 viewBox="0 0 512 512" xml:space="preserve">
<path style="fill:#8AE9FF;" d="M65.295,495.174c-34.544,0-60.515-31.416-54.134-65.367c12.885-68.564,46.017-131.639,96.424-182.044
	c55.69-55.691,126.85-90.294,203.789-99.803l-36.344-36.344c-21.212-21.212-22.511-55.772-1.889-77.557
	c21.395-22.603,57.072-22.972,78.936-1.11l133.601,133.601c21.499,21.499,21.499,56.356,0,77.857L352.076,378.009
	c-10.75,10.749-24.838,16.124-38.928,16.124c-14.486,0-28.972-5.682-39.828-17.045c-20.786-21.757-19.595-56.44,1.682-77.718
	l40.756-40.756c-99.083,16.38-177.87,93.704-196.407,192.05C114.47,476.554,91.639,495.174,65.295,495.174L65.295,495.174z"/>
<g>
	<path style="fill:#248A9C;" d="M65.295,505.373c-19.481,0-37.787-8.599-50.224-23.591C2.607,466.757-2.472,447.126,1.136,427.924
		c13.345-71.006,47.661-135.798,99.236-187.372c52.446-52.447,117.619-86.639,189.527-99.638l-22.083-22.083
		c-12.161-12.161-19.127-28.314-19.615-45.486c-0.495-17.389,5.731-33.829,17.531-46.295c12.231-12.922,28.75-20.172,46.513-20.417
		c0.308-0.004,0.618-0.006,0.926-0.006c17.425,0,33.768,6.765,46.115,19.112l133.602,133.601
		c12.324,12.325,19.112,28.71,19.112,46.14s-6.788,33.816-19.112,46.141L359.287,385.221c-12.325,12.324-28.711,19.111-46.14,19.111
		c-17.996,0-34.759-7.173-47.203-20.199c-24.282-25.417-23.454-66.676,1.844-91.976l14.886-14.886
		c-78.044,25.972-137.76,92.82-153.301,175.281C123.604,483.159,96.655,505.373,65.295,505.373z M313.162,27.026
		c-0.212,0-0.424,0.002-0.636,0.005c-12.21,0.167-23.567,5.155-31.979,14.041c-16.527,17.46-15.767,45.873,1.695,63.334
		l36.344,36.344c2.756,2.757,3.7,6.843,2.433,10.529c-1.268,3.686-4.525,6.328-8.394,6.806
		c-75.346,9.311-143.753,42.816-197.828,96.892c-48.66,48.656-81.03,109.763-93.613,176.713c-2.485,13.218,1.01,26.728,9.586,37.067
		c8.549,10.305,21.133,16.216,34.524,16.216c21.56,0,40.078-15.224,44.032-36.197C128.684,346.064,210.973,265.6,314.092,248.553
		c4.37-0.719,8.711,1.461,10.735,5.402c2.026,3.942,1.274,8.74-1.859,11.874l-40.756,40.756
		c-17.525,17.526-18.206,45.993-1.519,63.459c8.558,8.958,20.084,13.892,32.453,13.892c11.98,0,23.244-4.665,31.716-13.137
		l133.601-133.601c8.473-8.473,13.138-19.736,13.138-31.717c0-11.98-4.665-23.244-13.137-31.716L344.863,40.163
		C336.375,31.677,325.14,27.026,313.162,27.026z"/>
	<path style="fill:#248A9C;" d="M390.809,300.872c-2.611,0-5.22-0.996-7.212-2.987c-3.983-3.983-3.983-10.441,0-14.425
		l74.149-74.148c3.983-3.981,10.44-3.981,14.424,0c3.983,3.983,3.983,10.441,0,14.425l-74.149,74.148
		C396.03,299.876,393.419,300.872,390.809,300.872z"/>
	<path style="fill:#248A9C;" d="M360.03,331.476c-2.61,0-5.221-0.996-7.212-2.987c-3.983-3.983-3.983-10.441,0-14.425l5.665-5.665
		c3.983-3.982,10.441-3.982,14.425,0c3.983,3.983,3.983,10.441,0,14.425l-5.665,5.665
		C365.251,330.479,362.64,331.476,360.03,331.476z"/>
</g>
</svg>